<svg xmlns="http://www.w3.org/2000/svg" viewBox="0 0 953.50398 1066.667">
  <path fill="#007cf7" d="M 7041.9483 3071.9899 C 7025.5645 3071.9899 7009.1747 3067.8949 6996.8897 3059.6998 L 6079.4287 2527.1852 C 6054.8487 2510.7952 6030.2832 2478.0411 6030.2832 2445.2711 L 6030.2832 1388.4303 C 6030.2832 1355.6606 6046.6587 1322.892 6079.4287 1306.5016 C 6095.8087 1298.3116 6112.1943 1298.3131 6128.5742 1298.3131 C 6144.9642 1298.3131 6161.3444 1306.5042 6177.7344 1314.7047 L 7095.1954 1847.2047 C 7119.7653 1863.5847 7144.3409 1896.3635 7144.3409 1929.1334 L 7144.3409 2977.7858 C 7136.1409 3010.5557 7119.7669 3043.3199 7087.0069 3059.6998 C 7074.7169 3067.8949 7058.332 3071.9899 7041.9483 3071.9899 z" transform="matrix(.13333 0 0 -.13333 -266.667 1226.667)"/>
  <path fill="#ff9600" d="M 3404.8584 7946.5359 C 3388.4746 7946.5359 3372.0994 7942.4408 3359.8144 7934.2459 L 2425.9618 7401.7458 C 2393.2019 7385.3659 2376.8163 7352.5871 2376.8163 7319.8171 C 2376.8163 7287.0472 2393.2034 7254.2784 2417.7734 7237.8884 L 3368.0029 6688.9968 C 3384.3829 6680.8068 3400.7684 6672.6052 3417.1484 6672.6052 C 3433.5284 6672.6052 3449.9139 6680.8068 3466.2939 6688.9968 L 4400.1465 7229.6999 C 4424.7264 7246.0799 4441.1035 7278.8487 4441.1035 7311.6287 C 4441.1035 7344.3886 4424.7133 7377.1673 4391.9433 7393.5574 L 3449.917 7934.2459 C 3437.627 7942.4408 3421.2421 7946.5359 3404.8584 7946.5359 z" transform="matrix(.13333 0 0 -.13333 -266.667 1226.667)"/>
  <path fill="#fff" d="M 2094.204 6619.3581 C 2077.8215 6619.3581 2061.4354 6615.2581 2049.1454 6607.0681 C 2024.5655 6590.6781 1999.9999 6557.9093 1999.9999 6525.1394 L 1999.9999 3076.0914 C 1999.9999 3043.3214 2016.3755 3010.5527 2049.1454 2994.1627 L 5153.7647 1208.1959 C 5170.1546 1200.0059 5186.5448 1199.9928 5202.9248 1199.9928 C 5219.3048 1199.9928 5235.6903 1208.1839 5252.0703 1216.3844 C 5276.6503 1232.7644 5301.2158 1265.5434 5301.2158 1298.3131 L 5301.2158 2363.3424 C 5293.0258 2387.9224 5276.6519 2420.688 5243.8818 2437.068 L 3114.0576 3674.1432 L 3114.0576 5992.6247 C 3114.0576 6025.3947 3097.682 6058.1734 3064.9121 6074.5534 L 2139.2626 6607.0681 C 2126.9726 6615.2581 2110.5865 6619.3581 2094.204 6619.3581 z" transform="matrix(.13333 0 0 -.13333 -266.667 1226.667)"/>
  <path fill="#fff" d="M 4797.4414 6660.3152 C 4781.0577 6660.3152 4764.6728 6656.2151 4752.3828 6648.0251 L 3826.7334 6115.5251 C 3793.9634 6099.1352 3777.5732 6066.3663 3777.5732 6033.5964 L 3777.5732 4116.5407 C 3777.5732 4083.7707 3793.9634 4051.0019 3826.7334 4034.612 L 5522.3926 3051.5114 C 5538.7826 3043.3214 5555.1628 3043.3229 5571.5527 3043.3229 C 5587.9327 3043.3229 5604.3082 3051.5099 5620.6983 3059.6998 L 6513.5791 3567.6344 C 6546.3491 3592.2145 6562.7246 3624.9963 6562.7246 3657.7663 C 6562.7246 3690.5363 6546.3491 3723.3003 6513.5791 3739.6803 L 4883.457 4673.6354 L 4891.6455 6566.1111 C 4891.6455 6598.8811 4875.2553 6631.6352 4842.4853 6648.0251 C 4830.2004 6656.2151 4813.8251 6660.3152 4797.4414 6660.3152 z" transform="matrix(.13333 0 0 -.13333 -266.667 1226.667)"/>
  <path fill="#fff" d="M 5575.6397 9200.0027 C 5559.2559 9200.0027 5542.8807 9195.9077 5530.5957 9187.7127 L 4604.9316 8655.198 C 4580.3617 8638.808 4555.7861 8606.0393 4555.7861 8573.2693 C 4555.7861 8540.4994 4572.1717 8507.7352 4604.9316 8491.3553 L 8045.4102 6508.7478 L 8037.2218 2543.5768 C 8037.2218 2510.8068 8053.6073 2478.038 8086.3673 2461.6481 C 8102.7472 2453.4581 8119.1328 2445.2711 8135.5128 2445.2711 C 8151.9028 2445.2711 8168.2945 2445.2696 8176.4845 2453.4596 L 9102.1339 2985.9743 C 9134.9039 3002.3642 9151.2794 3035.1284 9151.2794 3067.8883 L 9151.2794 7082.2341 C 9143.0894 7131.3941 9126.7154 7164.1598 9093.9454 7180.5398 L 5620.6983 9187.7127 C 5608.4082 9195.9077 5592.0234 9200.0027 5575.6397 9200.0027 z" transform="matrix(.13333 0 0 -.13333 -266.667 1226.667)"/>
</svg>
