<svg width="11" height="12" viewBox="0 0 11 12" fill="none" xmlns="http://www.w3.org/2000/svg">
<path d="M2.05859 6.91818C2.05859 5.71877 2.05859 4.51551 2.05859 3.3161C2.05859 2.43192 2.64448 1.84375 3.53102 1.84375C5.31952 1.84375 7.10802 1.84375 8.89652 1.84375C9.78306 1.84375 10.369 2.42808 10.369 3.3161C10.369 5.71877 10.369 8.12143 10.369 10.5241C10.369 11.4083 9.78306 11.9964 8.89652 11.9964C7.10802 11.9964 5.31952 11.9964 3.53102 11.9964C2.64448 11.9964 2.05859 11.4121 2.05859 10.5241C2.05859 9.32084 2.05859 8.11759 2.05859 6.91818ZM9.44387 6.93355C9.44387 5.72261 9.44387 4.51167 9.44387 3.30073C9.44387 2.94705 9.26656 2.76637 8.91194 2.76637C7.11188 2.76637 5.31567 2.76637 3.5156 2.76637C3.15328 2.76637 2.97983 2.94321 2.97983 3.30841C2.97983 5.71492 2.97983 8.12143 2.97983 10.5318C2.97983 10.8931 3.15713 11.0738 3.5156 11.0738C5.30796 11.0738 7.10417 11.0738 8.89652 11.0738C9.27041 11.0738 9.44001 10.9008 9.44001 10.5241C9.44772 9.32469 9.44387 8.12912 9.44387 6.93355Z" fill="currentcolor"/>
<path d="M0.210938 4.10952C0.210938 3.22534 0.210938 2.34116 0.210938 1.45698C0.210938 0.592017 0.80068 0 1.66795 0C3.16736 0 4.66677 0 6.17004 0C6.53236 0 6.76749 0.311385 6.64414 0.626615C6.57476 0.803451 6.40902 0.918779 6.20473 0.922623C5.86938 0.926467 5.53018 0.922623 5.19484 0.922623C4.02306 0.922623 2.84743 0.922623 1.67566 0.922623C1.30948 0.922623 1.13602 1.09561 1.13602 1.46082C1.13602 3.2484 1.13602 5.03598 1.13602 6.82357C1.13602 6.88892 1.13602 6.95812 1.12446 7.02347C1.07435 7.25028 0.858498 7.40021 0.631081 7.37714C0.399809 7.35407 0.218647 7.16186 0.214792 6.91967C0.210938 6.31997 0.214792 5.72026 0.214792 5.11671C0.210938 4.78226 0.210938 4.44781 0.210938 4.10952Z" fill="currentcolor"/>
</svg>
