<svg width="17" height="17" viewBox="0 0 17 17" fill="none" xmlns="http://www.w3.org/2000/svg">
<path d="M7.38867 6.60352H9.08984C10.1367 6.60352 10.1367 7.65039 9.08984 7.65039H7.38867V6.60352ZM3.33203 11.4453H8.56641V10.0059H7.38867V8.95898H8.69727C10.1367 8.95898 9.35156 11.4453 10.5293 11.4453H13.8008V8.95898H13.0156V9.2207C13.0156 10.2676 11.8379 10.1367 11.707 9.48242C11.5762 8.82813 11.0527 8.30469 10.9219 8.30469C12.8848 7.25781 11.707 5.16406 10.1367 5.16406H3.98633V6.60352H5.29492V10.0059H3.33203V11.4453Z" fill="black"/>
<path fill-rule="evenodd" clip-rule="evenodd" d="M3.91992 5.15918C3.91992 5.12304 3.94922 5.09375 3.98535 5.09375H10.1357C10.9492 5.09375 11.66 5.63508 11.9145 6.31394C12.0423 6.65477 12.0557 7.03182 11.9077 7.39229C11.7709 7.72518 11.4988 8.03855 11.0631 8.2951C11.0823 8.30877 11.1023 8.32452 11.1228 8.34203C11.1964 8.40479 11.2813 8.49415 11.3653 8.60342C11.5332 8.82165 11.7023 9.12515 11.7702 9.46471C11.8279 9.75329 12.1203 9.93432 12.406 9.91928C12.5464 9.91189 12.6806 9.8568 12.78 9.74656C12.8793 9.6364 12.9492 9.46515 12.9492 9.21582V8.9541C12.9492 8.91797 12.9785 8.88867 13.0146 8.88867H13.7998C13.8359 8.88867 13.8652 8.91797 13.8652 8.9541V11.4404C13.8652 11.4766 13.8359 11.5059 13.7998 11.5059H10.5283C10.3687 11.5059 10.2385 11.4635 10.1322 11.3866C10.0268 11.3104 9.94916 11.2035 9.88891 11.0808C9.78197 10.8631 9.72355 10.5818 9.66603 10.3047C9.65951 10.2733 9.65299 10.242 9.64642 10.2107C9.58066 9.89834 9.50885 9.59915 9.36888 9.37753C9.29972 9.26803 9.21494 9.17932 9.10744 9.1177C9.0001 9.05616 8.86646 9.01953 8.69629 9.01953H7.45313V9.93555H8.56543C8.60157 9.93555 8.63086 9.96484 8.63086 10.001V11.4404C8.63086 11.4766 8.60157 11.5059 8.56543 11.5059H3.33105C3.29492 11.5059 3.26562 11.4766 3.26562 11.4404V10.001C3.26562 9.96484 3.29492 9.93555 3.33105 9.93555H5.22852V6.66406H3.98535C3.94922 6.66406 3.91992 6.63477 3.91992 6.59863V5.15918ZM4.05078 5.22461V6.5332H5.29395C5.33008 6.5332 5.35938 6.5625 5.35938 6.59863V10.001C5.35938 10.0371 5.33008 10.0664 5.29395 10.0664H3.39648V11.375H8.5V10.0664H7.3877C7.35156 10.0664 7.32227 10.0371 7.32227 10.001V8.9541C7.32227 8.91797 7.35156 8.88867 7.3877 8.88867H8.69629C8.88598 8.88867 9.04269 8.92974 9.17253 9.00417C9.30221 9.07852 9.40146 9.18406 9.47952 9.30765C9.63398 9.55222 9.70939 9.8746 9.77448 10.1838C9.78101 10.2148 9.78743 10.2457 9.79381 10.2763C9.8523 10.5573 9.90724 10.8213 10.0064 11.0231C10.0606 11.1335 10.1261 11.2208 10.2088 11.2806C10.2906 11.3397 10.3935 11.375 10.5283 11.375H13.7344V9.01953H13.0801V9.21582C13.0801 9.48993 13.0028 9.69489 12.8772 9.83419C12.7517 9.9734 12.5833 10.041 12.4129 10.05C12.077 10.0676 11.715 9.85608 11.6419 9.49037C11.5789 9.17563 11.4209 8.89026 11.2616 8.6832C11.1821 8.57983 11.1034 8.49743 11.0379 8.4416C11.0051 8.4136 10.9767 8.39325 10.9542 8.38028C10.9338 8.36854 10.9234 8.36594 10.9212 8.36538C10.9207 8.36526 10.9206 8.36523 10.9209 8.36523C10.8909 8.36523 10.8647 8.3448 10.8574 8.31567C10.8501 8.28655 10.8636 8.2562 10.8901 8.24207C11.3704 7.98594 11.6525 7.66918 11.7866 7.34257C11.9207 7.01603 11.9096 6.67336 11.792 6.35989C11.5559 5.73016 10.8926 5.22461 10.1357 5.22461H4.05078ZM7.32227 6.59863C7.32227 6.5625 7.35156 6.5332 7.3877 6.5332H9.08887C9.62975 6.5332 9.93945 6.80801 9.93945 7.12207C9.93945 7.43613 9.62975 7.71094 9.08887 7.71094H7.3877C7.35156 7.71094 7.32227 7.68164 7.32227 7.64551V6.59863ZM7.45313 6.66406V7.58008H9.08887C9.59486 7.58008 9.80859 7.33145 9.80859 7.12207C9.80859 6.9127 9.59486 6.66406 9.08887 6.66406H7.45313Z" fill="black"/>
<path fill-rule="evenodd" clip-rule="evenodd" d="M8.50098 3.4668C5.71852 3.4668 3.46289 5.72242 3.46289 8.50488C3.46289 11.2873 5.71852 13.543 8.50098 13.543C11.2834 13.543 13.5391 11.2873 13.5391 8.50488C13.5391 5.72242 11.2834 3.4668 8.50098 3.4668ZM2.28516 8.50488C2.28516 5.07198 5.06807 2.28906 8.50098 2.28906C11.9339 2.28906 14.7168 5.07198 14.7168 8.50488C14.7168 11.9378 11.9339 14.7207 8.50098 14.7207C5.06807 14.7207 2.28516 11.9378 2.28516 8.50488Z" fill="black"/>
<path d="M14.5215 8.89453L15.1758 8.50195L14.5215 8.10938V8.89453Z" fill="black"/>
<path fill-rule="evenodd" clip-rule="evenodd" d="M14.4238 7.93954C14.4853 7.9047 14.5609 7.90565 14.6215 7.94204L15.2758 8.33461C15.3349 8.37009 15.3711 8.43398 15.3711 8.50293C15.3711 8.57188 15.3349 8.63577 15.2758 8.67125L14.6215 9.06382C14.5609 9.10021 14.4853 9.10116 14.4238 9.06632C14.3623 9.03148 14.3242 8.96623 14.3242 8.89551V8.11035C14.3242 8.03963 14.3623 7.97438 14.4238 7.93954ZM14.7168 8.45704V8.54882L14.7933 8.50293L14.7168 8.45704Z" fill="black"/>
<path d="M14.3292 10.0591L15.0476 9.80174L14.4824 9.28906L14.3292 10.0591Z" fill="black"/>
<path fill-rule="evenodd" clip-rule="evenodd" d="M14.4208 9.10692C14.488 9.08475 14.5619 9.10042 14.6142 9.14793L15.1794 9.66061C15.2304 9.70694 15.2535 9.77666 15.24 9.84429C15.2266 9.91191 15.1786 9.96752 15.1137 9.99078L14.3954 10.2482C14.3288 10.272 14.2546 10.2582 14.201 10.212C14.1474 10.1659 14.1229 10.0944 14.1367 10.0251L14.2898 9.25502C14.3036 9.18566 14.3537 9.12908 14.4208 9.10692ZM14.6072 9.67163L14.5893 9.76165L14.6733 9.73156L14.6072 9.67163Z" fill="black"/>
<path d="M13.9124 11.1629L14.6671 11.0506L14.2129 10.4375L13.9124 11.1629Z" fill="black"/>
<path fill-rule="evenodd" clip-rule="evenodd" d="M14.1877 10.2491C14.2579 10.2405 14.3273 10.2703 14.3694 10.3271L14.8237 10.9402C14.8647 10.9956 14.8737 11.0685 14.8473 11.1322C14.8209 11.1959 14.763 11.2411 14.6948 11.2512L13.9401 11.3635C13.8702 11.3739 13.8 11.3459 13.7565 11.2902C13.713 11.2344 13.7028 11.1596 13.7299 11.0942L14.0304 10.3688C14.0574 10.3035 14.1175 10.2578 14.1877 10.2491ZM14.2604 10.8394L14.2253 10.9242L14.3135 10.911L14.2604 10.8394Z" fill="black"/>
<path d="M13.2884 12.1685L14.0505 12.2055L13.7246 11.5156L13.2884 12.1685Z" fill="black"/>
<path fill-rule="evenodd" clip-rule="evenodd" d="M13.7386 11.3187C13.8091 11.3239 13.8714 11.3667 13.9016 11.4306L14.2275 12.1205C14.2569 12.1829 14.2515 12.2561 14.2132 12.3134C14.1749 12.3708 14.1093 12.4038 14.0405 12.4004L13.2783 12.3633C13.2077 12.3599 13.1444 12.3187 13.1126 12.2556C13.0807 12.1924 13.0854 12.117 13.1247 12.0582L13.5609 11.4054C13.6002 11.3466 13.668 11.3135 13.7386 11.3187ZM13.6947 11.9118L13.6437 11.9881L13.7328 11.9924L13.6947 11.9118Z" fill="black"/>
<path d="M12.48 13.0318L13.2202 13.2168L13.0352 12.4766L12.48 13.0318Z" fill="black"/>
<path fill-rule="evenodd" clip-rule="evenodd" d="M13.0876 12.2837C13.1557 12.3026 13.2084 12.3567 13.2256 12.4253L13.4106 13.1656C13.4274 13.2324 13.4078 13.3032 13.359 13.352C13.3103 13.4007 13.2395 13.4203 13.1726 13.4036L12.4324 13.2185C12.3638 13.2014 12.3097 13.1486 12.2908 13.0805C12.2719 13.0123 12.2912 12.9393 12.3412 12.8893L12.8964 12.3341C12.9464 12.2841 13.0194 12.2649 13.0876 12.2837ZM12.9288 12.8568L12.8639 12.9218L12.9504 12.9434L12.9288 12.8568Z" fill="black"/>
<path d="M11.519 13.7253L12.209 14.0512L12.1719 13.2891L11.519 13.7253Z" fill="black"/>
<path fill-rule="evenodd" clip-rule="evenodd" d="M12.2627 13.1126C12.3258 13.1444 12.367 13.2077 12.3704 13.2783L12.4075 14.0405C12.4109 14.1093 12.3778 14.1749 12.3205 14.2132C12.2632 14.2515 12.19 14.257 12.1276 14.2275L11.4377 13.9016C11.3737 13.8714 11.331 13.8091 11.3258 13.7386C11.3206 13.6681 11.3537 13.6002 11.4125 13.5609L12.0653 13.1247C12.1241 13.0854 12.1995 13.0808 12.2627 13.1126ZM11.9952 13.6437L11.9188 13.6947L11.9995 13.7328L11.9952 13.6437Z" fill="black"/>
<path d="M10.4426 14.2145L11.0557 14.6688L11.168 13.9141L10.4426 14.2145Z" fill="black"/>
<path fill-rule="evenodd" clip-rule="evenodd" d="M11.288 13.758C11.3437 13.8015 11.3718 13.8717 11.3614 13.9416L11.2491 14.6963C11.2389 14.7645 11.1937 14.8224 11.13 14.8488C11.0663 14.8752 10.9934 14.8662 10.938 14.8252L10.325 14.3709C10.2681 14.3288 10.2384 14.2594 10.247 14.1892C10.2556 14.119 10.3014 14.0589 10.3667 14.0318L11.0921 13.7314C11.1574 13.7043 11.2323 13.7145 11.288 13.758ZM10.922 14.2267L10.8372 14.2619L10.9089 14.315L10.922 14.2267Z" fill="black"/>
<path d="M9.29243 14.4813L9.80511 15.0464L10.0625 14.3281L9.29243 14.4813Z" fill="black"/>
<path fill-rule="evenodd" clip-rule="evenodd" d="M10.2093 14.2042C10.2555 14.2578 10.2693 14.332 10.2454 14.3986L9.98802 15.1169C9.96476 15.1818 9.90915 15.2298 9.84153 15.2432C9.7739 15.2567 9.70418 15.2336 9.65785 15.1826L9.14517 14.6174C9.09766 14.5651 9.08199 14.4912 9.10415 14.424C9.12632 14.3569 9.1829 14.3068 9.25226 14.293L10.0223 14.1399C10.0917 14.1261 10.1631 14.1506 10.2093 14.2042ZM9.75889 14.5925L9.66887 14.6104L9.7288 14.6765L9.75889 14.5925Z" fill="black"/>
<path d="M8.10937 14.5156L8.50195 15.1699L8.89453 14.5156H8.10937Z" fill="black"/>
<path fill-rule="evenodd" clip-rule="evenodd" d="M9.06437 14.4199C9.09921 14.4814 9.09825 14.557 9.06187 14.6176L8.66929 15.2719C8.63382 15.331 8.56993 15.3672 8.50098 15.3672C8.43203 15.3672 8.36813 15.331 8.33266 15.2719L7.94008 14.6176C7.9037 14.557 7.90275 14.4814 7.93759 14.4199C7.97243 14.3584 8.03768 14.3203 8.1084 14.3203H8.89355C8.96427 14.3203 9.02952 14.3584 9.06437 14.4199ZM8.54687 14.7129H8.45508L8.50098 14.7894L8.54687 14.7129Z" fill="black"/>
<path d="M6.94282 14.3312L7.20021 15.0495L7.71289 14.4844L6.94282 14.3312Z" fill="black"/>
<path fill-rule="evenodd" clip-rule="evenodd" d="M7.89894 14.4208C7.92111 14.488 7.90544 14.5619 7.85793 14.6142L7.34525 15.1794C7.29892 15.2304 7.2292 15.2535 7.16157 15.24C7.09395 15.2266 7.03834 15.1786 7.01508 15.1137L6.75769 14.3954C6.73384 14.3288 6.74764 14.2546 6.79382 14.201C6.84 14.1474 6.91141 14.1229 6.98077 14.1367L7.75084 14.2898C7.8202 14.3036 7.87678 14.3537 7.89894 14.4208ZM7.33423 14.6072L7.24421 14.5893L7.2743 14.6733L7.33423 14.6072Z" fill="black"/>
<path d="M5.83516 13.9183L5.94746 14.673L6.56055 14.2188L5.83516 13.9183Z" fill="black"/>
<path fill-rule="evenodd" clip-rule="evenodd" d="M6.75476 14.1916C6.7634 14.2618 6.73362 14.3312 6.6768 14.3733L6.06372 14.8276C6.00832 14.8686 5.93544 14.8776 5.87174 14.8512C5.80804 14.8248 5.76286 14.767 5.75271 14.6988L5.6404 13.944C5.62999 13.8741 5.65801 13.8039 5.71375 13.7604C5.76949 13.7169 5.84433 13.7067 5.90967 13.7338L6.63506 14.0343C6.70039 14.0613 6.74612 14.1214 6.75476 14.1916ZM6.16453 14.2643L6.07973 14.2292L6.09286 14.3174L6.16453 14.2643Z" fill="black"/>
<path d="M4.83154 13.2904L4.79445 14.0525L5.48438 13.7266L4.83154 13.2904Z" fill="black"/>
<path fill-rule="evenodd" clip-rule="evenodd" d="M5.67935 13.7405C5.67413 13.811 5.63138 13.8733 5.56744 13.9035L4.87752 14.2294C4.81517 14.2589 4.74195 14.2535 4.68462 14.2152C4.62729 14.1769 4.59427 14.1113 4.59762 14.0424L4.63471 13.2803C4.63815 13.2096 4.67931 13.1463 4.74247 13.1145C4.80563 13.0827 4.88102 13.0873 4.93982 13.1266L5.59265 13.5628C5.65145 13.6021 5.68457 13.67 5.67935 13.7405ZM5.08629 13.6966L5.00997 13.6456L5.00563 13.7347L5.08629 13.6966Z" fill="black"/>
<path d="M3.96825 12.4761L3.78319 13.2163L4.52344 13.0312L3.96825 12.4761Z" fill="black"/>
<path fill-rule="evenodd" clip-rule="evenodd" d="M4.71235 13.0836C4.69348 13.1518 4.6394 13.2045 4.57079 13.2217L3.83054 13.4067C3.76365 13.4235 3.69289 13.4039 3.64414 13.3551C3.59538 13.3064 3.57578 13.2356 3.59251 13.1687L3.77757 12.4285C3.79472 12.3598 3.84745 12.3058 3.9156 12.2869C3.98375 12.268 4.05679 12.2873 4.10679 12.3373L4.66198 12.8925C4.71199 12.9425 4.73123 13.0155 4.71235 13.0836ZM4.13925 12.9249L4.07434 12.86L4.05271 12.9465L4.13925 12.9249Z" fill="black"/>
<path d="M3.27668 11.519L2.95076 12.209L3.71289 12.1719L3.27668 11.519Z" fill="black"/>
<path fill-rule="evenodd" clip-rule="evenodd" d="M3.88938 12.2607C3.85757 12.3239 3.79424 12.365 3.72361 12.3685L2.96148 12.4056C2.89261 12.4089 2.82703 12.3759 2.78873 12.3185C2.75042 12.2612 2.745 12.188 2.77445 12.1257L3.10038 11.4357C3.13058 11.3718 3.19285 11.329 3.26337 11.3238C3.3339 11.3186 3.40178 11.3517 3.44107 11.4105L3.87728 12.0634C3.91656 12.1222 3.92119 12.1975 3.88938 12.2607ZM3.35825 11.9932L3.30726 11.9169L3.26915 11.9975L3.35825 11.9932Z" fill="black"/>
<path d="M2.78938 10.4465L2.33512 11.0596L3.08984 11.1719L2.78938 10.4465Z" fill="black"/>
<path fill-rule="evenodd" clip-rule="evenodd" d="M3.24396 11.2958C3.20043 11.3516 3.1303 11.3796 3.06035 11.3692L2.30562 11.2569C2.23743 11.2467 2.17955 11.2015 2.15317 11.1378C2.12678 11.0741 2.13575 11.0013 2.1768 10.9459L2.63106 10.3328C2.67316 10.276 2.74257 10.2462 2.81276 10.2548C2.88294 10.2635 2.94306 10.3092 2.97012 10.3745L3.27059 11.0999C3.29765 11.1652 3.28748 11.2401 3.24396 11.2958ZM2.77522 10.9298L2.7401 10.845L2.68699 10.9167L2.77522 10.9298Z" fill="black"/>
<path d="M2.52065 9.29243L1.95552 9.80511L2.67383 10.0625L2.52065 9.29243Z" fill="black"/>
<path fill-rule="evenodd" clip-rule="evenodd" d="M2.80362 10.2054C2.75006 10.2516 2.6758 10.2654 2.60923 10.2415L1.89091 9.98411C1.82601 9.96085 1.77806 9.90524 1.76461 9.83762C1.75116 9.77 1.77417 9.70027 1.82524 9.65395L2.39038 9.14126C2.44275 9.09375 2.51664 9.07808 2.58379 9.10025C2.65094 9.12242 2.70098 9.17899 2.71478 9.24835L2.86796 10.0184C2.88175 10.0878 2.85717 10.1592 2.80362 10.2054ZM2.41529 9.75499L2.39738 9.66496L2.33131 9.7249L2.41529 9.75499Z" fill="black"/>
<path d="M2.48242 8.11328L1.82812 8.50586L2.48242 8.89844V8.11328Z" fill="black"/>
<path fill-rule="evenodd" clip-rule="evenodd" d="M2.57816 9.06046C2.51662 9.0953 2.4411 9.09435 2.38046 9.05796L1.72616 8.66539C1.66704 8.62991 1.63086 8.56602 1.63086 8.49707C1.63086 8.42812 1.66704 8.36423 1.72616 8.32875L2.38046 7.93618C2.4411 7.89979 2.51662 7.89884 2.57816 7.93368C2.6397 7.96852 2.67773 8.03377 2.67773 8.10449V8.88965C2.67773 8.96037 2.6397 9.02562 2.57816 9.06046ZM2.28516 8.54296V8.45118L2.20867 8.49707L2.28516 8.54296Z" fill="black"/>
<path d="M2.67466 6.94087L1.95635 7.19826L2.52148 7.71094L2.67466 6.94087Z" fill="black"/>
<path fill-rule="evenodd" clip-rule="evenodd" d="M2.58309 7.9009C2.51593 7.92306 2.44205 7.9074 2.38967 7.85988L1.82454 7.3472C1.77347 7.30087 1.75045 7.23115 1.7639 7.16353C1.77736 7.0959 1.8253 7.04029 1.89021 7.01703L2.60852 6.75965C2.67509 6.73579 2.74935 6.74959 2.80291 6.79577C2.85647 6.84195 2.88105 6.91337 2.86725 6.98273L2.71408 7.7528C2.70028 7.82215 2.65024 7.87873 2.58309 7.9009ZM2.39668 7.33618L2.41458 7.24616L2.33061 7.27625L2.39668 7.33618Z" fill="black"/>
<path d="M3.09148 5.83711L2.33676 5.94942L2.79102 6.5625L3.09148 5.83711Z" fill="black"/>
<path fill-rule="evenodd" clip-rule="evenodd" d="M2.81228 6.75085C2.7421 6.75949 2.67269 6.72971 2.63059 6.67289L2.17633 6.05981C2.13528 6.00441 2.12631 5.93154 2.15269 5.86784C2.17908 5.80414 2.23695 5.75895 2.30515 5.7488L3.05988 5.63649C3.12982 5.62609 3.19996 5.65411 3.24348 5.70985C3.287 5.76559 3.29718 5.84043 3.27011 5.90576L2.96965 6.63115C2.94259 6.69649 2.88247 6.74221 2.81228 6.75085ZM2.73962 6.16063L2.77475 6.07582L2.68652 6.08895L2.73962 6.16063Z" fill="black"/>
<path d="M3.71551 4.83154L2.95337 4.79445L3.2793 5.48438L3.71551 4.83154Z" fill="black"/>
<path fill-rule="evenodd" clip-rule="evenodd" d="M3.26339 5.68131C3.19287 5.67609 3.1306 5.63334 3.10039 5.56939L2.77447 4.87947C2.74502 4.81713 2.75044 4.7439 2.78874 4.68657C2.82705 4.62925 2.89263 4.59622 2.96149 4.59957L3.72363 4.63666C3.79426 4.6401 3.85758 4.68126 3.88939 4.74442C3.9212 4.80758 3.91658 4.88297 3.87729 4.94177L3.44108 5.5946C3.4018 5.6534 3.33392 5.68652 3.26339 5.68131ZM3.30727 5.08824L3.35827 5.01192L3.26917 5.00759L3.30727 5.08824Z" fill="black"/>
<path d="M4.52394 3.96044L3.78369 3.77537L3.96875 4.51562L4.52394 3.96044Z" fill="black"/>
<path fill-rule="evenodd" clip-rule="evenodd" d="M3.91635 4.70845C3.8482 4.68957 3.79547 4.63549 3.77832 4.56689L3.59326 3.82663C3.57654 3.75974 3.59614 3.68898 3.64489 3.64023C3.69364 3.59148 3.7644 3.57188 3.83129 3.5886L4.57155 3.77366C4.64015 3.79081 4.69423 3.84354 4.71311 3.91169C4.73198 3.97985 4.71274 4.05288 4.66274 4.10289L4.10755 4.65808C4.05754 4.70808 3.98451 4.72732 3.91635 4.70845ZM4.0751 4.13534L4.14 4.07044L4.05346 4.0488L4.0751 4.13534Z" fill="black"/>
<path d="M5.48486 3.27473L4.79494 2.9488L4.83203 3.71094L5.48486 3.27473Z" fill="black"/>
<path fill-rule="evenodd" clip-rule="evenodd" d="M4.74125 3.88742C4.67809 3.85561 4.63693 3.79229 4.63349 3.72166L4.5964 2.95952C4.59305 2.89066 4.62607 2.82508 4.6834 2.78677C4.74073 2.74847 4.81396 2.74305 4.8763 2.7725L5.56622 3.09842C5.63016 3.12863 5.67292 3.1909 5.67813 3.26142C5.68335 3.33194 5.65023 3.39982 5.59143 3.43911L4.9386 3.87532C4.8798 3.91461 4.80441 3.91923 4.74125 3.88742ZM5.00875 3.3563L5.08507 3.3053L5.00442 3.2672L5.00875 3.3563Z" fill="black"/>
<path d="M6.56133 2.79328L5.94824 2.33903L5.83594 3.09375L6.56133 2.79328Z" fill="black"/>
<path fill-rule="evenodd" clip-rule="evenodd" d="M5.7159 3.242C5.66016 3.19848 5.63214 3.12834 5.64255 3.0584L5.75485 2.30367C5.765 2.23547 5.81019 2.1776 5.87389 2.15121C5.93759 2.12483 6.01046 2.1338 6.06586 2.17485L6.67895 2.62911C6.73577 2.67121 6.76555 2.74062 6.75691 2.8108C6.74827 2.88099 6.70254 2.9411 6.63721 2.96817L5.91182 3.26863C5.84648 3.2957 5.77164 3.28552 5.7159 3.242ZM6.08188 2.77327L6.16668 2.73814L6.09501 2.68504L6.08188 2.77327Z" fill="black"/>
<path d="M7.71148 2.5187L7.19879 1.95356L6.94141 2.67188L7.71148 2.5187Z" fill="black"/>
<path fill-rule="evenodd" clip-rule="evenodd" d="M6.79462 2.7958C6.74845 2.74224 6.73465 2.66799 6.7585 2.60141L7.01589 1.8831C7.03915 1.81819 7.09476 1.77025 7.16238 1.7568C7.23 1.74334 7.29973 1.76636 7.34605 1.81743L7.85874 2.38256C7.90625 2.43494 7.92192 2.50883 7.89975 2.57598C7.87758 2.64313 7.82101 2.69317 7.75165 2.70697L6.98158 2.86014C6.91222 2.87394 6.8408 2.84936 6.79462 2.7958ZM7.24501 2.40747L7.33504 2.38957L7.2751 2.3235L7.24501 2.40747Z" fill="black"/>
<path d="M8.89453 2.48438L8.50195 1.83008L8.10938 2.48438H8.89453Z" fill="black"/>
<path fill-rule="evenodd" clip-rule="evenodd" d="M7.93759 2.58011C7.90275 2.51857 7.9037 2.44305 7.94008 2.38241L8.33266 1.72811C8.36813 1.66899 8.43203 1.63281 8.50098 1.63281C8.56993 1.63281 8.63382 1.66899 8.66929 1.72811L9.06187 2.38241C9.09826 2.44305 9.09921 2.51857 9.06437 2.58011C9.02952 2.64165 8.96427 2.67969 8.89355 2.67969H8.1084C8.03768 2.67969 7.97243 2.64165 7.93759 2.58011ZM8.45508 2.28711H8.54687L8.50098 2.21062L8.45508 2.28711Z" fill="black"/>
<path d="M10.0611 2.67661L9.8037 1.9583L9.29102 2.52344L10.0611 2.67661Z" fill="black"/>
<path fill-rule="evenodd" clip-rule="evenodd" d="M9.10496 2.57918C9.08279 2.51203 9.09846 2.43814 9.14598 2.38577L9.65866 1.82063C9.70499 1.76956 9.77471 1.74655 9.84233 1.76C9.90996 1.77345 9.96557 1.82139 9.98882 1.8863L10.2462 2.60462C10.2701 2.67119 10.2563 2.74545 10.2101 2.799C10.1639 2.85256 10.0925 2.87714 10.0231 2.86335L9.25306 2.71017C9.18371 2.69637 9.12713 2.64633 9.10496 2.57918ZM9.66967 2.39277L9.7597 2.41068L9.72961 2.3267L9.66967 2.39277Z" fill="black"/>
<path d="M11.1687 3.08953L11.0564 2.3348L10.4434 2.78906L11.1687 3.08953Z" fill="black"/>
<path fill-rule="evenodd" clip-rule="evenodd" d="M10.2491 2.80838C10.2405 2.73819 10.2703 2.66878 10.3271 2.62668L10.9402 2.17242C10.9956 2.13137 11.0685 2.1224 11.1322 2.14879C11.1959 2.17517 11.2411 2.23305 11.2512 2.30125L11.3635 3.05597C11.3739 3.12592 11.3459 3.19606 11.2902 3.23958C11.2344 3.2831 11.1596 3.29327 11.0942 3.26621L10.3688 2.96574C10.3035 2.93868 10.2578 2.87856 10.2491 2.80838ZM10.8394 2.73572L10.9242 2.77084L10.911 2.68261L10.8394 2.73572Z" fill="black"/>
<path d="M12.1724 3.71746L12.2095 2.95533L11.5195 3.28125L12.1724 3.71746Z" fill="black"/>
<path fill-rule="evenodd" clip-rule="evenodd" d="M11.3246 3.2673C11.3298 3.19677 11.3725 3.13451 11.4365 3.1043L12.1264 2.77838C12.1887 2.74893 12.262 2.75434 12.3193 2.79265C12.3766 2.83096 12.4096 2.89653 12.4063 2.9654L12.3692 3.72753C12.3658 3.79817 12.3246 3.86149 12.2614 3.8933C12.1983 3.92511 12.1229 3.92049 12.0641 3.8812L11.4113 3.44499C11.3525 3.4057 11.3193 3.33782 11.3246 3.2673ZM11.9176 3.31118L11.9939 3.36218L11.9983 3.27308L11.9176 3.31118Z" fill="black"/>
<path d="M13.0357 4.52394L13.2207 3.78369L12.4805 3.96875L13.0357 4.52394Z" fill="black"/>
<path fill-rule="evenodd" clip-rule="evenodd" d="M12.2916 3.91635C12.3104 3.8482 12.3645 3.79547 12.4331 3.77832L13.1734 3.59326C13.2403 3.57654 13.311 3.59614 13.3598 3.64489C13.4085 3.69364 13.4281 3.7644 13.4114 3.83129L13.2263 4.57155C13.2092 4.64015 13.1565 4.69423 13.0883 4.71311C13.0202 4.73198 12.9471 4.71274 12.8971 4.66274L12.3419 4.10755C12.2919 4.05754 12.2727 3.98451 12.2916 3.91635ZM12.8647 4.0751L12.9296 4.14L12.9512 4.05346L12.8647 4.0751Z" fill="black"/>
<path d="M13.7233 5.48096L14.0492 4.79103L13.2871 4.82812L13.7233 5.48096Z" fill="black"/>
<path fill-rule="evenodd" clip-rule="evenodd" d="M13.1126 4.74711C13.1444 4.68395 13.2077 4.64279 13.2783 4.63935L14.0405 4.60226C14.1093 4.59891 14.1749 4.63193 14.2132 4.68926C14.2515 4.74659 14.257 4.81982 14.2275 4.88216L13.9016 5.57208C13.8714 5.63602 13.8091 5.67878 13.7386 5.68399C13.6681 5.68921 13.6002 5.65609 13.5609 5.59729L13.1247 4.94446C13.0854 4.88566 13.0808 4.81027 13.1126 4.74711ZM13.6437 5.01461L13.6947 5.09093L13.7328 5.01027L13.6437 5.01461Z" fill="black"/>
<path d="M14.2145 6.56133L14.6688 5.94824L13.9141 5.83594L14.2145 6.56133Z" fill="black"/>
<path fill-rule="evenodd" clip-rule="evenodd" d="M13.758 5.71981C13.8015 5.66407 13.8717 5.63605 13.9416 5.64645L14.6963 5.75876C14.7645 5.76891 14.8224 5.8141 14.8488 5.8778C14.8752 5.9415 14.8662 6.01437 14.8252 6.06977L14.3709 6.68285C14.3288 6.73967 14.2594 6.76945 14.1892 6.76081C14.119 6.75217 14.0589 6.70645 14.0318 6.64111L13.7314 5.91572C13.7043 5.85039 13.7145 5.77555 13.758 5.71981ZM14.2267 6.08578L14.2619 6.17058L14.315 6.09891L14.2267 6.08578Z" fill="black"/>
<path d="M14.4813 7.71538L15.0464 7.2027L14.3281 6.94531L14.4813 7.71538Z" fill="black"/>
<path fill-rule="evenodd" clip-rule="evenodd" d="M14.2003 6.79462C14.2538 6.74845 14.3281 6.73465 14.3947 6.7585L15.113 7.01589C15.1779 7.03915 15.2258 7.09476 15.2393 7.16238C15.2527 7.23 15.2297 7.29973 15.1787 7.34605L14.6135 7.85874C14.5612 7.90625 14.4873 7.92192 14.4201 7.89975C14.353 7.87758 14.3029 7.82101 14.2891 7.75165L14.136 6.98158C14.1222 6.91222 14.1467 6.8408 14.2003 6.79462ZM14.5886 7.24501L14.6065 7.33504L14.6726 7.2751L14.5886 7.24501Z" fill="black"/>
<path d="M7.58594 3.00781L8.50195 3.92383L9.41797 3.00781H7.58594Z" fill="black"/>
<path fill-rule="evenodd" clip-rule="evenodd" d="M7.22521 2.85953C7.28597 2.71284 7.42912 2.61719 7.5879 2.61719H9.41993C9.57872 2.61719 9.72186 2.71284 9.78263 2.85953C9.84339 3.00623 9.8098 3.17508 9.69753 3.28736L8.78151 4.20338C8.6282 4.35669 8.37963 4.35669 8.22632 4.20338L7.31031 3.28736C7.19803 3.17508 7.16444 3.00623 7.22521 2.85953Z" fill="black"/>
<path d="M13.4473 5.92969L12.8591 7.08393L14.0134 7.67205L13.4473 5.92969Z" fill="black"/>
<path fill-rule="evenodd" clip-rule="evenodd" d="M13.478 5.54082C13.6363 5.55328 13.7715 5.65986 13.8205 5.81087L14.3867 7.55324C14.4357 7.70425 14.389 7.86995 14.2683 7.97307C14.1475 8.07619 13.9766 8.09643 13.8351 8.02434L12.6808 7.43623C12.4876 7.33779 12.4108 7.10139 12.5093 6.90821L13.0974 5.75396C13.1695 5.61248 13.3197 5.52836 13.478 5.54082Z" fill="black"/>
<path d="M12.4746 12.4141L11.1951 12.2114L10.9925 13.4909L12.4746 12.4141Z" fill="black"/>
<path fill-rule="evenodd" clip-rule="evenodd" d="M12.8549 12.3215C12.8919 12.4759 12.8323 12.6374 12.7039 12.7308L11.2217 13.8076C11.0933 13.9009 10.9212 13.9077 10.7859 13.8247C10.6505 13.7418 10.5784 13.5854 10.6032 13.4286L10.8059 12.1491C10.8398 11.9349 11.0409 11.7888 11.255 11.8228L12.5345 12.0254C12.6914 12.0503 12.8178 12.1671 12.8549 12.3215Z" fill="black"/>
<path d="M6.01367 13.4844L5.81102 12.2049L4.53153 12.4075L6.01367 13.4844Z" fill="black"/>
<path fill-rule="evenodd" clip-rule="evenodd" d="M6.21787 13.8254C6.08249 13.9084 5.91046 13.9016 5.782 13.8083L4.29985 12.7315C4.1714 12.6381 4.11181 12.4766 4.14887 12.3222C4.18594 12.1678 4.31236 12.051 4.46919 12.0261L5.74868 11.8235C5.96283 11.7895 6.16392 11.9357 6.19784 12.1498L6.40049 13.4293C6.42533 13.5861 6.35326 13.7425 6.21787 13.8254Z" fill="black"/>
<path d="M2.99219 7.67969L4.14643 7.09157L3.55832 5.93732L2.99219 7.67969Z" fill="black"/>
<path fill-rule="evenodd" clip-rule="evenodd" d="M2.73777 7.96833C2.61703 7.86521 2.5703 7.69951 2.61936 7.5485L3.18549 5.80613C3.23456 5.65512 3.36976 5.54854 3.52806 5.53608C3.68635 5.52362 3.83656 5.60774 3.90865 5.74922L4.49676 6.90347C4.5952 7.09665 4.51839 7.33305 4.3252 7.43148L3.17095 8.0196C3.02948 8.09169 2.85851 8.07145 2.73777 7.96833Z" fill="black"/>
<mask id="mask0_4697_1745" style="mask-type:alpha" maskUnits="userSpaceOnUse" x="0" y="0" width="17" height="17">
<path d="M16.3516 0.648438H0.648438V16.3516H16.3516V0.648438Z" fill="white"/>
<path d="M8.49805 3.66016C8.71486 3.66016 8.89063 3.48439 8.89063 3.26758C8.89063 3.05076 8.71486 2.875 8.49805 2.875C8.28123 2.875 8.10547 3.05076 8.10547 3.26758C8.10547 3.48439 8.28123 3.66016 8.49805 3.66016Z" fill="black"/>
<path d="M13.1051 7.00662C13.1721 7.21282 13.3935 7.32567 13.5997 7.25867C13.8059 7.19167 13.9188 6.97019 13.8518 6.76399C13.7848 6.55779 13.5633 6.44494 13.3571 6.51194C13.1509 6.57894 13.0381 6.80041 13.1051 7.00662Z" fill="black"/>
<path d="M11.3459 12.4159C11.1705 12.5433 11.1316 12.7888 11.259 12.9642C11.3865 13.1396 11.632 13.1785 11.8074 13.0511C11.9828 12.9236 12.0217 12.6781 11.8942 12.5027C11.7668 12.3273 11.5213 12.2884 11.3459 12.4159Z" fill="black"/>
<path d="M5.65367 12.4153C5.47826 12.2879 5.23275 12.3267 5.10531 12.5021C4.97787 12.6776 5.01676 12.9231 5.19216 13.0505C5.36757 13.1779 5.61308 13.1391 5.74052 12.9636C5.86796 12.7882 5.82907 12.5427 5.65367 12.4153Z" fill="black"/>
<path d="M3.89539 7.00208C3.96238 6.79587 3.84954 6.5744 3.64333 6.5074C3.43713 6.4404 3.21566 6.55325 3.14866 6.75945C3.08166 6.96565 3.1945 7.18713 3.40071 7.25413C3.60691 7.32113 3.82839 7.20828 3.89539 7.00208Z" fill="black"/>
</mask>
<g mask="url(#mask0_4697_1745)">
</g>
</svg>
