<svg width="20" height="20" viewBox="0 0 20 20" fill="none" xmlns="http://www.w3.org/2000/svg">
<path d="M18.5416 10C18.5416 8.80833 17.8083 7.775 16.7166 7.21667C17.1 6.05833 16.8833 4.8 16.0416 3.95833C15.2 3.11667 13.9416 2.9 12.7833 3.28333C12.2333 2.19167 11.1916 1.45833 9.99998 1.45833C8.80831 1.45833 7.77498 2.19167 7.22498 3.28333C6.05831 2.9 4.79998 3.11667 3.95831 3.95833C3.11665 4.8 2.90831 6.05833 3.29165 7.21667C2.19998 7.775 1.45831 8.80833 1.45831 10C1.45831 11.1917 2.19998 12.225 3.29165 12.7833C2.90831 13.9417 3.11665 15.2 3.95831 16.0417C4.79998 16.8833 6.05831 17.0917 7.21665 16.7167C7.77498 17.8083 8.80831 18.5417 9.99998 18.5417C11.1916 18.5417 12.2333 17.8083 12.7833 16.7167C13.9416 17.0917 15.2 16.8833 16.0416 16.0417C16.8833 15.2 17.1 13.9417 16.7166 12.7833C17.8083 12.225 18.5416 11.1917 18.5416 10ZM8.78331 13.5L5.66665 10.3833L6.84165 9.2L8.72498 11.0833L12.725 6.725L13.95 7.85833L8.78331 13.5Z" fill="#E6DAFE"/>
</svg>
