<svg width="25" height="20" viewBox="0 0 25 20" fill="none" xmlns="http://www.w3.org/2000/svg">
<g clip-path="url(#clip0_1892_348)">
<path d="M24.1043 9.14371L22.3401 3.62057C22.2338 3.28864 22.0069 3.01857 21.6992 2.85982C21.3916 2.70107 21.041 2.67221 20.7118 2.77839L19.3657 3.21545C16.8246 0.450791 12.83 -0.747024 9.044 0.482747C5.25694 1.71252 2.70667 5.03589 2.24364 8.77777L0.89747 9.21484C0.218763 9.43543 -0.156365 10.1725 0.0623744 10.8569L1.8266 16.3801C2.00344 16.9326 2.51247 17.2851 3.05931 17.2851C3.19015 17.2851 3.32405 17.2645 3.45489 17.2223L4.80208 16.7852C6.6675 18.8149 9.31589 20.0014 12.09 20.0014C13.0948 20.0014 14.1169 19.8457 15.1227 19.5189C17.6433 18.7005 19.6968 16.9408 20.906 14.5638C21.4457 13.501 21.7881 12.3722 21.9292 11.2218L23.2692 10.7868C23.5984 10.6796 23.8662 10.4508 24.0236 10.1405C24.181 9.83024 24.2096 9.47666 24.1043 9.14474V9.14371ZM21.9691 10.8363L21.6512 10.9394L18.9578 11.8146L18.6103 11.928L7.8951 15.408L7.54655 15.5214L4.86443 16.3924L4.54756 16.4955L3.34858 16.8852C2.85386 17.046 2.32132 16.7708 2.16187 16.2718L0.396617 10.7487C0.237162 10.2498 0.510076 9.71272 1.0048 9.55192L2.20378 9.16226L2.52166 9.05918L5.20378 8.18814L5.55234 8.07475L16.2716 4.59263L16.6151 4.4813L19.3023 3.6082L19.6202 3.50512L20.8192 3.11546C20.9152 3.08454 21.0123 3.06908 21.1074 3.06908C21.506 3.06908 21.8771 3.32575 22.0059 3.7288L23.7701 9.25195C23.8478 9.49419 23.8263 9.75189 23.7118 9.97764C23.5974 10.2034 23.4011 10.3714 23.1619 10.4487L21.9691 10.8363ZM18.4733 12.3434C17.7783 14.2648 16.245 15.8564 14.169 16.5306C12.4396 17.0924 10.5956 16.9408 8.97858 16.1048C8.72304 15.9729 8.47977 15.8245 8.2457 15.6647L18.4723 12.3434H18.4733ZM5.6893 7.6583C5.78641 7.39028 5.89782 7.12742 6.02968 6.86972C6.85864 5.23896 8.26819 4.03187 9.99766 3.46904C10.6845 3.24638 11.3888 3.13505 12.091 3.13505C13.1561 3.13505 14.213 3.39069 15.1881 3.89477C15.4437 4.02671 15.6869 4.17515 15.921 4.33493L5.6893 7.6583ZM9.13803 0.776531C10.1142 0.460068 11.1036 0.309569 12.0767 0.309569C14.7179 0.309569 17.2396 1.4177 19.0416 3.32163L16.2808 4.21844C14.5043 2.91033 12.1524 2.4444 9.90362 3.17525C8.09544 3.76282 6.62355 5.02455 5.75677 6.72849C5.583 7.0697 5.4399 7.42018 5.32337 7.77684L2.56664 8.67262C3.06136 5.10598 5.51656 1.9527 9.13803 0.776531ZM20.6331 14.4215C19.4617 16.7244 17.4716 18.4304 15.0287 19.2231C11.4072 20.3992 7.58948 19.2839 5.12303 16.679L7.87977 15.7832C8.1813 16.0049 8.50021 16.2048 8.83854 16.3801C9.85763 16.9068 10.9626 17.1738 12.0747 17.1738C12.8075 17.1738 13.5445 17.0584 14.2621 16.8254C16.5118 16.0945 18.1513 14.3329 18.8372 12.2248L21.6052 11.326C21.459 12.3918 21.134 13.4361 20.6331 14.4215Z" fill="#E6DAFE"/>
<path d="M4.36397 14.1983C4.273 14.2282 4.19634 14.2354 4.13297 14.221C4.06959 14.2066 4.02258 14.1818 3.99089 14.1468C3.9592 14.1107 3.91627 14.0097 3.86312 13.8427L3.17726 11.6955C3.12513 11.5316 3.10162 11.4275 3.10673 11.3831C3.11286 11.3213 3.13331 11.2718 3.16806 11.2357C3.21406 11.1832 3.28458 11.1419 3.37862 11.111L3.48595 11.076L3.45733 10.9873L1.88628 11.4976L1.76465 11.5367L1.79327 11.6254L1.89957 11.5903C1.99054 11.5604 2.0672 11.5532 2.13058 11.5666C2.19395 11.5811 2.24097 11.6058 2.27163 11.6419C2.3023 11.678 2.34421 11.779 2.39736 11.946L3.08322 14.0932C3.13535 14.2571 3.15886 14.3612 3.15375 14.4055C3.14864 14.4674 3.12922 14.5158 3.09549 14.5519C3.04847 14.6045 2.97896 14.6457 2.88492 14.6766L2.87981 14.6787L2.7776 14.7117L2.80622 14.8003L2.92274 14.7622L4.49787 14.2509L4.46925 14.1622L4.36193 14.1973L4.36397 14.1983Z" fill="#E6DAFE"/>
<path d="M7.12082 9.79894L7.14944 9.88759C7.2629 9.85048 7.35796 9.83502 7.43462 9.84017C7.48982 9.84326 7.53683 9.85976 7.57363 9.88759C7.61043 9.91645 7.637 9.95459 7.65234 10.003C7.66562 10.0443 7.67278 10.0979 7.67482 10.1628C7.67585 10.2278 7.66665 10.3607 7.6462 10.5597L7.46835 12.2142L6.25915 10.8133C6.13138 10.6659 6.05472 10.5741 6.02916 10.5391C6.00361 10.504 5.98623 10.4721 5.97703 10.4432C5.9617 10.3968 5.96886 10.3556 5.9985 10.3195C6.03836 10.268 6.12831 10.2185 6.26835 10.1731L6.32048 10.1556L6.29186 10.067L4.86596 10.5298L4.74023 10.571L4.76885 10.6597C4.80872 10.6514 4.84347 10.6473 4.8772 10.6463C4.95386 10.6422 5.01519 10.6525 5.05915 10.6803C5.1215 10.7205 5.26971 10.8751 5.50378 11.1442L7.4428 13.379L7.5215 13.3532L7.83939 10.4978C7.87619 10.1577 7.91605 9.93707 7.95694 9.83502C8.0152 9.69792 8.10004 9.59999 8.21145 9.54226L8.18283 9.45361L7.12082 9.79894Z" fill="#E6DAFE"/>
<path d="M11.4109 8.85676C10.9857 8.63926 10.5186 8.6238 10.0085 8.81038C9.52507 8.94645 9.17141 9.22889 8.94756 9.65874C8.7237 10.0886 8.68895 10.5452 8.84432 11.0297C8.98231 11.4617 9.2266 11.7936 9.57924 12.0265C10.0249 12.3214 10.538 12.3739 11.1206 12.1843C11.7012 11.9956 12.0845 11.641 12.2695 11.1204C12.4096 10.7277 12.4126 10.3247 12.2808 9.91026C12.1264 9.42578 11.8361 9.07427 11.4109 8.85676ZM11.4283 11.7523C11.3445 11.8678 11.2198 11.9523 11.0562 12.0059C10.813 12.0853 10.5932 12.0533 10.399 11.9111C10.12 11.708 9.891 11.3276 9.71314 10.771C9.56391 10.303 9.51178 9.92263 9.55778 9.63194C9.61502 9.27734 9.79083 9.05159 10.0873 8.95469C10.2477 8.90212 10.4041 8.90006 10.5554 8.94851C10.7067 8.99696 10.8569 9.1155 11.0041 9.30311C11.1523 9.49175 11.2954 9.80203 11.4324 10.2329C11.5479 10.5958 11.6031 10.9029 11.597 11.1534C11.5908 11.4039 11.5346 11.6039 11.4273 11.7523H11.4283Z" fill="#E6DAFE"/>
<path d="M15.3197 10.6398C15.2277 10.6697 15.15 10.678 15.0867 10.6635C15.0233 10.6491 14.9763 10.6244 14.9446 10.5893C14.9129 10.5532 14.87 10.4522 14.8168 10.2852L14.0124 7.76693L14.2536 7.68859C14.4049 7.63911 14.5153 7.61952 14.5848 7.6288C14.7095 7.64632 14.8178 7.68962 14.9078 7.75868C14.9988 7.82775 15.101 7.95557 15.2175 8.14318L15.3034 8.11535L15.0212 7.23193L12.1143 8.17617L12.3964 9.05958L12.4873 9.02969C12.4475 8.77713 12.4751 8.56375 12.5722 8.38851C12.6407 8.26379 12.7848 8.16586 13.0025 8.09473L13.2366 8.01845L14.041 10.5367C14.0931 10.7006 14.1166 10.8048 14.1115 10.8491C14.1054 10.9109 14.085 10.9604 14.0502 10.9965C14.0032 11.0491 13.9337 11.0903 13.8396 11.1212L13.7323 11.1563L13.7609 11.2449L15.4557 10.6945L15.427 10.6058L15.3197 10.6409V10.6398Z" fill="#E6DAFE"/>
<path d="M18.8621 8.44229C18.8744 8.75669 18.8131 9.01439 18.6751 9.2154C18.5381 9.41641 18.3183 9.56485 18.0158 9.66381L17.8226 9.72669C17.7306 9.75658 17.6591 9.76586 17.61 9.75349C17.5599 9.74112 17.5221 9.71741 17.4935 9.68236C17.4659 9.64732 17.4229 9.53908 17.3657 9.35972L17.0723 8.44022C17.2267 8.38971 17.3514 8.37219 17.4454 8.38662C17.5395 8.40105 17.6366 8.45775 17.7357 8.55671C17.8349 8.65567 17.9238 8.79483 18.0025 8.97522L18.0935 8.94533L17.5476 7.23622L17.4567 7.26612C17.5119 7.52795 17.5149 7.73927 17.4638 7.89904C17.4127 8.05882 17.285 8.17221 17.0795 8.23921L17.0151 8.25983L16.5909 6.9311L16.9252 6.82287C17.1705 6.74349 17.3422 6.70329 17.4403 6.70329C17.608 6.70226 17.7511 6.73937 17.8666 6.81462C17.9831 6.88987 18.1017 7.03831 18.2233 7.2589L18.3143 7.22901L18.0056 6.26416L15.2969 7.14448L15.3255 7.23313L15.4328 7.19808C15.5381 7.16407 15.6281 7.15994 15.7027 7.18468C15.7558 7.20118 15.7988 7.23519 15.8325 7.2857C15.8509 7.31663 15.8836 7.40631 15.9316 7.55372L16.6175 9.70092C16.6696 9.86482 16.6931 9.96893 16.688 10.0133C16.6829 10.0751 16.6635 10.1236 16.6298 10.1596C16.5827 10.2122 16.5132 10.2534 16.4192 10.2844L16.3119 10.3194L16.3405 10.4081L19.1381 9.49991L18.9521 8.41548L18.8642 8.44435L18.8621 8.44229Z" fill="#E6DAFE"/>
<path d="M21.7995 5.85703C21.5664 5.64262 21.2853 5.51686 20.9562 5.47975C20.6864 5.44986 20.3593 5.49831 19.9719 5.62407L19.007 5.93744L18.6809 6.04361L18.5225 6.09515L18.5511 6.1838L18.6584 6.14876C18.684 6.14051 18.7075 6.13433 18.731 6.12917C18.7903 6.1168 18.8434 6.11474 18.8894 6.12505C18.9528 6.13948 18.9998 6.16422 19.0305 6.2003C19.0611 6.23638 19.103 6.3374 19.1562 6.50439L19.8421 8.65159C19.8962 8.82065 19.9208 8.92373 19.9177 8.96187C19.9105 9.02063 19.886 9.0732 19.8451 9.11958C19.8165 9.15257 19.7736 9.1804 19.7184 9.20514C19.6959 9.21545 19.6714 9.22473 19.6438 9.23401L19.5364 9.26905L19.5651 9.3577L19.7276 9.30513L20.0557 9.19896L21.0145 8.88765C21.223 8.81962 21.3722 8.76086 21.4632 8.71035C21.6697 8.59696 21.8363 8.47841 21.964 8.35265C22.0918 8.22689 22.193 8.08258 22.2697 7.91868C22.3453 7.75478 22.3892 7.56407 22.4005 7.3476C22.4117 7.13113 22.3811 6.90744 22.3075 6.67757C22.2012 6.34564 22.0315 6.07145 21.7995 5.85703ZM21.5337 8.22071C21.4519 8.44955 21.2782 8.60624 21.0124 8.69282C20.9317 8.71963 20.8652 8.72684 20.8151 8.71756C20.7794 8.71138 20.7507 8.69489 20.7283 8.66808C20.7058 8.64231 20.6731 8.56088 20.6301 8.42584L19.8165 5.87868C20.0812 5.79106 20.2795 5.75292 20.4104 5.76529C20.5954 5.78282 20.7702 5.87353 20.9368 6.03537C21.1473 6.24359 21.3191 6.55696 21.453 6.97548C21.6185 7.49501 21.6461 7.91043 21.5337 8.21865V8.22071Z" fill="#E6DAFE"/>
<path d="M9.13702 5.12603L8.57791 5.30643L8.21914 4.8374L8.21607 5.42909L7.66309 5.62804L8.22118 5.81359L8.23753 6.40631L8.58506 5.92904L9.14827 6.095L8.80585 5.61464L9.13702 5.12603Z" fill="#E6DAFE"/>
<path d="M11.3879 4.08415L10.6632 4.31815L10.1982 3.70996L10.1941 4.47792L9.47754 4.73563L10.2002 4.97684L10.2227 5.74377L10.6724 5.12528L11.4033 5.34175L10.9586 4.7181L11.3879 4.08415Z" fill="#E6DAFE"/>
<path d="M13.3538 3.74175L12.7937 3.92215L12.4349 3.45312L12.4329 4.04482L11.8799 4.24376L12.437 4.43034L12.4543 5.02204L12.8019 4.54476L13.3651 4.71073L13.0216 4.23036L13.3538 3.74175Z" fill="#E6DAFE"/>
<path d="M11.5468 16.3355L11.8627 15.9005L12.3768 16.0531L12.064 15.6139L12.3666 15.1686L11.8565 15.3336L11.5294 14.9058L11.5274 15.4459L11.0225 15.6273L11.5315 15.7964L11.5468 16.3355Z" fill="#E6DAFE"/>
<path d="M13.5389 16.1356L13.9079 15.6284L14.5069 15.8047L14.142 15.2944L14.4946 14.7749L13.8998 14.9666L13.5195 14.4688L13.5164 15.0976L12.9287 15.3089L13.5205 15.5068L13.5389 16.1356Z" fill="#E6DAFE"/>
<path d="M15.3896 15.0738L15.7064 14.6388L16.2206 14.7903L15.9078 14.3522L16.2103 13.9069L15.7003 14.0708L15.3732 13.644L15.3701 14.1842L14.8662 14.3656L15.3742 14.5347L15.3896 15.0738Z" fill="#E6DAFE"/>
</g>
<defs>
<clipPath id="clip0_1892_348">
<rect width="24.1667" height="20" fill="white"/>
</clipPath>
</defs>
</svg>
