<svg viewBox="0 0 36 46" fill="currentColor" xmlns="http://www.w3.org/2000/svg">
  <path d="M22.5 18.013a4.502 4.502 0 0 1-4.5 4.503v4.504c4.97 0 9-4.033 9-9.007 0-4.974-4.03-9.007-9-9.007a9 9 0 0 0-9 9.007V40.53l4.046 4.049.454.454v-27.02a4.502 4.502 0 0 1 4.5-4.504c2.485 0 4.5 2.017 4.5 4.504Z"/>
  <path d="M18 0c-3.279 0-6.352.878-9 2.412A18 18 0 0 0 4.5 6.1 17.952 17.952 0 0 0 0 18.014v13.51l4.5 4.503V18.013c0-4 1.738-7.595 4.5-10.07a13.473 13.473 0 0 1 9-3.44c7.455 0 13.5 6.05 13.5 13.51 0 7.461-6.045 13.51-13.5 13.51v4.504c9.942 0 18-8.066 18-18.014C36 8.067 27.942 0 18 0Z"/>
</svg>
