<svg viewBox="0 0 36 44" fill="none" xmlns="http://www.w3.org/2000/svg">
<g filter="url(#filter0_f_1314_1310)">
<path d="M10.2218 32.0251C14.5176 30.6583 21.4824 30.6583 25.7782 32.0251C27.9261 32.7085 29 33.6043 29 34.5C29 35.3957 27.9261 36.2915 25.7782 36.9749C21.4824 38.3417 14.5176 38.3417 10.2218 36.9749C8.07394 36.2915 7 35.3957 7 34.5C7 33.6043 8.07394 32.7085 10.2218 32.0251Z" fill="url(#paint0_linear_1314_1310)"/>
<path d="M10.2218 32.0251C14.5176 30.6583 21.4824 30.6583 25.7782 32.0251C27.9261 32.7085 29 33.6043 29 34.5C29 35.3957 27.9261 36.2915 25.7782 36.9749C21.4824 38.3417 14.5176 38.3417 10.2218 36.9749C8.07394 36.2915 7 35.3957 7 34.5C7 33.6043 8.07394 32.7085 10.2218 32.0251Z" fill="url(#paint1_radial_1314_1310)" style="mix-blend-mode:hard-light"/>
</g>
<g filter="url(#filter1_f_1314_1310)">
<path d="M13.7574 33.4393C16.1005 32.8536 19.8995 32.8536 22.2426 33.4393C23.4142 33.7322 24 34.1161 24 34.5C24 34.8839 23.4142 35.2678 22.2426 35.5607C19.8995 36.1464 16.1005 36.1464 13.7574 35.5607C12.5858 35.2678 12 34.8839 12 34.5C12 34.1161 12.5858 33.7322 13.7574 33.4393Z" fill="url(#paint2_linear_1314_1310)"/>
<path d="M13.7574 33.4393C16.1005 32.8536 19.8995 32.8536 22.2426 33.4393C23.4142 33.7322 24 34.1161 24 34.5C24 34.8839 23.4142 35.2678 22.2426 35.5607C19.8995 36.1464 16.1005 36.1464 13.7574 35.5607C12.5858 35.2678 12 34.8839 12 34.5C12 34.1161 12.5858 33.7322 13.7574 33.4393Z" fill="url(#paint3_radial_1314_1310)" style="mix-blend-mode:hard-light"/>
</g>
<g filter="url(#filter2_ii_1314_1310)">
<g clip-path="url(#clip0_1314_1310)">
<rect width="36" height="36" rx="18" fill="#6D28D9"/>
<g filter="url(#filter3_f_1314_1310)">
<path d="M4.45578 18.8656C9.33295 13.2026 19.2613 7.60629 26.6314 6.36589C30.3164 5.7457 32.6641 6.33191 33.481 7.78104C34.2978 9.23018 33.5837 11.5422 31.1452 14.3737C26.268 20.0368 16.3396 25.6331 8.96956 26.8735C5.28453 27.4937 2.93679 26.9074 2.11995 25.4583C1.30312 24.0092 2.01719 21.6971 4.45578 18.8656Z" fill="url(#paint4_linear_1314_1310)"/>
</g>
<path d="M27.1164 21.3819C27.3066 21.6116 27.3978 21.9074 27.3701 22.2043C27.3423 22.5012 27.1978 22.775 26.9682 22.9654C25.2648 24.3791 23.7245 24.8751 22.3267 24.8751C20.4742 24.8751 18.8711 24.0041 17.4629 23.2401C15.1136 21.9632 13.2573 20.9554 10.4682 23.2682C10.2385 23.4586 9.94251 23.55 9.64538 23.5223C9.34825 23.4945 9.07433 23.3498 8.88387 23.1201C8.69341 22.8903 8.60202 22.5943 8.6298 22.2972C8.65758 22.0001 8.80225 21.7261 9.032 21.5357C12.9929 18.2544 16.0632 19.9204 18.5373 21.2619C20.8867 22.5379 22.7429 23.5466 25.532 21.2338C25.6457 21.1395 25.777 21.0685 25.9182 21.0249C26.0593 20.9813 26.2077 20.9659 26.3549 20.9797C26.502 20.9934 26.645 21.036 26.7756 21.105C26.9063 21.1741 27.0221 21.2682 27.1164 21.3819ZM25.532 15.9829C22.7429 18.2957 20.8867 17.2869 18.5373 16.011C16.067 14.6704 12.9929 13.0007 9.032 16.2847C8.80225 16.4752 8.65758 16.7491 8.6298 17.0463C8.61605 17.1934 8.6314 17.3418 8.675 17.483C8.71859 17.6241 8.78957 17.7554 8.88387 17.8691C8.97818 17.9829 9.09397 18.0769 9.22463 18.146C9.35529 18.215 9.49826 18.2576 9.64538 18.2713C9.94251 18.2991 10.2385 18.2077 10.4682 18.0172C13.2573 15.7044 15.1136 16.7122 17.4629 17.9891C18.8692 18.7532 20.4742 19.6241 22.3267 19.6241C23.7245 19.6241 25.2648 19.1282 26.9682 17.7154C27.198 17.5249 27.3427 17.251 27.3704 16.9539C27.3982 16.6567 27.3068 16.3607 27.1164 16.131C26.9259 15.9013 26.652 15.7566 26.3549 15.7288C26.0577 15.701 25.7617 15.7924 25.532 15.9829ZM10.4682 12.7663C13.2573 10.4535 15.1136 11.4613 17.4629 12.7382C18.8692 13.5022 20.4742 14.3732 22.3267 14.3732C23.7245 14.3732 25.2648 13.8772 26.9682 12.4644C27.198 12.274 27.3427 12.0001 27.3704 11.7029C27.3982 11.4058 27.3068 11.1098 27.1164 10.8801C26.9259 10.6503 26.652 10.5056 26.3549 10.4779C26.0577 10.4501 25.7617 10.5415 25.532 10.7319C22.7429 13.0447 20.8867 12.0369 18.5373 10.7601C16.067 9.41943 12.9929 7.74975 9.032 11.0347C8.91553 11.1282 8.81881 11.2438 8.7475 11.375C8.67618 11.5061 8.63168 11.6502 8.6166 11.7987C8.60151 11.9473 8.61615 12.0973 8.65964 12.2401C8.70314 12.3829 8.77463 12.5157 8.86994 12.6306C8.96526 12.7455 9.08249 12.8403 9.21481 12.9094C9.34713 12.9786 9.4919 13.0207 9.64066 13.0333C9.78942 13.046 9.93921 13.0289 10.0813 12.983C10.2234 12.9372 10.3549 12.8635 10.4682 12.7663Z" fill="#FCEEEE" stroke="url(#paint5_radial_1314_1310)" stroke-width="0.6"/>
<g opacity="0.8" filter="url(#filter4_f_1314_1310)">
<path d="M2.12018 25.4584C2.21357 25.624 2.38465 25.9546 2.61993 26.4091C4.44259 29.9305 10.1185 40.8961 13.3822 40.3468C20.7523 39.1065 36.5161 28.499 41.3932 22.836C43.3335 20.5831 37.6944 13.3018 34.8974 9.69023C34.1821 8.76675 33.6528 8.08321 33.4834 7.78499C34.2968 9.23438 33.5818 11.5448 31.1454 14.3738C26.2682 20.0368 16.3399 25.6331 8.96979 26.8735C5.28476 27.4937 2.93702 26.9075 2.12018 25.4584Z" fill="url(#paint6_linear_1314_1310)"/>
</g>
<g style="mix-blend-mode:plus-lighter" filter="url(#filter5_f_1314_1310)">
<circle cx="18" cy="18" r="12" fill="#250C4C"/>
</g>
<path d="M36 18C36 27.9411 27.9411 36 18 36C8.05887 36 0 27.9411 0 18C0 8.05887 8.05887 0 18 0C27.9411 0 36 8.05887 36 18Z" fill="url(#paint7_radial_1314_1310)" style="mix-blend-mode:hard-light"/>
<g style="mix-blend-mode:plus-lighter" filter="url(#filter6_f_1314_1310)">
<ellipse cx="3.65785" cy="2.68243" rx="3.65785" ry="2.68243" transform="matrix(-0.563071 0.826408 0.826408 0.563071 10.1191 3)" fill="#D9D9D9"/>
</g>
<g style="mix-blend-mode:plus-lighter" filter="url(#filter7_f_1314_1310)">
<ellipse cx="0.878896" cy="0.644523" rx="0.878896" ry="0.644523" transform="matrix(-0.563071 0.826408 0.826408 0.563071 10.2388 6.44409)" fill="#D9D9D9"/>
</g>
<g style="mix-blend-mode:overlay" filter="url(#filter8_f_1314_1310)">
<ellipse cx="0.878896" cy="0.644523" rx="0.878896" ry="0.644523" transform="matrix(-0.563071 0.826408 0.826408 0.563071 10.2388 6.44409)" fill="#D9D9D9"/>
</g>
<g style="mix-blend-mode:plus-lighter" filter="url(#filter9_f_1314_1310)">
<ellipse cx="6.07852" cy="4.45758" rx="6.07852" ry="4.45758" transform="matrix(-0.563071 0.826408 0.826408 0.563071 30.0151 1)" fill="#D9D9D9"/>
</g>
<g style="mix-blend-mode:plus-lighter" filter="url(#filter10_f_1314_1310)">
<ellipse cx="1.46052" cy="1.07105" rx="1.46052" ry="1.07105" transform="matrix(-0.563071 0.826408 0.826408 0.563071 30.2139 6.72327)" fill="#D9D9D9"/>
</g>
<g style="mix-blend-mode:overlay" filter="url(#filter11_f_1314_1310)">
<ellipse cx="1.46052" cy="1.07105" rx="1.46052" ry="1.07105" transform="matrix(-0.563071 0.826408 0.826408 0.563071 30.2139 6.72327)" fill="#D9D9D9"/>
</g>
<g opacity="0.5">
<g style="mix-blend-mode:plus-lighter" filter="url(#filter12_f_1314_1310)">
<ellipse cx="3.65785" cy="2.68243" rx="3.65785" ry="2.68243" transform="matrix(-0.563071 0.826408 0.826408 0.563071 10.1191 3)" fill="#D9D9D9"/>
</g>
<g style="mix-blend-mode:plus-lighter" filter="url(#filter13_f_1314_1310)">
<ellipse cx="0.878896" cy="0.644523" rx="0.878896" ry="0.644523" transform="matrix(-0.563071 0.826408 0.826408 0.563071 10.2388 6.44409)" fill="#D9D9D9"/>
</g>
<g style="mix-blend-mode:overlay" filter="url(#filter14_f_1314_1310)">
<ellipse cx="0.878896" cy="0.644523" rx="0.878896" ry="0.644523" transform="matrix(-0.563071 0.826408 0.826408 0.563071 10.2388 6.44409)" fill="#D9D9D9"/>
</g>
</g>
</g>
</g>
<defs>
<filter id="filter0_f_1314_1310" x="1.5" y="25.5" width="33" height="18" filterUnits="userSpaceOnUse" color-interpolation-filters="sRGB">
<feFlood flood-opacity="0" result="BackgroundImageFix"/>
<feBlend mode="normal" in="SourceGraphic" in2="BackgroundImageFix" result="shape"/>
<feGaussianBlur stdDeviation="2.75" result="effect1_foregroundBlur_1314_1310"/>
</filter>
<filter id="filter1_f_1314_1310" x="6.5" y="27.5" width="23" height="14" filterUnits="userSpaceOnUse" color-interpolation-filters="sRGB">
<feFlood flood-opacity="0" result="BackgroundImageFix"/>
<feBlend mode="normal" in="SourceGraphic" in2="BackgroundImageFix" result="shape"/>
<feGaussianBlur stdDeviation="2.75" result="effect1_foregroundBlur_1314_1310"/>
</filter>
<filter id="filter2_ii_1314_1310" x="-3" y="-3" width="41" height="41" filterUnits="userSpaceOnUse" color-interpolation-filters="sRGB">
<feFlood flood-opacity="0" result="BackgroundImageFix"/>
<feBlend mode="normal" in="SourceGraphic" in2="BackgroundImageFix" result="shape"/>
<feColorMatrix in="SourceAlpha" type="matrix" values="0 0 0 0 0 0 0 0 0 0 0 0 0 0 0 0 0 0 127 0" result="hardAlpha"/>
<feOffset dx="2" dy="2"/>
<feGaussianBlur stdDeviation="2"/>
<feComposite in2="hardAlpha" operator="arithmetic" k2="-1" k3="1"/>
<feColorMatrix type="matrix" values="0 0 0 0 1 0 0 0 0 1 0 0 0 0 1 0 0 0 1 0"/>
<feBlend mode="normal" in2="shape" result="effect1_innerShadow_1314_1310"/>
<feColorMatrix in="SourceAlpha" type="matrix" values="0 0 0 0 0 0 0 0 0 0 0 0 0 0 0 0 0 0 127 0" result="hardAlpha"/>
<feOffset dx="-3" dy="-3"/>
<feGaussianBlur stdDeviation="3.25"/>
<feComposite in2="hardAlpha" operator="arithmetic" k2="-1" k3="1"/>
<feColorMatrix type="matrix" values="0 0 0 0 0.768627 0 0 0 0 0.709804 0 0 0 0 0.992157 0 0 0 1 0"/>
<feBlend mode="normal" in2="effect1_innerShadow_1314_1310" result="effect2_innerShadow_1314_1310"/>
</filter>
<filter id="filter3_f_1314_1310" x="0.796875" y="5.12061" width="34.0073" height="22.9982" filterUnits="userSpaceOnUse" color-interpolation-filters="sRGB">
<feFlood flood-opacity="0" result="BackgroundImageFix"/>
<feBlend mode="normal" in="SourceGraphic" in2="BackgroundImageFix" result="shape"/>
<feGaussianBlur stdDeviation="0.5" result="effect1_foregroundBlur_1314_1310"/>
</filter>
<filter id="filter4_f_1314_1310" x="0.800781" y="6.78503" width="41.9902" height="34.5818" filterUnits="userSpaceOnUse" color-interpolation-filters="sRGB">
<feFlood flood-opacity="0" result="BackgroundImageFix"/>
<feBlend mode="normal" in="SourceGraphic" in2="BackgroundImageFix" result="shape"/>
<feGaussianBlur stdDeviation="0.5" result="effect1_foregroundBlur_1314_1310"/>
</filter>
<filter id="filter5_f_1314_1310" x="-2.13161" y="-2.13161" width="40.2632" height="40.2632" filterUnits="userSpaceOnUse" color-interpolation-filters="sRGB">
<feFlood flood-opacity="0" result="BackgroundImageFix"/>
<feBlend mode="normal" in="SourceGraphic" in2="BackgroundImageFix" result="shape"/>
<feGaussianBlur stdDeviation="4.06581" result="effect1_foregroundBlur_1314_1310"/>
</filter>
<filter id="filter6_f_1314_1310" x="0.0504885" y="-3.04668" width="20.4518" height="21.1599" filterUnits="userSpaceOnUse" color-interpolation-filters="sRGB">
<feFlood flood-opacity="0" result="BackgroundImageFix"/>
<feBlend mode="normal" in="SourceGraphic" in2="BackgroundImageFix" result="shape"/>
<feGaussianBlur stdDeviation="3.6" result="effect1_foregroundBlur_1314_1310"/>
</filter>
<filter id="filter7_f_1314_1310" x="5.44932" y="2.62119" width="9.6541" height="9.82427" filterUnits="userSpaceOnUse" color-interpolation-filters="sRGB">
<feFlood flood-opacity="0" result="BackgroundImageFix"/>
<feBlend mode="normal" in="SourceGraphic" in2="BackgroundImageFix" result="shape"/>
<feGaussianBlur stdDeviation="2.05" result="effect1_foregroundBlur_1314_1310"/>
</filter>
<filter id="filter8_f_1314_1310" x="5.44932" y="2.62119" width="9.6541" height="9.82427" filterUnits="userSpaceOnUse" color-interpolation-filters="sRGB">
<feFlood flood-opacity="0" result="BackgroundImageFix"/>
<feBlend mode="normal" in="SourceGraphic" in2="BackgroundImageFix" result="shape"/>
<feGaussianBlur stdDeviation="2.05" result="effect1_foregroundBlur_1314_1310"/>
</filter>
<filter id="filter9_f_1314_1310" x="13.2833" y="-9.04826" width="33.9862" height="35.163" filterUnits="userSpaceOnUse" color-interpolation-filters="sRGB">
<feFlood flood-opacity="0" result="BackgroundImageFix"/>
<feBlend mode="normal" in="SourceGraphic" in2="BackgroundImageFix" result="shape"/>
<feGaussianBlur stdDeviation="5.98238" result="effect1_foregroundBlur_1314_1310"/>
</filter>
<filter id="filter10_f_1314_1310" x="22.2551" y="0.370448" width="16.043" height="16.3258" filterUnits="userSpaceOnUse" color-interpolation-filters="sRGB">
<feFlood flood-opacity="0" result="BackgroundImageFix"/>
<feBlend mode="normal" in="SourceGraphic" in2="BackgroundImageFix" result="shape"/>
<feGaussianBlur stdDeviation="3.40663" result="effect1_foregroundBlur_1314_1310"/>
</filter>
<filter id="filter11_f_1314_1310" x="22.2551" y="0.370448" width="16.043" height="16.3258" filterUnits="userSpaceOnUse" color-interpolation-filters="sRGB">
<feFlood flood-opacity="0" result="BackgroundImageFix"/>
<feBlend mode="normal" in="SourceGraphic" in2="BackgroundImageFix" result="shape"/>
<feGaussianBlur stdDeviation="3.40663" result="effect1_foregroundBlur_1314_1310"/>
</filter>
<filter id="filter12_f_1314_1310" x="0.0504885" y="-3.04668" width="20.4518" height="21.1599" filterUnits="userSpaceOnUse" color-interpolation-filters="sRGB">
<feFlood flood-opacity="0" result="BackgroundImageFix"/>
<feBlend mode="normal" in="SourceGraphic" in2="BackgroundImageFix" result="shape"/>
<feGaussianBlur stdDeviation="3.6" result="effect1_foregroundBlur_1314_1310"/>
</filter>
<filter id="filter13_f_1314_1310" x="5.44932" y="2.62119" width="9.6541" height="9.82427" filterUnits="userSpaceOnUse" color-interpolation-filters="sRGB">
<feFlood flood-opacity="0" result="BackgroundImageFix"/>
<feBlend mode="normal" in="SourceGraphic" in2="BackgroundImageFix" result="shape"/>
<feGaussianBlur stdDeviation="2.05" result="effect1_foregroundBlur_1314_1310"/>
</filter>
<filter id="filter14_f_1314_1310" x="5.44932" y="2.62119" width="9.6541" height="9.82427" filterUnits="userSpaceOnUse" color-interpolation-filters="sRGB">
<feFlood flood-opacity="0" result="BackgroundImageFix"/>
<feBlend mode="normal" in="SourceGraphic" in2="BackgroundImageFix" result="shape"/>
<feGaussianBlur stdDeviation="2.05" result="effect1_foregroundBlur_1314_1310"/>
</filter>
<linearGradient id="paint0_linear_1314_1310" x1="16.7778" y1="26.1538" x2="17.015" y2="39.3474" gradientUnits="userSpaceOnUse">
<stop stop-color="#B12A5B"/>
<stop offset="1" stop-color="#FF867A" stop-opacity="0"/>
</linearGradient>
<radialGradient id="paint1_radial_1314_1310" cx="0" cy="0" r="1" gradientUnits="userSpaceOnUse" gradientTransform="translate(14.6389 32.6827) rotate(25.3793) scale(11.4986 9.6254)">
<stop stop-color="#E6A2E6"/>
<stop offset="0.705395" stop-color="#2E1A68"/>
<stop offset="1" stop-color="#A468FF"/>
</radialGradient>
<linearGradient id="paint2_linear_1314_1310" x1="17.3333" y1="30.9231" x2="17.4132" y2="36.5781" gradientUnits="userSpaceOnUse">
<stop stop-color="#B12A5B"/>
<stop offset="1" stop-color="#FF867A" stop-opacity="0"/>
</linearGradient>
<radialGradient id="paint3_radial_1314_1310" cx="0" cy="0" r="1" gradientUnits="userSpaceOnUse" gradientTransform="translate(16.1667 33.7212) rotate(20.4423) scale(6.04751 4.27828)">
<stop stop-color="#E6A2E6"/>
<stop offset="0.705395" stop-color="#2E1A68"/>
<stop offset="1" stop-color="#A468FF"/>
</radialGradient>
<linearGradient id="paint4_linear_1314_1310" x1="8.44715" y1="4.09906" x2="20.9131" y2="25.1965" gradientUnits="userSpaceOnUse">
<stop stop-color="#B12A5B"/>
<stop offset="1" stop-color="#FF867A" stop-opacity="0"/>
</linearGradient>
<radialGradient id="paint5_radial_1314_1310" cx="0" cy="0" r="1" gradientUnits="userSpaceOnUse" gradientTransform="translate(13.851 9.70052) rotate(64.7673) scale(8.26554 11.6395)">
<stop stop-color="white"/>
<stop offset="1" stop-color="white" stop-opacity="0"/>
</radialGradient>
<linearGradient id="paint6_linear_1314_1310" x1="6.57976" y1="33.6469" x2="39.1074" y2="15.3121" gradientUnits="userSpaceOnUse">
<stop stop-color="#EBC0FD"/>
<stop offset="1" stop-color="#D9DED8"/>
</linearGradient>
<radialGradient id="paint7_radial_1314_1310" cx="0" cy="0" r="1" gradientUnits="userSpaceOnUse" gradientTransform="translate(12.5 8.65385) rotate(56.1497) scale(30.5193)">
<stop stop-color="#E6A2E6"/>
<stop offset="0.705395" stop-color="#2E1A68"/>
<stop offset="1" stop-color="#A468FF"/>
</radialGradient>
<clipPath id="clip0_1314_1310">
<rect width="36" height="36" rx="18" fill="white"/>
</clipPath>
</defs>
</svg>
