<svg viewBox="0 0 88 18" fill="currentColor" xmlns="http://www.w3.org/2000/svg">
  <path d="M5.417 12.996V9.952h7.222c1.104 0 1.966-.313 2.584-.94.618-.627.927-1.453.927-2.474 0-1.022-.309-1.864-.927-2.474-.618-.61-1.48-.916-2.584-.916H3.117V18H0V0h12.639c1.039 0 1.966.153 2.784.458.815.305 1.504.734 2.065 1.288a5.5 5.5 0 0 1 1.287 2.016c.297.792.446 1.683.446 2.674 0 .991-.149 1.86-.446 2.662-.296.8-.726 1.49-1.287 2.067a5.784 5.784 0 0 1-2.066 1.35c-.815.32-1.744.481-2.783.481H5.417ZM29.45 17.996v-6.833L19.905 0h4.23l7 8.292L38.157 0h4.008l-9.573 11.163v6.833h-3.141ZM52.995 17.996V3.144h-8.272V0h19.698v3.144h-8.284v14.852h-3.142ZM84.073 0h3.13v17.996h-3.13V0ZM70.57 17.996v-7.79h11.642V7.422H70.571V0h-3.13v17.996h3.13Z"/>
</svg>
