<svg fill="currentColor" viewBox="0 0 19 19" xmlns="http://www.w3.org/2000/svg">
  <path d="M9.32069 -0.000976406C7.10964 0.000627572 4.97125 0.782612 3.28785 2.20516C1.60446 3.62771 0.485817 5.59807 0.131945 7.76394C-0.221927 9.92982 0.212043 12.15 1.35626 14.0275C2.50048 15.905 4.28034 17.3174 6.37761 18.0122C6.84304 18.0969 7.01292 17.8113 7.01292 17.5665C7.01292 17.3471 7.00517 16.7659 7.00051 15.9946C4.41038 16.5527 3.86272 14.7552 3.86272 14.7552C3.69141 14.1965 3.32472 13.7169 2.82868 13.4027C1.98314 12.8292 2.89306 12.8407 2.89306 12.8407C3.18827 12.8813 3.47024 12.9883 3.71747 13.1534C3.96469 13.3186 4.17065 13.5376 4.31962 13.7937C4.44567 14.0219 4.61605 14.2229 4.82088 14.3853C5.02572 14.5476 5.26096 14.6681 5.513 14.7397C5.76504 14.8112 6.02888 14.8325 6.28926 14.8023C6.54964 14.7721 6.80141 14.6909 7.02999 14.5635C7.07227 14.0949 7.28191 13.6568 7.62109 13.328C5.55301 13.0971 3.37867 12.3019 3.37867 8.75929C3.3652 7.84098 3.70855 6.95278 4.33746 6.27901C4.05292 5.48173 4.08566 4.60675 4.42899 3.8326C4.42899 3.8326 5.21092 3.58396 6.98888 4.78022C8.51535 4.36562 10.126 4.36562 11.6525 4.78022C13.4305 3.58396 14.2124 3.8326 14.2124 3.8326C14.5571 4.6064 14.5901 5.4818 14.3047 6.27901C14.9338 6.9526 15.277 7.84099 15.2627 8.75929C15.2627 12.3104 13.0845 13.0917 11.0087 13.3203C11.2313 13.5443 11.4031 13.8129 11.5126 14.1082C11.622 14.4035 11.6666 14.7186 11.6432 15.0323C11.6432 16.264 11.6316 17.2648 11.6316 17.5673C11.6316 17.8144 11.7999 18.1061 12.2723 18.0122C14.3703 17.3172 16.1506 15.9041 17.2948 14.0257C18.4389 12.1473 18.8723 9.9262 18.5173 7.75976C18.1623 5.59333 17.0421 3.62292 15.3572 2.20105C13.6723 0.779177 11.5325 -0.00138072 9.32069 -0.000976406"/>
</svg>
