<svg fill="currentColor" viewBox="0 0 19 12" xmlns="http://www.w3.org/2000/svg">
  <path d="M10.3954 11.7887L6.70081 11.726C5.50459 11.7041 4.3054 11.7478 3.13264 11.5211C1.3486 11.1823 1.22221 9.5216 1.08996 8.12855C0.907727 6.1701 0.978274 4.1761 1.32216 2.234C1.5163 1.14427 2.28031 0.494027 3.46182 0.423268C7.45029 0.166473 11.4653 0.196906 15.4449 0.31671C15.8652 0.327693 16.2884 0.387721 16.7028 0.456048C18.7486 0.789304 18.7985 2.6713 18.9311 4.25558C19.0633 5.85621 19.0075 7.46506 18.7547 9.0548C18.5519 10.371 18.1639 11.4749 16.5265 11.5814C14.4749 11.7208 12.4703 11.8329 10.413 11.7972C10.413 11.7887 10.4012 11.7887 10.3954 11.7887ZM8.22332 8.45636C9.76938 7.6314 11.2859 6.82018 12.8232 6.00075C11.2742 5.17579 9.76054 4.36457 8.22332 3.54514V8.45636Z"/>
</svg>
