<svg viewBox="0 0 50 50" fill="none" xmlns="http://www.w3.org/2000/svg">
  <path d="M25.024 1C11.828.981 1.018 11.768 1 24.976.983 38.173 11.763 48.975 24.977 49c13.19.026 24.004-10.767 24.023-23.977C49.02 11.823 38.235 1.018 25.024 1Z" stroke="currentColor" stroke-width=".5" stroke-miterlimit="10"/>
  <path d="M28.296 39.63c-.033.424-.047.837-.11 1.241-.017.105-.172.243-.286.27-1.547.36-3.092.727-4.65 1.036-.427.084-.898.022-1.336-.05-1.407-.228-2.277-1.21-2.415-2.64-.124-1.282.2-2.508.451-3.741.963-4.73 1.94-9.456 2.907-14.183.215-1.054.003-1.38-1.061-1.5-.804-.09-1.616-.094-2.477-.137.034-.437.05-.848.109-1.252.014-.093.156-.205.263-.24 1.593-.521 3.189-1.048 4.875-1.16a5.96 5.96 0 0 1 1.486.079c1.422.268 2.235 1.314 2.075 2.815-.135 1.266-.407 2.519-.662 3.768-.929 4.55-1.877 9.096-2.816 13.644-.25 1.213.1 1.721 1.326 1.867.754.09 1.515.122 2.32.184Zm2.412-28.841c.007 1.918-1.284 3.266-3.125 3.266-1.778 0-3.023-1.26-3.02-3.06.004-1.892 1.272-3.182 3.136-3.194 1.796-.012 3.003 1.185 3.009 2.988Z" stroke="currentColor" stroke-width=".5" stroke-miterlimit="10"/>
  <path d="M25.024 1C11.828.981 1.018 11.768 1 24.976.983 38.173 11.763 48.975 24.977 49c13.19.026 24.004-10.767 24.023-23.977C49.02 11.823 38.235 1.018 25.024 1Z" stroke="currentColor" stroke-width=".5" stroke-miterlimit="10"/>
  <path d="M28.296 39.63c-.033.424-.047.837-.11 1.241-.017.105-.172.243-.286.27-1.547.36-3.092.727-4.65 1.036-.427.084-.898.022-1.336-.05-1.407-.228-2.277-1.21-2.415-2.64-.124-1.282.2-2.508.451-3.741.963-4.73 1.94-9.456 2.907-14.183.215-1.054.003-1.38-1.061-1.5-.804-.09-1.616-.094-2.477-.137.034-.437.05-.848.109-1.252.014-.093.156-.205.263-.24 1.593-.521 3.189-1.048 4.875-1.16a5.96 5.96 0 0 1 1.486.079c1.422.268 2.235 1.314 2.075 2.815-.135 1.266-.407 2.519-.662 3.768-.929 4.55-1.877 9.096-2.816 13.644-.25 1.213.1 1.721 1.326 1.867.754.09 1.515.122 2.32.184Zm2.412-28.841c.007 1.918-1.284 3.266-3.125 3.266-1.778 0-3.023-1.26-3.02-3.06.004-1.892 1.272-3.182 3.136-3.194 1.796-.012 3.003 1.185 3.009 2.988Z" stroke="currentColor" stroke-width=".5" stroke-miterlimit="10"/>
</svg>
