<svg viewBox="0 0 58 57" fill="none" xmlns="http://www.w3.org/2000/svg">
<rect x="0.641735" y="0.323864" width="56.3523" height="56.3523" rx="28.1761" fill="#7731EA" fill-opacity="0.15"/>
<rect x="0.641735" y="0.323864" width="56.3523" height="56.3523" rx="28.1761" stroke="#7731EA" stroke-width="0.647727"/>
<mask id="mask0_8287_1431" style="mask-type:luminance" maskUnits="userSpaceOnUse" x="11" y="11" width="36" height="35">
<path d="M45.0679 44.75V12.25H12.5679V44.75H45.0679Z" fill="white" stroke="white" stroke-width="2.5"/>
</mask>
<g mask="url(#mask0_8287_1431)">
<path d="M44.0061 34.1993C44.0061 39.4395 39.7581 43.6875 34.5179 43.6875C29.2777 43.6875 25.0297 39.4395 25.0297 34.1993C25.0297 28.9591 29.2777 24.7111 34.5179 24.7111C39.7581 24.7111 44.0061 28.9591 44.0061 34.1993Z" stroke="#7731EA" stroke-width="2.5" stroke-miterlimit="10"/>
<path d="M32.6197 17.9424C32.6197 20.5625 28.3718 22.6865 23.1315 22.6865C17.8913 22.6865 13.5168 20.5625 13.5168 17.9424C13.5168 15.3224 17.8913 13.1983 23.1315 13.1983C28.3718 13.1983 32.6197 15.3224 32.6197 17.9424Z" stroke="#7731EA" stroke-width="2.5" stroke-miterlimit="10"/>
<path d="M27.3158 28.0208C26.0537 28.3314 24.6333 28.5059 23.1315 28.5059C17.8913 28.5059 13.5168 26.3819 13.5168 23.7618" stroke="#7731EA" stroke-width="2.5" stroke-miterlimit="10"/>
<path d="M13.5168 17.9422V35.1475C13.5168 37.7676 17.8913 39.8916 23.1315 39.8916C24.3862 39.8916 25.584 39.7698 26.6803 39.5486" stroke="#7731EA" stroke-width="2.5" stroke-miterlimit="10"/>
<path d="M32.62 17.9423V24.9004" stroke="#7731EA" stroke-width="2.5" stroke-miterlimit="10"/>
<path d="M25.0297 34.1043C24.4164 34.1665 23.7816 34.1992 23.1315 34.1992C17.8913 34.1992 13.5168 32.0752 13.5168 29.4551" stroke="#7731EA" stroke-width="2.5" stroke-miterlimit="10"/>
</g>
<path d="M33.632 31.1963L33.5819 31.1097C32.8419 31.5377 32.344 32.3384 32.344 33.2558V39.2005V39.2418L32.3732 39.2711L33.4414 40.3402L33.5613 40.4601L33.732 40.6309V40.3894V33.2558C33.732 32.6544 34.2193 32.1669 34.82 32.1669C35.4208 32.1669 35.9081 32.6544 35.9081 33.2558C35.9081 33.8572 35.4208 34.3447 34.82 34.3447H34.72V34.4447V35.6337V35.7337H34.82C36.1875 35.7337 37.2961 34.6241 37.2961 33.2558C37.2961 31.8875 36.1875 30.7779 34.82 30.7779C34.3695 30.7779 33.946 30.8984 33.5818 31.1098L33.632 31.1963ZM33.632 31.1963C32.9217 31.6071 32.444 32.3755 32.444 33.2558V39.2005L34.92 35.6316C36.1858 35.5791 37.1961 34.5354 37.1961 33.2558C37.1961 31.9426 36.1322 30.8779 34.82 30.8779C34.3875 30.8779 33.9813 30.9935 33.632 31.1963Z" fill="#7731EA" stroke="#7731EA" stroke-width="0.2"/>
<path d="M32.3938 29.0501C33.1077 28.6367 33.9363 28.4 34.82 28.4C37.5002 28.4 39.6722 30.5743 39.6722 33.2557C39.6722 35.9372 37.5002 38.1115 34.82 38.1115H34.72V38.0115V36.8225V36.7225H34.82C36.733 36.7225 38.2841 35.1703 38.2841 33.2557C38.2841 31.3412 36.733 29.7889 34.82 29.7889C34.4151 29.7889 34.0261 29.8585 33.6656 29.9869L33.6652 29.9871C33.2351 30.1385 32.8439 30.3737 32.5106 30.6717C31.8018 31.3069 31.3559 32.2293 31.3559 33.2557V38.0115V38.253L31.1852 38.0821L29.9971 36.8932L29.9679 36.8639V36.8225V33.2557C29.9679 32.0249 30.426 30.9003 31.1809 30.0444L32.3938 29.0501ZM32.3938 29.0501C31.9368 29.3143 31.5276 29.6508 31.1809 30.0444L32.3938 29.0501Z" fill="#7731EA" stroke="#7731EA" stroke-width="0.2"/>
</svg>
