<svg viewBox="0 0 64 64" fill="none" xmlns="http://www.w3.org/2000/svg">
<rect x="0.5" y="0.5" width="63" height="63" rx="31.5" fill="#E6DAFE" fill-opacity="0.15"/>
<rect x="0.5" y="0.5" width="63" height="63" rx="31.5" stroke="#E6DAFE"/>
<mask id="mask0_8100_8476" style="mask-type:luminance" maskUnits="userSpaceOnUse" x="12" y="12" width="40" height="40">
<path d="M51.65 51.65V12.35H12.35V51.65H51.65Z" fill="white" stroke="white" stroke-width="0.7"/>
</mask>
<g mask="url(#mask0_8100_8476)">
<path d="M36.7656 41.4531C36.7656 42.7476 37.815 43.7969 39.1094 43.7969C40.4038 43.7969 41.4531 42.7476 41.4531 41.4531C41.4531 40.1587 40.4038 39.1094 39.1094 39.1094C37.815 39.1094 36.7656 38.0601 36.7656 36.7656C36.7656 35.4712 37.815 34.4219 39.1094 34.4219C40.4038 34.4219 41.4531 35.4555 41.4531 36.75" stroke="#E6DAFE" stroke-width="0.7" stroke-miterlimit="10"/>
<path d="M39.1094 30.9062V34.4219" stroke="#E6DAFE" stroke-width="0.7" stroke-miterlimit="10"/>
<path d="M39.1094 43.7968V47.2968" stroke="#E6DAFE" stroke-width="0.7" stroke-miterlimit="10"/>
<path d="M50.8281 39.1094C50.8281 45.5815 45.5815 50.8281 39.1094 50.8281C32.6373 50.8281 27.3906 45.5815 27.3906 39.1094C27.3906 32.6373 32.6373 27.3906 39.1094 27.3906C45.5815 27.3906 50.8281 32.6373 50.8281 39.1094Z" stroke="#E6DAFE" stroke-width="0.7" stroke-miterlimit="10"/>
<path d="M36.7656 19.0312C36.7656 22.2673 31.519 24.8906 25.0469 24.8906C18.5748 24.8906 13.1719 22.2673 13.1719 19.0312C13.1719 15.7952 18.5748 13.1719 25.0469 13.1719C31.519 13.1719 36.7656 15.7952 36.7656 19.0312Z" stroke="#E6DAFE" stroke-width="0.7" stroke-miterlimit="10"/>
<path d="M30.2148 31.4791C28.6559 31.8627 26.9017 32.0781 25.0469 32.0781C18.5748 32.0781 13.1719 29.4548 13.1719 26.2187" stroke="#E6DAFE" stroke-width="0.7" stroke-miterlimit="10"/>
<path d="M13.1719 19.0312V40.2812C13.1719 43.5173 18.5748 46.1406 25.0469 46.1406C26.5965 46.1406 28.0759 45.9902 29.4298 45.717" stroke="#E6DAFE" stroke-width="0.7" stroke-miterlimit="10"/>
<path d="M36.7656 19.0312V27.625" stroke="#E6DAFE" stroke-width="0.7" stroke-miterlimit="10"/>
<path d="M27.3912 38.9921C26.6337 39.069 25.8498 39.1094 25.0469 39.1094C18.5748 39.1094 13.1719 36.486 13.1719 33.25" stroke="#E6DAFE" stroke-width="0.7" stroke-miterlimit="10"/>
</g>
</svg>
