<svg viewBox="0 0 57 57" fill="none" xmlns="http://www.w3.org/2000/svg">
<rect x="0.327526" y="0.323864" width="56.3523" height="56.3523" rx="28.1761" fill="#7731EA" fill-opacity="0.15"/>
<rect x="0.327526" y="0.323864" width="56.3523" height="56.3523" rx="28.1761" stroke="#7731EA" stroke-width="0.647727"/>
<path d="M34.1482 34.0423V32.8152C34.1482 32.2728 33.9389 31.7526 33.5662 31.369C33.1935 30.9855 32.6881 30.77 32.1611 30.77C31.634 30.77 31.1286 30.9855 30.7559 31.369C30.3833 31.7526 30.1739 32.2728 30.1739 32.8152V26.2707C30.1739 25.7283 29.9645 25.2081 29.5919 24.8246C29.2192 24.4411 28.7138 24.2256 28.1867 24.2256C27.6597 24.2256 27.1543 24.4411 26.7816 24.8246C26.4089 25.2081 26.1996 25.7283 26.1996 26.2707V38.6745L24.0236 34.7887C23.7601 34.3182 23.3258 33.9747 22.8162 33.8337C22.3065 33.6928 21.7634 33.7659 21.3062 34.0371C20.849 34.3083 20.5152 34.7554 20.3782 35.2798C20.2413 35.8043 20.3124 36.3633 20.5759 36.8339C23.815 43.8589 25.7823 46.3131 30.1739 46.3131C31.2177 46.3131 32.2513 46.1015 33.2157 45.6904C34.1801 45.2793 35.0564 44.6767 35.7945 43.9171C36.5326 43.1574 37.118 42.2556 37.5175 41.2631C37.917 40.2706 38.1226 39.2068 38.1226 38.1325V34.0423C38.1226 33.4998 37.9132 32.9797 37.5405 32.5961C37.1679 32.2126 36.6624 31.9971 36.1354 31.9971C35.6084 31.9971 35.1029 32.2126 34.7303 32.5961C34.3576 32.9797 34.1482 33.4998 34.1482 34.0423V34.0423Z" stroke="#7731EA" stroke-width="1.78125" stroke-linecap="round" stroke-linejoin="round"/>
<circle cx="28.8601" cy="15.675" r="4.9875" fill="#7731EA"/>
<circle cx="40.9724" cy="24.2248" r="4.275" stroke="#7731EA" stroke-width="1.425"/>
<circle cx="16.0349" cy="24.2248" r="4.275" stroke="#7731EA" stroke-width="1.425"/>
<path d="M30.9974 14.25L28.1474 17.8125L26.7224 16.0313" stroke="#0D0A19" stroke-width="1.425" stroke-linecap="round" stroke-linejoin="round"/>
</svg>
