<svg viewBox="0 0 56 55" fill="none" xmlns="http://www.w3.org/2000/svg">
<rect x="1.23047" y="0.3125" width="54.375" height="54.375" rx="27.1875" fill="#7731EA" fill-opacity="0.15"/>
<rect x="1.23047" y="0.3125" width="54.375" height="54.375" rx="27.1875" stroke="#7731EA" stroke-width="0.625"/>
<path d="M28.3748 14.332C35.6474 14.332 41.543 20.2276 41.543 27.5003C41.543 34.7729 35.6474 40.6686 28.3748 40.6686" stroke="#7731EA" stroke-width="2" stroke-miterlimit="10" stroke-linecap="round" stroke-linejoin="round"/>
<path d="M28.3748 19.2705V27.5007L34.9589 34.0848" stroke="#7731EA" stroke-width="2" stroke-miterlimit="10" stroke-linecap="round" stroke-linejoin="round"/>
<path d="M23.6123 15.2202C23.6123 15.2202 23.93 15.093 24.2809 14.9834C24.6319 14.8738 25.0389 14.7588 25.0389 14.7588" stroke="#7731EA" stroke-width="2" stroke-miterlimit="10" stroke-linecap="round" stroke-linejoin="round" stroke-dasharray="1.61 3.06"/>
<path d="M19.6135 17.6662C19.6135 17.6662 19.8665 17.4358 20.1569 17.2102C20.4472 16.9846 20.7882 16.7344 20.7882 16.7344" stroke="#7731EA" stroke-width="2" stroke-miterlimit="10" stroke-linecap="round" stroke-linejoin="round" stroke-dasharray="1.61 3.06"/>
<path d="M16.7241 21.3574C16.7241 21.3574 16.8804 21.0531 17.0734 20.74C17.2663 20.427 17.4981 20.0732 17.4981 20.0732" stroke="#7731EA" stroke-width="2" stroke-miterlimit="10" stroke-linecap="round" stroke-linejoin="round" stroke-dasharray="1.61 3.06"/>
<path d="M15.3105 25.8265C15.3105 25.8265 15.3504 25.4866 15.4215 25.1259C15.4926 24.7651 15.5857 24.3525 15.5857 24.3525" stroke="#7731EA" stroke-width="2" stroke-miterlimit="10" stroke-linecap="round" stroke-linejoin="round" stroke-dasharray="1.61 3.06"/>
<path d="M15.5514 30.5072C15.5514 30.5072 15.4697 30.1749 15.4099 29.8121C15.3502 29.4493 15.293 29.0303 15.293 29.0303" stroke="#7731EA" stroke-width="2" stroke-miterlimit="10" stroke-linecap="round" stroke-linejoin="round" stroke-dasharray="1.61 3.06"/>
<path d="M17.4165 34.8076C17.4165 34.8076 17.2236 34.5249 17.0406 34.2061C16.8575 33.8871 16.6572 33.5146 16.6572 33.5146" stroke="#7731EA" stroke-width="2" stroke-miterlimit="10" stroke-linecap="round" stroke-linejoin="round" stroke-dasharray="1.61 3.06"/>
<path d="M20.6696 38.1824C20.6696 38.1824 20.39 37.9853 20.1068 37.7507C19.8237 37.516 19.5056 37.2373 19.5056 37.2373" stroke="#7731EA" stroke-width="2" stroke-miterlimit="10" stroke-linecap="round" stroke-linejoin="round" stroke-dasharray="1.61 3.06"/>
<path d="M24.8986 40.2042C24.8986 40.2042 24.5676 40.1175 24.2202 39.9969C23.8728 39.8763 23.4773 39.7266 23.4773 39.7266" stroke="#7731EA" stroke-width="2" stroke-miterlimit="10" stroke-linecap="round" stroke-linejoin="round" stroke-dasharray="1.61 3.06"/>
</svg>
