<svg viewBox="0 0 64 64" fill="none" xmlns="http://www.w3.org/2000/svg">
<rect x="0.5" y="0.5" width="63" height="63" rx="31.5" fill="#E6DAFE" fill-opacity="0.15"/>
<rect x="0.5" y="0.5" width="63" height="63" rx="31.5" stroke="#E6DAFE"/>
<path d="M31.9309 10.9307C43.5671 10.9307 53.0001 20.3637 53.0001 31.9999C53.0001 43.6361 43.5671 53.0691 31.9309 53.0691" stroke="#E6DAFE" stroke-width="0.826047" stroke-miterlimit="10" stroke-linecap="round" stroke-linejoin="round"/>
<path d="M31.9309 18.8318V32L42.4655 42.5347" stroke="#E6DAFE" stroke-width="0.826047" stroke-miterlimit="10" stroke-linecap="round" stroke-linejoin="round"/>
<path d="M24.311 12.3518C24.311 12.3518 24.8193 12.1483 25.3808 11.9729C25.9424 11.7975 26.5936 11.6135 26.5936 11.6135" stroke="#E6DAFE" stroke-width="0.826047" stroke-miterlimit="10" stroke-linecap="round" stroke-linejoin="round" stroke-dasharray="2.58 4.9"/>
<path d="M17.9128 16.2646C17.9128 16.2646 18.3176 15.896 18.7822 15.535C19.2467 15.174 19.7923 14.7737 19.7923 14.7737" stroke="#E6DAFE" stroke-width="0.826047" stroke-miterlimit="10" stroke-linecap="round" stroke-linejoin="round" stroke-dasharray="2.58 4.9"/>
<path d="M13.2898 22.1704C13.2898 22.1704 13.5399 21.6834 13.8486 21.1826C14.1573 20.6818 14.5281 20.1157 14.5281 20.1157" stroke="#E6DAFE" stroke-width="0.826047" stroke-miterlimit="10" stroke-linecap="round" stroke-linejoin="round" stroke-dasharray="2.58 4.9"/>
<path d="M11.0278 29.3212C11.0278 29.3212 11.0916 28.7774 11.2053 28.2002C11.3191 27.623 11.4681 26.9629 11.4681 26.9629" stroke="#E6DAFE" stroke-width="0.826047" stroke-miterlimit="10" stroke-linecap="round" stroke-linejoin="round" stroke-dasharray="2.58 4.9"/>
<path d="M11.4135 36.8111C11.4135 36.8111 11.2828 36.2795 11.1871 35.699C11.0915 35.1185 11 34.448 11 34.448" stroke="#E6DAFE" stroke-width="0.826047" stroke-miterlimit="10" stroke-linecap="round" stroke-linejoin="round" stroke-dasharray="2.58 4.9"/>
<path d="M14.3977 43.6919C14.3977 43.6919 14.0891 43.2398 13.7962 42.7296C13.5034 42.2192 13.1829 41.6233 13.1829 41.6233" stroke="#E6DAFE" stroke-width="0.826047" stroke-miterlimit="10" stroke-linecap="round" stroke-linejoin="round" stroke-dasharray="2.58 4.9"/>
<path d="M19.6027 49.0915C19.6027 49.0915 19.1552 48.7761 18.7022 48.4007C18.2492 48.0253 17.7402 47.5793 17.7402 47.5793" stroke="#E6DAFE" stroke-width="0.826047" stroke-miterlimit="10" stroke-linecap="round" stroke-linejoin="round" stroke-dasharray="2.58 4.9"/>
<path d="M26.369 52.3268C26.369 52.3268 25.8394 52.188 25.2836 51.995C24.7278 51.802 24.095 51.5625 24.095 51.5625" stroke="#E6DAFE" stroke-width="0.826047" stroke-miterlimit="10" stroke-linecap="round" stroke-linejoin="round" stroke-dasharray="2.58 4.9"/>
</svg>
