<svg fill="currentColor" xmlns="http://www.w3.org/2000/svg" viewBox="0 0 225 77">
  <path d="M85.753 44.752v-5.183H98.05c1.88 0 3.347-.533 4.4-1.6 1.052-1.067 1.578-2.474 1.578-4.213 0-1.74-.526-3.173-1.578-4.213-1.053-1.039-2.52-1.559-4.4-1.559H81.838v25.287h-5.307V22.625H98.05c1.769 0 3.347.26 4.739.78 1.388.52 2.562 1.25 3.517 2.192.956.943 1.686 2.086 2.191 3.434.506 1.347.759 2.865.759 4.552 0 1.687-.253 3.166-.759 4.531-.505 1.362-1.235 2.536-2.191 3.52-.955.984-2.125 1.75-3.517 2.297-1.388.547-2.97.821-4.74.821H85.754Zm40.918 8.512V41.631l-16.253-19.006h7.2l11.919 14.117 11.957-14.117h6.824L132.02 41.631v11.633h-5.349Zm40.093 0V27.977H152.68v-5.352h33.536v5.352h-14.104v25.287h-5.348Zm52.904-30.639h5.328v30.639h-5.328V22.625Zm-22.981 30.639V40.002h19.821V35.26h-19.821V22.625h-5.328v30.639h5.328ZM38.267 30.655c0 4.23-3.427 7.66-7.654 7.66v7.66c8.453 0 15.308-6.86 15.308-15.32s-6.855-15.32-15.308-15.32c-2.787 0-5.404.746-7.654 2.052a15.308 15.308 0 0 0-7.654 13.268v38.3l6.882 6.886.772.773V30.655c0-4.23 3.427-7.66 7.654-7.66a7.657 7.657 0 0 1 7.654 7.66Z"/>
  <path d="M30.616 0a30.442 30.442 0 0 0-15.308 4.102 30.619 30.619 0 0 0-7.654 6.274A30.535 30.535 0 0 0 0 30.639v22.98l7.654 7.66v-30.64c0-6.804 2.956-12.919 7.654-17.128a22.916 22.916 0 0 1 7.654-4.538 22.772 22.772 0 0 1 7.654-1.313c12.68 0 22.962 10.289 22.962 22.979s-10.281 22.98-22.962 22.98v7.66c16.91 0 30.616-13.72 30.616-30.64S47.527 0 30.616 0Z"/>
</svg>
