<svg xmlns="http://www.w3.org/2000/svg" fill="currentColor" viewBox="0 0 1176 1474">
  <path d="M734.994 589.59c0 81.401-65.821 147.402-147 147.402v147.401c162.358 0 294-132.001 294-294.803 0-162.801-131.642-294.803-294-294.803-53.521 0-103.784 14.334-147 39.467-87.894 50.934-147 146.202-147 255.336v737.01l132.174 132.53 14.826 14.87V589.59c0-81.401 65.821-147.401 147-147.401s147 66 147 147.401Z"/>
  <path d="M588 0C480.891 0 380.498 28.734 294 78.934c-55.383 32.067-104.981 72.934-147 120.735C55.516 303.603 0 440.138 0 589.606v442.204l147 147.4V589.606c0-130.934 56.779-248.602 147-329.603 42.418-38.001 92.216-68.001 147-87.334 45.942-16.401 95.474-25.267 147-25.267 243.537 0 441 198.002 441 442.204 0 244.203-197.463 442.204-441 442.204v147.4c324.783 0 588-264 588-589.604C1176 264.003 912.783 0 588 0Z"/>
</svg>
