<svg viewBox="0 0 692 692" fill="none" xmlns="http://www.w3.org/2000/svg">
<circle opacity="0.5" cx="346" cy="346" r="224" fill="#27253D"/>
<circle cx="346" cy="346" r="270.44" stroke="#27253D" stroke-width="1.12"/>
<g filter="url(#filter0_dddd_10070_1766)">
<rect x="41" y="286" width="299.901" height="120" rx="11.9008" fill="#28263C"/>
<path d="M76.701 302.388L88.443 321.791L76.7445 316.791L76.701 302.388Z" fill="#2F3030"/>
<path d="M64.9913 321.791L76.7011 302.388L76.7445 316.791L64.9913 321.791Z" fill="#828384"/>
<path d="M76.7011 328.945L64.9913 321.791L76.7445 316.791L76.7011 328.945Z" fill="#343535"/>
<path d="M88.443 321.791L76.7445 316.791L76.701 328.945L88.443 321.791Z" fill="#131313"/>
<path d="M76.701 331.408L88.443 324.447L76.701 340.992V331.408Z" fill="#2F3030"/>
<path d="M76.7011 331.408L64.9913 324.447L76.7011 340.992V331.408Z" fill="#828384"/>
<path d="M109.706 317.219V305.679H116.941V307.178H111.447V310.694H116.563V312.187H111.447V315.72H117.009V317.219H109.706ZM118.698 307.178V305.679H127.629V307.178H124.028V317.219H122.293V307.178H118.698ZM129.603 317.219V305.679H131.344V310.694H137.097V305.679H138.844V317.219H137.097V312.187H131.344V317.219H129.603Z" fill="#E2E3F0"/>
<path d="M148.842 306.648L145.588 318.738H144.765L148.019 306.648H148.842Z" fill="#CBCEE1"/>
<path opacity="0.5" d="M162.061 305.679H163.808V313.269C163.808 314.077 163.618 314.792 163.239 315.416C162.859 316.036 162.326 316.524 161.638 316.881C160.951 317.234 160.145 317.411 159.221 317.411C158.301 317.411 157.497 317.234 156.809 316.881C156.122 316.524 155.588 316.036 155.209 315.416C154.829 314.792 154.64 314.077 154.64 313.269V305.679H156.381V313.128C156.381 313.65 156.495 314.114 156.725 314.52C156.958 314.926 157.286 315.245 157.711 315.478C158.135 315.707 158.639 315.822 159.221 315.822C159.807 315.822 160.312 315.707 160.737 315.478C161.165 315.245 161.492 314.926 161.717 314.52C161.946 314.114 162.061 313.65 162.061 313.128V305.679ZM172.633 308.71C172.573 308.177 172.325 307.764 171.889 307.471C171.454 307.174 170.905 307.026 170.244 307.026C169.771 307.026 169.361 307.101 169.016 307.251C168.67 307.397 168.401 307.6 168.21 307.859C168.022 308.115 167.928 308.406 167.928 308.733C167.928 309.007 167.992 309.244 168.12 309.443C168.251 309.642 168.422 309.809 168.633 309.944C168.847 310.076 169.076 310.187 169.32 310.277C169.564 310.363 169.799 310.435 170.024 310.491L171.151 310.784C171.519 310.874 171.897 310.996 172.284 311.15C172.671 311.304 173.03 311.507 173.36 311.759C173.691 312.011 173.957 312.322 174.16 312.694C174.367 313.066 174.47 313.511 174.47 314.03C174.47 314.683 174.301 315.264 173.963 315.771C173.629 316.278 173.142 316.678 172.504 316.971C171.869 317.264 171.101 317.411 170.199 317.411C169.335 317.411 168.587 317.273 167.956 316.999C167.325 316.725 166.831 316.336 166.474 315.833C166.117 315.326 165.92 314.725 165.883 314.03H167.629C167.663 314.447 167.799 314.794 168.035 315.072C168.276 315.346 168.582 315.551 168.954 315.686C169.329 315.818 169.741 315.884 170.188 315.884C170.68 315.884 171.117 315.807 171.501 315.653C171.888 315.495 172.192 315.277 172.413 314.999C172.635 314.717 172.746 314.388 172.746 314.013C172.746 313.671 172.648 313.391 172.453 313.173C172.261 312.955 172 312.775 171.67 312.632C171.343 312.489 170.973 312.364 170.56 312.255L169.196 311.883C168.272 311.631 167.539 311.261 166.998 310.773C166.461 310.284 166.193 309.638 166.193 308.834C166.193 308.169 166.373 307.589 166.734 307.093C167.094 306.597 167.583 306.212 168.199 305.938C168.815 305.66 169.51 305.521 170.284 305.521C171.065 305.521 171.754 305.658 172.352 305.932C172.953 306.207 173.426 306.584 173.771 307.065C174.117 307.542 174.297 308.091 174.312 308.71H172.633ZM180.287 317.219H176.551V305.679H180.405C181.536 305.679 182.507 305.91 183.318 306.372C184.13 306.83 184.751 307.489 185.183 308.35C185.619 309.206 185.837 310.234 185.837 311.432C185.837 312.634 185.617 313.667 185.178 314.531C184.742 315.395 184.111 316.06 183.285 316.526C182.458 316.988 181.459 317.219 180.287 317.219ZM178.292 315.698H180.191C181.07 315.698 181.801 315.532 182.383 315.202C182.965 314.867 183.401 314.385 183.69 313.754C183.98 313.119 184.124 312.345 184.124 311.432C184.124 310.527 183.98 309.758 183.69 309.127C183.405 308.496 182.978 308.017 182.411 307.69C181.844 307.364 181.14 307.2 180.298 307.2H178.292V315.698Z" fill="#E2E3F0"/>
<path d="M109.389 337.186V328.531H114.815V329.655H110.695V332.292H114.532V333.412H110.695V336.062H114.866V337.186H109.389ZM116.014 329.655V328.531H122.712V329.655H120.012V337.186H118.71V329.655H116.014ZM124.073 337.186V328.531H125.379V332.292H129.694V328.531H131.004V337.186H129.694V333.412H125.379V337.186H124.073ZM132.787 337.186V328.531H138.213V329.655H134.093V332.292H137.93V333.412H134.093V336.062H138.264V337.186H132.787ZM139.839 337.186V328.531H142.924C143.594 328.531 144.151 328.646 144.593 328.877C145.038 329.108 145.371 329.428 145.591 329.837C145.81 330.242 145.92 330.711 145.92 331.244C145.92 331.774 145.809 332.24 145.586 332.643C145.367 333.043 145.034 333.354 144.589 333.577C144.147 333.799 143.59 333.911 142.92 333.911H140.583V332.786H142.801C143.224 332.786 143.568 332.726 143.832 332.605C144.1 332.484 144.296 332.308 144.42 332.077C144.544 331.845 144.606 331.568 144.606 331.244C144.606 330.917 144.542 330.634 144.416 330.394C144.292 330.155 144.096 329.972 143.828 329.845C143.563 329.715 143.215 329.651 142.784 329.651H141.145V337.186H139.839ZM144.111 333.281L146.25 337.186H144.762L142.666 333.281H144.111ZM147.39 337.186V328.531H152.817V329.655H148.696V332.292H152.533V333.412H148.696V336.062H152.867V337.186H147.39ZM160.008 328.531H161.318V334.223C161.318 334.829 161.176 335.366 160.891 335.834C160.606 336.298 160.206 336.665 159.691 336.932C159.175 337.197 158.571 337.33 157.878 337.33C157.187 337.33 156.585 337.197 156.069 336.932C155.553 336.665 155.153 336.298 154.869 335.834C154.584 335.366 154.442 334.829 154.442 334.223V328.531H155.748V334.118C155.748 334.509 155.834 334.857 156.006 335.162C156.18 335.466 156.427 335.705 156.745 335.88C157.063 336.052 157.441 336.138 157.878 336.138C158.317 336.138 158.696 336.052 159.015 335.88C159.336 335.705 159.581 335.466 159.75 335.162C159.922 334.857 160.008 334.509 160.008 334.118V328.531ZM163.097 328.531H164.682L167.438 335.259H167.539L170.295 328.531H171.879V337.186H170.637V330.923H170.557L168.004 337.173H166.973L164.42 330.919H164.34V337.186H163.097V328.531ZM179.884 328.125L177.095 338.488H175.967L178.756 328.125H179.884ZM189.537 328.531H190.847V334.223C190.847 334.829 190.704 335.366 190.42 335.834C190.135 336.298 189.735 336.665 189.22 336.932C188.704 337.197 188.1 337.33 187.407 337.33C186.716 337.33 186.113 337.197 185.598 336.932C185.082 336.665 184.682 336.298 184.398 335.834C184.113 335.366 183.971 334.829 183.971 334.223V328.531H185.277V334.118C185.277 334.509 185.363 334.857 185.534 335.162C185.709 335.466 185.956 335.705 186.274 335.88C186.592 336.052 186.97 336.138 187.407 336.138C187.846 336.138 188.225 336.052 188.543 335.88C188.865 335.705 189.11 335.466 189.279 335.162C189.451 334.857 189.537 334.509 189.537 334.118V328.531ZM197.347 330.804C197.302 330.404 197.116 330.094 196.789 329.875C196.462 329.652 196.051 329.541 195.555 329.541C195.2 329.541 194.893 329.597 194.634 329.71C194.375 329.82 194.173 329.972 194.029 330.166C193.889 330.358 193.818 330.576 193.818 330.821C193.818 331.027 193.866 331.205 193.962 331.354C194.06 331.503 194.189 331.629 194.346 331.73C194.507 331.829 194.679 331.912 194.862 331.979C195.045 332.044 195.221 332.098 195.39 332.14L196.235 332.36C196.512 332.427 196.795 332.519 197.085 332.634C197.375 332.75 197.644 332.902 197.892 333.091C198.14 333.28 198.34 333.513 198.492 333.792C198.647 334.071 198.725 334.405 198.725 334.794C198.725 335.284 198.598 335.719 198.344 336.1C198.094 336.48 197.729 336.78 197.25 337C196.774 337.22 196.197 337.33 195.521 337.33C194.873 337.33 194.313 337.227 193.839 337.021C193.366 336.815 192.995 336.524 192.728 336.146C192.46 335.766 192.312 335.315 192.284 334.794H193.594C193.619 335.107 193.721 335.367 193.898 335.576C194.079 335.781 194.308 335.935 194.587 336.036C194.869 336.135 195.178 336.184 195.513 336.184C195.882 336.184 196.21 336.127 196.497 336.011C196.788 335.893 197.016 335.729 197.182 335.521C197.348 335.31 197.431 335.063 197.431 334.781C197.431 334.525 197.358 334.315 197.212 334.152C197.068 333.988 196.872 333.853 196.624 333.746C196.379 333.639 196.102 333.544 195.792 333.463L194.769 333.184C194.076 332.995 193.526 332.717 193.121 332.351C192.718 331.985 192.516 331.5 192.516 330.897C192.516 330.399 192.652 329.963 192.922 329.592C193.193 329.22 193.559 328.931 194.021 328.725C194.483 328.517 195.004 328.412 195.585 328.412C196.171 328.412 196.688 328.515 197.136 328.721C197.586 328.927 197.941 329.21 198.201 329.57C198.46 329.928 198.595 330.34 198.606 330.804H197.347ZM205.999 337.186H203.197V328.531H206.087C206.935 328.531 207.664 328.704 208.272 329.051C208.881 329.394 209.347 329.889 209.671 330.534C209.998 331.176 210.161 331.947 210.161 332.846C210.161 333.747 209.997 334.522 209.667 335.17C209.34 335.818 208.867 336.317 208.247 336.666C207.627 337.013 206.878 337.186 205.999 337.186ZM204.503 336.045H205.927C206.586 336.045 207.134 335.921 207.571 335.673C208.007 335.422 208.334 335.06 208.551 334.587C208.768 334.111 208.877 333.53 208.877 332.846C208.877 332.167 208.768 331.59 208.551 331.117C208.337 330.644 208.017 330.285 207.592 330.039C207.166 329.794 206.638 329.672 206.007 329.672H204.503V336.045ZM219.185 332.858C219.185 333.782 219.016 334.577 218.677 335.242C218.339 335.904 217.876 336.414 217.287 336.772C216.701 337.127 216.035 337.304 215.288 337.304C214.539 337.304 213.869 337.127 213.281 336.772C212.695 336.414 212.233 335.903 211.894 335.238C211.556 334.573 211.387 333.78 211.387 332.858C211.387 331.934 211.556 331.141 211.894 330.479C212.233 329.814 212.695 329.304 213.281 328.949C213.869 328.591 214.539 328.412 215.288 328.412C216.035 328.412 216.701 328.591 217.287 328.949C217.876 329.304 218.339 329.814 218.677 330.479C219.016 331.141 219.185 331.934 219.185 332.858ZM217.891 332.858C217.891 332.154 217.777 331.561 217.549 331.079C217.324 330.595 217.014 330.228 216.619 329.98C216.228 329.73 215.784 329.604 215.288 329.604C214.789 329.604 214.344 329.73 213.953 329.98C213.561 330.228 213.251 330.595 213.023 331.079C212.797 331.561 212.685 332.154 212.685 332.858C212.685 333.563 212.797 334.157 213.023 334.642C213.251 335.124 213.561 335.49 213.953 335.741C214.344 335.989 214.789 336.112 215.288 336.112C215.784 336.112 216.228 335.989 216.619 335.741C217.014 335.49 217.324 335.124 217.549 334.642C217.777 334.157 217.891 333.563 217.891 332.858ZM220.694 337.186V328.531H222V336.062H225.921V337.186H220.694ZM227.292 337.186V328.531H228.598V336.062H232.52V337.186H227.292ZM235.063 337.186H233.677L236.792 328.531H238.301L241.415 337.186H240.029L237.582 330.103H237.515L235.063 337.186ZM235.296 333.797H239.792V334.895H235.296V333.797ZM242.546 337.186V328.531H245.631C246.302 328.531 246.858 328.646 247.301 328.877C247.746 329.108 248.078 329.428 248.298 329.837C248.518 330.242 248.628 330.711 248.628 331.244C248.628 331.774 248.516 332.24 248.294 332.643C248.074 333.043 247.741 333.354 247.296 333.577C246.854 333.799 246.298 333.911 245.627 333.911H243.29V332.786H245.509C245.931 332.786 246.275 332.726 246.54 332.605C246.807 332.484 247.003 332.308 247.127 332.077C247.251 331.845 247.313 331.568 247.313 331.244C247.313 330.917 247.25 330.634 247.123 330.394C246.999 330.155 246.803 329.972 246.536 329.845C246.271 329.715 245.923 329.651 245.492 329.651H243.852V337.186H242.546ZM246.819 333.281L248.957 337.186H247.47L245.373 333.281H246.819Z" fill="#CBCEE1"/>
<rect x="56.8678" y="366.331" width="95.2066" height="23.8017" rx="5.28926" fill="#3A384D"/>
<path d="M288.739 379.991C288.709 380.065 288.657 380.127 288.591 380.172C288.525 380.216 288.447 380.239 288.368 380.239H280.337C280.257 380.239 280.18 380.216 280.114 380.172C280.047 380.128 279.996 380.065 279.966 379.991C279.935 379.918 279.927 379.837 279.943 379.759C279.958 379.681 279.996 379.61 280.053 379.554L284.068 375.538C284.106 375.501 284.15 375.471 284.199 375.451C284.247 375.431 284.3 375.42 284.352 375.42C284.405 375.42 284.457 375.431 284.506 375.451C284.555 375.471 284.599 375.501 284.636 375.538L288.652 379.554C288.708 379.61 288.746 379.681 288.762 379.759C288.777 379.837 288.769 379.918 288.739 379.991Z" fill="#10B981"/>
<rect x="295.061" y="366.331" width="29.9725" height="23.8017" rx="5.28926" fill="#10B981"/>
</g>
<g filter="url(#filter1_dddd_10070_1766)">
<rect x="352.008" y="286" width="299.901" height="120" rx="11.9008" fill="#28263C"/>
<g clip-path="url(#clip0_10070_1766)">
<path d="M387.711 341.497C398.287 341.497 406.863 332.992 406.863 322.504C406.863 312.015 398.287 303.51 387.711 303.51C377.135 303.518 368.558 312.015 368.558 322.504C368.558 332.992 377.135 341.497 387.711 341.497Z" fill="#ECF3FF"/>
<path d="M382.538 310.92L375.834 308.263V309.215L381.578 314.34L381.197 319.656L379.475 326.875L377.175 330.105L377.746 334.659L380.618 335.039L382.919 334.659L385.22 335.039L389.242 332.572L390.012 328.581L394.796 324.027L396.898 325.543L399.001 328.581V334.659L401.873 333.897L404.745 327.629L405.514 319.656L395.177 304.653L393.455 304.272L382.538 310.92Z" fill="white"/>
<path d="M372.39 321.901C372.47 321.258 372.502 320.608 372.7 320.005C373.239 317.498 374.271 315.102 375.802 313.166C376.072 312.825 376.302 312.523 376.603 312.214L374.882 310.619C374.572 311.071 374.271 311.531 374.001 311.984C372.581 314.411 371.819 317.148 371.629 319.846C371.549 320.528 371.589 321.211 371.589 321.861C371.589 322.544 371.668 323.194 371.78 323.876C371.97 325.209 372.319 326.495 372.779 327.716C372.47 326.423 372.319 325.13 372.279 323.805C372.271 323.186 372.271 322.544 372.39 321.901Z" fill="#94A6C4"/>
<path d="M380.245 309.595C379.285 309.143 377.944 308.532 376.992 308.08C377.873 307.247 379.483 306.374 380.824 305.803C379.856 306.557 379.856 308.151 380.245 309.595Z" fill="#94A6C4"/>
<path d="M376.373 316.046C375.834 317.379 375.493 318.783 375.374 320.147C375.334 320.489 375.294 320.83 375.334 321.171C375.334 321.512 375.334 321.853 375.374 322.194L375.413 322.734C375.413 322.885 375.453 323.075 375.493 323.226L375.643 324.249L375.683 323.226C375.683 323.075 375.683 322.885 375.723 322.734L375.802 322.242C375.842 321.901 375.913 321.56 375.953 321.258C375.992 320.917 376.104 320.616 376.183 320.306C376.524 319.013 377.103 317.839 377.793 316.736C378.254 316.014 378.793 315.371 379.364 314.76L377.873 313.356C377.214 314.229 376.754 315.102 376.373 316.046Z" fill="#94A6C4"/>
<path d="M398.548 309.556C396.517 308.834 395.716 309.064 395.716 309.064C395.716 309.064 394.455 312.444 389.623 312.674C389.663 312.705 393.994 315.212 398.548 309.556Z" fill="#94A6C4"/>
<path d="M399.929 316.276C399.739 320.457 396.486 322.012 393.955 321.71C392.574 321.52 390.543 322.163 390.543 322.163L387.981 326.566L387.14 326.867L388.591 324.21C388.591 324.21 385.148 325.463 384.878 325.574C384.609 325.685 383.538 327.248 382.657 328.875C382.467 327.732 381.737 326.939 381.737 326.899C381.737 327.09 382.117 330.509 381.697 331.453C381.276 332.437 379.396 333.088 379.396 333.088L382.157 334.111L382.348 334.19L384.418 332.255L385.188 329.367L386.148 328.684C386.148 328.684 388.52 328.415 388.179 330.549C388.028 331.572 386.878 331.501 385.577 332.294C384.807 332.747 383.815 333.468 383.315 333.968L384.696 334.952C384.696 334.952 386.346 334.682 388.679 332.866C391.051 330.969 389.869 328.914 389.869 328.914L393.741 324.321L396.271 324.511C396.271 324.511 400.635 325.614 402.055 329.716C404.872 321.861 400.31 316.657 399.929 316.276Z" fill="#94A6C4"/>
<path d="M404.372 313.015C405.062 313.316 405.594 313.777 406.094 314.189C402.65 302.336 391.464 303.669 391.233 303.74C391.503 303.32 392.495 302.677 393.415 302.336C393.415 302.336 388.663 300.662 384.339 303.629C384.418 302.947 385.259 301.923 385.259 301.923C379.285 304.462 378.904 307.501 380.055 309.326C379.095 308.873 378.143 308.453 377.183 307.993C374.231 306.588 371.708 305.406 371.549 305.375C371.28 305.295 371.169 305.414 371.169 305.414C371.169 305.414 371.05 305.525 371.28 305.755C374.763 309.215 376.984 311.301 380.697 314.681C380.086 316.046 380.007 316.736 380.316 317.45C380.737 318.434 380.697 318.934 380.547 319.576C380.356 320.219 378.825 325.955 378.555 326.606C378.285 327.288 376.254 329.565 376.223 330.327C376.183 331.088 376.794 334.428 377.643 334.92C378.293 335.261 379.864 335.983 381.015 336.134C381.395 336.214 381.784 336.174 381.975 336.023C382.744 335.531 382.935 335.452 383.427 335.492L383.538 335.531C383.728 335.571 383.958 335.642 384.268 335.682C384.918 335.761 385.759 335.761 386.449 335.301C387.449 334.54 389.131 333.595 389.702 333.096C390.392 332.413 390.853 331.461 390.853 330.398C390.853 329.446 391.503 328.692 392.233 327.931C392.923 327.248 394.645 325.574 395.335 324.852C397.097 325.463 397.747 327.97 397.747 329.335C397.747 333.135 394.645 338.681 387.52 339.094C387.251 339.094 386.981 339.133 386.679 339.133C377.413 339.133 369.828 331.009 369.828 321.472C369.828 313.951 374.382 308.858 374.422 308.818C370.74 312.285 368.558 317.109 368.558 322.504C368.558 332.984 377.135 341.498 387.711 341.498C398.287 341.498 406.863 332.984 406.863 322.504C406.863 319.084 405.983 315.784 404.372 313.015ZM378.214 310.579C377.674 310.127 377.143 309.667 376.603 309.215C377.333 309.595 378.055 309.976 378.706 310.317C380.697 311.341 382.348 312.253 382.649 312.483C382.649 312.483 382.689 312.523 382.728 312.563C382.919 312.793 383.109 313.174 382.768 313.665C382.578 313.935 382.348 313.856 381.998 313.626C381.697 313.427 380.055 312.134 378.214 310.579ZM389.361 330.327C389.361 330.969 389.052 331.54 388.671 331.961C388.48 332.151 387.711 332.643 387.179 332.984C386.64 333.365 386.068 333.706 385.608 334.048C385.418 334.159 385.108 334.238 384.609 334.159L383.419 334.008C384.148 333.286 386.14 331.731 386.79 331.421C387.56 331.041 388.012 330.62 387.671 329.747C387.362 328.835 386.18 328.875 386.18 328.875C386.18 328.875 386.909 328.684 387.481 328.764C386.751 328.462 385.759 328.534 385.259 328.875C384.72 329.256 384.569 330.811 384.228 331.763C383.887 332.746 383.117 333.167 381.967 333.968C381.316 334.389 380.896 334.5 380.586 334.46C379.936 334.27 379.166 333.929 378.634 333.659C378.325 333.088 377.944 331.302 377.905 330.58C378.055 330.2 378.674 329.438 378.976 328.986C379.587 328.153 379.936 327.653 380.086 327.201C380.356 326.558 381.467 322.488 381.887 320.782C382.308 321.504 382.887 322.718 382.617 323.4C383.998 321.956 383.387 320.251 383.077 319.56C382.808 318.878 382.506 317.545 383.117 316.26C383.688 314.967 385.68 311.476 385.68 311.476C385.68 311.476 386.021 312.388 386.751 312.309C387.441 312.229 394.066 304.867 394.066 304.867C394.066 304.867 395.097 308.286 393.185 310.373C391.273 312.46 389.663 312.69 389.663 312.69C389.663 312.69 391.805 313.372 394.026 312.237C394.597 314.292 395.097 316.419 395.097 316.68C394.947 316.95 392.796 320.52 392.606 320.742C392.527 320.822 391.916 320.893 391.535 320.893C390.845 321.004 390.424 321.044 390.234 321.163C389.924 321.353 388.163 324.654 387.322 326.249C386.552 326.36 385.791 326.629 385.18 327.351C385.489 327.201 386.37 327.201 387.021 327.201C387.592 327.24 389.163 328.375 389.353 330.16C389.361 330.295 389.361 330.295 389.361 330.327ZM384.878 331.921C385.299 331.469 385.378 330.588 385.45 330.327C385.529 330.057 385.68 329.565 386.021 329.525C386.362 329.486 387.092 329.716 387.021 330.287C386.941 330.819 386.37 330.858 385.91 331.12C385.608 331.318 384.95 331.85 384.878 331.921ZM401.54 332.421C401.079 327.558 397.708 325.281 396.216 324.519C397.938 324.329 402.381 323.004 399.929 316.276C400.008 316.577 400.699 319.925 398.739 321.671C396.748 323.456 393.836 322.694 393.495 322.694C393.185 322.655 391.733 324.059 389.742 326.756C389.551 326.645 388.742 326.336 387.75 326.376C388.75 324.511 390.242 321.853 390.472 321.631C390.551 321.552 391.202 321.48 391.583 321.441C392.352 321.361 392.733 321.29 392.884 321.139C392.963 321.028 393.495 320.187 394.034 319.275C394.375 319.314 395.296 319.386 395.415 319.354C395.494 319.275 396.525 317.458 396.565 317.228C396.605 317.077 395.875 314.229 395.415 312.404C404.872 316.847 406.363 326.645 401.54 332.421Z" fill="#1C324F"/>
<path d="M392.424 309.818C393.495 308.865 393.344 307.231 393.344 307.231L390.131 310.762C390.083 310.77 391.083 310.96 392.424 309.818Z" fill="#1C324F"/>
<path d="M380.396 329.914L380.935 328.399C380.935 328.399 379.285 330.485 379.134 330.795C378.984 331.136 379.055 331.779 379.594 331.818C380.134 331.858 380.856 331.176 380.935 330.644C381.046 329.914 380.396 329.914 380.396 329.914Z" fill="#1C324F"/>
<path d="M385.45 320.719C386.6 320.608 388.663 319.695 389.551 318.973C390.432 318.212 390.281 316.546 388.901 316.046C389.361 315.284 390.123 313.689 390.123 313.689C390.123 313.689 385.18 319.426 384.799 319.497C384.418 319.576 384.26 318.132 384.26 318.132C383.117 320.909 385.069 321.591 385.45 320.719Z" fill="#1C324F"/>
<path d="M385.87 319.997L388.433 316.768C388.433 316.768 389.544 317.529 388.814 318.402C387.901 319.426 385.87 319.997 385.87 319.997Z" fill="#FFD925"/>
<path d="M392.693 305.605L390.932 307.501C389.512 307.921 388.139 308.675 386.83 309.929C386.83 309.215 388.941 306.057 392.693 305.605Z" fill="#D82423"/>
<path d="M394.915 307.239C394.954 306.747 394.915 306.176 394.835 305.644C397.136 305.946 399.85 307.279 402.952 310.278C400.389 308.873 397.668 307.58 394.915 307.239Z" fill="#D82423"/>
<path d="M395.605 309.706C395.605 309.706 404.142 313.427 405.713 323.876C405.943 310.278 396.216 309.595 395.605 309.706Z" fill="#D82423"/>
<path d="M383.157 303.708C383.046 304.01 378.214 309.143 384.228 311.15C380.935 308.223 383.117 303.74 383.157 303.708Z" fill="#D82423"/>
<path d="M385.719 310.349C385.719 310.349 386.219 304.542 389.742 302.979C389.472 303.058 382.316 305.224 385.719 310.349Z" fill="#D82423"/>
</g>
<path d="M424.935 305.679V317.219H423.188V307.426H423.12L420.359 309.229V307.561L423.239 305.679H424.935ZM429.955 305.679V317.219H428.214V305.679H429.955ZM441.805 305.679V317.219H440.205L434.339 308.755H434.232V317.219H432.491V305.679H434.103L439.974 314.154H440.081V305.679H441.805ZM453.93 309.432H452.172C452.105 309.056 451.979 308.725 451.795 308.44C451.611 308.154 451.385 307.912 451.118 307.713C450.852 307.514 450.553 307.364 450.223 307.262C449.896 307.161 449.548 307.11 449.18 307.11C448.515 307.11 447.92 307.277 447.394 307.612C446.872 307.946 446.458 308.436 446.154 309.082C445.854 309.728 445.703 310.517 445.703 311.449C445.703 312.388 445.854 313.181 446.154 313.827C446.458 314.473 446.874 314.961 447.399 315.292C447.925 315.622 448.517 315.788 449.174 315.788C449.539 315.788 449.884 315.739 450.211 315.641C450.542 315.54 450.841 315.391 451.107 315.196C451.374 315.001 451.599 314.762 451.783 314.48C451.971 314.195 452.101 313.868 452.172 313.5L453.93 313.506C453.836 314.073 453.654 314.595 453.384 315.072C453.117 315.545 452.773 315.955 452.353 316.301C451.936 316.642 451.458 316.907 450.921 317.095C450.384 317.283 449.798 317.377 449.163 317.377C448.164 317.377 447.274 317.14 446.492 316.667C445.711 316.19 445.095 315.508 444.644 314.621C444.197 313.735 443.973 312.677 443.973 311.449C443.973 310.217 444.199 309.159 444.65 308.276C445.1 307.39 445.717 306.71 446.498 306.237C447.279 305.76 448.168 305.521 449.163 305.521C449.776 305.521 450.347 305.609 450.876 305.786C451.41 305.959 451.889 306.214 452.313 306.552C452.738 306.887 453.089 307.296 453.367 307.781C453.645 308.261 453.833 308.812 453.93 309.432ZM456.014 317.219V305.679H457.755V310.694H463.508V305.679H465.255V317.219H463.508V312.187H457.755V317.219H456.014Z" fill="#E2E3F0"/>
<path d="M475.851 306.648L472.597 318.738H471.773L475.027 306.648H475.851Z" fill="#CBCEE1"/>
<path opacity="0.5" d="M489.069 305.679H490.816V313.269C490.816 314.077 490.626 314.792 490.247 315.416C489.867 316.036 489.334 316.524 488.647 316.881C487.959 317.234 487.153 317.411 486.229 317.411C485.309 317.411 484.505 317.234 483.818 316.881C483.13 316.524 482.597 316.036 482.217 315.416C481.838 314.792 481.648 314.077 481.648 313.269V305.679H483.389V313.128C483.389 313.65 483.504 314.114 483.733 314.52C483.966 314.926 484.295 315.245 484.719 315.478C485.144 315.707 485.647 315.822 486.229 315.822C486.815 315.822 487.321 315.707 487.745 315.478C488.173 315.245 488.5 314.926 488.725 314.52C488.955 314.114 489.069 313.65 489.069 313.128V305.679ZM499.642 308.71C499.582 308.177 499.334 307.764 498.898 307.471C498.462 307.174 497.914 307.026 497.252 307.026C496.779 307.026 496.37 307.101 496.024 307.251C495.678 307.397 495.41 307.6 495.218 307.859C495.03 308.115 494.937 308.406 494.937 308.733C494.937 309.007 495 309.244 495.128 309.443C495.26 309.642 495.43 309.809 495.641 309.944C495.855 310.076 496.084 310.187 496.328 310.277C496.572 310.363 496.807 310.435 497.033 310.491L498.16 310.784C498.528 310.874 498.905 310.996 499.292 311.15C499.679 311.304 500.038 311.507 500.369 311.759C500.699 312.011 500.966 312.322 501.169 312.694C501.375 313.066 501.479 313.511 501.479 314.03C501.479 314.683 501.31 315.264 500.971 315.771C500.637 316.278 500.151 316.678 499.512 316.971C498.877 317.264 498.109 317.411 497.207 317.411C496.343 317.411 495.596 317.273 494.965 316.999C494.334 316.725 493.84 316.336 493.483 315.833C493.126 315.326 492.929 314.725 492.891 314.03H494.638C494.672 314.447 494.807 314.794 495.044 315.072C495.284 315.346 495.59 315.551 495.962 315.686C496.338 315.818 496.749 315.884 497.196 315.884C497.688 315.884 498.126 315.807 498.509 315.653C498.896 315.495 499.2 315.277 499.422 314.999C499.643 314.717 499.754 314.388 499.754 314.013C499.754 313.671 499.657 313.391 499.461 313.173C499.27 312.955 499.009 312.775 498.678 312.632C498.351 312.489 497.981 312.364 497.568 312.255L496.204 311.883C495.28 311.631 494.548 311.261 494.007 310.773C493.47 310.284 493.201 309.638 493.201 308.834C493.201 308.169 493.381 307.589 493.742 307.093C494.103 306.597 494.591 306.212 495.207 305.938C495.823 305.66 496.518 305.521 497.292 305.521C498.073 305.521 498.763 305.658 499.36 305.932C499.961 306.207 500.434 306.584 500.78 307.065C501.125 307.542 501.306 308.091 501.321 308.71H499.642ZM507.295 317.219H503.559V305.679H507.413C508.544 305.679 509.515 305.91 510.327 306.372C511.138 306.83 511.76 307.489 512.192 308.35C512.628 309.206 512.846 310.234 512.846 311.432C512.846 312.634 512.626 313.667 512.186 314.531C511.75 315.395 511.119 316.06 510.293 316.526C509.466 316.988 508.467 317.219 507.295 317.219ZM505.3 315.698H507.199C508.078 315.698 508.809 315.532 509.391 315.202C509.974 314.867 510.409 314.385 510.699 313.754C510.988 313.119 511.133 312.345 511.133 311.432C511.133 310.527 510.988 309.758 510.699 309.127C510.413 308.496 509.987 308.017 509.42 307.69C508.852 307.364 508.148 307.2 507.306 307.2H505.3V315.698Z" fill="#E2E3F0"/>
<path d="M423.563 328.531V337.186H422.253V329.841H422.202L420.131 331.193V329.942L422.291 328.531H423.563ZM427.209 328.531V337.186H425.903V328.531H427.209ZM435.978 328.531V337.186H434.777L430.378 330.838H430.298V337.186H428.992V328.531H430.201L434.604 334.887H434.684V328.531H435.978ZM444.952 331.345H443.634C443.583 331.064 443.489 330.816 443.351 330.602C443.213 330.387 443.043 330.206 442.843 330.056C442.643 329.907 442.419 329.794 442.171 329.718C441.926 329.642 441.666 329.604 441.39 329.604C440.891 329.604 440.444 329.73 440.05 329.98C439.658 330.231 439.348 330.599 439.12 331.083C438.895 331.568 438.782 332.16 438.782 332.858C438.782 333.563 438.895 334.157 439.12 334.642C439.348 335.126 439.66 335.493 440.054 335.741C440.449 335.989 440.892 336.112 441.385 336.112C441.659 336.112 441.918 336.076 442.163 336.003C442.411 335.927 442.635 335.815 442.835 335.669C443.035 335.522 443.204 335.343 443.342 335.132C443.483 334.918 443.58 334.673 443.634 334.397L444.952 334.401C444.882 334.826 444.745 335.218 444.542 335.576C444.342 335.931 444.085 336.238 443.769 336.497C443.456 336.753 443.098 336.952 442.696 337.093C442.293 337.234 441.853 337.304 441.377 337.304C440.628 337.304 439.96 337.127 439.374 336.772C438.788 336.414 438.326 335.903 437.988 335.238C437.652 334.573 437.485 333.78 437.485 332.858C437.485 331.934 437.654 331.141 437.992 330.479C438.33 329.814 438.792 329.304 439.378 328.949C439.964 328.591 440.63 328.412 441.377 328.412C441.836 328.412 442.264 328.479 442.662 328.611C443.062 328.741 443.421 328.932 443.739 329.186C444.058 329.437 444.321 329.744 444.53 330.107C444.738 330.468 444.879 330.881 444.952 331.345ZM446.396 337.186V328.531H447.702V332.292H452.017V328.531H453.327V337.186H452.017V333.412H447.702V337.186H446.396ZM461.335 328.125L458.546 338.488H457.417L460.207 328.125H461.335ZM470.987 328.531H472.297V334.223C472.297 334.829 472.155 335.366 471.871 335.834C471.586 336.298 471.186 336.665 470.67 336.932C470.155 337.197 469.55 337.33 468.857 337.33C468.167 337.33 467.564 337.197 467.048 336.932C466.533 336.665 466.133 336.298 465.848 335.834C465.564 335.366 465.421 334.829 465.421 334.223V328.531H466.727V334.118C466.727 334.509 466.813 334.857 466.985 335.162C467.16 335.466 467.406 335.705 467.725 335.88C468.043 336.052 468.421 336.138 468.857 336.138C469.297 336.138 469.676 336.052 469.994 335.88C470.315 335.705 470.56 335.466 470.729 335.162C470.901 334.857 470.987 334.509 470.987 334.118V328.531ZM478.798 330.804C478.752 330.404 478.567 330.094 478.24 329.875C477.913 329.652 477.502 329.541 477.006 329.541C476.651 329.541 476.344 329.597 476.084 329.71C475.825 329.82 475.624 329.972 475.48 330.166C475.339 330.358 475.269 330.576 475.269 330.821C475.269 331.027 475.317 331.205 475.412 331.354C475.511 331.503 475.639 331.629 475.797 331.73C475.958 331.829 476.129 331.912 476.313 331.979C476.496 332.044 476.672 332.098 476.841 332.14L477.686 332.36C477.962 332.427 478.245 332.519 478.536 332.634C478.826 332.75 479.095 332.902 479.343 333.091C479.591 333.28 479.791 333.513 479.943 333.792C480.098 334.071 480.175 334.405 480.175 334.794C480.175 335.284 480.048 335.719 479.795 336.1C479.544 336.48 479.179 336.78 478.7 337C478.224 337.22 477.648 337.33 476.972 337.33C476.324 337.33 475.763 337.227 475.29 337.021C474.817 336.815 474.446 336.524 474.178 336.146C473.911 335.766 473.763 335.315 473.735 334.794H475.045C475.07 335.107 475.172 335.367 475.349 335.576C475.529 335.781 475.759 335.935 476.038 336.036C476.32 336.135 476.628 336.184 476.963 336.184C477.332 336.184 477.661 336.127 477.948 336.011C478.238 335.893 478.466 335.729 478.633 335.521C478.799 335.31 478.882 335.063 478.882 334.781C478.882 334.525 478.809 334.315 478.662 334.152C478.519 333.988 478.323 333.853 478.075 333.746C477.83 333.639 477.552 333.544 477.242 333.463L476.22 333.184C475.527 332.995 474.977 332.717 474.571 332.351C474.169 331.985 473.967 331.5 473.967 330.897C473.967 330.399 474.102 329.963 474.373 329.592C474.643 329.22 475.01 328.931 475.472 328.725C475.934 328.517 476.455 328.412 477.035 328.412C477.621 328.412 478.138 328.515 478.586 328.721C479.037 328.927 479.392 329.21 479.651 329.57C479.91 329.928 480.046 330.34 480.057 330.804H478.798ZM487.449 337.186H484.647V328.531H487.538C488.386 328.531 489.114 328.704 489.723 329.051C490.331 329.394 490.798 329.889 491.122 330.534C491.449 331.176 491.612 331.947 491.612 332.846C491.612 333.747 491.447 334.522 491.118 335.17C490.791 335.818 490.317 336.317 489.698 336.666C489.078 337.013 488.328 337.186 487.449 337.186ZM485.953 336.045H487.377C488.037 336.045 488.585 335.921 489.021 335.673C489.458 335.422 489.785 335.06 490.002 334.587C490.219 334.111 490.327 333.53 490.327 332.846C490.327 332.167 490.219 331.59 490.002 331.117C489.788 330.644 489.468 330.285 489.042 330.039C488.617 329.794 488.089 329.672 487.458 329.672H485.953V336.045ZM500.635 332.858C500.635 333.782 500.466 334.577 500.128 335.242C499.79 335.904 499.326 336.414 498.738 336.772C498.152 337.127 497.485 337.304 496.739 337.304C495.989 337.304 495.32 337.127 494.731 336.772C494.145 336.414 493.683 335.903 493.345 335.238C493.007 334.573 492.838 333.78 492.838 332.858C492.838 331.934 493.007 331.141 493.345 330.479C493.683 329.814 494.145 329.304 494.731 328.949C495.32 328.591 495.989 328.412 496.739 328.412C497.485 328.412 498.152 328.591 498.738 328.949C499.326 329.304 499.79 329.814 500.128 330.479C500.466 331.141 500.635 331.934 500.635 332.858ZM499.342 332.858C499.342 332.154 499.228 331.561 499 331.079C498.774 330.595 498.464 330.228 498.07 329.98C497.678 329.73 497.235 329.604 496.739 329.604C496.24 329.604 495.795 329.73 495.403 329.98C495.012 330.228 494.702 330.595 494.473 331.079C494.248 331.561 494.135 332.154 494.135 332.858C494.135 333.563 494.248 334.157 494.473 334.642C494.702 335.124 495.012 335.49 495.403 335.741C495.795 335.989 496.24 336.112 496.739 336.112C497.235 336.112 497.678 335.989 498.07 335.741C498.464 335.49 498.774 335.124 499 334.642C499.228 334.157 499.342 333.563 499.342 332.858ZM502.144 337.186V328.531H503.45V336.062H507.372V337.186H502.144ZM514.309 328.531H515.619V334.223C515.619 334.829 515.476 335.366 515.192 335.834C514.907 336.298 514.507 336.665 513.992 336.932C513.476 337.197 512.872 337.33 512.179 337.33C511.488 337.33 510.885 337.197 510.37 336.932C509.854 336.665 509.454 336.298 509.17 335.834C508.885 335.366 508.743 334.829 508.743 334.223V328.531H510.049V334.118C510.049 334.509 510.135 334.857 510.306 335.162C510.481 335.466 510.728 335.705 511.046 335.88C511.364 336.052 511.742 336.138 512.179 336.138C512.618 336.138 512.997 336.052 513.315 335.88C513.637 335.705 513.882 335.466 514.051 335.162C514.223 334.857 514.309 334.509 514.309 334.118V328.531ZM522.119 330.804C522.074 330.404 521.888 330.094 521.561 329.875C521.234 329.652 520.823 329.541 520.327 329.541C519.972 329.541 519.665 329.597 519.406 329.71C519.146 329.82 518.945 329.972 518.801 330.166C518.66 330.358 518.59 330.576 518.59 330.821C518.59 331.027 518.638 331.205 518.734 331.354C518.832 331.503 518.961 331.629 519.118 331.73C519.279 331.829 519.451 331.912 519.634 331.979C519.817 332.044 519.993 332.098 520.162 332.14L521.007 332.36C521.284 332.427 521.567 332.519 521.857 332.634C522.147 332.75 522.416 332.902 522.664 333.091C522.912 333.28 523.112 333.513 523.264 333.792C523.419 334.071 523.497 334.405 523.497 334.794C523.497 335.284 523.37 335.719 523.116 336.1C522.866 336.48 522.501 336.78 522.022 337C521.546 337.22 520.969 337.33 520.293 337.33C519.645 337.33 519.085 337.227 518.611 337.021C518.138 336.815 517.767 336.524 517.5 336.146C517.232 335.766 517.084 335.315 517.056 334.794H518.366C518.391 335.107 518.493 335.367 518.67 335.576C518.851 335.781 519.08 335.935 519.359 336.036C519.641 336.135 519.949 336.184 520.285 336.184C520.654 336.184 520.982 336.127 521.269 336.011C521.56 335.893 521.788 335.729 521.954 335.521C522.12 335.31 522.203 335.063 522.203 334.781C522.203 334.525 522.13 334.315 521.984 334.152C521.84 333.988 521.644 333.853 521.396 333.746C521.151 333.639 520.874 333.544 520.564 333.463L519.541 333.184C518.848 332.995 518.298 332.717 517.893 332.351C517.49 331.985 517.288 331.5 517.288 330.897C517.288 330.399 517.424 329.963 517.694 329.592C517.965 329.22 518.331 328.931 518.793 328.725C519.255 328.517 519.776 328.412 520.357 328.412C520.943 328.412 521.46 328.515 521.908 328.721C522.358 328.927 522.713 329.21 522.973 329.57C523.232 329.928 523.367 330.34 523.378 330.804H522.119ZM527.74 337.186H524.938V328.531H527.829C528.677 328.531 529.405 328.704 530.014 329.051C530.622 329.394 531.089 329.889 531.413 330.534C531.739 331.176 531.903 331.947 531.903 332.846C531.903 333.747 531.738 334.522 531.408 335.17C531.082 335.818 530.608 336.317 529.988 336.666C529.369 337.013 528.619 337.186 527.74 337.186ZM526.244 336.045H527.668C528.327 336.045 528.875 335.921 529.312 335.673C529.749 335.422 530.076 335.06 530.293 334.587C530.51 334.111 530.618 333.53 530.618 332.846C530.618 332.167 530.51 331.59 530.293 331.117C530.078 330.644 529.759 330.285 529.333 330.039C528.908 329.794 528.38 329.672 527.748 329.672H526.244V336.045Z" fill="#CBCEE1"/>
<rect x="367.876" y="366.331" width="95.2066" height="23.8017" rx="5.28926" fill="#27253D"/>
<path d="M599.747 379.991C599.717 380.065 599.665 380.127 599.599 380.172C599.533 380.216 599.456 380.239 599.376 380.239H591.345C591.266 380.239 591.188 380.216 591.122 380.172C591.056 380.128 591.004 380.065 590.974 379.991C590.943 379.918 590.935 379.837 590.951 379.759C590.966 379.681 591.005 379.61 591.061 379.554L595.077 375.538C595.114 375.501 595.158 375.471 595.207 375.451C595.256 375.431 595.308 375.42 595.361 375.42C595.413 375.42 595.466 375.431 595.514 375.451C595.563 375.471 595.607 375.501 595.645 375.538L599.66 379.554C599.717 379.61 599.755 379.681 599.77 379.759C599.786 379.837 599.778 379.918 599.747 379.991Z" fill="#10B981"/>
<rect x="606.069" y="366.331" width="29.9725" height="23.8017" rx="5.28926" fill="#10B981"/>
</g>
<mask id="mask0_10070_1766" style="mask-type:alpha" maskUnits="userSpaceOnUse" x="181" y="181" width="330" height="330">
<circle cx="346" cy="346" r="165" fill="url(#paint0_radial_10070_1766)"/>
</mask>
<g mask="url(#mask0_10070_1766)">
<circle cx="346" cy="346" r="198" fill="url(#paint1_radial_10070_1766)"/>
<g filter="url(#filter2_dddd_10070_1766)">
<rect x="-85" y="270.872" width="377.506" height="151.052" rx="14.9804" fill="#28263C"/>
<path d="M226.846 389.186C226.808 389.278 226.743 389.357 226.66 389.413C226.577 389.468 226.479 389.498 226.379 389.498H216.27C216.17 389.498 216.072 389.468 215.989 389.413C215.906 389.357 215.841 389.278 215.802 389.186C215.764 389.094 215.754 388.992 215.774 388.894C215.793 388.796 215.841 388.706 215.912 388.635L220.967 383.58C221.014 383.533 221.07 383.496 221.131 383.47C221.192 383.445 221.258 383.432 221.325 383.432C221.391 383.432 221.457 383.445 221.518 383.47C221.579 383.496 221.635 383.533 221.682 383.58L226.737 388.635C226.808 388.706 226.856 388.796 226.875 388.894C226.895 388.992 226.884 389.093 226.846 389.186Z" fill="#10B981"/>
<rect x="234.804" y="371.99" width="37.7284" height="29.9608" rx="6.65795" fill="#10B981"/>
</g>
<g filter="url(#filter3_dddd_10070_1766)">
<rect x="317.473" y="256" width="458.561" height="180.797" rx="18.1969" fill="#28263C"/>
<path d="M347.004 295.444C347.94 294.138 348.809 292.787 349.863 291.564C351.78 289.339 353.95 287.431 356.436 285.853C358.665 284.437 361.016 283.321 363.532 282.541C367.45 281.325 371.449 280.964 375.523 281.429C378.5 281.768 381.369 282.529 384.101 283.76C385.755 284.505 387.311 285.425 388.835 286.42C391.908 288.423 394.369 291.031 396.427 294.011C398.625 297.194 400.053 300.734 400.836 304.532C401.386 307.199 401.619 309.89 401.383 312.6C401.091 315.94 400.35 319.161 398.964 322.257C397.792 324.875 396.345 327.279 394.492 329.451C392.68 331.575 390.636 333.433 388.287 334.966C386.688 336.009 385.021 336.94 383.261 337.631C380.316 338.788 377.262 339.571 374.067 339.708C371.817 339.804 369.58 339.766 367.361 339.373C365.454 339.034 363.594 338.541 361.773 337.857C360.006 337.193 358.292 336.407 356.713 335.413C354.436 333.98 352.384 332.241 350.558 330.237C348.523 328.005 346.873 325.53 345.611 322.796C343.827 318.934 342.951 314.862 342.898 310.613C342.879 309.015 343.062 307.429 343.275 305.847C343.29 305.734 343.275 305.617 343.274 305.501C343.46 305.386 343.443 305.184 343.477 305.008C343.951 302.523 344.75 300.148 345.833 297.862C346.216 297.052 346.746 296.313 347.004 295.444ZM381.181 311.138C381.974 310.717 382.728 310.475 383.324 309.943C385.619 307.893 386.23 303.068 382.505 300.744C381.345 300.02 380.107 299.483 378.772 298.935C378.993 297.148 379.707 295.476 379.94 293.646C378.839 293.373 377.807 293.011 376.734 292.895C376.295 294.614 375.874 296.263 375.439 297.97C374.616 297.718 373.77 297.742 372.996 297.306C373.275 295.56 373.938 293.925 374.12 292.173C372.989 291.995 372.031 291.555 370.934 291.507C370.501 293.231 370.083 294.899 369.649 296.629C367.473 296.295 365.474 295.546 363.278 295.144C362.796 296.225 362.582 297.365 362.388 298.579C363.104 298.747 363.725 298.897 364.348 299.041C365.921 299.405 366.352 300.264 365.979 301.64C365.713 302.618 365.473 303.604 365.229 304.588C364.35 308.125 363.478 311.664 362.594 315.201C362.395 315.997 361.898 316.257 361.09 316.138C360.294 316.022 359.542 315.664 358.665 315.69C358.284 316.907 357.527 317.98 357.259 319.323C359.35 319.856 361.373 320.371 363.488 320.91C363.329 322.755 362.564 324.443 362.338 326.301C363.398 326.555 364.396 326.794 365.437 327.044C366.123 325.34 366.281 323.55 366.92 321.788C367.691 322.184 368.545 322.069 369.299 322.567C368.888 324.266 368.479 325.958 368.065 327.672C369.155 328.062 370.218 328.221 371.311 328.493C371.753 326.721 372.18 325.008 372.594 323.351C372.852 323.219 373.04 323.243 373.218 323.281C374.93 323.648 376.662 323.733 378.395 323.541C379.895 323.374 381.227 322.802 382.295 321.676C383.483 320.424 384.079 318.892 384.367 317.244C384.601 315.902 384.541 314.542 383.753 313.353C383.135 312.422 382.287 311.712 381.181 311.138ZM368.804 318.133C370.916 318.657 373.026 319.219 375.236 318.815C376.415 318.6 377.303 317.999 377.66 316.813C377.998 315.695 377.802 314.679 376.972 313.795C376.11 312.876 375 312.398 373.857 311.999C372.49 311.521 371.105 311.088 369.612 310.97C369.04 313.295 368.485 315.552 367.917 317.859C368.279 317.972 368.538 318.067 368.804 318.133ZM376.265 308.388C377.433 308.223 378.401 307.45 378.686 306.4C379.034 305.116 378.645 303.99 377.606 303.224C376.427 302.355 375.07 301.913 373.667 301.606C373.144 301.492 372.63 301.187 371.998 301.393C371.496 303.435 370.991 305.487 370.47 307.605C372.466 308.109 374.305 308.667 376.265 308.388Z" fill="#F39321"/>
<path d="M422.528 303.558V285.912H428.989C430.242 285.912 431.278 286.119 432.1 286.533C432.921 286.941 433.536 287.495 433.944 288.196C434.351 288.891 434.555 289.675 434.555 290.548C434.555 291.283 434.42 291.903 434.15 292.409C433.88 292.909 433.519 293.311 433.065 293.615C432.617 293.914 432.123 294.132 431.583 294.27V294.442C432.169 294.471 432.74 294.66 433.297 295.011C433.86 295.355 434.326 295.847 434.693 296.484C435.061 297.122 435.245 297.897 435.245 298.81C435.245 299.712 435.032 300.522 434.607 301.24C434.188 301.952 433.539 302.518 432.66 302.938C431.781 303.351 430.658 303.558 429.291 303.558H422.528ZM425.19 301.275H429.033C430.308 301.275 431.221 301.028 431.772 300.534C432.324 300.04 432.6 299.422 432.6 298.681C432.6 298.124 432.459 297.613 432.177 297.148C431.896 296.682 431.494 296.312 430.971 296.036C430.454 295.76 429.84 295.623 429.127 295.623H425.19V301.275ZM425.19 293.546H428.757C429.354 293.546 429.891 293.431 430.368 293.201C430.851 292.972 431.232 292.65 431.514 292.237C431.801 291.817 431.945 291.323 431.945 290.755C431.945 290.025 431.689 289.413 431.178 288.919C430.667 288.425 429.883 288.178 428.826 288.178H425.19V293.546ZM437.532 288.204V285.912H451.188V288.204H445.683V303.558H443.029V288.204H437.532ZM468.104 291.651H465.416C465.312 291.076 465.12 290.571 464.838 290.134C464.557 289.698 464.212 289.327 463.804 289.023C463.397 288.718 462.94 288.489 462.434 288.333C461.935 288.178 461.403 288.101 460.84 288.101C459.824 288.101 458.913 288.356 458.109 288.868C457.311 289.379 456.679 290.128 456.214 291.116C455.754 292.104 455.524 293.311 455.524 294.735C455.524 296.171 455.754 297.383 456.214 298.371C456.679 299.359 457.314 300.106 458.118 300.611C458.922 301.117 459.827 301.369 460.832 301.369C461.389 301.369 461.917 301.295 462.417 301.145C462.923 300.99 463.379 300.763 463.787 300.465C464.195 300.166 464.54 299.801 464.821 299.371C465.108 298.934 465.306 298.434 465.416 297.871L468.104 297.88C467.96 298.747 467.682 299.546 467.268 300.275C466.86 300.999 466.335 301.625 465.691 302.153C465.054 302.676 464.324 303.081 463.503 303.368C462.681 303.656 461.785 303.799 460.815 303.799C459.287 303.799 457.925 303.437 456.731 302.713C455.536 301.984 454.594 300.941 453.905 299.586C453.221 298.23 452.879 296.613 452.879 294.735C452.879 292.851 453.224 291.234 453.913 289.884C454.603 288.529 455.545 287.489 456.739 286.765C457.934 286.036 459.292 285.671 460.815 285.671C461.751 285.671 462.624 285.806 463.434 286.076C464.25 286.34 464.982 286.731 465.631 287.248C466.28 287.759 466.817 288.385 467.242 289.126C467.667 289.861 467.954 290.703 468.104 291.651Z" fill="#E2E3F0"/>
<path d="M482.44 286.894L477.464 305.38H476.205L481.181 286.894H482.44Z" fill="#CBCEE1"/>
<path opacity="0.5" d="M503.006 285.912H505.677V297.518C505.677 298.753 505.387 299.847 504.807 300.801C504.227 301.749 503.411 302.495 502.36 303.041C501.309 303.581 500.077 303.851 498.664 303.851C497.256 303.851 496.027 303.581 494.976 303.041C493.925 302.495 493.109 301.749 492.529 300.801C491.949 299.847 491.659 298.753 491.659 297.518V285.912H494.321V297.303C494.321 298.101 494.496 298.81 494.847 299.431C495.203 300.051 495.705 300.539 496.354 300.896C497.003 301.246 497.773 301.421 498.664 301.421C499.56 301.421 500.332 301.246 500.981 300.896C501.636 300.539 502.136 300.051 502.48 299.431C502.831 298.81 503.006 298.101 503.006 297.303V285.912ZM519.172 290.548C519.08 289.732 518.701 289.1 518.034 288.652C517.368 288.199 516.529 287.972 515.518 287.972C514.795 287.972 514.169 288.086 513.64 288.316C513.112 288.54 512.701 288.85 512.408 289.247C512.121 289.637 511.977 290.083 511.977 290.582C511.977 291.002 512.075 291.363 512.27 291.668C512.471 291.972 512.733 292.228 513.054 292.435C513.382 292.636 513.732 292.805 514.105 292.943C514.479 293.075 514.838 293.184 515.182 293.27L516.906 293.718C517.469 293.856 518.046 294.043 518.637 294.278C519.229 294.514 519.778 294.824 520.283 295.209C520.789 295.594 521.196 296.071 521.507 296.639C521.822 297.208 521.98 297.889 521.98 298.681C521.98 299.681 521.722 300.568 521.205 301.344C520.694 302.119 519.95 302.731 518.973 303.179C518.003 303.627 516.828 303.851 515.45 303.851C514.128 303.851 512.985 303.641 512.02 303.222C511.055 302.803 510.3 302.208 509.754 301.438C509.209 300.663 508.907 299.744 508.85 298.681H511.521C511.572 299.319 511.779 299.85 512.141 300.275C512.509 300.694 512.977 301.008 513.545 301.214C514.12 301.415 514.749 301.516 515.432 301.516C516.185 301.516 516.854 301.398 517.44 301.163C518.031 300.921 518.497 300.588 518.836 300.163C519.174 299.732 519.344 299.23 519.344 298.655C519.344 298.133 519.195 297.705 518.896 297.372C518.603 297.038 518.204 296.763 517.698 296.544C517.199 296.326 516.633 296.134 516.001 295.967L513.916 295.399C512.503 295.014 511.383 294.448 510.556 293.701C509.734 292.955 509.324 291.967 509.324 290.737C509.324 289.721 509.599 288.833 510.151 288.075C510.702 287.317 511.449 286.728 512.391 286.309C513.333 285.884 514.396 285.671 515.579 285.671C516.774 285.671 517.828 285.881 518.741 286.3C519.66 286.719 520.384 287.297 520.912 288.032C521.44 288.761 521.716 289.6 521.739 290.548H519.172ZM530.874 303.558H525.162V285.912H531.055C532.784 285.912 534.269 286.266 535.51 286.972C536.75 287.673 537.701 288.681 538.361 289.996C539.028 291.306 539.361 292.877 539.361 294.709C539.361 296.547 539.025 298.127 538.353 299.448C537.687 300.769 536.722 301.786 535.458 302.498C534.194 303.205 532.666 303.558 530.874 303.558ZM527.824 301.232H530.728C532.072 301.232 533.189 300.979 534.079 300.473C534.97 299.962 535.636 299.224 536.078 298.259C536.521 297.288 536.742 296.105 536.742 294.709C536.742 293.325 536.521 292.15 536.078 291.185C535.642 290.22 534.99 289.488 534.122 288.988C533.255 288.489 532.178 288.239 530.891 288.239H527.824V301.232Z" fill="#E2E3F0"/>
<path d="M422.043 334.624V321.389H426.889C427.828 321.389 428.606 321.545 429.222 321.855C429.838 322.161 430.299 322.576 430.605 323.102C430.911 323.623 431.064 324.211 431.064 324.866C431.064 325.417 430.963 325.883 430.76 326.262C430.558 326.637 430.286 326.938 429.946 327.166C429.61 327.39 429.239 327.554 428.834 327.658V327.787C429.274 327.808 429.702 327.95 430.12 328.213C430.542 328.472 430.891 328.84 431.167 329.318C431.443 329.796 431.581 330.378 431.581 331.063C431.581 331.739 431.421 332.347 431.103 332.885C430.788 333.419 430.301 333.844 429.642 334.158C428.983 334.468 428.141 334.624 427.116 334.624H422.043ZM424.04 332.911H426.922C427.878 332.911 428.563 332.726 428.977 332.355C429.39 331.985 429.597 331.522 429.597 330.966C429.597 330.548 429.491 330.165 429.28 329.816C429.069 329.467 428.768 329.189 428.376 328.982C427.988 328.775 427.527 328.672 426.993 328.672H424.04V332.911ZM424.04 327.115H426.715C427.163 327.115 427.566 327.029 427.923 326.856C428.285 326.684 428.572 326.443 428.783 326.133C428.998 325.818 429.106 325.448 429.106 325.021C429.106 324.474 428.914 324.015 428.531 323.645C428.147 323.274 427.559 323.089 426.767 323.089H424.04V327.115ZM435.764 321.389V334.624H433.767V321.389H435.764ZM437.837 323.108V321.389H448.079V323.108H443.95V334.624H441.96V323.108H437.837ZM460.584 325.693H458.568C458.49 325.262 458.346 324.883 458.135 324.556C457.924 324.228 457.665 323.951 457.359 323.722C457.053 323.494 456.711 323.322 456.332 323.205C455.957 323.089 455.558 323.031 455.136 323.031C454.374 323.031 453.691 323.222 453.088 323.606C452.489 323.989 452.015 324.551 451.666 325.292C451.322 326.033 451.149 326.938 451.149 328.006C451.149 329.083 451.322 329.992 451.666 330.733C452.015 331.474 452.491 332.034 453.094 332.414C453.697 332.793 454.376 332.982 455.13 332.982C455.548 332.982 455.944 332.926 456.319 332.814C456.698 332.698 457.04 332.528 457.346 332.304C457.652 332.08 457.911 331.806 458.122 331.483C458.337 331.156 458.486 330.781 458.568 330.359L460.584 330.365C460.476 331.016 460.267 331.614 459.957 332.162C459.651 332.704 459.257 333.174 458.774 333.57C458.296 333.962 457.749 334.266 457.133 334.481C456.517 334.697 455.845 334.804 455.117 334.804C453.971 334.804 452.95 334.533 452.054 333.99C451.158 333.443 450.451 332.661 449.934 331.645C449.422 330.628 449.165 329.415 449.165 328.006C449.165 326.593 449.424 325.381 449.941 324.368C450.458 323.352 451.164 322.572 452.06 322.029C452.956 321.482 453.975 321.209 455.117 321.209C455.819 321.209 456.474 321.31 457.081 321.512C457.693 321.71 458.242 322.003 458.729 322.391C459.216 322.774 459.619 323.244 459.938 323.8C460.256 324.351 460.472 324.982 460.584 325.693ZM474.287 328.006C474.287 329.42 474.028 330.634 473.511 331.651C472.995 332.663 472.286 333.443 471.385 333.99C470.489 334.533 469.471 334.804 468.329 334.804C467.183 334.804 466.16 334.533 465.26 333.99C464.363 333.443 463.657 332.661 463.14 331.645C462.623 330.628 462.365 329.415 462.365 328.006C462.365 326.593 462.623 325.381 463.14 324.368C463.657 323.352 464.363 322.572 465.26 322.029C466.16 321.482 467.183 321.209 468.329 321.209C469.471 321.209 470.489 321.482 471.385 322.029C472.286 322.572 472.995 323.352 473.511 324.368C474.028 325.381 474.287 326.593 474.287 328.006ZM472.31 328.006C472.31 326.929 472.135 326.023 471.786 325.286C471.441 324.545 470.968 323.985 470.364 323.606C469.766 323.222 469.087 323.031 468.329 323.031C467.566 323.031 466.886 323.222 466.287 323.606C465.688 323.985 465.214 324.545 464.865 325.286C464.521 326.023 464.348 326.929 464.348 328.006C464.348 329.083 464.521 329.992 464.865 330.733C465.214 331.47 465.688 332.03 466.287 332.414C466.886 332.793 467.566 332.982 468.329 332.982C469.087 332.982 469.766 332.793 470.364 332.414C470.968 332.03 471.441 331.47 471.786 330.733C472.135 329.992 472.31 329.083 472.31 328.006ZM478.591 321.389V334.624H476.594V321.389H478.591ZM491.999 321.389V334.624H490.163L483.437 324.918H483.314V334.624H481.317V321.389H483.165L489.899 331.108H490.021V321.389H491.999ZM504.248 320.769L499.984 336.614H498.258L502.523 320.769H504.248ZM519.007 321.389H521.01V330.094C521.01 331.02 520.793 331.841 520.358 332.556C519.923 333.267 519.311 333.827 518.522 334.236C517.734 334.641 516.81 334.843 515.75 334.843C514.695 334.843 513.773 334.641 512.985 334.236C512.196 333.827 511.585 333.267 511.149 332.556C510.714 331.841 510.497 331.02 510.497 330.094V321.389H512.493V329.932C512.493 330.531 512.625 331.063 512.888 331.528C513.155 331.994 513.532 332.36 514.019 332.627C514.505 332.89 515.083 333.021 515.75 333.021C516.422 333.021 517.002 332.89 517.489 332.627C517.98 332.36 518.354 331.994 518.613 331.528C518.876 331.063 519.007 330.531 519.007 329.932V321.389ZM530.949 324.866C530.88 324.254 530.596 323.78 530.096 323.444C529.597 323.104 528.968 322.934 528.21 322.934C527.667 322.934 527.197 323.02 526.801 323.192C526.405 323.36 526.096 323.593 525.877 323.89C525.661 324.183 525.554 324.517 525.554 324.892C525.554 325.206 525.627 325.478 525.773 325.706C525.924 325.934 526.12 326.126 526.361 326.281C526.607 326.432 526.87 326.559 527.15 326.662C527.43 326.761 527.699 326.843 527.958 326.908L529.25 327.244C529.672 327.347 530.105 327.487 530.549 327.664C530.993 327.841 531.404 328.073 531.783 328.362C532.162 328.651 532.468 329.008 532.701 329.435C532.938 329.861 533.056 330.372 533.056 330.966C533.056 331.716 532.862 332.381 532.474 332.963C532.091 333.544 531.533 334.003 530.801 334.339C530.073 334.675 529.192 334.843 528.158 334.843C527.167 334.843 526.31 334.686 525.586 334.372C524.862 334.057 524.296 333.611 523.887 333.034C523.477 332.452 523.251 331.763 523.208 330.966H525.211C525.25 331.444 525.405 331.843 525.676 332.162C525.952 332.476 526.303 332.711 526.73 332.866C527.161 333.017 527.632 333.092 528.145 333.092C528.709 333.092 529.211 333.004 529.651 332.827C530.094 332.646 530.443 332.396 530.697 332.078C530.952 331.754 531.079 331.377 531.079 330.947C531.079 330.555 530.967 330.234 530.743 329.984C530.523 329.734 530.224 329.527 529.844 329.364C529.47 329.2 529.045 329.055 528.571 328.931L527.008 328.504C525.948 328.215 525.108 327.791 524.487 327.231C523.871 326.671 523.563 325.93 523.563 325.008C523.563 324.246 523.77 323.58 524.184 323.011C524.597 322.443 525.157 322.001 525.864 321.687C526.57 321.368 527.367 321.209 528.255 321.209C529.151 321.209 529.941 321.366 530.626 321.68C531.316 321.995 531.858 322.428 532.255 322.979C532.651 323.526 532.858 324.155 532.875 324.866H530.949ZM544.178 334.624H539.894V321.389H544.314C545.611 321.389 546.724 321.654 547.655 322.184C548.585 322.71 549.298 323.466 549.794 324.452C550.293 325.435 550.543 326.613 550.543 327.987C550.543 329.366 550.291 330.55 549.787 331.541C549.287 332.532 548.564 333.295 547.616 333.829C546.668 334.359 545.522 334.624 544.178 334.624ZM541.891 332.879H544.068C545.076 332.879 545.914 332.689 546.582 332.31C547.25 331.927 547.75 331.373 548.081 330.649C548.413 329.921 548.579 329.034 548.579 327.987C548.579 326.949 548.413 326.068 548.081 325.344C547.754 324.62 547.265 324.071 546.614 323.696C545.964 323.322 545.156 323.134 544.191 323.134H541.891V332.879ZM564.34 328.006C564.34 329.42 564.082 330.634 563.565 331.651C563.048 332.663 562.339 333.443 561.439 333.99C560.543 334.533 559.524 334.804 558.382 334.804C557.236 334.804 556.213 334.533 555.313 333.99C554.417 333.443 553.71 332.661 553.193 331.645C552.676 330.628 552.418 329.415 552.418 328.006C552.418 326.593 552.676 325.381 553.193 324.368C553.71 323.352 554.417 322.572 555.313 322.029C556.213 321.482 557.236 321.209 558.382 321.209C559.524 321.209 560.543 321.482 561.439 322.029C562.339 322.572 563.048 323.352 563.565 324.368C564.082 325.381 564.34 326.593 564.34 328.006ZM562.363 328.006C562.363 326.929 562.188 326.023 561.839 325.286C561.495 324.545 561.021 323.985 560.418 323.606C559.819 323.222 559.14 323.031 558.382 323.031C557.62 323.031 556.939 323.222 556.34 323.606C555.741 323.985 555.268 324.545 554.919 325.286C554.574 326.023 554.402 326.929 554.402 328.006C554.402 329.083 554.574 329.992 554.919 330.733C555.268 331.47 555.741 332.03 556.34 332.414C556.939 332.793 557.62 332.982 558.382 332.982C559.14 332.982 559.819 332.793 560.418 332.414C561.021 332.03 561.495 331.47 561.839 330.733C562.188 329.992 562.363 329.083 562.363 328.006ZM566.648 334.624V321.389H568.644V332.905H574.641V334.624H566.648ZM576.737 334.624V321.389H578.734V332.905H584.73V334.624H576.737ZM588.619 334.624H586.5L591.262 321.389H593.569L598.332 334.624H596.212L592.471 323.793H592.367L588.619 334.624ZM588.975 329.441H595.85V331.121H588.975V329.441ZM600.061 334.624V321.389H604.778C605.803 321.389 606.654 321.566 607.331 321.919C608.011 322.273 608.52 322.762 608.856 323.386C609.192 324.007 609.36 324.724 609.36 325.538C609.36 326.348 609.189 327.061 608.849 327.677C608.513 328.289 608.005 328.765 607.324 329.105C606.648 329.445 605.797 329.616 604.772 329.616H601.198V327.897H604.591C605.237 327.897 605.763 327.804 606.167 327.619C606.577 327.434 606.876 327.164 607.066 326.811C607.255 326.458 607.35 326.033 607.35 325.538C607.35 325.038 607.253 324.605 607.059 324.239C606.87 323.873 606.57 323.593 606.161 323.399C605.756 323.201 605.224 323.102 604.565 323.102H602.058V334.624H600.061ZM606.594 328.653L609.864 334.624H607.589L604.384 328.653H606.594Z" fill="#CBCEE1"/>
<rect x="341.736" y="378.829" width="245.928" height="33.7059" rx="7.4902" fill="#3A384D"/>
</g>
</g>
<path d="M581.293 569.708L473.423 461.837C503.655 428.58 519.682 384.817 518.077 339.9C516.473 294.983 497.365 252.475 464.836 221.459C432.308 190.444 388.938 173.38 343.996 173.915C299.054 174.45 256.103 192.541 224.322 224.322C192.541 256.103 174.45 299.054 173.915 343.996C173.38 388.938 190.444 432.308 221.459 464.836C252.475 497.365 294.983 516.473 339.9 518.077C384.817 519.682 428.58 503.655 461.837 473.423L569.708 581.293C571.244 582.829 573.328 583.692 575.5 583.692C577.673 583.692 579.757 582.829 581.293 581.293C582.829 579.757 583.692 577.673 583.692 575.5C583.692 573.328 582.829 571.244 581.293 569.708ZM190.688 346.25C190.688 315.483 199.811 285.406 216.905 259.824C233.998 234.242 258.294 214.303 286.719 202.529C315.144 190.755 346.423 187.674 376.599 193.677C406.775 199.679 434.494 214.495 456.25 236.251C478.005 258.007 492.821 285.725 498.824 315.901C504.826 346.078 501.745 377.356 489.971 405.781C478.197 434.207 458.258 458.502 432.676 475.596C407.094 492.689 377.018 501.813 346.25 501.813C305.006 501.769 265.463 485.366 236.299 456.202C207.135 427.037 190.731 387.495 190.688 346.25Z" fill="#504D69"/>
<defs>
<filter id="filter0_dddd_10070_1766" x="29.0992" y="284.017" width="323.702" height="162.645" filterUnits="userSpaceOnUse" color-interpolation-filters="sRGB">
<feFlood flood-opacity="0" result="BackgroundImageFix"/>
<feColorMatrix in="SourceAlpha" type="matrix" values="0 0 0 0 0 0 0 0 0 0 0 0 0 0 0 0 0 0 127 0" result="hardAlpha"/>
<feOffset dy="1.98347"/>
<feGaussianBlur stdDeviation="1.98347"/>
<feColorMatrix type="matrix" values="0 0 0 0 0 0 0 0 0 0 0 0 0 0 0 0 0 0 0.3 0"/>
<feBlend mode="normal" in2="BackgroundImageFix" result="effect1_dropShadow_10070_1766"/>
<feColorMatrix in="SourceAlpha" type="matrix" values="0 0 0 0 0 0 0 0 0 0 0 0 0 0 0 0 0 0 127 0" result="hardAlpha"/>
<feOffset dy="6.94215"/>
<feGaussianBlur stdDeviation="3.47107"/>
<feColorMatrix type="matrix" values="0 0 0 0 0 0 0 0 0 0 0 0 0 0 0 0 0 0 0.2 0"/>
<feBlend mode="normal" in2="effect1_dropShadow_10070_1766" result="effect2_dropShadow_10070_1766"/>
<feColorMatrix in="SourceAlpha" type="matrix" values="0 0 0 0 0 0 0 0 0 0 0 0 0 0 0 0 0 0 127 0" result="hardAlpha"/>
<feOffset dy="15.8678"/>
<feGaussianBlur stdDeviation="4.95868"/>
<feColorMatrix type="matrix" values="0 0 0 0 0 0 0 0 0 0 0 0 0 0 0 0 0 0 0.12 0"/>
<feBlend mode="normal" in2="effect2_dropShadow_10070_1766" result="effect3_dropShadow_10070_1766"/>
<feColorMatrix in="SourceAlpha" type="matrix" values="0 0 0 0 0 0 0 0 0 0 0 0 0 0 0 0 0 0 127 0" result="hardAlpha"/>
<feOffset dy="28.7603"/>
<feGaussianBlur stdDeviation="5.95041"/>
<feColorMatrix type="matrix" values="0 0 0 0 0 0 0 0 0 0 0 0 0 0 0 0 0 0 0.08 0"/>
<feBlend mode="normal" in2="effect3_dropShadow_10070_1766" result="effect4_dropShadow_10070_1766"/>
<feBlend mode="normal" in="SourceGraphic" in2="effect4_dropShadow_10070_1766" result="shape"/>
</filter>
<filter id="filter1_dddd_10070_1766" x="340.107" y="284.017" width="323.703" height="162.645" filterUnits="userSpaceOnUse" color-interpolation-filters="sRGB">
<feFlood flood-opacity="0" result="BackgroundImageFix"/>
<feColorMatrix in="SourceAlpha" type="matrix" values="0 0 0 0 0 0 0 0 0 0 0 0 0 0 0 0 0 0 127 0" result="hardAlpha"/>
<feOffset dy="1.98347"/>
<feGaussianBlur stdDeviation="1.98347"/>
<feColorMatrix type="matrix" values="0 0 0 0 0 0 0 0 0 0 0 0 0 0 0 0 0 0 0.3 0"/>
<feBlend mode="normal" in2="BackgroundImageFix" result="effect1_dropShadow_10070_1766"/>
<feColorMatrix in="SourceAlpha" type="matrix" values="0 0 0 0 0 0 0 0 0 0 0 0 0 0 0 0 0 0 127 0" result="hardAlpha"/>
<feOffset dy="6.94215"/>
<feGaussianBlur stdDeviation="3.47107"/>
<feColorMatrix type="matrix" values="0 0 0 0 0 0 0 0 0 0 0 0 0 0 0 0 0 0 0.2 0"/>
<feBlend mode="normal" in2="effect1_dropShadow_10070_1766" result="effect2_dropShadow_10070_1766"/>
<feColorMatrix in="SourceAlpha" type="matrix" values="0 0 0 0 0 0 0 0 0 0 0 0 0 0 0 0 0 0 127 0" result="hardAlpha"/>
<feOffset dy="15.8678"/>
<feGaussianBlur stdDeviation="4.95868"/>
<feColorMatrix type="matrix" values="0 0 0 0 0 0 0 0 0 0 0 0 0 0 0 0 0 0 0.12 0"/>
<feBlend mode="normal" in2="effect2_dropShadow_10070_1766" result="effect3_dropShadow_10070_1766"/>
<feColorMatrix in="SourceAlpha" type="matrix" values="0 0 0 0 0 0 0 0 0 0 0 0 0 0 0 0 0 0 127 0" result="hardAlpha"/>
<feOffset dy="28.7603"/>
<feGaussianBlur stdDeviation="5.95041"/>
<feColorMatrix type="matrix" values="0 0 0 0 0 0 0 0 0 0 0 0 0 0 0 0 0 0 0.08 0"/>
<feBlend mode="normal" in2="effect3_dropShadow_10070_1766" result="effect4_dropShadow_10070_1766"/>
<feBlend mode="normal" in="SourceGraphic" in2="effect4_dropShadow_10070_1766" result="shape"/>
</filter>
<filter id="filter2_dddd_10070_1766" x="-88.7451" y="269.624" width="384.996" height="166.033" filterUnits="userSpaceOnUse" color-interpolation-filters="sRGB">
<feFlood flood-opacity="0" result="BackgroundImageFix"/>
<feColorMatrix in="SourceAlpha" type="matrix" values="0 0 0 0 0 0 0 0 0 0 0 0 0 0 0 0 0 0 127 0" result="hardAlpha"/>
<feOffset/>
<feGaussianBlur stdDeviation="0.624183"/>
<feColorMatrix type="matrix" values="0 0 0 0 0 0 0 0 0 0 0 0 0 0 0 0 0 0 0.3 0"/>
<feBlend mode="normal" in2="BackgroundImageFix" result="effect1_dropShadow_10070_1766"/>
<feColorMatrix in="SourceAlpha" type="matrix" values="0 0 0 0 0 0 0 0 0 0 0 0 0 0 0 0 0 0 127 0" result="hardAlpha"/>
<feOffset dy="2.49673"/>
<feGaussianBlur stdDeviation="1.24837"/>
<feColorMatrix type="matrix" values="0 0 0 0 0 0 0 0 0 0 0 0 0 0 0 0 0 0 0.2 0"/>
<feBlend mode="normal" in2="effect1_dropShadow_10070_1766" result="effect2_dropShadow_10070_1766"/>
<feColorMatrix in="SourceAlpha" type="matrix" values="0 0 0 0 0 0 0 0 0 0 0 0 0 0 0 0 0 0 127 0" result="hardAlpha"/>
<feOffset dy="4.99347"/>
<feGaussianBlur stdDeviation="1.87255"/>
<feColorMatrix type="matrix" values="0 0 0 0 0 0 0 0 0 0 0 0 0 0 0 0 0 0 0.12 0"/>
<feBlend mode="normal" in2="effect2_dropShadow_10070_1766" result="effect3_dropShadow_10070_1766"/>
<feColorMatrix in="SourceAlpha" type="matrix" values="0 0 0 0 0 0 0 0 0 0 0 0 0 0 0 0 0 0 127 0" result="hardAlpha"/>
<feOffset dy="9.98693"/>
<feGaussianBlur stdDeviation="1.87255"/>
<feColorMatrix type="matrix" values="0 0 0 0 0 0 0 0 0 0 0 0 0 0 0 0 0 0 0.08 0"/>
<feBlend mode="normal" in2="effect3_dropShadow_10070_1766" result="effect4_dropShadow_10070_1766"/>
<feBlend mode="normal" in="SourceGraphic" in2="effect4_dropShadow_10070_1766" result="shape"/>
</filter>
<filter id="filter3_dddd_10070_1766" x="291.694" y="251.451" width="510.119" height="276.331" filterUnits="userSpaceOnUse" color-interpolation-filters="sRGB">
<feFlood flood-opacity="0" result="BackgroundImageFix"/>
<feColorMatrix in="SourceAlpha" type="matrix" values="0 0 0 0 0 0 0 0 0 0 0 0 0 0 0 0 0 0 127 0" result="hardAlpha"/>
<feOffset dy="4.54922"/>
<feGaussianBlur stdDeviation="4.54922"/>
<feColorMatrix type="matrix" values="0 0 0 0 0 0 0 0 0 0 0 0 0 0 0 0 0 0 0.3 0"/>
<feBlend mode="normal" in2="BackgroundImageFix" result="effect1_dropShadow_10070_1766"/>
<feColorMatrix in="SourceAlpha" type="matrix" values="0 0 0 0 0 0 0 0 0 0 0 0 0 0 0 0 0 0 127 0" result="hardAlpha"/>
<feOffset dy="16.6805"/>
<feGaussianBlur stdDeviation="8.34023"/>
<feColorMatrix type="matrix" values="0 0 0 0 0 0 0 0 0 0 0 0 0 0 0 0 0 0 0.2 0"/>
<feBlend mode="normal" in2="effect1_dropShadow_10070_1766" result="effect2_dropShadow_10070_1766"/>
<feColorMatrix in="SourceAlpha" type="matrix" values="0 0 0 0 0 0 0 0 0 0 0 0 0 0 0 0 0 0 127 0" result="hardAlpha"/>
<feOffset dy="36.3937"/>
<feGaussianBlur stdDeviation="11.373"/>
<feColorMatrix type="matrix" values="0 0 0 0 0 0 0 0 0 0 0 0 0 0 0 0 0 0 0.12 0"/>
<feBlend mode="normal" in2="effect2_dropShadow_10070_1766" result="effect3_dropShadow_10070_1766"/>
<feColorMatrix in="SourceAlpha" type="matrix" values="0 0 0 0 0 0 0 0 0 0 0 0 0 0 0 0 0 0 127 0" result="hardAlpha"/>
<feOffset dy="65.2055"/>
<feGaussianBlur stdDeviation="12.8895"/>
<feColorMatrix type="matrix" values="0 0 0 0 0 0 0 0 0 0 0 0 0 0 0 0 0 0 0.08 0"/>
<feBlend mode="normal" in2="effect3_dropShadow_10070_1766" result="effect4_dropShadow_10070_1766"/>
<feBlend mode="normal" in="SourceGraphic" in2="effect4_dropShadow_10070_1766" result="shape"/>
</filter>
<radialGradient id="paint0_radial_10070_1766" cx="0" cy="0" r="1" gradientUnits="userSpaceOnUse" gradientTransform="translate(346 346) rotate(-3.64449) scale(223.772)">
<stop stop-color="#100E23"/>
<stop offset="0.338143" stop-color="#8B11EE"/>
<stop offset="0.515" stop-color="#E870D5"/>
<stop offset="0.756665" stop-color="#FFF15C"/>
<stop offset="1" stop-color="#FF9D4D"/>
</radialGradient>
<radialGradient id="paint1_radial_10070_1766" cx="0" cy="0" r="1" gradientUnits="userSpaceOnUse" gradientTransform="translate(346 346) rotate(-3.64449) scale(268.526)">
<stop stop-color="#100E23"/>
<stop offset="0.338143" stop-color="#8B11EE"/>
<stop offset="0.515" stop-color="#E870D5"/>
<stop offset="0.756665" stop-color="#FFF15C"/>
<stop offset="1" stop-color="#FF9D4D"/>
</radialGradient>
<clipPath id="clip0_10070_1766">
<rect width="39.6694" height="39.6694" fill="white" transform="translate(367.876 301.868)"/>
</clipPath>
</defs>
</svg>
