<svg viewBox="0 0 96 16" fill="none" xmlns="http://www.w3.org/2000/svg">
<path fill-rule="evenodd" clip-rule="evenodd" d="M36.7928 0.311195C36.161 0.986663 36.6418 2.09901 37.5655 2.09901C38.0328 2.09901 38.5927 1.50133 38.5927 1.00259C38.5927 0.109669 37.4073 -0.34567 36.7928 0.311195ZM3.57705 0.302176C3.45749 0.637444 0 14.7573 0 14.9106C0 15.0141 0.608923 15.0641 1.85947 15.0634L3.71894 15.0624L4.85216 10.448L5.98538 5.8336L7.86099 5.76313L9.7366 5.69267L10.4077 3.01504C10.7768 1.54234 11.0806 0.289916 11.0827 0.231712C11.085 0.173509 9.41115 0.126016 7.36335 0.126016C4.5117 0.126016 3.62519 0.167308 3.57705 0.302176ZM13.6127 4.77664L12.4559 9.42726H10.5959H8.73585L8.0336 12.2458L7.33136 15.0644H11.0871H14.8428L16.6366 7.84182C17.6231 3.86949 18.4588 0.508213 18.4938 0.37264C18.5519 0.146733 18.3976 0.126016 16.6634 0.126016H14.7695L13.6127 4.77664ZM22.1733 7.58547V15.0644L25.8571 15.062C30.6581 15.0587 31.5415 14.8858 32.8574 13.692C33.8969 12.7489 34.3011 11.4122 33.9683 10.019C33.7453 9.08593 33.0239 8.25672 31.9699 7.72246L31.1334 7.29841L31.6703 6.90366C32.8531 6.03456 33.327 5.0475 33.2281 3.65936C33.1207 2.15326 32.4969 1.28219 31.0145 0.568248C30.2438 0.197044 30.2368 0.19648 26.208 0.151524L22.1733 0.10671V7.58547ZM42.6625 2.02305V3.92008L41.4346 3.96081L40.2066 4.00153L40.1642 4.74141L40.1217 5.48128H41.3922H42.6625V8.87158C42.6625 10.8777 42.7258 12.5143 42.8174 12.8799C43.0121 13.6562 43.8061 14.6006 44.5492 14.9395C45.22 15.2455 47.3398 15.2937 48.1357 15.0213C48.6065 14.8599 48.6287 14.8216 48.6699 14.0947C48.7116 13.36 48.7028 13.3393 48.3892 13.4364C48.2112 13.4913 47.577 13.5712 46.98 13.6138C45.6638 13.7075 45.1717 13.5354 44.7337 12.8281C44.431 12.3394 44.4148 12.1617 44.3727 8.89878L44.3285 5.48128H46.583H48.8373V4.70617V3.93107H46.5919H44.3466V2.02854V0.126016H43.5045H42.6625V2.02305ZM51.1166 7.55997L51.1529 14.9939L52.8019 15.0337L54.4508 15.0733L54.452 10.3126L54.4532 5.55174L56.4518 8.6065C57.551 10.2865 58.5008 11.6659 58.5623 11.6717C58.6238 11.6775 59.571 10.3099 60.6674 8.63285L62.6606 5.58345L62.6975 10.324L62.7345 15.0644H64.4166H66.0988V7.5952V0.126016H64.2883H62.4778L60.5499 3.23038C59.4895 4.93772 58.6083 6.31712 58.5915 6.29556C58.5186 6.20199 55.3157 0.997938 55.0763 0.584032L54.8114 0.126016H52.9459H51.0802L51.1166 7.55997ZM68.9056 7.5952V15.0644H74.5892H80.2729V13.5846V12.1049H76.2733H72.2737V10.5547V9.00448H75.5716H78.8695V7.52473V6.04499H75.5716H72.2737V4.56525V3.0855H76.1941H80.1144L80.1586 1.60548L80.2027 0.125453L74.5541 0.125732L68.9056 0.126016V7.5952ZM81.4845 0.302176C81.5426 0.399135 81.8511 0.858842 82.1698 1.3239C82.4887 1.78897 83.554 3.35862 84.537 4.81201L86.3244 7.45469L83.979 10.8719C82.6891 12.7515 81.5126 14.4637 81.3647 14.6768L81.0958 15.0644H83.0014H84.9072L86.5801 12.5339L88.253 10.0034L89.8938 12.5339L91.5347 15.0644H93.489C95.1003 15.0644 95.4235 15.0307 95.3311 14.8723C95.2693 14.7666 94.2084 13.1834 92.9734 11.354C91.7384 9.52464 90.639 7.87804 90.5301 7.69469C90.3414 7.37662 90.4427 7.19961 92.7404 3.83115C94.0649 1.88959 95.1486 0.261589 95.1486 0.213533C95.1486 0.165336 94.3119 0.127002 93.2892 0.12827L91.4297 0.130528L90.1195 2.17116C89.3987 3.29351 88.7 4.34723 88.5665 4.51282C88.3273 4.80947 88.3021 4.78016 86.8084 2.46993L85.293 0.126016H83.336C81.8076 0.126016 81.4022 0.164631 81.4845 0.302176ZM30.0504 1.99712C30.6331 2.26305 31.2545 2.94387 31.3828 3.45713C31.5221 4.01478 31.3501 5.05807 31.0521 5.46211C30.2901 6.4954 29.3392 6.74963 26.2362 6.74963H23.9977V4.20024V1.65072L26.7693 1.70765C28.9547 1.75261 29.6488 1.81377 30.0504 1.99712ZM36.7276 4.01887C36.6729 4.07397 36.628 6.58164 36.628 9.59172V15.0644H37.5419H38.4556L38.419 9.53296L38.3822 4.00153L37.6048 3.9601C37.1771 3.93741 36.7825 3.96376 36.7276 4.01887ZM30.0201 8.45134C31.391 8.74658 32.2794 9.68037 32.2753 10.8222C32.2717 11.8146 31.8123 12.5036 30.8116 13.0177L29.9826 13.4437H26.955H23.9275L23.8892 10.8718L23.851 8.29984H26.5838C28.0869 8.29984 29.6332 8.36805 30.0201 8.45134Z" fill="white"/>
</svg>
