<svg viewBox="0 0 121 19" fill="none" xmlns="http://www.w3.org/2000/svg">
<path fill-rule="evenodd" clip-rule="evenodd" d="M15.5535 0.118446C14.639 0.444602 13.9055 1.31032 12.9799 3.15589C11.9331 5.2428 11.3096 6.03324 10.3582 6.47949C9.9042 6.69249 9.70418 6.73544 9.04689 6.7614C7.69492 6.81479 7.01142 6.42863 5.72509 4.88439C4.83169 3.81204 4.50652 3.50483 3.94434 3.20218C3.59745 3.01547 3.43808 2.98273 2.88301 2.98388C2.31536 2.9851 2.17257 3.0167 1.79196 3.22545C1.06168 3.6259 0.534283 4.42729 0.215312 5.6212C0.0921158 6.08239 0.0376613 6.59901 0.00745423 7.59315C-0.0878206 10.7267 0.734466 12.9923 2.22972 13.7161C2.52722 13.8601 2.77369 13.9121 3.16647 13.9133C4.09782 13.9163 4.45051 13.6313 5.84747 11.746C7.1369 10.006 7.82016 9.5838 9.23907 9.65058C9.84346 9.679 10.0791 9.72994 10.4756 9.91804C11.1225 10.2248 11.9767 11.1016 12.5507 12.0481C13.9644 14.3791 14.5052 15.0442 15.3463 15.4864C15.7351 15.6908 15.8663 15.7157 16.5578 15.716C17.2633 15.7164 17.3839 15.6925 17.8913 15.4522C18.9518 14.9499 19.9889 13.7276 20.553 12.3153C21.0755 11.0069 21.3 9.65393 21.3027 7.79726C21.3078 4.34777 20.322 1.90312 18.4021 0.604209C17.6013 0.0623592 16.3222 -0.155703 15.5535 0.118446ZM119.26 0.966287C118.064 1.37931 117.956 1.43017 117.956 1.57696C117.956 1.64456 118.106 1.6657 118.449 1.64635C119.059 1.61198 119.18 1.6995 119.18 2.17237C119.18 2.45468 118.828 4.33511 118.564 5.46217C118.518 5.65778 118.518 5.65769 118.217 5.36436C116.768 3.95426 113.772 4.54518 112.173 6.55632C111.177 7.80812 110.692 9.2316 110.69 10.905C110.689 12.6479 111.306 13.8584 112.471 14.397C112.782 14.5406 113.005 14.5734 113.67 14.5734C114.439 14.5734 114.521 14.5565 115.098 14.2797C115.802 13.942 116.449 13.3926 116.824 12.8126C116.968 12.5911 117.093 12.41 117.102 12.41C117.111 12.41 117.032 12.8049 116.927 13.2876C116.821 13.7703 116.734 14.1937 116.733 14.2286C116.732 14.2635 117.291 14.2818 117.975 14.2694C119.049 14.25 119.223 14.2287 119.245 14.1139C119.264 14.013 119.182 13.9677 118.904 13.926C118.359 13.8443 118.119 13.6203 118.119 13.1936C118.119 13.0024 118.668 10.2222 119.338 7.01522C120.833 -0.1326 120.704 0.570492 120.516 0.578493C120.433 0.582003 119.867 0.756551 119.26 0.966287ZM31.4165 7.51151V14.376L32.09 14.3522L32.7636 14.3285L32.7849 11.0425L32.8063 7.75644H36.7231H40.64L40.6614 11.0425L40.6827 14.3285L41.3563 14.3522L42.0298 14.376V7.51151V0.647071L41.3563 0.670828L40.6827 0.694504L40.6612 3.61316L40.6399 6.53182H36.7231H32.8064L32.785 3.61316L32.7636 0.694504L32.09 0.670828L31.4165 0.647071V7.51151ZM81.789 1.04711C81.0162 1.31506 80.6792 1.47034 80.6614 1.56675C80.6394 1.6862 80.6938 1.69828 81.0766 1.65876C81.6905 1.59541 81.8705 1.70595 81.8706 2.14649C81.8706 2.49403 79.7306 12.7573 79.575 13.1556C79.4341 13.5163 79.0824 13.7819 78.5685 13.9157C78.3014 13.9853 78.0493 14.0758 78.0082 14.117C77.7957 14.3294 78.0965 14.3693 79.9072 14.3693C81.5734 14.3693 81.777 14.3549 81.8237 14.233C81.8871 14.0678 81.7798 13.9936 81.3867 13.9308C80.9957 13.8682 80.7276 13.6127 80.7276 13.3028C80.7276 13.1205 83.0513 1.91789 83.3132 0.837376C83.3517 0.678503 83.3262 0.654419 83.1244 0.659317C82.996 0.662419 82.3951 0.836967 81.789 1.04711ZM86.3828 1.2646C85.8477 1.4972 85.6072 2.30528 85.9604 2.68434C86.6972 3.47519 88.0189 2.57657 87.5695 1.59027C87.3847 1.18476 86.8831 1.04711 86.3828 1.2646ZM109.914 1.22182C109.61 1.34869 109.29 1.76718 109.246 2.09767C109.211 2.36022 109.241 2.46227 109.418 2.67225C109.68 2.98404 109.985 3.06103 110.406 2.92224C110.952 2.74222 111.269 2.0246 111.014 1.54724C110.842 1.2259 110.294 1.06377 109.914 1.22182ZM57.3058 4.66502C56.3489 4.78112 55.2951 5.42102 54.7021 6.24608L54.526 6.491L54.5235 5.695L54.5208 4.89901H53.8672H53.2137L53.2345 11.6956L53.2554 18.4922H53.9085H54.5617L54.6025 15.6348L54.6433 12.7773L54.8288 13.0756C55.4234 14.0318 56.6007 14.6203 57.9209 14.6212C59.5904 14.6223 60.9361 13.7257 61.6684 12.1242C62.0633 11.2606 62.1547 10.7813 62.1507 9.59335C62.1454 7.93833 61.7795 6.88476 60.8745 5.91723C60.3115 5.31529 59.3574 4.77875 58.7057 4.69752C57.9663 4.60535 57.825 4.60208 57.3058 4.66502ZM67.0527 4.65727C65.4105 4.99396 64.0895 6.33842 63.6066 8.16464C63.4079 8.91606 63.4298 10.4428 63.6514 11.2787C64.1108 13.0121 65.2009 14.1179 66.8282 14.5016C67.966 14.7699 69.4569 14.5401 70.3668 13.9562C71.12 13.4729 71.7811 12.5285 71.9517 11.692L72.0065 11.4232L71.3749 11.4471L70.7432 11.4711L70.6256 11.8751C70.4306 12.5452 70.1037 12.9362 69.4827 13.242C68.9578 13.5004 68.8929 13.5121 67.9933 13.5121C67.1288 13.5121 67.0115 13.4931 66.5427 13.2766C65.9614 13.0081 65.4903 12.5424 65.1794 11.9289C64.9115 11.4002 64.726 10.688 64.726 10.1885V9.79746H68.4121H72.0983L72.0464 9.00146C71.9528 7.56654 71.6079 6.6622 70.8424 5.84384C69.8935 4.82937 68.4373 4.37349 67.0527 4.65727ZM77.8633 4.6509C76.9425 4.77295 75.9837 5.37105 75.4584 6.15113L75.176 6.57044V5.73476V4.89901H74.5229H73.8697V9.63418V14.3693H74.5229H75.176L75.1774 11.614C75.1784 9.53441 75.2076 8.72282 75.2961 8.30506C75.6201 6.77585 76.6938 5.8787 78.1998 5.8787H78.8498V5.26639C78.8498 4.83157 78.8203 4.65376 78.7478 4.65294C78.6917 4.65237 78.5722 4.63808 78.4824 4.62118C78.3926 4.60428 78.114 4.61767 77.8633 4.6509ZM85.3536 4.96906C84.6767 5.19904 84.1925 5.4091 84.1454 5.49319C84.0741 5.62055 84.1171 5.63173 84.6078 5.61328C85.0633 5.59614 85.1671 5.61802 85.2649 5.75142C85.3288 5.83861 85.3811 5.97642 85.3811 6.05773C85.3811 6.41083 83.9013 13.189 83.7857 13.3654C83.6049 13.6414 83.2109 13.8608 82.7094 13.965C82.3694 14.0355 82.2787 14.0875 82.2787 14.2119C82.2787 14.363 82.3567 14.3693 84.1998 14.3693C85.8561 14.3693 86.1276 14.352 86.1693 14.2434C86.2339 14.075 86.1897 14.042 85.7753 13.9489C85.2945 13.841 85.0545 13.6012 85.0545 13.229C85.0545 13.0664 85.4403 11.1041 85.9118 8.8683C86.3832 6.63241 86.769 4.75124 86.769 4.6878C86.769 4.51415 86.5854 4.55056 85.3536 4.96906ZM91.7598 4.69303C89.8664 5.12278 88.2252 6.74164 87.6768 8.72045C87.1323 10.6858 87.3167 12.5619 88.1593 13.6279C88.9895 14.6783 90.7638 14.9136 92.0736 14.1471C92.528 13.8812 93.2446 13.2132 93.4745 12.8414C93.5685 12.6892 93.6623 12.5816 93.683 12.6022C93.7507 12.6698 92.7234 17.2627 92.5976 17.4552C92.3559 17.8249 91.8108 18.0243 90.6886 18.1536C90.6219 18.1612 90.5548 18.2314 90.5398 18.3094C90.5144 18.4414 90.6668 18.4514 92.7141 18.4514C94.5743 18.4514 94.9227 18.4328 94.9616 18.3315C95.0164 18.1886 95.0022 18.1798 94.5014 18.0443C94.0958 17.9346 93.7901 17.6501 93.7901 17.3824C93.7901 17.3004 94.3963 14.4182 95.1372 10.9776C95.8781 7.53682 96.4842 4.68813 96.4842 4.64706C96.4842 4.606 96.42 4.57293 96.3414 4.5735C96.254 4.57416 96.044 4.81214 95.8008 5.18581C95.5821 5.52201 95.3962 5.79706 95.3878 5.79706C95.3793 5.79706 95.1864 5.61777 94.959 5.39857C94.6933 5.14246 94.3743 4.93534 94.0658 4.81859C93.4533 4.58689 92.4647 4.53301 91.7598 4.69303ZM98.4977 4.96906C97.8209 5.19904 97.3367 5.4091 97.2896 5.49319C97.2183 5.62055 97.2613 5.63173 97.752 5.61328C98.3406 5.59116 98.5253 5.70603 98.5253 6.09439C98.5253 6.19579 98.2681 7.50539 97.9538 9.00464C97.3748 11.7664 97.293 12.4524 97.4677 13.0815C97.6073 13.5842 98.0242 14.0576 98.5653 14.3279C98.9833 14.5365 99.1439 14.5713 99.6691 14.567C100.632 14.5589 101.376 14.1658 102.589 13.0251L103.242 12.4101L103.055 13.2877C102.953 13.7703 102.895 14.1938 102.928 14.2288C102.961 14.2638 103.517 14.2822 104.165 14.2697C105.294 14.2479 105.343 14.2397 105.367 14.074C105.389 13.9209 105.343 13.8964 104.964 13.86C104.63 13.8279 104.494 13.7703 104.347 13.5997C104.243 13.4791 104.158 13.3138 104.158 13.2323C104.158 13.1193 105.693 5.71648 105.915 4.75614C105.976 4.49293 105.844 4.51236 104.483 4.96734C103.663 5.24149 103.293 5.40314 103.275 5.49605C103.253 5.60994 103.324 5.62716 103.751 5.6114C104.314 5.59075 104.485 5.71386 104.485 6.13889C104.485 6.26478 104.226 7.60785 103.91 9.12351L103.336 11.8793L102.91 12.2748C101.483 13.6013 100.23 14.0189 99.2176 13.5053C98.8101 13.2985 98.4436 12.6386 98.4436 12.1116C98.4436 11.9187 98.7743 10.21 99.1784 8.31437C99.5825 6.41875 99.9132 4.80136 99.9132 4.72013C99.9132 4.51056 99.7766 4.53456 98.4977 4.96906ZM108.784 4.96906C108.108 5.19904 107.623 5.4091 107.576 5.49319C107.505 5.62055 107.548 5.63173 108.039 5.61328C108.629 5.59108 108.812 5.70594 108.812 6.09782C108.812 6.34413 107.444 12.8764 107.334 13.1556C107.191 13.5168 106.84 13.7819 106.326 13.9157C106.059 13.9853 105.804 14.079 105.759 14.1241C105.551 14.3325 105.891 14.372 107.714 14.3505C109.406 14.3306 109.588 14.3151 109.612 14.1886C109.631 14.0913 109.569 14.0332 109.409 13.9982C108.765 13.8572 108.485 13.6229 108.485 13.225C108.485 13.1095 108.871 11.1858 109.343 8.94994C109.814 6.71405 110.2 4.81451 110.2 4.72862C110.2 4.5095 110.075 4.53073 108.784 4.96906ZM50.6757 5.04188C50.6287 5.1654 50.0579 6.68082 49.4072 8.40956C48.242 11.5057 47.9269 12.3062 47.8229 12.4339C47.7629 12.5077 47.7364 12.4452 45.9819 8.10341L44.6872 4.89901H44.0116C43.6401 4.89901 43.336 4.92334 43.336 4.95305C43.336 4.98277 44.1851 7.04706 45.2228 9.54037L47.1095 14.0736L46.2752 16.1605C45.8163 17.3083 45.422 18.2948 45.3989 18.3528C45.3662 18.4351 45.5061 18.453 46.0334 18.4344L46.7099 18.4106L49.3769 11.6752C50.8437 7.97074 52.0296 4.91231 52.0121 4.8786C51.9946 4.84488 51.706 4.81737 51.3708 4.81737C50.7811 4.81737 50.7586 4.82463 50.6757 5.04188ZM93.4502 5.3433C93.9731 5.5278 94.2642 5.79101 94.5269 6.31678C94.8758 7.01514 94.8543 7.47665 94.3649 9.78399C93.9107 11.925 93.8111 12.1618 93.0493 12.9103C91.9498 13.9907 90.4963 14.1863 89.5239 13.3849C88.3803 12.4422 88.277 9.67753 89.3054 7.53641C89.8075 6.491 90.5647 5.74423 91.4889 5.38281C91.9622 5.19781 92.9797 5.17732 93.4502 5.3433ZM116.935 5.41963C117.43 5.65304 117.644 5.87551 117.889 6.41034C118.178 7.04045 118.131 7.70876 117.648 9.85918C117.186 11.9175 117.021 12.2868 116.241 13.0036C114.793 14.3348 112.893 14.1078 112.191 12.5198C111.619 11.2272 111.805 9.15698 112.645 7.47069C113.167 6.42096 113.866 5.73117 114.764 5.37987C115.344 5.15307 116.411 5.17267 116.935 5.41963ZM58.4837 5.75893C59.7374 6.08133 60.5628 7.15311 60.8076 8.77637C61.1091 10.7754 60.3206 12.6427 58.8886 13.3208C58.4671 13.5204 58.2995 13.5529 57.6875 13.5529C56.7421 13.5529 56.2124 13.3563 55.633 12.7905C54.1439 11.3361 54.0431 8.17517 55.4372 6.64988C56.2521 5.75819 57.295 5.45318 58.4837 5.75893ZM69.0121 5.84645C69.8844 6.15097 70.5843 7.19173 70.667 8.30751L70.7048 8.81777H67.7116H64.7185L64.774 8.51161C65.0142 7.18544 65.9284 6.04426 66.9911 5.74399C67.4812 5.60544 68.4646 5.65533 69.0121 5.84645Z" fill="white"/>
</svg>
