<svg viewBox="0 0 72 19" fill="none" xmlns="http://www.w3.org/2000/svg">
<path fill-rule="evenodd" clip-rule="evenodd" d="M0.00806271 0.0348108C0.000650813 0.0541626 -0.00217815 4.19102 0.0018107 9.22781L0.00905284 18.3856H2.01762H4.02619L4.04033 15.9596L4.05448 13.5335L5.36791 12.0881C6.09028 11.2932 6.68389 10.6457 6.687 10.6494C6.69011 10.6531 7.87961 12.3763 9.3303 14.4788C10.781 16.5814 11.9875 18.3237 12.0115 18.3506C12.0524 18.3966 12.2043 18.3996 14.4442 18.3996C16.5903 18.3996 16.8316 18.3952 16.8165 18.3562C16.8072 18.3323 15.1627 15.8994 13.1619 12.9496C9.98337 8.26333 9.52895 7.58058 9.56174 7.54048C9.58236 7.51522 11.1237 5.81968 12.9869 3.77262C14.8502 1.72556 16.3746 0.0392637 16.3746 0.025345C16.3746 0.010418 15.3805 0 13.9576 0H11.5406L7.79751 4.1142L4.05448 8.22843L4.04033 4.1212L4.02619 0.0140027L2.02387 0.00680533C0.436991 0.00112022 0.0187562 0.00691736 0.00806271 0.0348108ZM33.0725 9.1928L33.0797 18.3856L34.968 18.3928L36.8563 18.4V9.2V0H34.9609H33.0654L33.0725 9.1928ZM52.5358 9.1928L52.543 18.3856L54.4313 18.3928L56.3196 18.4L56.3204 14.9341C56.3208 13.0279 56.333 11.2792 56.3476 11.0482C56.4218 9.87516 56.7304 9.10215 57.3609 8.51011C57.7589 8.13644 58.1947 7.92634 58.7808 7.8256C59.187 7.75581 59.8901 7.78245 60.2483 7.88122C60.9252 8.06785 61.4371 8.48597 61.7527 9.11007C61.9157 9.43239 62.0091 9.72009 62.0953 10.166C62.1574 10.4868 62.1577 10.5037 62.1677 14.444L62.1778 18.4L64.065 18.3928L65.9523 18.3856V14.3108C65.9523 10.0998 65.9496 9.98466 65.8357 9.26982C65.6348 8.00862 65.2022 7.0284 64.5416 6.33753C64.0242 5.79644 63.3445 5.35406 62.6141 5.08314C61.4945 4.66782 60.0686 4.59338 58.9108 4.88981C58.0407 5.1126 57.3141 5.53411 56.6379 6.20829L56.3196 6.52559V3.26281V0H54.4242H52.5287L52.5358 9.1928ZM68.8067 0.0534345C68.138 0.23295 67.639 0.70249 67.4485 1.33147C67.3865 1.53605 67.3787 2.01696 67.4337 2.24044C67.4545 2.32516 67.5223 2.49994 67.5843 2.62888C67.673 2.81338 67.7431 2.90879 67.9138 3.07696C68.1564 3.31613 68.3526 3.44109 68.6586 3.55152C68.8489 3.62016 68.9014 3.62638 69.2905 3.62654C69.743 3.62671 69.856 3.60419 70.1674 3.45168C70.6108 3.23455 70.99 2.76689 71.115 2.28292C71.2938 1.59071 71.0755 0.895308 70.5381 0.445371C70.1669 0.134678 69.8742 0.0264932 69.3612 0.0105301C69.0752 0.00162432 68.9692 0.00982993 68.8067 0.0534345ZM23.5063 4.53706C21.711 4.66084 20.2933 5.16544 19.2808 6.04109C18.4972 6.71874 17.9782 7.70952 17.8846 8.70643L17.8658 8.90617L19.6977 8.89894L21.5297 8.89174L21.5912 8.6817C21.6809 8.37555 21.7935 8.19018 22.0333 7.95356C22.258 7.73184 22.4579 7.59982 22.7392 7.48732C23.318 7.25591 24.1407 7.19652 24.8274 7.33654C25.7119 7.5169 26.3753 8.07143 26.5454 8.77261C26.5688 8.86895 26.5961 9.15886 26.6061 9.41685L26.6243 9.88594L25.3398 9.88664C22.9364 9.8879 22.0456 9.95982 21.0405 10.2336C19.1232 10.756 17.9949 11.815 17.642 13.4234C17.5549 13.8203 17.5483 14.8616 17.6303 15.249C17.7831 15.9702 18.0755 16.5065 18.5924 17.0138C18.9232 17.3383 19.195 17.5255 19.6704 17.7561C20.5427 18.1791 21.3949 18.3526 22.6125 18.3549C23.3836 18.3564 23.7368 18.316 24.3107 18.1606C25.3478 17.8798 26.2412 17.256 26.9427 16.3229L27.1484 16.0493L27.1674 16.2653C27.2614 17.3326 27.7449 17.8832 28.8111 18.1372C28.9736 18.1759 29.2233 18.1856 30.3144 18.1956L31.6228 18.2075V16.6232V15.0389H31.2884C30.7672 15.0389 30.5504 14.948 30.4232 14.6758C30.3645 14.5503 30.3637 14.5162 30.3474 11.7343C30.3307 8.88435 30.3261 8.75894 30.2191 8.23361C30.1266 7.77959 29.8732 7.14109 29.6478 6.79388C28.8364 5.54405 27.3821 4.78211 25.4224 4.57999C24.9016 4.52628 23.9667 4.50533 23.5063 4.53706ZM43.7166 4.52527C43.6699 4.53165 43.5108 4.55044 43.363 4.56702C41.7203 4.7513 40.29 5.44424 39.4687 6.4537C39.0232 7.0012 38.7584 7.59865 38.6486 8.30363C38.5814 8.73542 38.6092 9.50302 38.7052 9.8667C38.835 10.3586 39.0122 10.6992 39.3209 11.05C40.1678 12.0124 41.553 12.493 44.5602 12.8678C46.1136 13.0614 46.66 13.1832 46.9889 13.409C47.2858 13.6129 47.3854 13.8039 47.4029 14.2032C47.4127 14.4267 47.4043 14.5045 47.3543 14.6513C47.1798 15.1637 46.7023 15.4773 45.8383 15.6467C45.6345 15.6866 45.4427 15.6965 44.8765 15.696C44.2539 15.6955 44.1384 15.6882 43.912 15.6354C42.9257 15.4055 42.2346 14.8807 41.9939 14.1791C41.958 14.0744 41.9195 13.9289 41.9085 13.8557L41.8884 13.7227H40.0995H38.3105L38.3331 13.9677C38.4262 14.976 38.8617 15.9093 39.5591 16.5948C40.7534 17.7687 42.5496 18.3763 44.834 18.3792C46.3129 18.381 47.5545 18.1377 48.5839 17.6443C49.7546 17.0831 50.6077 16.1635 50.9283 15.1173C51.0623 14.68 51.0938 14.4061 51.0774 13.8207C51.0477 12.7631 50.7897 12.0852 50.198 11.5103C49.6329 10.9612 48.5115 10.4716 47.1255 10.1687C46.4158 10.0136 45.9019 9.93842 44.7067 9.81489C43.5371 9.69399 43.0395 9.58491 42.6696 9.36829C42.3289 9.16869 42.2187 8.96005 42.2361 8.54722C42.2518 8.1766 42.3864 7.92387 42.6982 7.67961C43.0968 7.36732 43.6483 7.20604 44.4135 7.17792C45.2891 7.14574 45.9271 7.29818 46.4896 7.6739C46.9254 7.96504 47.1981 8.33253 47.2748 8.73186L47.3082 8.90575H49.0981H50.888V8.78339C50.888 8.4061 50.6862 7.69328 50.4485 7.23105C49.7983 5.96665 48.3135 5.02298 46.4324 4.67849C45.7745 4.55801 45.4854 4.53302 44.636 4.52325C44.177 4.51799 43.7633 4.51891 43.7166 4.52527ZM67.4092 11.6223V18.3716H69.3046H71.2V11.6223V4.87296H69.3046H67.4092V11.6223ZM26.6017 12.6655C26.5916 12.8234 26.5653 13.0614 26.5434 13.1944C26.3599 14.3057 25.6457 15.164 24.6369 15.4854C24.2256 15.6165 24.0285 15.6412 23.4046 15.6395C22.8389 15.638 22.7984 15.6343 22.5567 15.5608C21.8164 15.3358 21.434 14.9106 21.3696 14.2408C21.3449 13.9833 21.4095 13.625 21.5207 13.4027C21.7882 12.8681 22.4222 12.5055 23.2572 12.4092C23.3694 12.3963 24.1719 12.3841 25.0406 12.3821L26.62 12.3784L26.6017 12.6655Z" fill="white"/>
</svg>
