<svg viewBox="0 0 84 19" fill="none" xmlns="http://www.w3.org/2000/svg">
<g clip-path="url(#clip0_2_319)">
<path d="M84 7.6868V4.85551H80.59V1.16406H77.292V14.622C77.292 15.8586 77.6056 16.801 78.2243 17.423C78.8428 18.0456 79.8064 18.3613 81.0887 18.3613H84V15.53H81.8697C81.4063 15.53 81.0738 15.429 80.8813 15.2295C80.7046 15.0469 80.5899 14.5858 80.5899 14.0548V7.6868H84Z" fill="white"/>
<path d="M38.3014 4.85547L34.8916 14.6943L31.4817 4.85547H28.0171L32.9396 18.2458H36.8436L41.7661 4.85547H38.3014Z" fill="white"/>
<path d="M60.5912 0H57.2932V18.2453H60.5912V0Z" fill="white"/>
<path d="M71.9169 11.5631C71.9169 12.4108 71.7874 13.1483 71.532 13.755C71.2785 14.3585 70.9154 14.8211 70.4527 15.1297C69.9899 15.4383 69.421 15.5949 68.7622 15.5949C67.8193 15.5949 67.1078 15.2875 66.6476 14.6819C66.1827 14.0697 65.9469 13.1419 65.9469 11.9245V4.85547H62.6489V12.286C62.6489 13.443 62.7948 14.4243 63.0829 15.2024C63.371 15.9828 63.7668 16.6177 64.2594 17.089C64.7516 17.5597 65.3263 17.8997 65.9677 18.0999C66.6057 18.299 67.2918 18.3998 68.0074 18.3998C69.0387 18.3998 69.8921 18.2144 70.5433 17.8486C71.1373 17.514 71.635 17.1229 72.0249 16.6842L72.3203 18.2452H75.2149V4.85547H71.9169V11.5631Z" fill="white"/>
<path d="M52.2519 5.56105C51.2126 4.98967 49.9785 4.7002 48.5843 4.7002C47.2072 4.7002 45.9777 4.98967 44.9298 5.56087C43.8807 6.13352 43.0564 6.94226 42.4796 7.96453C41.9037 8.98591 41.6118 10.1965 41.6118 11.5626C41.6118 12.9118 41.9037 14.1139 42.4796 15.1353C43.056 16.1572 43.8805 16.9658 44.9298 17.5384C45.9777 18.1096 47.2073 18.3991 48.5843 18.3991C49.9785 18.3991 51.2126 18.1096 52.2519 17.5382C53.2923 16.966 54.1123 16.1574 54.6889 15.1353C55.2649 14.1134 55.557 12.9113 55.557 11.5625C55.557 10.197 55.2649 8.98644 54.6889 7.96451C54.1119 6.94208 53.2921 6.13334 52.2519 5.56105ZM50.5096 15.1284C49.9783 15.4715 49.3306 15.6455 48.5845 15.6455C47.8555 15.6455 47.212 15.4715 46.6718 15.1283C46.1306 14.7847 45.7063 14.2997 45.4102 13.6867C45.1128 13.0731 44.9618 12.3585 44.9618 11.5626C44.9618 10.7502 45.1126 10.0315 45.4102 9.42619C45.7061 8.82144 46.1308 8.33628 46.6725 7.98404C47.2125 7.63216 47.8558 7.45378 48.5845 7.45378C49.3302 7.45378 49.9776 7.63216 50.509 7.98367C51.042 8.33609 51.4625 8.82144 51.7592 9.42638C52.0563 10.0331 52.2071 10.7519 52.2071 11.5626C52.2071 12.3567 52.0563 13.0715 51.7592 13.6867C51.4625 14.2999 51.0422 14.7849 50.5096 15.1284Z" fill="white"/>
<path d="M3.42734 4.50293H0V18.2455H3.42734V4.50293Z" fill="white"/>
<path d="M14.1755 5.28853C14.1755 2.37245 11.7808 0 8.83711 0H0.000244141V2.93482H8.41696C9.74912 2.93482 10.8526 3.97262 10.877 5.24812C10.8892 5.88677 10.6475 6.48953 10.1964 6.94532C9.74511 7.40126 9.14216 7.65251 8.49863 7.65251H5.2199C5.10349 7.65251 5.00874 7.74631 5.00874 7.86174V10.4701C5.00874 10.5145 5.02256 10.5569 5.04856 10.5926L10.6115 18.2453H14.6836L9.10777 10.5716C11.9158 10.4319 14.1755 8.09241 14.1755 5.28853Z" fill="white"/>
<path d="M24.7142 5.48313C23.7269 4.96352 22.5547 4.7002 21.23 4.7002C19.9036 4.7002 18.7177 4.98985 17.7051 5.56142C16.6909 6.13352 15.893 6.94244 15.3337 7.96527C14.7749 8.98575 14.4917 10.2048 14.4917 11.5887C14.4917 12.9374 14.7793 14.1392 15.3467 15.1607C15.9155 16.1846 16.7358 16.9891 17.7846 17.5516C18.8314 18.1141 20.087 18.3993 21.5162 18.3993C22.6501 18.3993 23.6684 18.1886 24.5427 17.7729C25.4172 17.3561 26.1311 16.7885 26.6648 16.0858C27.1717 15.4179 27.5137 14.6626 27.681 13.8409L27.699 13.7532H24.4194L24.4039 13.8059C24.2233 14.4188 23.873 14.903 23.3622 15.2455C22.814 15.6138 22.1406 15.8007 21.3605 15.8007C20.6994 15.8007 20.1022 15.6602 19.5858 15.3831C19.072 15.1077 18.6702 14.7138 18.3919 14.2121C18.1125 13.7085 17.9536 13.1027 17.9196 12.4149V12.3074H27.8261L27.8372 12.2474C27.8718 12.0589 27.894 11.8647 27.9036 11.6693C27.9118 11.4791 27.9165 11.289 27.9165 11.0971C27.8989 9.79973 27.6064 8.65858 27.0475 7.70503C26.4864 6.75035 25.7013 6.00274 24.7142 5.48313ZM23.5125 8.00476C24.076 8.47497 24.4265 9.1432 24.5551 9.99215H18.0334C18.108 9.44133 18.2924 8.96426 18.5822 8.5729C18.8861 8.1624 19.2756 7.83992 19.7397 7.61429C20.2045 7.38795 20.7146 7.27304 21.256 7.27304C22.171 7.27302 22.9302 7.51921 23.5125 8.00476Z" fill="white"/>
</g>
<defs>
<clipPath id="clip0_2_319">
<rect width="84" height="18.4" fill="white"/>
</clipPath>
</defs>
</svg>
