<svg width="14" height="13" viewBox="0 0 14 13" fill="none" xmlns="http://www.w3.org/2000/svg">
<path d="M13.0266 6.2433L2.06703 9.97502C1.38365 9.00698 0.97833 7.8278 0.967019 6.55247C0.938741 3.22134 3.61665 0.497244 6.94872 0.468966C10.2101 0.441631 12.8899 3.00831 13.0266 6.2433Z" fill="#74708F"/>
<path d="M13.0307 6.45333C13.0589 9.7854 10.381 12.5086 7.0499 12.5368C6.97543 12.5378 6.90097 12.5368 6.8265 12.534C6.77655 12.5331 6.72565 12.5312 6.67569 12.5274C6.63233 12.5255 6.58897 12.5236 6.54561 12.5189C6.51262 12.517 6.47963 12.5151 6.4457 12.5114C6.31656 12.5001 6.18931 12.484 6.063 12.4633C6.01964 12.4567 5.97723 12.4501 5.93481 12.4416C5.9235 12.4407 5.91313 12.4379 5.90182 12.436C5.86317 12.4284 5.82453 12.4218 5.78682 12.4133C5.76043 12.4086 5.73498 12.403 5.70859 12.3973C5.70105 12.3954 5.69351 12.3945 5.68691 12.3926C5.58417 12.37 5.48331 12.3445 5.38151 12.3163C5.31364 12.2984 5.24577 12.2776 5.17791 12.2559C5.13361 12.2418 5.09025 12.2286 5.04595 12.2126C5.03746 12.2097 5.02992 12.2069 5.02144 12.2041C4.98279 12.19 4.94509 12.1768 4.90644 12.1626C4.8348 12.1362 4.76317 12.1079 4.69247 12.0787C4.63686 12.0561 4.58125 12.0316 4.52563 12.0061C4.48133 11.9864 4.43703 11.9666 4.39273 11.9449C4.32675 11.9128 4.26076 11.8798 4.19667 11.8469C4.14483 11.8186 4.09298 11.7912 4.04208 11.762C4.04114 11.762 4.04114 11.7611 4.0402 11.7611C3.99024 11.7319 3.93934 11.7036 3.89032 11.6744C3.88561 11.6706 3.8809 11.6678 3.87619 11.6649C3.82906 11.6357 3.78098 11.6065 3.73385 11.5754C3.69615 11.5509 3.65939 11.5264 3.62169 11.5019C3.50952 11.4265 3.40206 11.3473 3.29555 11.2643C3.11928 11.1277 2.94962 10.9797 2.79032 10.8251C2.73753 10.7723 2.68475 10.7205 2.63385 10.6658C2.59614 10.6252 2.5575 10.5847 2.52074 10.5423C2.50471 10.5244 2.48869 10.5065 2.47266 10.4876C2.45664 10.4707 2.44156 10.4528 2.42742 10.4348C2.40291 10.4066 2.3784 10.3783 2.35578 10.351C2.3096 10.2953 2.26435 10.2388 2.22005 10.1813C2.20308 10.1596 2.18706 10.137 2.17009 10.1153C2.13427 10.0691 2.0994 10.022 2.06641 9.97392L13.0259 6.24219C13.0288 6.31477 13.0297 6.38358 13.0307 6.45333Z" fill="#242235"/>
</svg>
