<svg width="19" height="19" viewBox="0 0 19 19"  xmlns="http://www.w3.org/2000/svg">
<path fill-rule="evenodd" clip-rule="evenodd" d="M18.1016 18.0156H14.5016V11.7165C14.5016 9.98853 13.7393 9.02462 12.3722 9.02462C10.8845 9.02462 10.0016 10.029 10.0016 11.7165V18.0156H6.40158V6.31562H10.0016V7.63142C10.0016 7.63142 11.1311 5.64962 13.6763 5.64962C16.2224 5.64962 18.1016 7.20302 18.1016 10.4178V18.0156ZM2.29938 4.44452C2.00962 4.44346 1.72291 4.38532 1.45563 4.27343C1.18834 4.16153 0.94572 3.99808 0.741623 3.79239C0.537526 3.58671 0.375953 3.34283 0.266132 3.07468C0.156312 2.80654 0.100397 2.51938 0.101581 2.22962C0.100515 1.93994 0.156518 1.65288 0.266391 1.38484C0.376265 1.1168 0.537857 0.873031 0.741942 0.667441C0.946027 0.461852 1.18861 0.298474 1.45583 0.186635C1.72306 0.074796 2.0097 0.0166868 2.29938 0.015625C2.88427 0.0180074 3.44426 0.252578 3.85624 0.667759C4.26821 1.08294 4.49843 1.64474 4.49628 2.22962C4.49758 2.51934 4.44178 2.80647 4.33206 3.07461C4.22234 3.34275 4.06085 3.58664 3.85682 3.79234C3.6528 3.99803 3.41024 4.16151 3.143 4.27341C2.87577 4.38532 2.5891 4.44346 2.29938 4.44452ZM0.101581 18.0156H4.60158V6.31562H0.101581V18.0156Z" fill="currentColor"/>
</svg>
