<svg width="17" height="13" viewBox="0 0 17 13" fill="none" xmlns="http://www.w3.org/2000/svg">
<g clip-path="url(#clip0_4697_1741)">
<path d="M16.2707 8.75C16.2807 9.78 16.2807 10.82 16.2707 11.85C16.2707 12.23 16.0207 12.49 15.6507 12.49H12.5707C12.2107 12.49 11.9607 12.24 11.9607 11.88C11.9507 10.82 11.9507 9.76 11.9607 8.71C11.9607 8.35 12.2107 8.11 12.5707 8.1H13.8007V6.8H8.8107V8.1H10.0007C10.4007 8.11 10.6507 8.35 10.6507 8.77C10.6607 9.79 10.6607 10.82 10.6507 11.84C10.6507 12.24 10.4007 12.49 10.0007 12.49C9.0007 12.5 7.9907 12.5 6.9807 12.49C6.5907 12.49 6.3407 12.24 6.3407 11.83C6.3307 10.81 6.3307 9.78 6.3407 8.76C6.3407 8.36 6.5907 8.11 6.9907 8.1H8.1607C8.1607 8.1 8.1707 8.09 8.1907 8.09V6.79H3.1907V8.1H4.3907C4.8007 8.1 5.0507 8.34 5.0507 8.76V11.83C5.0507 12.24 4.8007 12.49 4.4007 12.49H1.3907C1.0407 12.49 0.840703 12.31 0.730703 11.99C0.720703 10.86 0.720703 9.73 0.720703 8.6C0.850703 8.22 1.1207 8.08 1.5107 8.1C1.8607 8.12 2.2107 8.11 2.5707 8.11C2.5807 8.04 2.5807 7.99 2.5807 7.93V6.62C2.5807 6.26 2.6707 6.18 3.0107 6.18H8.1907V4.89H8.0307C7.6807 4.89 7.3307 4.9 6.9807 4.89C6.6007 4.89 6.3407 4.63 6.3407 4.24V1.15C6.3407 0.76 6.5907 0.5 6.9807 0.5H10.0207C10.4107 0.5 10.6607 0.76 10.6607 1.15V4.21C10.6607 4.61 10.4007 4.86 10.0007 4.86C9.6107 4.87 9.2207 4.86 8.8107 4.86V6.18H14.0507C14.3207 6.19 14.4107 6.28 14.4107 6.56C14.4207 7.02 14.4107 7.47 14.4107 7.92V8.11H14.5907C14.9407 8.11 15.2907 8.1 15.6407 8.11C16.0007 8.11 16.2707 8.38 16.2707 8.75Z" fill="#242235"/>
</g>
<defs>
<clipPath id="clip0_4697_1741">
<rect width="15.56" height="12" fill="white" transform="translate(0.720703 0.5)"/>
</clipPath>
</defs>
</svg>
