<svg width="10" height="13" viewBox="0 0 10 13" fill="none" xmlns="http://www.w3.org/2000/svg">
<path d="M6.19752 5.30405C6.19752 5.96613 5.6611 6.50295 4.99952 6.50295V7.70185C6.32268 7.70185 7.39552 6.62821 7.39552 5.30405C7.39552 3.97989 6.32268 2.90625 4.99952 2.90625C4.56334 2.90625 4.15371 3.02283 3.80152 3.22726C3.08521 3.64153 2.60352 4.4164 2.60352 5.30405V11.2986L3.68069 12.3765L3.80152 12.4975V5.30405C3.80152 4.64197 4.33793 4.10515 4.99952 4.10515C5.6611 4.10515 6.19752 4.64197 6.19752 5.30405Z" fill="#242235"/>
<path d="M4.99903 0.5C4.12614 0.5 3.30796 0.733707 2.60303 1.14202C2.15168 1.40284 1.74747 1.73523 1.40503 2.12402C0.659465 2.96938 0.207031 4.07989 0.207031 5.2956V8.8923L1.40503 10.0912V5.2956C1.40503 4.23063 1.86776 3.27357 2.60303 2.61475C2.94872 2.30567 3.35456 2.06166 3.80103 1.90441C4.17544 1.77102 4.57911 1.6989 4.99903 1.6989C6.98378 1.6989 8.59304 3.30936 8.59304 5.2956C8.59304 7.28184 6.98378 8.8923 4.99903 8.8923V10.0912C7.64591 10.0912 9.79104 7.94392 9.79104 5.2956C9.79104 2.64728 7.64591 0.5 4.99903 0.5Z" fill="#242235"/>
</svg>
