<svg width="21" height="22" viewBox="0 0 21 21" fill="none" xmlns="http://www.w3.org/2000/svg">
<circle cx="10.5" cy="10.5" r="10.25" fill="#413E53" stroke="#E6DAFE" stroke-width="0.5"/>
<path d="M10.7711 6.7475C10.4677 6.7475 10.2554 6.68683 10.1341 6.5655C10.0127 6.4355 9.95208 6.27517 9.95208 6.0845V5.8765C9.95208 5.68583 10.0127 5.52983 10.1341 5.4085C10.2554 5.2785 10.4677 5.2135 10.7711 5.2135C11.0744 5.2135 11.2867 5.2785 11.4081 5.4085C11.5294 5.52983 11.5901 5.68583 11.5901 5.8765V6.0845C11.5901 6.27517 11.5294 6.4355 11.4081 6.5655C11.2867 6.68683 11.0744 6.7475 10.7711 6.7475ZM7.83308 14.0535H10.2511V9.1135H7.83308V8.2295H11.2911V14.0535H13.5531V14.9375H7.83308V14.0535Z" fill="#E6DAFE"/>
</svg>
