<svg width="17" height="17" viewBox="0 0 17 16" fill="none" xmlns="http://www.w3.org/2000/svg">
<circle cx="8.39844" cy="8" r="7.5" fill="#D9D9D9" stroke="#242235"/>
<path d="M8.53119 5.46429C8.23119 5.46429 8.02048 5.40357 7.89905 5.28214C7.78477 5.16071 7.72762 5.01071 7.72762 4.83214V4.60714C7.72762 4.42857 7.78477 4.27857 7.89905 4.15714C8.02048 4.03571 8.22762 3.975 8.52048 3.975C8.82048 3.975 9.02762 4.03571 9.14191 4.15714C9.26334 4.27857 9.32405 4.42857 9.32405 4.60714V4.83214C9.32405 5.01071 9.26334 5.16071 9.14191 5.28214C9.02762 5.40357 8.82405 5.46429 8.53119 5.46429ZM6.05619 11.0571H7.94191V7.41429H6.05619V6.47143H9.10977V11.0571H10.8776V12H6.05619V11.0571Z" fill="#242235"/>
</svg>
