<svg width="18" height="18" fill="currentcolor" viewBox="0 0 100 100" xmlns="http://www.w3.org/2000/svg"><path d="M86.516 86.434H13.485c-1.328 0-2.324-.664-2.988-1.66a3.016 3.016 0 0 1 0-3.32l36.516-66.392c1.328-1.992 4.644-1.992 5.976 0l36.516 66.391a3.03 3.03 0 0 1 0 3.32c-.664.993-1.66 1.661-2.988 1.661zM19.129 79.79h61.742L50 23.69z"/><path d="M50 63.195c-1.992 0-3.32-1.328-3.32-3.32V43.277c0-1.993 1.328-3.32 3.32-3.32s3.32 1.327 3.32 3.32v16.598c0 1.992-1.332 3.32-3.32 3.32zM53.32 69.832c0 4.426-6.64 4.426-6.64 0s6.64-4.426 6.64 0"/><path d="M50 74.812c-2.656 0-4.98-2.324-4.98-4.98 0-2.653 2.324-4.981 4.98-4.981 2.652 0 4.98 2.324 4.98 4.98s-2.328 4.981-4.98 4.981zm0-6.637c-.996 0-1.66.664-1.66 1.66 0 .997.664 1.66 1.66 1.66s1.66-.663 1.66-1.66c0-.996-.664-1.66-1.66-1.66z"/></svg>
