<svg width="300" height="327" viewBox="0 0 300 327" fill="none" xmlns="http://www.w3.org/2000/svg">
<g clip-path="url(#clip0_131_951)">
<path d="M189.256 131.138L143.129 204.618L191.588 287.672L236.716 209.822L189.256 131.138Z" stroke="#0F0B0B" stroke-width="1.5" stroke-miterlimit="10" stroke-linejoin="round"/>
<g filter="url(#filter0_n_131_951)">
<path d="M142.128 204.243L190.587 287.672L93.2531 287.589L67.1086 238.423L47.084 202.536L142.128 204.618" fill="url(#paint0_linear_131_951)"/>
</g>
<path d="M199.413 209.905C199.455 209.738 199.496 209.613 199.58 209.447C199.705 209.114 199.788 208.739 199.871 208.406C200.163 207.074 200.204 205.658 200.079 204.284C199.954 203.077 199.705 201.912 199.247 200.829C199.163 200.579 199.038 200.33 198.914 200.121C198.83 199.913 198.747 199.747 198.622 199.539C198.539 199.414 198.456 199.247 198.372 199.122C198.248 198.914 198.123 198.748 197.998 198.581C195.875 195.708 192.752 195.584 190.712 198.414C190.046 199.33 189.588 200.454 189.297 201.662C189.214 202.036 189.13 202.411 189.089 202.827C189.005 203.327 188.964 203.868 188.964 204.409C188.922 205.367 189.005 206.366 189.172 207.282C189.38 208.323 189.671 209.322 190.088 210.238C190.213 210.488 190.296 210.696 190.462 210.945C190.504 211.029 190.546 211.112 190.629 211.195C191.711 213.027 193.168 214.026 194.626 214.109C195.417 214.151 196.166 213.943 196.915 213.443L197.998 217.232L201.453 229.388L208.905 219.064L199.413 209.905Z" fill="#0F0B0B" stroke="#0F0B0B" stroke-width="1.5" stroke-miterlimit="10" stroke-linejoin="round"/>
<path d="M46.2104 202.495L0.416016 201.496L56.5766 127.684L96.4177 129.848L46.2104 202.495Z" fill="#753DF6"/>
<g filter="url(#filter1_n_131_951)">
<path d="M46.2101 202.495L22.4386 237.382H120.897L142.128 204.243L46.2101 202.495Z" fill="#753DF6"/>
</g>
<g filter="url(#filter2_n_131_951)">
<path d="M142.129 204.243L188.256 131.138L229.138 110.573L184.26 184.177L142.129 204.243Z" fill="#753DF6"/>
</g>
<path d="M96.8751 129.432L120.98 93.7954L211.236 95.7104L188.256 131.139L96.8751 129.432Z" fill="#753DF6"/>
<path d="M177.474 299.87C177.474 307.364 171.812 313.525 164.526 314.358C163.985 314.441 163.444 314.441 162.903 314.441C154.868 314.441 148.332 307.905 148.332 299.87H136.009C136.009 314.732 148.04 326.806 162.944 326.806C163.485 326.806 164.068 326.764 164.568 326.722C178.681 325.89 189.838 314.15 189.838 299.87H177.474Z" fill="#0F0B0B"/>
<path d="M141.837 302.492C141.837 302.492 143.003 320.977 162.153 320.977C181.303 320.977 183.593 302.492 183.593 302.492" stroke="#F2E1F9" stroke-width="1.5" stroke-miterlimit="10"/>
<path d="M2.10337 252.702H-0.0155029V272.185H2.10337V252.702Z" fill="#0F0B0B"/>
<path d="M7.6334 252.702H5.51453V272.185H7.6334V252.702Z" fill="#0F0B0B"/>
<path d="M13.1627 252.702H11.0438V272.185H13.1627V252.702Z" fill="#0F0B0B"/>
<path d="M18.693 252.702H16.5741V272.185H18.693V252.702Z" fill="#0F0B0B"/>
<path d="M24.2223 252.702H22.1034V272.185H24.2223V252.702Z" fill="#0F0B0B"/>
<path d="M29.7008 252.702H27.5819V272.185H29.7008V252.702Z" fill="#0F0B0B"/>
<path d="M35.2301 252.702H33.1112V272.185H35.2301V252.702Z" fill="#0F0B0B"/>
<path d="M40.7594 252.702H38.6405V272.185H40.7594V252.702Z" fill="#0F0B0B"/>
<path d="M46.2896 252.702H44.1708V272.185H46.2896V252.702Z" fill="#0F0B0B"/>
<path d="M51.8189 252.702H49.7001V272.185H51.8189V252.702Z" fill="#0F0B0B"/>
<path d="M57.3491 252.702H55.2302V272.185H57.3491V252.702Z" fill="#0F0B0B"/>
<path d="M62.8268 252.702H60.7079V272.185H62.8268V252.702Z" fill="#0F0B0B"/>
<path d="M68.3568 252.702H66.2379V272.185H68.3568V252.702Z" fill="#0F0B0B"/>
<path d="M73.8864 252.702H71.7676V272.185H73.8864V252.702Z" fill="#0F0B0B"/>
<path d="M79.4165 252.702H77.2976V272.185H79.4165V252.702Z" fill="#0F0B0B"/>
<path d="M84.9461 252.702H82.8273V272.185H84.9461V252.702Z" fill="#0F0B0B"/>
<path d="M90.4762 252.702H88.3573V272.185H90.4762V252.702Z" fill="#0F0B0B"/>
<path d="M96.0055 252.702H93.8866V272.185H96.0055V252.702Z" fill="#0F0B0B"/>
<path d="M101.484 252.702H99.3651V272.185H101.484V252.702Z" fill="#753DF6"/>
<path d="M107.013 252.702H104.894V272.185H107.013V252.702Z" fill="#753DF6"/>
<path d="M112.543 252.702H110.424V272.185H112.543V252.702Z" fill="#753DF6"/>
<path d="M118.073 252.702H115.954V272.185H118.073V252.702Z" fill="#753DF6"/>
<path d="M123.602 252.702H121.483V272.185H123.602V252.702Z" fill="#753DF6"/>
<path d="M46.2101 202.495L96.8753 129.432L188.256 131.139L142.129 204.618L46.2101 202.495Z" fill="#0F0B0B" stroke="#0F0B0B" stroke-width="1.5" stroke-miterlimit="10" stroke-linejoin="round"/>
<path d="M241.721 201.664C241.637 200.706 241.513 200.04 241.304 199.207C240.305 195.294 237.932 191.797 234.602 189.507C231.688 187.509 228.274 186.468 224.735 186.51C224.236 186.51 223.028 186.635 222.487 186.676C222.321 186.718 222.112 186.718 221.946 186.76C221.321 186.884 220.739 187.009 220.114 187.217C218.241 187.8 216.451 188.675 214.91 189.84C211.621 192.38 209.456 195.877 208.707 199.915L208.665 200.04L199.298 200.831L194.136 201.247L189.349 201.622C189.265 201.997 189.182 202.371 189.14 202.788C189.057 203.287 189.015 203.828 189.015 204.37C188.974 205.327 189.057 206.326 189.224 207.242C189.432 208.283 189.723 209.282 190.14 210.198L192.97 209.948L197.05 209.615C198.008 209.532 198.882 209.449 199.673 209.407C208.957 208.616 209.498 208.616 209.498 208.616C209.665 209.074 209.789 209.365 209.914 209.573C211.496 213.112 214.286 215.985 217.741 217.692C219.948 218.774 222.321 219.398 224.818 219.44C224.985 219.44 225.151 219.44 225.318 219.44C225.859 219.44 227.275 219.315 227.774 219.232C230.397 218.816 232.812 217.816 234.893 216.318C235.684 215.735 236.434 215.11 237.1 214.444C239.639 211.822 241.263 208.408 241.637 204.703C241.846 203.745 241.846 202.829 241.721 201.664ZM228.565 209.99C227.857 210.323 227.191 210.573 226.317 210.698C226.151 210.739 224.985 210.822 224.818 210.781C224.527 210.739 224.236 210.739 223.944 210.698C222.987 210.573 222.196 210.281 221.405 209.865C219.531 208.866 218.157 207.2 217.575 205.161C217.408 204.661 217.366 204.411 217.325 203.703C217.241 202.954 217.241 202.746 217.325 202.163C217.658 199.124 219.739 196.585 222.654 195.71C222.778 195.669 222.945 195.627 223.112 195.585C223.569 195.46 223.861 195.419 224.36 195.377C224.777 195.336 225.068 195.336 225.443 195.377C225.526 195.377 225.568 195.377 225.651 195.377C226.192 195.419 226.775 195.544 227.316 195.71C229.689 196.418 231.646 198.25 232.437 200.623C232.645 201.247 232.77 201.747 232.853 202.455C232.895 203.162 232.895 203.662 232.812 204.328C232.728 204.952 232.562 205.535 232.312 206.118C231.521 207.783 230.23 209.157 228.565 209.99Z" fill="#753DF6"/>
<path d="M83.6785 197.873C101.788 197.873 116.484 183.177 116.484 165.068C116.484 146.958 101.788 132.262 83.6785 132.262C65.5689 132.262 50.873 146.958 50.873 165.068C50.873 183.177 65.5689 197.873 83.6785 197.873Z" fill="url(#paint1_linear_131_951)"/>
<path d="M83.6785 197.873C101.788 197.873 116.484 183.177 116.484 165.068C116.484 146.958 101.788 132.262 83.6785 132.262C65.5689 132.262 50.873 146.958 50.873 165.068C50.873 183.177 65.5689 197.873 83.6785 197.873Z" fill="url(#paint2_linear_131_951)"/>
<path d="M83.6779 191.296C98.1656 191.296 109.906 179.556 109.906 165.068C109.906 150.58 98.1656 138.84 83.6779 138.84C69.1902 138.84 57.4502 150.58 57.4502 165.068C57.4502 179.556 69.1902 191.296 83.6779 191.296Z" stroke="#0F0B0B" stroke-width="1.5" stroke-miterlimit="10"/>
<g filter="url(#filter3_n_131_951)">
<path d="M82.0546 90.2148C100.164 90.2148 114.86 75.5189 114.86 57.4093C114.86 39.2997 100.164 24.6039 82.0546 24.6039C63.945 24.6039 49.2491 39.2997 49.2491 57.4093C49.2491 75.5189 63.945 90.2148 82.0546 90.2148Z" fill="url(#paint3_linear_131_951)"/>
<path d="M82.0546 90.2148C100.164 90.2148 114.86 75.5189 114.86 57.4093C114.86 39.2997 100.164 24.6039 82.0546 24.6039C63.945 24.6039 49.2491 39.2997 49.2491 57.4093C49.2491 75.5189 63.945 90.2148 82.0546 90.2148Z" fill="url(#paint4_linear_131_951)"/>
</g>
<path d="M82.0546 83.6372C96.5423 83.6372 108.282 71.8971 108.282 57.4095C108.282 42.9218 96.5423 31.1818 82.0546 31.1818C67.5669 31.1818 55.8269 42.9218 55.8269 57.4095C55.8269 71.8971 67.5669 83.6372 82.0546 83.6372Z" stroke="#0F0B0B" stroke-width="1.5" stroke-miterlimit="10"/>
<path d="M172.311 142.712C178.972 125.851 172.603 107.534 158.073 101.788C143.544 96.0434 126.35 105.036 119.689 121.896C113.028 138.757 119.398 157.075 133.927 162.82C148.457 168.565 165.65 159.573 172.311 142.712Z" fill="#0F0B0B"/>
<path d="M167.024 140.631C172.353 127.142 167.232 112.53 155.617 107.909C144.002 103.288 130.222 110.49 124.893 123.978C119.565 137.467 124.685 152.08 136.3 156.701C147.957 161.28 161.695 154.12 167.024 140.631Z" fill="#0F0B0B"/>
<path d="M114.152 119.44C120.813 102.58 138.007 93.5872 152.536 99.3739C167.066 105.161 173.435 123.437 166.774 140.297C160.113 157.158 142.919 166.15 128.39 160.364C113.861 154.577 107.491 136.259 114.152 119.44Z" fill="url(#paint5_linear_131_951)"/>
<path d="M114.152 119.44C120.813 102.58 138.007 93.5872 152.536 99.3739C167.066 105.161 173.435 123.437 166.774 140.297C160.113 157.158 142.919 166.15 128.39 160.364C113.861 154.577 107.491 136.259 114.152 119.44Z" fill="url(#paint6_linear_131_951)"/>
<path d="M161.529 138.175C166.858 124.686 161.737 110.073 150.122 105.452C138.507 100.831 124.727 108.034 119.398 121.522C114.069 135.011 119.19 149.623 130.805 154.244C142.462 158.865 156.2 151.663 161.529 138.175Z" stroke="#0F0B0B" stroke-width="1.5" stroke-miterlimit="10"/>
</g>
<defs>
<filter id="filter0_n_131_951" x="47.084" y="202.536" width="143.503" height="85.136" filterUnits="userSpaceOnUse" color-interpolation-filters="sRGB">
<feFlood flood-opacity="0" result="BackgroundImageFix"/>
<feBlend mode="normal" in="SourceGraphic" in2="BackgroundImageFix" result="shape"/>
<feTurbulence type="fractalNoise" baseFrequency="2 2" stitchTiles="stitch" numOctaves="3" result="noise" seed="821" />
<feColorMatrix in="noise" type="luminanceToAlpha" result="alphaNoise" />
<feComponentTransfer in="alphaNoise" result="coloredNoise1">
<feFuncA type="discrete" tableValues="1 1 1 1 1 1 1 1 1 1 1 1 1 1 1 1 1 1 1 1 1 1 1 1 1 1 1 1 1 1 1 1 1 1 1 1 1 1 1 1 1 1 1 1 1 1 1 1 1 1 1 0 0 0 0 0 0 0 0 0 0 0 0 0 0 0 0 0 0 0 0 0 0 0 0 0 0 0 0 0 0 0 0 0 0 0 0 0 0 0 0 0 0 0 0 0 0 0 0 0 "/>
</feComponentTransfer>
<feComposite operator="in" in2="shape" in="coloredNoise1" result="noise1Clipped" />
<feFlood flood-color="rgba(0, 0, 0, 0.25)" result="color1Flood" />
<feComposite operator="in" in2="noise1Clipped" in="color1Flood" result="color1" />
<feMerge result="effect1_noise_131_951">
<feMergeNode in="shape" />
<feMergeNode in="color1" />
</feMerge>
</filter>
<filter id="filter1_n_131_951" x="22.4386" y="202.495" width="119.69" height="34.887" filterUnits="userSpaceOnUse" color-interpolation-filters="sRGB">
<feFlood flood-opacity="0" result="BackgroundImageFix"/>
<feBlend mode="normal" in="SourceGraphic" in2="BackgroundImageFix" result="shape"/>
<feTurbulence type="fractalNoise" baseFrequency="2 2" stitchTiles="stitch" numOctaves="3" result="noise" seed="821" />
<feColorMatrix in="noise" type="luminanceToAlpha" result="alphaNoise" />
<feComponentTransfer in="alphaNoise" result="coloredNoise1">
<feFuncA type="discrete" tableValues="1 1 1 1 1 1 1 1 1 1 1 1 1 1 1 1 1 1 1 1 1 1 1 1 1 1 1 1 1 1 1 1 1 1 1 1 1 1 1 1 1 1 1 1 1 1 1 1 1 1 1 0 0 0 0 0 0 0 0 0 0 0 0 0 0 0 0 0 0 0 0 0 0 0 0 0 0 0 0 0 0 0 0 0 0 0 0 0 0 0 0 0 0 0 0 0 0 0 0 0 "/>
</feComponentTransfer>
<feComposite operator="in" in2="shape" in="coloredNoise1" result="noise1Clipped" />
<feFlood flood-color="rgba(0, 0, 0, 0.25)" result="color1Flood" />
<feComposite operator="in" in2="noise1Clipped" in="color1Flood" result="color1" />
<feMerge result="effect1_noise_131_951">
<feMergeNode in="shape" />
<feMergeNode in="color1" />
</feMerge>
</filter>
<filter id="filter2_n_131_951" x="142.129" y="110.573" width="87.0094" height="93.6704" filterUnits="userSpaceOnUse" color-interpolation-filters="sRGB">
<feFlood flood-opacity="0" result="BackgroundImageFix"/>
<feBlend mode="normal" in="SourceGraphic" in2="BackgroundImageFix" result="shape"/>
<feTurbulence type="fractalNoise" baseFrequency="2 2" stitchTiles="stitch" numOctaves="3" result="noise" seed="821" />
<feColorMatrix in="noise" type="luminanceToAlpha" result="alphaNoise" />
<feComponentTransfer in="alphaNoise" result="coloredNoise1">
<feFuncA type="discrete" tableValues="1 1 1 1 1 1 1 1 1 1 1 1 1 1 1 1 1 1 1 1 1 1 1 1 1 1 1 1 1 1 1 1 1 1 1 1 1 1 1 1 1 1 1 1 1 1 1 1 1 1 1 0 0 0 0 0 0 0 0 0 0 0 0 0 0 0 0 0 0 0 0 0 0 0 0 0 0 0 0 0 0 0 0 0 0 0 0 0 0 0 0 0 0 0 0 0 0 0 0 0 "/>
</feComponentTransfer>
<feComposite operator="in" in2="shape" in="coloredNoise1" result="noise1Clipped" />
<feFlood flood-color="rgba(0, 0, 0, 0.25)" result="color1Flood" />
<feComposite operator="in" in2="noise1Clipped" in="color1Flood" result="color1" />
<feMerge result="effect1_noise_131_951">
<feMergeNode in="shape" />
<feMergeNode in="color1" />
</feMerge>
</filter>
<filter id="filter3_n_131_951" x="49.2491" y="24.6039" width="65.6108" height="65.6108" filterUnits="userSpaceOnUse" color-interpolation-filters="sRGB">
<feFlood flood-opacity="0" result="BackgroundImageFix"/>
<feBlend mode="normal" in="SourceGraphic" in2="BackgroundImageFix" result="shape"/>
<feTurbulence type="fractalNoise" baseFrequency="2 2" stitchTiles="stitch" numOctaves="3" result="noise" seed="821" />
<feColorMatrix in="noise" type="luminanceToAlpha" result="alphaNoise" />
<feComponentTransfer in="alphaNoise" result="coloredNoise1">
<feFuncA type="discrete" tableValues="1 1 1 1 1 1 1 1 1 1 1 1 1 1 1 1 1 1 1 1 1 1 1 1 1 1 1 1 1 1 1 1 1 1 1 1 1 1 1 1 1 1 1 1 1 1 1 1 1 1 1 0 0 0 0 0 0 0 0 0 0 0 0 0 0 0 0 0 0 0 0 0 0 0 0 0 0 0 0 0 0 0 0 0 0 0 0 0 0 0 0 0 0 0 0 0 0 0 0 0 "/>
</feComponentTransfer>
<feComposite operator="in" in2="shape" in="coloredNoise1" result="noise1Clipped" />
<feFlood flood-color="rgba(0, 0, 0, 0.25)" result="color1Flood" />
<feComposite operator="in" in2="noise1Clipped" in="color1Flood" result="color1" />
<feMerge result="effect1_noise_131_951">
<feMergeNode in="shape" />
<feMergeNode in="color1" />
</feMerge>
</filter>
<linearGradient id="paint0_linear_131_951" x1="103.52" y1="266.117" x2="129.709" y2="202.536" gradientUnits="userSpaceOnUse">
<stop stop-color="#BB7DFF"/>
<stop offset="1" stop-color="#FFC49C"/>
</linearGradient>
<linearGradient id="paint1_linear_131_951" x1="56.29" y1="147.205" x2="117.415" y2="208.813" gradientUnits="userSpaceOnUse">
<stop stop-color="#9E86FF"/>
<stop offset="1" stop-color="#FFAA9A"/>
</linearGradient>
<linearGradient id="paint2_linear_131_951" x1="76.6763" y1="181.262" x2="103.525" y2="142.59" gradientUnits="userSpaceOnUse">
<stop stop-color="#BB7DFF"/>
<stop offset="1" stop-color="#FFC49C"/>
</linearGradient>
<linearGradient id="paint3_linear_131_951" x1="54.6661" y1="39.5464" x2="115.791" y2="101.154" gradientUnits="userSpaceOnUse">
<stop stop-color="#9E86FF"/>
<stop offset="1" stop-color="#FFAA9A"/>
</linearGradient>
<linearGradient id="paint4_linear_131_951" x1="75.0524" y1="73.6032" x2="101.901" y2="34.9315" gradientUnits="userSpaceOnUse">
<stop stop-color="#BB7DFF"/>
<stop offset="1" stop-color="#FFC49C"/>
</linearGradient>
<linearGradient id="paint5_linear_131_951" x1="116.292" y1="112.308" x2="176.084" y2="166.411" gradientUnits="userSpaceOnUse">
<stop stop-color="#9E86FF"/>
<stop offset="1" stop-color="#FFAA9A"/>
</linearGradient>
<linearGradient id="paint6_linear_131_951" x1="134.283" y1="145.788" x2="161.549" y2="110.532" gradientUnits="userSpaceOnUse">
<stop stop-color="#BB7DFF"/>
<stop offset="1" stop-color="#FFC49C"/>
</linearGradient>
<clipPath id="clip0_131_951">
<rect width="299.412" height="326.805" fill="white"/>
</clipPath>
</defs>
</svg>
