<svg viewBox="0 0 692 692" fill="none" xmlns="http://www.w3.org/2000/svg">
<circle opacity="0.5" cx="346" cy="346" r="224" fill="#F3EDED"/>
<circle cx="346" cy="346" r="270.44" stroke="#F3EDED" stroke-width="1.12"/>
<g filter="url(#filter0_dddd_10070_1509)">
<rect x="41" y="286" width="299.901" height="120" rx="11.9008" fill="white"/>
<g clip-path="url(#clip0_10070_1509)">
<path d="M76.7024 341.497C87.2783 341.497 95.8548 332.992 95.8548 322.504C95.8548 312.015 87.2783 303.51 76.7024 303.51C66.1265 303.518 57.55 312.015 57.55 322.504C57.55 332.992 66.1265 341.497 76.7024 341.497Z" fill="#ECF3FF"/>
<path d="M71.5295 310.92L64.8254 308.263V309.215L70.5695 314.34L70.1887 319.656L68.4671 326.875L66.1662 330.105L66.7375 334.659L69.6095 335.039L71.9104 334.659L74.2112 335.039L78.2337 332.572L79.0033 328.581L83.7874 324.027L85.8899 325.543L87.9924 328.581V334.659L90.8644 333.897L93.7365 327.629L94.5061 319.656L84.1682 304.653L82.4466 304.272L71.5295 310.92Z" fill="white"/>
<path d="M61.3821 321.901C61.4614 321.258 61.4932 320.608 61.6915 320.005C62.231 317.498 63.2624 315.102 64.7937 313.166C65.0634 312.825 65.2935 312.523 65.595 312.214L63.8733 310.619C63.5639 311.071 63.2624 311.531 62.9927 311.984C61.5725 314.411 60.8109 317.148 60.6204 319.846C60.5411 320.528 60.5808 321.211 60.5808 321.861C60.5808 322.544 60.6601 323.194 60.7712 323.876C60.9616 325.209 61.3107 326.495 61.7709 327.716C61.4614 326.423 61.3107 325.13 61.271 323.805C61.2631 323.186 61.2631 322.544 61.3821 321.901Z" fill="#94A6C4"/>
<path d="M69.2367 309.595C68.2767 309.143 66.9359 308.532 65.9838 308.08C66.8645 307.247 68.475 306.374 69.8159 305.803C68.8479 306.557 68.8479 308.151 69.2367 309.595Z" fill="#94A6C4"/>
<path d="M65.3649 316.046C64.8254 317.379 64.4843 318.783 64.3652 320.147C64.3256 320.489 64.2859 320.83 64.3256 321.171C64.3256 321.512 64.3256 321.853 64.3652 322.194L64.4049 322.734C64.4049 322.885 64.4446 323.075 64.4843 323.226L64.635 324.249L64.6747 323.226C64.6747 323.075 64.6747 322.885 64.7143 322.734L64.7937 322.242C64.8333 321.901 64.9047 321.56 64.9444 321.258C64.9841 320.917 65.0952 320.616 65.1745 320.306C65.5157 319.013 66.0948 317.839 66.7851 316.736C67.2452 316.014 67.7847 315.371 68.356 314.76L66.8644 313.356C66.2059 314.229 65.7457 315.102 65.3649 316.046Z" fill="#94A6C4"/>
<path d="M87.5401 309.556C85.509 308.834 84.7077 309.064 84.7077 309.064C84.7077 309.064 83.4462 312.444 78.6145 312.674C78.6541 312.705 82.986 315.212 87.5401 309.556Z" fill="#94A6C4"/>
<path d="M88.9206 316.276C88.7302 320.457 85.4773 322.012 82.9464 321.71C81.5659 321.52 79.5349 322.163 79.5349 322.163L76.9722 326.566L76.1312 326.867L77.5831 324.21C77.5831 324.21 74.1398 325.463 73.8701 325.574C73.6003 325.685 72.5292 327.248 71.6486 328.875C71.4582 327.732 70.7283 326.939 70.7283 326.899C70.7283 327.09 71.1091 330.509 70.6886 331.453C70.2681 332.437 68.3878 333.088 68.3878 333.088L71.1487 334.111L71.3392 334.19L73.4099 332.255L74.1795 329.367L75.1395 328.684C75.1395 328.684 77.5117 328.415 77.1706 330.549C77.0198 331.572 75.8694 331.501 74.5683 332.294C73.7987 332.747 72.8069 333.468 72.3071 333.968L73.6876 334.952C73.6876 334.952 75.3378 334.682 77.6704 332.866C80.0426 330.969 78.8605 328.914 78.8605 328.914L82.7322 324.321L85.2631 324.511C85.2631 324.511 89.6268 325.614 91.0469 329.716C93.8635 321.861 89.3015 316.657 88.9206 316.276Z" fill="#94A6C4"/>
<path d="M93.3636 313.015C94.0538 313.316 94.5854 313.777 95.0852 314.189C91.6419 302.336 80.4551 303.669 80.2251 303.74C80.4948 303.32 81.4866 302.677 82.4069 302.336C82.4069 302.336 77.6545 300.662 73.3305 303.629C73.4099 302.947 74.2508 301.923 74.2508 301.923C68.2766 304.462 67.8958 307.501 69.0462 309.326C68.0862 308.873 67.1342 308.453 66.1742 307.993C63.2227 306.588 60.6998 305.406 60.5411 305.375C60.2713 305.295 60.1603 305.414 60.1603 305.414C60.1603 305.414 60.0413 305.525 60.2713 305.755C63.7543 309.215 65.9758 311.301 69.6889 314.681C69.078 316.046 68.9986 316.736 69.308 317.45C69.7285 318.434 69.6889 318.934 69.5381 319.576C69.3477 320.219 67.8165 325.955 67.5467 326.606C67.277 327.288 65.2459 329.565 65.2142 330.327C65.1745 331.088 65.7854 334.428 66.6343 334.92C67.2849 335.261 68.8558 335.983 70.0062 336.134C70.387 336.214 70.7758 336.174 70.9662 336.023C71.7358 335.531 71.9262 335.452 72.4181 335.492L72.5292 335.531C72.7196 335.571 72.9497 335.642 73.2591 335.682C73.9097 335.761 74.7507 335.761 75.4409 335.301C76.4406 334.54 78.1226 333.595 78.6938 333.096C79.3841 332.413 79.8442 331.461 79.8442 330.398C79.8442 329.446 80.4948 328.692 81.2247 327.931C81.915 327.248 83.6366 325.574 84.3269 324.852C86.0882 325.463 86.7388 327.97 86.7388 329.335C86.7388 333.135 83.6366 338.681 76.512 339.094C76.2423 339.094 75.9725 339.133 75.671 339.133C66.4042 339.133 58.8194 331.009 58.8194 321.472C58.8194 313.951 63.3735 308.858 63.4132 308.818C59.7318 312.285 57.55 317.109 57.55 322.504C57.55 332.984 66.1265 341.498 76.7024 341.498C87.2783 341.498 95.8548 332.984 95.8548 322.504C95.8548 319.084 94.9742 315.784 93.3636 313.015ZM67.2056 310.579C66.6661 310.127 66.1345 309.667 65.595 309.215C66.3249 309.595 67.0469 309.976 67.6975 310.317C69.6889 311.341 71.3391 312.253 71.6406 312.483C71.6406 312.483 71.6803 312.523 71.7199 312.563C71.9104 312.793 72.1008 313.174 71.7596 313.665C71.5692 313.935 71.3391 313.856 70.99 313.626C70.6885 313.427 69.0462 312.134 67.2056 310.579ZM78.3527 330.327C78.3527 330.969 78.0432 331.54 77.6624 331.961C77.472 332.151 76.7024 332.643 76.1708 332.984C75.6313 333.365 75.0601 333.706 74.5999 334.048C74.4095 334.159 74.1001 334.238 73.6003 334.159L72.4102 334.008C73.1401 333.286 75.1315 331.731 75.7821 331.421C76.5517 331.041 77.0039 330.62 76.6627 329.747C76.3533 328.835 75.1712 328.875 75.1712 328.875C75.1712 328.875 75.9011 328.684 76.4723 328.764C75.7424 328.462 74.7507 328.534 74.2508 328.875C73.7113 329.256 73.5606 330.811 73.2194 331.763C72.8783 332.746 72.1087 333.167 70.9583 333.968C70.3077 334.389 69.8872 334.5 69.5778 334.46C68.9272 334.27 68.1576 333.929 67.6261 333.659C67.3166 333.088 66.9358 331.302 66.8961 330.58C67.0469 330.2 67.6657 329.438 67.9672 328.986C68.5781 328.153 68.9272 327.653 69.078 327.201C69.3477 326.558 70.4585 322.488 70.8789 320.782C71.2994 321.504 71.8786 322.718 71.6089 323.4C72.9894 321.956 72.3785 320.251 72.069 319.56C71.7993 318.878 71.4978 317.545 72.1087 316.26C72.6799 314.967 74.6713 311.476 74.6713 311.476C74.6713 311.476 75.0125 312.388 75.7424 312.309C76.4327 312.229 83.0575 304.867 83.0575 304.867C83.0575 304.867 84.0889 308.286 82.1768 310.373C80.2647 312.46 78.6542 312.69 78.6542 312.69C78.6542 312.69 80.7963 313.372 83.0178 312.237C83.589 314.292 84.0889 316.419 84.0889 316.68C83.9381 316.95 81.788 320.52 81.5976 320.742C81.5183 320.822 80.9074 320.893 80.5266 320.893C79.8363 321.004 79.4158 321.044 79.2254 321.163C78.916 321.353 77.1546 324.654 76.3137 326.249C75.5441 326.36 74.7824 326.629 74.1715 327.351C74.4809 327.201 75.3616 327.201 76.0122 327.201C76.5834 327.24 78.1543 328.375 78.3447 330.16C78.3527 330.295 78.3527 330.295 78.3527 330.327ZM73.87 331.921C74.2905 331.469 74.3699 330.588 74.4413 330.327C74.5206 330.057 74.6713 329.565 75.0125 329.525C75.3537 329.486 76.0836 329.716 76.0122 330.287C75.9328 330.819 75.3616 330.858 74.9014 331.12C74.5999 331.318 73.9414 331.85 73.87 331.921ZM90.5312 332.421C90.071 327.558 86.6991 325.281 85.2075 324.519C86.9292 324.329 91.3722 323.004 88.9206 316.276C88.9999 316.577 89.6902 319.925 87.7305 321.671C85.7391 323.456 82.8274 322.694 82.4862 322.694C82.1768 322.655 80.7249 324.059 78.7335 326.756C78.5431 326.645 77.7338 326.336 76.7421 326.376C77.7418 324.511 79.2333 321.853 79.4634 321.631C79.5427 321.552 80.1933 321.48 80.5742 321.441C81.3437 321.361 81.7246 321.29 81.8753 321.139C81.9547 321.028 82.4862 320.187 83.0257 319.275C83.3669 319.314 84.2872 319.386 84.4062 319.354C84.4856 319.275 85.517 317.458 85.5566 317.228C85.5963 317.077 84.8664 314.229 84.4062 312.404C93.8634 316.847 95.355 326.645 90.5312 332.421Z" fill="#1C324F"/>
<path d="M81.4152 309.818C82.4863 308.865 82.3355 307.231 82.3355 307.231L79.1223 310.762C79.0747 310.77 80.0744 310.96 81.4152 309.818Z" fill="#1C324F"/>
<path d="M69.3874 329.914L69.927 328.399C69.927 328.399 68.2767 330.485 68.126 330.795C67.9752 331.136 68.0466 331.779 68.5861 331.818C69.1256 331.858 69.8476 331.176 69.927 330.644C70.038 329.914 69.3874 329.914 69.3874 329.914Z" fill="#1C324F"/>
<path d="M74.4413 320.719C75.5917 320.608 77.6545 319.695 78.5431 318.973C79.4238 318.212 79.273 316.546 77.8925 316.046C78.3527 315.284 79.1143 313.689 79.1143 313.689C79.1143 313.689 74.1715 319.426 73.7907 319.497C73.4099 319.576 73.2512 318.132 73.2512 318.132C72.1087 320.909 74.0605 321.591 74.4413 320.719Z" fill="#1C324F"/>
<path d="M74.8618 319.997L77.4244 316.768C77.4244 316.768 78.5352 317.529 77.8053 318.402C76.8929 319.426 74.8618 319.997 74.8618 319.997Z" fill="#FFD925"/>
<path d="M81.685 305.605L79.9237 307.501C78.5035 307.921 77.1309 308.675 75.8218 309.929C75.8218 309.215 77.9323 306.057 81.685 305.605Z" fill="#D82423"/>
<path d="M83.9064 307.239C83.9461 306.747 83.9064 306.176 83.8271 305.644C86.1279 305.946 88.8413 307.279 91.9434 310.278C89.3808 308.873 86.6595 307.58 83.9064 307.239Z" fill="#D82423"/>
<path d="M84.5967 309.706C84.5967 309.706 93.1335 313.427 94.7044 323.876C94.9345 310.278 85.2076 309.595 84.5967 309.706Z" fill="#D82423"/>
<path d="M72.1484 303.708C72.0373 304.01 67.2056 309.143 73.2194 311.15C69.9269 308.223 72.1087 303.74 72.1484 303.708Z" fill="#D82423"/>
<path d="M74.711 310.349C74.711 310.349 75.2109 304.542 78.7335 302.979C78.4638 303.058 71.3074 305.224 74.711 310.349Z" fill="#D82423"/>
</g>
<path d="M113.926 305.679V317.219H112.18V307.426H112.112L109.351 309.229V307.561L112.23 305.679H113.926ZM118.947 305.679V317.219H117.206V305.679H118.947ZM130.797 305.679V317.219H129.197L123.331 308.755H123.224V317.219H121.483V305.679H123.094L128.966 314.154H129.073V305.679H130.797ZM142.922 309.432H141.164C141.096 309.056 140.97 308.725 140.786 308.44C140.602 308.154 140.377 307.912 140.11 307.713C139.843 307.514 139.545 307.364 139.214 307.262C138.887 307.161 138.54 307.11 138.172 307.11C137.507 307.11 136.911 307.277 136.385 307.612C135.863 307.946 135.45 308.436 135.146 309.082C134.845 309.728 134.695 310.517 134.695 311.449C134.695 312.388 134.845 313.181 135.146 313.827C135.45 314.473 135.865 314.961 136.391 315.292C136.917 315.622 137.509 315.788 138.166 315.788C138.53 315.788 138.876 315.739 139.203 315.641C139.534 315.54 139.832 315.391 140.099 315.196C140.366 315.001 140.591 314.762 140.775 314.48C140.963 314.195 141.092 313.868 141.164 313.5L142.922 313.506C142.828 314.073 142.646 314.595 142.375 315.072C142.109 315.545 141.765 315.955 141.344 316.301C140.927 316.642 140.45 316.907 139.913 317.095C139.376 317.283 138.79 317.377 138.155 317.377C137.156 317.377 136.265 317.14 135.484 316.667C134.703 316.19 134.086 315.508 133.636 314.621C133.189 313.735 132.965 312.677 132.965 311.449C132.965 310.217 133.191 309.159 133.641 308.276C134.092 307.39 134.708 306.71 135.49 306.237C136.271 305.76 137.159 305.521 138.155 305.521C138.767 305.521 139.338 305.609 139.868 305.786C140.401 305.959 140.88 306.214 141.305 306.552C141.729 306.887 142.08 307.296 142.358 307.781C142.636 308.261 142.824 308.812 142.922 309.432ZM145.005 317.219V305.679H146.747V310.694H152.5V305.679H154.247V317.219H152.5V312.187H146.747V317.219H145.005Z" fill="#25253E"/>
<path d="M164.842 306.648L161.588 318.738H160.765L164.019 306.648H164.842Z" fill="#44403C"/>
<path opacity="0.5" d="M178.061 305.679H179.808V313.269C179.808 314.077 179.618 314.792 179.239 315.416C178.859 316.036 178.326 316.524 177.638 316.881C176.951 317.234 176.145 317.411 175.221 317.411C174.3 317.411 173.497 317.234 172.809 316.881C172.122 316.524 171.588 316.036 171.209 315.416C170.829 314.792 170.64 314.077 170.64 313.269V305.679H172.381V313.128C172.381 313.65 172.495 314.114 172.725 314.52C172.958 314.926 173.286 315.245 173.711 315.478C174.135 315.707 174.639 315.822 175.221 315.822C175.807 315.822 176.312 315.707 176.737 315.478C177.165 315.245 177.492 314.926 177.717 314.52C177.946 314.114 178.061 313.65 178.061 313.128V305.679ZM188.633 308.71C188.573 308.177 188.325 307.764 187.889 307.471C187.454 307.174 186.905 307.026 186.244 307.026C185.771 307.026 185.361 307.101 185.016 307.251C184.67 307.397 184.401 307.6 184.21 307.859C184.022 308.115 183.928 308.406 183.928 308.733C183.928 309.007 183.992 309.244 184.12 309.443C184.251 309.642 184.422 309.809 184.632 309.944C184.847 310.076 185.076 310.187 185.32 310.277C185.564 310.363 185.799 310.435 186.024 310.491L187.151 310.784C187.519 310.874 187.897 310.996 188.284 311.15C188.671 311.304 189.03 311.507 189.36 311.759C189.691 312.011 189.957 312.322 190.16 312.694C190.367 313.066 190.47 313.511 190.47 314.03C190.47 314.683 190.301 315.264 189.963 315.771C189.629 316.278 189.142 316.678 188.504 316.971C187.869 317.264 187.101 317.411 186.199 317.411C185.335 317.411 184.587 317.273 183.956 316.999C183.325 316.725 182.831 316.336 182.474 315.833C182.117 315.326 181.92 314.725 181.883 314.03H183.629C183.663 314.447 183.799 314.794 184.035 315.072C184.276 315.346 184.582 315.551 184.954 315.686C185.329 315.818 185.741 315.884 186.188 315.884C186.68 315.884 187.117 315.807 187.501 315.653C187.888 315.495 188.192 315.277 188.413 314.999C188.635 314.717 188.746 314.388 188.746 314.013C188.746 313.671 188.648 313.391 188.453 313.173C188.261 312.955 188 312.775 187.67 312.632C187.343 312.489 186.973 312.364 186.56 312.255L185.196 311.883C184.272 311.631 183.539 311.261 182.998 310.773C182.461 310.284 182.193 309.638 182.193 308.834C182.193 308.169 182.373 307.589 182.734 307.093C183.094 306.597 183.583 306.212 184.199 305.938C184.815 305.66 185.51 305.521 186.283 305.521C187.065 305.521 187.754 305.658 188.351 305.932C188.953 306.207 189.426 306.584 189.771 307.065C190.117 307.542 190.297 308.091 190.312 308.71H188.633ZM196.287 317.219H192.551V305.679H196.405C197.536 305.679 198.507 305.91 199.318 306.372C200.13 306.83 200.751 307.489 201.183 308.35C201.619 309.206 201.837 310.234 201.837 311.432C201.837 312.634 201.617 313.667 201.178 314.531C200.742 315.395 200.111 316.06 199.285 316.526C198.458 316.988 197.459 317.219 196.287 317.219ZM194.292 315.698H196.191C197.07 315.698 197.801 315.532 198.383 315.202C198.965 314.867 199.401 314.385 199.69 313.754C199.98 313.119 200.124 312.345 200.124 311.432C200.124 310.527 199.98 309.758 199.69 309.127C199.405 308.496 198.978 308.017 198.411 307.69C197.844 307.364 197.14 307.2 196.298 307.2H194.292V315.698Z" fill="#25253E"/>
<path d="M112.554 328.531V337.186H111.244V329.841H111.193L109.123 331.193V329.942L111.282 328.531H112.554ZM116.201 328.531V337.186H114.895V328.531H116.201ZM124.969 328.531V337.186H123.769L119.37 330.838H119.289V337.186H117.984V328.531H119.192L123.596 334.887H123.676V328.531H124.969ZM133.944 331.345H132.625C132.575 331.064 132.48 330.816 132.342 330.602C132.204 330.387 132.035 330.206 131.835 330.056C131.635 329.907 131.411 329.794 131.163 329.718C130.918 329.642 130.657 329.604 130.381 329.604C129.883 329.604 129.436 329.73 129.042 329.98C128.65 330.231 128.34 330.599 128.112 331.083C127.886 331.568 127.774 332.16 127.774 332.858C127.774 333.563 127.886 334.157 128.112 334.642C128.34 335.126 128.651 335.493 129.046 335.741C129.44 335.989 129.884 336.112 130.377 336.112C130.65 336.112 130.91 336.076 131.155 336.003C131.403 335.927 131.627 335.815 131.827 335.669C132.027 335.522 132.196 335.343 132.334 335.132C132.475 334.918 132.572 334.673 132.625 334.397L133.944 334.401C133.873 334.826 133.737 335.218 133.534 335.576C133.334 335.931 133.076 336.238 132.761 336.497C132.448 336.753 132.09 336.952 131.687 337.093C131.284 337.234 130.845 337.304 130.369 337.304C129.619 337.304 128.951 337.127 128.365 336.772C127.779 336.414 127.317 335.903 126.979 335.238C126.644 334.573 126.476 333.78 126.476 332.858C126.476 331.934 126.645 331.141 126.983 330.479C127.322 329.814 127.784 329.304 128.37 328.949C128.956 328.591 129.622 328.412 130.369 328.412C130.828 328.412 131.256 328.479 131.653 328.611C132.053 328.741 132.413 328.932 132.731 329.186C133.049 329.437 133.313 329.744 133.521 330.107C133.73 330.468 133.871 330.881 133.944 331.345ZM135.388 337.186V328.531H136.693V332.292H141.008V328.531H142.318V337.186H141.008V333.412H136.693V337.186H135.388ZM150.327 328.125L147.537 338.488H146.409L149.198 328.125H150.327ZM159.979 328.531H161.289V334.223C161.289 334.829 161.147 335.366 160.862 335.834C160.578 336.298 160.178 336.665 159.662 336.932C159.146 337.197 158.542 337.33 157.849 337.33C157.159 337.33 156.556 337.197 156.04 336.932C155.525 336.665 155.124 336.298 154.84 335.834C154.555 335.366 154.413 334.829 154.413 334.223V328.531H155.719V334.118C155.719 334.509 155.805 334.857 155.977 335.162C156.151 335.466 156.398 335.705 156.716 335.88C157.035 336.052 157.412 336.138 157.849 336.138C158.288 336.138 158.667 336.052 158.986 335.88C159.307 335.705 159.552 335.466 159.721 335.162C159.893 334.857 159.979 334.509 159.979 334.118V328.531ZM167.789 330.804C167.744 330.404 167.558 330.094 167.231 329.875C166.905 329.652 166.493 329.541 165.997 329.541C165.642 329.541 165.335 329.597 165.076 329.71C164.817 329.82 164.615 329.972 164.472 330.166C164.331 330.358 164.26 330.576 164.26 330.821C164.26 331.027 164.308 331.205 164.404 331.354C164.503 331.503 164.631 331.629 164.789 331.73C164.949 331.829 165.121 331.912 165.304 331.979C165.487 332.044 165.663 332.098 165.832 332.14L166.678 332.36C166.954 332.427 167.237 332.519 167.527 332.634C167.817 332.75 168.086 332.902 168.334 333.091C168.582 333.28 168.782 333.513 168.934 333.792C169.089 334.071 169.167 334.405 169.167 334.794C169.167 335.284 169.04 335.719 168.787 336.1C168.536 336.48 168.171 336.78 167.692 337C167.216 337.22 166.64 337.33 165.963 337.33C165.315 337.33 164.755 337.227 164.281 337.021C163.808 336.815 163.438 336.524 163.17 336.146C162.902 335.766 162.754 335.315 162.726 334.794H164.036C164.062 335.107 164.163 335.367 164.341 335.576C164.521 335.781 164.751 335.935 165.03 336.036C165.311 336.135 165.62 336.184 165.955 336.184C166.324 336.184 166.652 336.127 166.94 336.011C167.23 335.893 167.458 335.729 167.624 335.521C167.791 335.31 167.874 335.063 167.874 334.781C167.874 334.525 167.8 334.315 167.654 334.152C167.51 333.988 167.314 333.853 167.067 333.746C166.821 333.639 166.544 333.544 166.234 333.463L165.211 333.184C164.518 332.995 163.969 332.717 163.563 332.351C163.16 331.985 162.959 331.5 162.959 330.897C162.959 330.399 163.094 329.963 163.364 329.592C163.635 329.22 164.001 328.931 164.463 328.725C164.925 328.517 165.446 328.412 166.027 328.412C166.613 328.412 167.13 328.515 167.578 328.721C168.029 328.927 168.384 329.21 168.643 329.57C168.902 329.928 169.037 330.34 169.049 330.804H167.789ZM176.441 337.186H173.639V328.531H176.53C177.378 328.531 178.106 328.704 178.715 329.051C179.323 329.394 179.789 329.889 180.113 330.534C180.44 331.176 180.604 331.947 180.604 332.846C180.604 333.747 180.439 334.522 180.109 335.17C179.782 335.818 179.309 336.317 178.689 336.666C178.069 337.013 177.32 337.186 176.441 337.186ZM174.945 336.045H176.369C177.028 336.045 177.576 335.921 178.013 335.673C178.45 335.422 178.777 335.06 178.993 334.587C179.21 334.111 179.319 333.53 179.319 332.846C179.319 332.167 179.21 331.59 178.993 331.117C178.779 330.644 178.46 330.285 178.034 330.039C177.609 329.794 177.08 329.672 176.449 329.672H174.945V336.045ZM189.627 332.858C189.627 333.782 189.458 334.577 189.12 335.242C188.782 335.904 188.318 336.414 187.729 336.772C187.143 337.127 186.477 337.304 185.73 337.304C184.981 337.304 184.312 337.127 183.723 336.772C183.137 336.414 182.675 335.903 182.337 335.238C181.999 334.573 181.83 333.78 181.83 332.858C181.83 331.934 181.999 331.141 182.337 330.479C182.675 329.814 183.137 329.304 183.723 328.949C184.312 328.591 184.981 328.412 185.73 328.412C186.477 328.412 187.143 328.591 187.729 328.949C188.318 329.304 188.782 329.814 189.12 330.479C189.458 331.141 189.627 331.934 189.627 332.858ZM188.334 332.858C188.334 332.154 188.22 331.561 187.991 331.079C187.766 330.595 187.456 330.228 187.062 329.98C186.67 329.73 186.226 329.604 185.73 329.604C185.232 329.604 184.786 329.73 184.395 329.98C184.003 330.228 183.693 330.595 183.465 331.079C183.24 331.561 183.127 332.154 183.127 332.858C183.127 333.563 183.24 334.157 183.465 334.642C183.693 335.124 184.003 335.49 184.395 335.741C184.786 335.989 185.232 336.112 185.73 336.112C186.226 336.112 186.67 335.989 187.062 335.741C187.456 335.49 187.766 335.124 187.991 334.642C188.22 334.157 188.334 333.563 188.334 332.858ZM191.136 337.186V328.531H192.442V336.062H196.364V337.186H191.136ZM197.734 337.186V328.531H199.04V336.062H202.962V337.186H197.734ZM205.506 337.186H204.119L207.234 328.531H208.743L211.857 337.186H210.471L208.024 330.103H207.957L205.506 337.186ZM205.738 333.797H210.235V334.895H205.738V333.797ZM212.988 337.186V328.531H216.073C216.744 328.531 217.3 328.646 217.743 328.877C218.188 329.108 218.52 329.428 218.74 329.837C218.96 330.242 219.07 330.711 219.07 331.244C219.07 331.774 218.959 332.24 218.736 332.643C218.516 333.043 218.184 333.354 217.739 333.577C217.296 333.799 216.74 333.911 216.069 333.911H213.732V332.786H215.951C216.374 332.786 216.717 332.726 216.982 332.605C217.25 332.484 217.446 332.308 217.57 332.077C217.693 331.845 217.755 331.568 217.755 331.244C217.755 330.917 217.692 330.634 217.565 330.394C217.441 330.155 217.246 329.972 216.978 329.845C216.713 329.715 216.365 329.651 215.934 329.651H214.294V337.186H212.988ZM217.261 333.281L219.399 337.186H217.912L215.816 333.281H217.261Z" fill="#44403C"/>
<rect x="56.8678" y="366.331" width="95.2066" height="23.8017" rx="5.28926" fill="#F3EDED"/>
<path d="M288.739 379.991C288.709 380.065 288.657 380.127 288.591 380.172C288.525 380.216 288.447 380.239 288.368 380.239H280.337C280.257 380.239 280.18 380.216 280.114 380.172C280.047 380.128 279.996 380.065 279.966 379.991C279.935 379.918 279.927 379.837 279.943 379.759C279.958 379.681 279.996 379.61 280.053 379.554L284.068 375.538C284.106 375.501 284.15 375.471 284.199 375.451C284.247 375.431 284.3 375.42 284.352 375.42C284.405 375.42 284.457 375.431 284.506 375.451C284.555 375.471 284.599 375.501 284.636 375.538L288.652 379.554C288.708 379.61 288.746 379.681 288.762 379.759C288.777 379.837 288.769 379.918 288.739 379.991Z" fill="#059669"/>
<rect x="295.061" y="366.331" width="29.9725" height="23.8017" rx="5.28926" fill="#059669"/>
</g>
<g filter="url(#filter1_dddd_10070_1509)">
<rect x="352.008" y="286" width="299.901" height="120" rx="11.9008" fill="white"/>
<g clip-path="url(#clip1_10070_1509)">
<path d="M387.711 341.497C398.287 341.497 406.863 332.992 406.863 322.504C406.863 312.015 398.287 303.51 387.711 303.51C377.135 303.518 368.558 312.015 368.558 322.504C368.558 332.992 377.135 341.497 387.711 341.497Z" fill="#ECF3FF"/>
<path d="M382.538 310.92L375.834 308.263V309.215L381.578 314.34L381.197 319.656L379.475 326.875L377.175 330.105L377.746 334.659L380.618 335.039L382.919 334.659L385.22 335.039L389.242 332.572L390.012 328.581L394.796 324.027L396.898 325.543L399.001 328.581V334.659L401.873 333.897L404.745 327.629L405.514 319.656L395.177 304.653L393.455 304.272L382.538 310.92Z" fill="white"/>
<path d="M372.39 321.901C372.47 321.258 372.502 320.608 372.7 320.005C373.239 317.498 374.271 315.102 375.802 313.166C376.072 312.825 376.302 312.523 376.603 312.214L374.882 310.619C374.572 311.071 374.271 311.531 374.001 311.984C372.581 314.411 371.819 317.148 371.629 319.846C371.549 320.528 371.589 321.211 371.589 321.861C371.589 322.544 371.668 323.194 371.78 323.876C371.97 325.209 372.319 326.495 372.779 327.716C372.47 326.423 372.319 325.13 372.279 323.805C372.271 323.186 372.271 322.544 372.39 321.901Z" fill="#94A6C4"/>
<path d="M380.245 309.595C379.285 309.143 377.944 308.532 376.992 308.08C377.873 307.247 379.483 306.374 380.824 305.803C379.856 306.557 379.856 308.151 380.245 309.595Z" fill="#94A6C4"/>
<path d="M376.373 316.046C375.834 317.379 375.493 318.783 375.374 320.147C375.334 320.489 375.294 320.83 375.334 321.171C375.334 321.512 375.334 321.853 375.374 322.194L375.413 322.734C375.413 322.885 375.453 323.075 375.493 323.226L375.643 324.249L375.683 323.226C375.683 323.075 375.683 322.885 375.723 322.734L375.802 322.242C375.842 321.901 375.913 321.56 375.953 321.258C375.992 320.917 376.104 320.616 376.183 320.306C376.524 319.013 377.103 317.839 377.793 316.736C378.254 316.014 378.793 315.371 379.364 314.76L377.873 313.356C377.214 314.229 376.754 315.102 376.373 316.046Z" fill="#94A6C4"/>
<path d="M398.548 309.556C396.517 308.834 395.716 309.064 395.716 309.064C395.716 309.064 394.455 312.444 389.623 312.674C389.662 312.705 393.994 315.212 398.548 309.556Z" fill="#94A6C4"/>
<path d="M399.929 316.276C399.739 320.457 396.486 322.012 393.955 321.71C392.574 321.52 390.543 322.163 390.543 322.163L387.981 326.566L387.14 326.867L388.591 324.21C388.591 324.21 385.148 325.463 384.878 325.574C384.609 325.685 383.538 327.248 382.657 328.875C382.467 327.732 381.737 326.939 381.737 326.899C381.737 327.09 382.117 330.509 381.697 331.453C381.276 332.437 379.396 333.088 379.396 333.088L382.157 334.111L382.348 334.19L384.418 332.255L385.188 329.367L386.148 328.684C386.148 328.684 388.52 328.415 388.179 330.549C388.028 331.572 386.878 331.501 385.577 332.294C384.807 332.747 383.815 333.468 383.315 333.968L384.696 334.952C384.696 334.952 386.346 334.682 388.679 332.866C391.051 330.969 389.869 328.914 389.869 328.914L393.741 324.321L396.271 324.511C396.271 324.511 400.635 325.614 402.055 329.716C404.872 321.861 400.31 316.657 399.929 316.276Z" fill="#94A6C4"/>
<path d="M404.372 313.015C405.062 313.316 405.594 313.777 406.094 314.189C402.65 302.336 391.463 303.669 391.233 303.74C391.503 303.32 392.495 302.677 393.415 302.336C393.415 302.336 388.663 300.662 384.339 303.629C384.418 302.947 385.259 301.923 385.259 301.923C379.285 304.462 378.904 307.501 380.055 309.326C379.095 308.873 378.143 308.453 377.182 307.993C374.231 306.588 371.708 305.406 371.549 305.375C371.28 305.295 371.169 305.414 371.169 305.414C371.169 305.414 371.05 305.525 371.28 305.755C374.763 309.215 376.984 311.301 380.697 314.681C380.086 316.046 380.007 316.736 380.316 317.45C380.737 318.434 380.697 318.934 380.546 319.576C380.356 320.219 378.825 325.955 378.555 326.606C378.285 327.288 376.254 329.565 376.222 330.327C376.183 331.088 376.794 334.428 377.643 334.92C378.293 335.261 379.864 335.983 381.015 336.134C381.395 336.214 381.784 336.174 381.975 336.023C382.744 335.531 382.935 335.452 383.426 335.492L383.538 335.531C383.728 335.571 383.958 335.642 384.267 335.682C384.918 335.761 385.759 335.761 386.449 335.301C387.449 334.54 389.131 333.595 389.702 333.096C390.392 332.413 390.853 331.461 390.853 330.398C390.853 329.446 391.503 328.692 392.233 327.931C392.923 327.248 394.645 325.574 395.335 324.852C397.097 325.463 397.747 327.97 397.747 329.335C397.747 333.135 394.645 338.681 387.52 339.094C387.251 339.094 386.981 339.133 386.679 339.133C377.413 339.133 369.828 331.009 369.828 321.472C369.828 313.951 374.382 308.858 374.422 308.818C370.74 312.285 368.558 317.109 368.558 322.504C368.558 332.984 377.135 341.498 387.711 341.498C398.287 341.498 406.863 332.984 406.863 322.504C406.863 319.084 405.983 315.784 404.372 313.015ZM378.214 310.579C377.674 310.127 377.143 309.667 376.603 309.215C377.333 309.595 378.055 309.976 378.706 310.317C380.697 311.341 382.347 312.253 382.649 312.483C382.649 312.483 382.689 312.523 382.728 312.563C382.919 312.793 383.109 313.174 382.768 313.665C382.578 313.935 382.347 313.856 381.998 313.626C381.697 313.427 380.055 312.134 378.214 310.579ZM389.361 330.327C389.361 330.969 389.052 331.54 388.671 331.961C388.48 332.151 387.711 332.643 387.179 332.984C386.64 333.365 386.068 333.706 385.608 334.048C385.418 334.159 385.108 334.238 384.609 334.159L383.419 334.008C384.148 333.286 386.14 331.731 386.79 331.421C387.56 331.041 388.012 330.62 387.671 329.747C387.362 328.835 386.18 328.875 386.18 328.875C386.18 328.875 386.909 328.684 387.481 328.764C386.751 328.462 385.759 328.534 385.259 328.875C384.72 329.256 384.569 330.811 384.228 331.763C383.887 332.746 383.117 333.167 381.967 333.968C381.316 334.389 380.896 334.5 380.586 334.46C379.936 334.27 379.166 333.929 378.634 333.659C378.325 333.088 377.944 331.302 377.904 330.58C378.055 330.2 378.674 329.438 378.976 328.986C379.586 328.153 379.936 327.653 380.086 327.201C380.356 326.558 381.467 322.488 381.887 320.782C382.308 321.504 382.887 322.718 382.617 323.4C383.998 321.956 383.387 320.251 383.077 319.56C382.808 318.878 382.506 317.545 383.117 316.26C383.688 314.967 385.68 311.476 385.68 311.476C385.68 311.476 386.021 312.388 386.751 312.309C387.441 312.229 394.066 304.867 394.066 304.867C394.066 304.867 395.097 308.286 393.185 310.373C391.273 312.46 389.663 312.69 389.663 312.69C389.663 312.69 391.805 313.372 394.026 312.237C394.597 314.292 395.097 316.419 395.097 316.68C394.946 316.95 392.796 320.52 392.606 320.742C392.527 320.822 391.916 320.893 391.535 320.893C390.845 321.004 390.424 321.044 390.234 321.163C389.924 321.353 388.163 324.654 387.322 326.249C386.552 326.36 385.791 326.629 385.18 327.351C385.489 327.201 386.37 327.201 387.021 327.201C387.592 327.24 389.163 328.375 389.353 330.16C389.361 330.295 389.361 330.295 389.361 330.327ZM384.878 331.921C385.299 331.469 385.378 330.588 385.45 330.327C385.529 330.057 385.68 329.565 386.021 329.525C386.362 329.486 387.092 329.716 387.021 330.287C386.941 330.819 386.37 330.858 385.91 331.12C385.608 331.318 384.95 331.85 384.878 331.921ZM401.54 332.421C401.079 327.558 397.707 325.281 396.216 324.519C397.938 324.329 402.381 323.004 399.929 316.276C400.008 316.577 400.699 319.925 398.739 321.671C396.747 323.456 393.836 322.694 393.495 322.694C393.185 322.655 391.733 324.059 389.742 326.756C389.551 326.645 388.742 326.336 387.75 326.376C388.75 324.511 390.242 321.853 390.472 321.631C390.551 321.552 391.202 321.48 391.583 321.441C392.352 321.361 392.733 321.29 392.884 321.139C392.963 321.028 393.495 320.187 394.034 319.275C394.375 319.314 395.296 319.386 395.415 319.354C395.494 319.275 396.525 317.458 396.565 317.228C396.605 317.077 395.875 314.229 395.415 312.404C404.872 316.847 406.363 326.645 401.54 332.421Z" fill="#1C324F"/>
<path d="M392.424 309.818C393.495 308.865 393.344 307.231 393.344 307.231L390.131 310.762C390.083 310.77 391.083 310.96 392.424 309.818Z" fill="#1C324F"/>
<path d="M380.396 329.914L380.935 328.399C380.935 328.399 379.285 330.485 379.134 330.795C378.984 331.136 379.055 331.779 379.594 331.818C380.134 331.858 380.856 331.176 380.935 330.644C381.046 329.914 380.396 329.914 380.396 329.914Z" fill="#1C324F"/>
<path d="M385.45 320.719C386.6 320.608 388.663 319.695 389.551 318.973C390.432 318.212 390.281 316.546 388.901 316.046C389.361 315.284 390.123 313.689 390.123 313.689C390.123 313.689 385.18 319.426 384.799 319.497C384.418 319.576 384.26 318.132 384.26 318.132C383.117 320.909 385.069 321.591 385.45 320.719Z" fill="#1C324F"/>
<path d="M385.87 319.997L388.433 316.768C388.433 316.768 389.544 317.529 388.814 318.402C387.901 319.426 385.87 319.997 385.87 319.997Z" fill="#FFD925"/>
<path d="M392.693 305.605L390.932 307.501C389.512 307.921 388.139 308.675 386.83 309.929C386.83 309.215 388.941 306.057 392.693 305.605Z" fill="#D82423"/>
<path d="M394.915 307.239C394.954 306.747 394.915 306.176 394.835 305.644C397.136 305.946 399.85 307.279 402.952 310.278C400.389 308.873 397.668 307.58 394.915 307.239Z" fill="#D82423"/>
<path d="M395.605 309.706C395.605 309.706 404.142 313.427 405.713 323.876C405.943 310.278 396.216 309.595 395.605 309.706Z" fill="#D82423"/>
<path d="M383.157 303.708C383.046 304.01 378.214 309.143 384.228 311.15C380.935 308.223 383.117 303.74 383.157 303.708Z" fill="#D82423"/>
<path d="M385.719 310.349C385.719 310.349 386.219 304.542 389.742 302.979C389.472 303.058 382.316 305.224 385.719 310.349Z" fill="#D82423"/>
</g>
<path d="M424.935 305.679V317.219H423.188V307.426H423.12L420.359 309.229V307.561L423.239 305.679H424.935ZM429.955 305.679V317.219H428.214V305.679H429.955ZM441.805 305.679V317.219H440.205L434.339 308.755H434.232V317.219H432.491V305.679H434.103L439.974 314.154H440.081V305.679H441.805ZM453.93 309.432H452.172C452.105 309.056 451.979 308.725 451.795 308.44C451.611 308.154 451.385 307.912 451.118 307.713C450.852 307.514 450.553 307.364 450.223 307.262C449.896 307.161 449.548 307.11 449.18 307.11C448.515 307.11 447.92 307.277 447.394 307.612C446.872 307.946 446.458 308.436 446.154 309.082C445.854 309.728 445.703 310.517 445.703 311.449C445.703 312.388 445.854 313.181 446.154 313.827C446.458 314.473 446.874 314.961 447.399 315.292C447.925 315.622 448.517 315.788 449.174 315.788C449.539 315.788 449.884 315.739 450.211 315.641C450.542 315.54 450.84 315.391 451.107 315.196C451.374 315.001 451.599 314.762 451.783 314.48C451.971 314.195 452.101 313.868 452.172 313.5L453.93 313.506C453.836 314.073 453.654 314.595 453.384 315.072C453.117 315.545 452.773 315.955 452.353 316.301C451.936 316.642 451.458 316.907 450.921 317.095C450.384 317.283 449.798 317.377 449.163 317.377C448.164 317.377 447.274 317.14 446.492 316.667C445.711 316.19 445.095 315.508 444.644 314.621C444.197 313.735 443.973 312.677 443.973 311.449C443.973 310.217 444.199 309.159 444.65 308.276C445.1 307.39 445.717 306.71 446.498 306.237C447.279 305.76 448.168 305.521 449.163 305.521C449.776 305.521 450.347 305.609 450.876 305.786C451.41 305.959 451.889 306.214 452.313 306.552C452.738 306.887 453.089 307.296 453.367 307.781C453.645 308.261 453.833 308.812 453.93 309.432ZM456.014 317.219V305.679H457.755V310.694H463.508V305.679H465.255V317.219H463.508V312.187H457.755V317.219H456.014Z" fill="#25253E"/>
<path d="M475.851 306.648L472.597 318.738H471.773L475.027 306.648H475.851Z" fill="#44403C"/>
<path opacity="0.5" d="M489.069 305.679H490.816V313.269C490.816 314.077 490.626 314.792 490.247 315.416C489.867 316.036 489.334 316.524 488.647 316.881C487.959 317.234 487.153 317.411 486.229 317.411C485.309 317.411 484.505 317.234 483.817 316.881C483.13 316.524 482.597 316.036 482.217 315.416C481.838 314.792 481.648 314.077 481.648 313.269V305.679H483.389V313.128C483.389 313.65 483.504 314.114 483.733 314.52C483.966 314.926 484.295 315.245 484.719 315.478C485.144 315.707 485.647 315.822 486.229 315.822C486.815 315.822 487.32 315.707 487.745 315.478C488.173 315.245 488.5 314.926 488.725 314.52C488.955 314.114 489.069 313.65 489.069 313.128V305.679ZM499.642 308.71C499.581 308.177 499.334 307.764 498.898 307.471C498.462 307.174 497.914 307.026 497.252 307.026C496.779 307.026 496.37 307.101 496.024 307.251C495.678 307.397 495.41 307.6 495.218 307.859C495.03 308.115 494.936 308.406 494.936 308.733C494.936 309.007 495 309.244 495.128 309.443C495.26 309.642 495.43 309.809 495.641 309.944C495.855 310.076 496.084 310.187 496.328 310.277C496.572 310.363 496.807 310.435 497.033 310.491L498.16 310.784C498.528 310.874 498.905 310.996 499.292 311.15C499.679 311.304 500.038 311.507 500.368 311.759C500.699 312.011 500.966 312.322 501.169 312.694C501.375 313.066 501.479 313.511 501.479 314.03C501.479 314.683 501.31 315.264 500.971 315.771C500.637 316.278 500.151 316.678 499.512 316.971C498.877 317.264 498.109 317.411 497.207 317.411C496.343 317.411 495.596 317.273 494.965 316.999C494.334 316.725 493.84 316.336 493.483 315.833C493.126 315.326 492.929 314.725 492.891 314.03H494.638C494.672 314.447 494.807 314.794 495.044 315.072C495.284 315.346 495.59 315.551 495.962 315.686C496.338 315.818 496.749 315.884 497.196 315.884C497.688 315.884 498.126 315.807 498.509 315.653C498.896 315.495 499.2 315.277 499.422 314.999C499.643 314.717 499.754 314.388 499.754 314.013C499.754 313.671 499.657 313.391 499.461 313.173C499.27 312.955 499.009 312.775 498.678 312.632C498.351 312.489 497.981 312.364 497.568 312.255L496.204 311.883C495.28 311.631 494.548 311.261 494.007 310.773C493.47 310.284 493.201 309.638 493.201 308.834C493.201 308.169 493.381 307.589 493.742 307.093C494.103 306.597 494.591 306.212 495.207 305.938C495.823 305.66 496.518 305.521 497.292 305.521C498.073 305.521 498.763 305.658 499.36 305.932C499.961 306.207 500.434 306.584 500.78 307.065C501.125 307.542 501.306 308.091 501.321 308.71H499.642ZM507.295 317.219H503.559V305.679H507.413C508.544 305.679 509.515 305.91 510.327 306.372C511.138 306.83 511.76 307.489 512.192 308.35C512.628 309.206 512.845 310.234 512.845 311.432C512.845 312.634 512.626 313.667 512.186 314.531C511.75 315.395 511.119 316.06 510.293 316.526C509.466 316.988 508.467 317.219 507.295 317.219ZM505.3 315.698H507.199C508.078 315.698 508.809 315.532 509.391 315.202C509.974 314.867 510.409 314.385 510.699 313.754C510.988 313.119 511.132 312.345 511.132 311.432C511.132 310.527 510.988 309.758 510.699 309.127C510.413 308.496 509.987 308.017 509.419 307.69C508.852 307.364 508.148 307.2 507.306 307.2H505.3V315.698Z" fill="#25253E"/>
<path d="M423.563 328.531V337.186H422.252V329.841H422.202L420.131 331.193V329.942L422.291 328.531H423.563ZM427.209 328.531V337.186H425.903V328.531H427.209ZM435.978 328.531V337.186H434.777L430.378 330.838H430.298V337.186H428.992V328.531H430.201L434.604 334.887H434.684V328.531H435.978ZM444.952 331.345H443.634C443.583 331.064 443.489 330.816 443.351 330.602C443.213 330.387 443.043 330.206 442.843 330.056C442.643 329.907 442.419 329.794 442.171 329.718C441.926 329.642 441.666 329.604 441.39 329.604C440.891 329.604 440.444 329.73 440.05 329.98C439.658 330.231 439.348 330.599 439.12 331.083C438.895 331.568 438.782 332.16 438.782 332.858C438.782 333.563 438.895 334.157 439.12 334.642C439.348 335.126 439.66 335.493 440.054 335.741C440.449 335.989 440.892 336.112 441.385 336.112C441.659 336.112 441.918 336.076 442.163 336.003C442.411 335.927 442.635 335.815 442.835 335.669C443.035 335.522 443.204 335.343 443.342 335.132C443.483 334.918 443.58 334.673 443.634 334.397L444.952 334.401C444.882 334.826 444.745 335.218 444.542 335.576C444.342 335.931 444.084 336.238 443.769 336.497C443.456 336.753 443.098 336.952 442.696 337.093C442.293 337.234 441.853 337.304 441.377 337.304C440.628 337.304 439.96 337.127 439.374 336.772C438.788 336.414 438.326 335.903 437.988 335.238C437.652 334.573 437.485 333.78 437.485 332.858C437.485 331.934 437.654 331.141 437.992 330.479C438.33 329.814 438.792 329.304 439.378 328.949C439.964 328.591 440.63 328.412 441.377 328.412C441.836 328.412 442.264 328.479 442.662 328.611C443.062 328.741 443.421 328.932 443.739 329.186C444.058 329.437 444.321 329.744 444.53 330.107C444.738 330.468 444.879 330.881 444.952 331.345ZM446.396 337.186V328.531H447.702V332.292H452.017V328.531H453.327V337.186H452.017V333.412H447.702V337.186H446.396ZM461.335 328.125L458.546 338.488H457.417L460.207 328.125H461.335ZM470.987 328.531H472.297V334.223C472.297 334.829 472.155 335.366 471.87 335.834C471.586 336.298 471.186 336.665 470.67 336.932C470.155 337.197 469.55 337.33 468.857 337.33C468.167 337.33 467.564 337.197 467.048 336.932C466.533 336.665 466.133 336.298 465.848 335.834C465.564 335.366 465.421 334.829 465.421 334.223V328.531H466.727V334.118C466.727 334.509 466.813 334.857 466.985 335.162C467.16 335.466 467.406 335.705 467.725 335.88C468.043 336.052 468.421 336.138 468.857 336.138C469.297 336.138 469.676 336.052 469.994 335.88C470.315 335.705 470.56 335.466 470.729 335.162C470.901 334.857 470.987 334.509 470.987 334.118V328.531ZM478.798 330.804C478.752 330.404 478.567 330.094 478.24 329.875C477.913 329.652 477.502 329.541 477.006 329.541C476.651 329.541 476.344 329.597 476.084 329.71C475.825 329.82 475.624 329.972 475.48 330.166C475.339 330.358 475.269 330.576 475.269 330.821C475.269 331.027 475.317 331.205 475.412 331.354C475.511 331.503 475.639 331.629 475.797 331.73C475.958 331.829 476.129 331.912 476.313 331.979C476.496 332.044 476.672 332.098 476.841 332.14L477.686 332.36C477.962 332.427 478.245 332.519 478.536 332.634C478.826 332.75 479.095 332.902 479.343 333.091C479.591 333.28 479.791 333.513 479.943 333.792C480.098 334.071 480.175 334.405 480.175 334.794C480.175 335.284 480.048 335.719 479.795 336.1C479.544 336.48 479.179 336.78 478.7 337C478.224 337.22 477.648 337.33 476.972 337.33C476.324 337.33 475.763 337.227 475.29 337.021C474.816 336.815 474.446 336.524 474.178 336.146C473.911 335.766 473.763 335.315 473.735 334.794H475.045C475.07 335.107 475.171 335.367 475.349 335.576C475.529 335.781 475.759 335.935 476.038 336.036C476.32 336.135 476.628 336.184 476.963 336.184C477.332 336.184 477.661 336.127 477.948 336.011C478.238 335.893 478.466 335.729 478.633 335.521C478.799 335.31 478.882 335.063 478.882 334.781C478.882 334.525 478.809 334.315 478.662 334.152C478.519 333.988 478.323 333.853 478.075 333.746C477.83 333.639 477.552 333.544 477.242 333.463L476.22 333.184C475.526 332.995 474.977 332.717 474.571 332.351C474.168 331.985 473.967 331.5 473.967 330.897C473.967 330.399 474.102 329.963 474.373 329.592C474.643 329.22 475.009 328.931 475.472 328.725C475.934 328.517 476.455 328.412 477.035 328.412C477.621 328.412 478.138 328.515 478.586 328.721C479.037 328.927 479.392 329.21 479.651 329.57C479.91 329.928 480.046 330.34 480.057 330.804H478.798ZM487.449 337.186H484.647V328.531H487.538C488.386 328.531 489.114 328.704 489.723 329.051C490.331 329.394 490.798 329.889 491.122 330.534C491.449 331.176 491.612 331.947 491.612 332.846C491.612 333.747 491.447 334.522 491.118 335.17C490.791 335.818 490.317 336.317 489.698 336.666C489.078 337.013 488.328 337.186 487.449 337.186ZM485.953 336.045H487.377C488.037 336.045 488.585 335.921 489.021 335.673C489.458 335.422 489.785 335.06 490.002 334.587C490.219 334.111 490.327 333.53 490.327 332.846C490.327 332.167 490.219 331.59 490.002 331.117C489.788 330.644 489.468 330.285 489.042 330.039C488.617 329.794 488.089 329.672 487.458 329.672H485.953V336.045ZM500.635 332.858C500.635 333.782 500.466 334.577 500.128 335.242C499.79 335.904 499.326 336.414 498.738 336.772C498.152 337.127 497.485 337.304 496.739 337.304C495.989 337.304 495.32 337.127 494.731 336.772C494.145 336.414 493.683 335.903 493.345 335.238C493.007 334.573 492.838 333.78 492.838 332.858C492.838 331.934 493.007 331.141 493.345 330.479C493.683 329.814 494.145 329.304 494.731 328.949C495.32 328.591 495.989 328.412 496.739 328.412C497.485 328.412 498.152 328.591 498.738 328.949C499.326 329.304 499.79 329.814 500.128 330.479C500.466 331.141 500.635 331.934 500.635 332.858ZM499.342 332.858C499.342 332.154 499.228 331.561 499 331.079C498.774 330.595 498.464 330.228 498.07 329.98C497.678 329.73 497.235 329.604 496.739 329.604C496.24 329.604 495.795 329.73 495.403 329.98C495.012 330.228 494.702 330.595 494.473 331.079C494.248 331.561 494.135 332.154 494.135 332.858C494.135 333.563 494.248 334.157 494.473 334.642C494.702 335.124 495.012 335.49 495.403 335.741C495.795 335.989 496.24 336.112 496.739 336.112C497.235 336.112 497.678 335.989 498.07 335.741C498.464 335.49 498.774 335.124 499 334.642C499.228 334.157 499.342 333.563 499.342 332.858ZM502.144 337.186V328.531H503.45V336.062H507.372V337.186H502.144ZM514.309 328.531H515.619V334.223C515.619 334.829 515.476 335.366 515.192 335.834C514.907 336.298 514.507 336.665 513.992 336.932C513.476 337.197 512.872 337.33 512.179 337.33C511.488 337.33 510.885 337.197 510.37 336.932C509.854 336.665 509.454 336.298 509.17 335.834C508.885 335.366 508.743 334.829 508.743 334.223V328.531H510.049V334.118C510.049 334.509 510.135 334.857 510.306 335.162C510.481 335.466 510.728 335.705 511.046 335.88C511.364 336.052 511.742 336.138 512.179 336.138C512.618 336.138 512.997 336.052 513.315 335.88C513.637 335.705 513.882 335.466 514.051 335.162C514.223 334.857 514.309 334.509 514.309 334.118V328.531ZM522.119 330.804C522.074 330.404 521.888 330.094 521.561 329.875C521.234 329.652 520.823 329.541 520.327 329.541C519.972 329.541 519.665 329.597 519.406 329.71C519.146 329.82 518.945 329.972 518.801 330.166C518.66 330.358 518.59 330.576 518.59 330.821C518.59 331.027 518.638 331.205 518.734 331.354C518.832 331.503 518.961 331.629 519.118 331.73C519.279 331.829 519.451 331.912 519.634 331.979C519.817 332.044 519.993 332.098 520.162 332.14L521.007 332.36C521.283 332.427 521.567 332.519 521.857 332.634C522.147 332.75 522.416 332.902 522.664 333.091C522.912 333.28 523.112 333.513 523.264 333.792C523.419 334.071 523.497 334.405 523.497 334.794C523.497 335.284 523.37 335.719 523.116 336.1C522.865 336.48 522.501 336.78 522.022 337C521.546 337.22 520.969 337.33 520.293 337.33C519.645 337.33 519.084 337.227 518.611 337.021C518.138 336.815 517.767 336.524 517.5 336.146C517.232 335.766 517.084 335.315 517.056 334.794H518.366C518.391 335.107 518.493 335.367 518.67 335.576C518.851 335.781 519.08 335.935 519.359 336.036C519.641 336.135 519.949 336.184 520.285 336.184C520.654 336.184 520.982 336.127 521.269 336.011C521.56 335.893 521.788 335.729 521.954 335.521C522.12 335.31 522.203 335.063 522.203 334.781C522.203 334.525 522.13 334.315 521.984 334.152C521.84 333.988 521.644 333.853 521.396 333.746C521.151 333.639 520.874 333.544 520.564 333.463L519.541 333.184C518.848 332.995 518.298 332.717 517.893 332.351C517.49 331.985 517.288 331.5 517.288 330.897C517.288 330.399 517.424 329.963 517.694 329.592C517.965 329.22 518.331 328.931 518.793 328.725C519.255 328.517 519.776 328.412 520.357 328.412C520.943 328.412 521.46 328.515 521.908 328.721C522.358 328.927 522.713 329.21 522.973 329.57C523.232 329.928 523.367 330.34 523.378 330.804H522.119ZM527.74 337.186H524.938V328.531H527.829C528.677 328.531 529.405 328.704 530.014 329.051C530.622 329.394 531.089 329.889 531.413 330.534C531.739 331.176 531.903 331.947 531.903 332.846C531.903 333.747 531.738 334.522 531.408 335.17C531.081 335.818 530.608 336.317 529.988 336.666C529.368 337.013 528.619 337.186 527.74 337.186ZM526.244 336.045H527.668C528.327 336.045 528.875 335.921 529.312 335.673C529.749 335.422 530.076 335.06 530.293 334.587C530.51 334.111 530.618 333.53 530.618 332.846C530.618 332.167 530.51 331.59 530.293 331.117C530.078 330.644 529.759 330.285 529.333 330.039C528.908 329.794 528.38 329.672 527.748 329.672H526.244V336.045Z" fill="#44403C"/>
<rect x="367.876" y="366.331" width="95.2066" height="23.8017" rx="5.28926" fill="#F3EDED"/>
<path d="M599.747 379.991C599.717 380.065 599.665 380.127 599.599 380.172C599.533 380.216 599.456 380.239 599.376 380.239H591.345C591.266 380.239 591.188 380.216 591.122 380.172C591.056 380.128 591.004 380.065 590.974 379.991C590.943 379.918 590.935 379.837 590.951 379.759C590.966 379.681 591.005 379.61 591.061 379.554L595.077 375.538C595.114 375.501 595.158 375.471 595.207 375.451C595.256 375.431 595.308 375.42 595.361 375.42C595.413 375.42 595.466 375.431 595.514 375.451C595.563 375.471 595.607 375.501 595.645 375.538L599.66 379.554C599.717 379.61 599.755 379.681 599.77 379.759C599.786 379.837 599.778 379.918 599.747 379.991Z" fill="#059669"/>
<rect x="606.069" y="366.331" width="29.9725" height="23.8017" rx="5.28926" fill="#059669"/>
</g>
<mask id="mask0_10070_1509" style="mask-type:alpha" maskUnits="userSpaceOnUse" x="181" y="181" width="330" height="330">
<circle cx="346" cy="346" r="165" fill="url(#paint0_radial_10070_1509)"/>
</mask>
<g mask="url(#mask0_10070_1509)">
<circle cx="346" cy="346" r="198" fill="url(#paint1_radial_10070_1509)"/>
<g filter="url(#filter2_dddd_10070_1509)">
<rect x="-85" y="270.872" width="377.506" height="151.052" rx="14.9804" fill="white"/>
<path d="M226.846 389.186C226.808 389.278 226.743 389.357 226.66 389.413C226.577 389.468 226.479 389.498 226.379 389.498H216.27C216.17 389.498 216.072 389.468 215.989 389.413C215.906 389.357 215.841 389.278 215.803 389.186C215.764 389.094 215.754 388.992 215.774 388.894C215.793 388.796 215.841 388.706 215.912 388.635L220.967 383.58C221.014 383.533 221.07 383.496 221.131 383.47C221.192 383.445 221.258 383.432 221.325 383.432C221.391 383.432 221.457 383.445 221.518 383.47C221.579 383.496 221.635 383.533 221.682 383.58L226.737 388.635C226.808 388.706 226.856 388.796 226.875 388.894C226.895 388.992 226.884 389.093 226.846 389.186Z" fill="#059669"/>
<rect x="234.804" y="371.99" width="37.7284" height="29.9608" rx="6.65795" fill="#059669"/>
</g>
<g filter="url(#filter3_dddd_10070_1509)">
<rect x="317.473" y="256" width="458.561" height="180.797" rx="18.1969" fill="white"/>
<path d="M347.004 295.444C347.94 294.138 348.809 292.787 349.863 291.564C351.78 289.339 353.95 287.431 356.435 285.853C358.665 284.437 361.016 283.321 363.532 282.541C367.45 281.325 371.449 280.964 375.523 281.429C378.5 281.768 381.369 282.529 384.101 283.76C385.755 284.505 387.31 285.425 388.835 286.42C391.908 288.423 394.369 291.031 396.427 294.011C398.625 297.194 400.053 300.734 400.836 304.532C401.386 307.199 401.619 309.89 401.383 312.6C401.091 315.94 400.35 319.161 398.964 322.257C397.792 324.875 396.345 327.279 394.492 329.451C392.68 331.575 390.636 333.433 388.287 334.966C386.688 336.009 385.021 336.94 383.261 337.631C380.316 338.788 377.262 339.571 374.067 339.708C371.817 339.804 369.58 339.766 367.361 339.373C365.454 339.034 363.594 338.541 361.773 337.857C360.006 337.193 358.292 336.407 356.713 335.413C354.436 333.98 352.384 332.241 350.558 330.237C348.523 328.005 346.873 325.53 345.611 322.796C343.827 318.934 342.951 314.862 342.898 310.613C342.879 309.015 343.062 307.429 343.275 305.847C343.29 305.734 343.275 305.617 343.274 305.501C343.46 305.386 343.443 305.184 343.477 305.008C343.951 302.523 344.75 300.148 345.833 297.862C346.216 297.052 346.746 296.313 347.004 295.444ZM381.181 311.138C381.974 310.717 382.728 310.475 383.324 309.943C385.619 307.893 386.23 303.068 382.505 300.744C381.345 300.02 380.107 299.483 378.772 298.935C378.993 297.148 379.707 295.476 379.94 293.646C378.839 293.373 377.807 293.011 376.734 292.895C376.295 294.614 375.874 296.263 375.439 297.97C374.616 297.718 373.77 297.742 372.996 297.306C373.275 295.56 373.938 293.925 374.12 292.173C372.989 291.995 372.031 291.555 370.934 291.507C370.501 293.231 370.083 294.899 369.649 296.629C367.473 296.295 365.474 295.546 363.278 295.144C362.796 296.225 362.582 297.365 362.388 298.579C363.104 298.747 363.725 298.897 364.348 299.041C365.921 299.405 366.352 300.264 365.979 301.64C365.713 302.618 365.473 303.604 365.229 304.588C364.35 308.125 363.478 311.664 362.594 315.201C362.395 315.997 361.898 316.257 361.09 316.138C360.294 316.022 359.542 315.664 358.665 315.69C358.284 316.907 357.527 317.98 357.259 319.323C359.35 319.856 361.373 320.371 363.488 320.91C363.329 322.755 362.564 324.443 362.338 326.301C363.398 326.555 364.396 326.794 365.437 327.044C366.123 325.34 366.281 323.55 366.92 321.788C367.691 322.184 368.545 322.069 369.299 322.567C368.888 324.266 368.479 325.958 368.065 327.672C369.155 328.062 370.218 328.221 371.311 328.493C371.753 326.721 372.18 325.008 372.594 323.351C372.852 323.219 373.04 323.243 373.218 323.281C374.93 323.648 376.662 323.733 378.395 323.541C379.895 323.374 381.227 322.802 382.295 321.676C383.483 320.424 384.079 318.892 384.367 317.244C384.601 315.902 384.541 314.542 383.753 313.353C383.135 312.422 382.287 311.712 381.181 311.138ZM368.804 318.133C370.916 318.657 373.026 319.219 375.236 318.815C376.415 318.6 377.303 317.999 377.66 316.813C377.998 315.695 377.802 314.679 376.972 313.795C376.11 312.876 375 312.398 373.857 311.999C372.49 311.521 371.105 311.088 369.612 310.97C369.04 313.295 368.485 315.552 367.917 317.859C368.279 317.972 368.538 318.067 368.804 318.133ZM376.265 308.388C377.433 308.223 378.401 307.45 378.686 306.4C379.034 305.116 378.645 303.99 377.606 303.224C376.427 302.355 375.07 301.913 373.667 301.606C373.144 301.492 372.63 301.187 371.998 301.393C371.496 303.435 370.991 305.487 370.47 307.605C372.466 308.109 374.305 308.667 376.265 308.388Z" fill="#F39321"/>
<path d="M422.527 303.558V285.912H428.989C430.242 285.912 431.278 286.119 432.1 286.533C432.921 286.941 433.536 287.495 433.944 288.196C434.351 288.891 434.555 289.675 434.555 290.548C434.555 291.283 434.42 291.903 434.15 292.409C433.88 292.909 433.519 293.311 433.065 293.615C432.617 293.914 432.123 294.132 431.583 294.27V294.442C432.169 294.471 432.74 294.66 433.297 295.011C433.86 295.355 434.326 295.847 434.693 296.484C435.061 297.122 435.245 297.897 435.245 298.81C435.245 299.712 435.032 300.522 434.607 301.24C434.188 301.952 433.539 302.518 432.66 302.938C431.781 303.351 430.658 303.558 429.291 303.558H422.527ZM425.19 301.275H429.033C430.308 301.275 431.221 301.028 431.772 300.534C432.324 300.04 432.6 299.422 432.6 298.681C432.6 298.124 432.459 297.613 432.177 297.148C431.896 296.682 431.494 296.312 430.971 296.036C430.454 295.76 429.84 295.623 429.127 295.623H425.19V301.275ZM425.19 293.546H428.757C429.354 293.546 429.891 293.431 430.368 293.201C430.851 292.972 431.232 292.65 431.514 292.237C431.801 291.817 431.945 291.323 431.945 290.755C431.945 290.025 431.689 289.413 431.178 288.919C430.667 288.425 429.883 288.178 428.826 288.178H425.19V293.546ZM437.532 288.204V285.912H451.188V288.204H445.683V303.558H443.029V288.204H437.532ZM468.104 291.651H465.416C465.312 291.076 465.12 290.571 464.838 290.134C464.557 289.698 464.212 289.327 463.804 289.023C463.397 288.718 462.94 288.489 462.434 288.333C461.935 288.178 461.403 288.101 460.84 288.101C459.824 288.101 458.913 288.356 458.109 288.868C457.311 289.379 456.679 290.128 456.214 291.116C455.754 292.104 455.524 293.311 455.524 294.735C455.524 296.171 455.754 297.383 456.214 298.371C456.679 299.359 457.314 300.106 458.118 300.611C458.922 301.117 459.827 301.369 460.832 301.369C461.389 301.369 461.917 301.295 462.417 301.145C462.923 300.99 463.379 300.763 463.787 300.465C464.195 300.166 464.54 299.801 464.821 299.371C465.108 298.934 465.306 298.434 465.416 297.871L468.104 297.88C467.96 298.747 467.682 299.546 467.268 300.275C466.86 300.999 466.335 301.625 465.691 302.153C465.054 302.676 464.324 303.081 463.503 303.368C462.681 303.656 461.785 303.799 460.815 303.799C459.287 303.799 457.925 303.437 456.731 302.713C455.536 301.984 454.594 300.941 453.905 299.586C453.221 298.23 452.879 296.613 452.879 294.735C452.879 292.851 453.224 291.234 453.913 289.884C454.603 288.529 455.545 287.489 456.739 286.765C457.934 286.036 459.292 285.671 460.815 285.671C461.751 285.671 462.624 285.806 463.434 286.076C464.249 286.34 464.982 286.731 465.631 287.248C466.28 287.759 466.817 288.385 467.242 289.126C467.667 289.861 467.954 290.703 468.104 291.651Z" fill="#25253E"/>
<path d="M482.44 286.894L477.464 305.38H476.205L481.181 286.894H482.44Z" fill="#44403C"/>
<path opacity="0.5" d="M503.006 285.912H505.677V297.518C505.677 298.753 505.387 299.847 504.807 300.801C504.227 301.749 503.411 302.495 502.36 303.041C501.309 303.581 500.077 303.851 498.664 303.851C497.256 303.851 496.027 303.581 494.976 303.041C493.925 302.495 493.109 301.749 492.529 300.801C491.949 299.847 491.659 298.753 491.659 297.518V285.912H494.321V297.303C494.321 298.101 494.496 298.81 494.847 299.431C495.203 300.051 495.705 300.539 496.354 300.896C497.003 301.246 497.773 301.421 498.664 301.421C499.56 301.421 500.332 301.246 500.981 300.896C501.636 300.539 502.136 300.051 502.48 299.431C502.831 298.81 503.006 298.101 503.006 297.303V285.912ZM519.172 290.548C519.08 289.732 518.701 289.1 518.034 288.652C517.368 288.199 516.529 287.972 515.518 287.972C514.795 287.972 514.169 288.086 513.64 288.316C513.112 288.54 512.701 288.85 512.408 289.247C512.121 289.637 511.977 290.083 511.977 290.582C511.977 291.002 512.075 291.363 512.27 291.668C512.471 291.972 512.733 292.228 513.054 292.435C513.382 292.636 513.732 292.805 514.105 292.943C514.479 293.075 514.838 293.184 515.182 293.27L516.906 293.718C517.469 293.856 518.046 294.043 518.637 294.278C519.229 294.514 519.778 294.824 520.283 295.209C520.789 295.594 521.196 296.071 521.507 296.639C521.822 297.208 521.98 297.889 521.98 298.681C521.98 299.681 521.722 300.568 521.205 301.344C520.694 302.119 519.95 302.731 518.973 303.179C518.003 303.627 516.828 303.851 515.45 303.851C514.128 303.851 512.985 303.641 512.02 303.222C511.055 302.803 510.3 302.208 509.754 301.438C509.209 300.663 508.907 299.744 508.85 298.681H511.521C511.572 299.319 511.779 299.85 512.141 300.275C512.509 300.694 512.977 301.008 513.545 301.214C514.12 301.415 514.749 301.516 515.432 301.516C516.185 301.516 516.854 301.398 517.44 301.163C518.031 300.921 518.497 300.588 518.836 300.163C519.174 299.732 519.344 299.23 519.344 298.655C519.344 298.133 519.195 297.705 518.896 297.372C518.603 297.038 518.204 296.763 517.698 296.544C517.199 296.326 516.633 296.134 516.001 295.967L513.916 295.399C512.503 295.014 511.383 294.448 510.556 293.701C509.734 292.955 509.324 291.967 509.324 290.737C509.324 289.721 509.599 288.833 510.151 288.075C510.702 287.317 511.449 286.728 512.391 286.309C513.333 285.884 514.396 285.671 515.579 285.671C516.774 285.671 517.828 285.881 518.741 286.3C519.66 286.719 520.384 287.297 520.912 288.032C521.44 288.761 521.716 289.6 521.739 290.548H519.172ZM530.874 303.558H525.162V285.912H531.055C532.784 285.912 534.269 286.266 535.51 286.972C536.75 287.673 537.701 288.681 538.361 289.996C539.028 291.306 539.361 292.877 539.361 294.709C539.361 296.547 539.025 298.127 538.353 299.448C537.687 300.769 536.722 301.786 535.458 302.498C534.194 303.205 532.666 303.558 530.874 303.558ZM527.824 301.232H530.728C532.072 301.232 533.189 300.979 534.079 300.473C534.97 299.962 535.636 299.224 536.078 298.259C536.521 297.288 536.742 296.105 536.742 294.709C536.742 293.325 536.521 292.15 536.078 291.185C535.642 290.22 534.99 289.488 534.122 288.988C533.255 288.489 532.178 288.239 530.891 288.239H527.824V301.232Z" fill="#25253E"/>
<path d="M426.883 321.389V334.624H424.88V323.393H424.802L421.636 325.46V323.548L424.938 321.389H426.883ZM432.458 321.389V334.624H430.462V321.389H432.458ZM445.866 321.389V334.624H444.031L437.304 324.918H437.181V334.624H435.184V321.389H437.033L443.766 331.108H443.889V321.389H445.866ZM459.589 325.693H457.572C457.495 325.262 457.351 324.883 457.139 324.556C456.928 324.228 456.67 323.951 456.364 323.722C456.058 323.494 455.716 323.322 455.337 323.205C454.962 323.089 454.563 323.031 454.141 323.031C453.379 323.031 452.696 323.222 452.093 323.606C451.494 323.989 451.02 324.551 450.671 325.292C450.326 326.033 450.154 326.938 450.154 328.006C450.154 329.083 450.326 329.992 450.671 330.733C451.02 331.474 451.496 332.034 452.099 332.414C452.702 332.793 453.381 332.982 454.135 332.982C454.553 332.982 454.949 332.926 455.324 332.814C455.703 332.698 456.045 332.528 456.351 332.304C456.657 332.08 456.915 331.806 457.127 331.483C457.342 331.156 457.491 330.781 457.572 330.359L459.589 330.365C459.481 331.016 459.272 331.614 458.962 332.162C458.656 332.704 458.262 333.174 457.779 333.57C457.301 333.962 456.754 334.266 456.138 334.481C455.522 334.697 454.85 334.804 454.122 334.804C452.976 334.804 451.955 334.533 451.059 333.99C450.163 333.443 449.456 332.661 448.939 331.645C448.427 330.628 448.17 329.415 448.17 328.006C448.17 326.593 448.429 325.381 448.946 324.368C449.463 323.352 450.169 322.572 451.065 322.029C451.961 321.482 452.98 321.209 454.122 321.209C454.824 321.209 455.479 321.31 456.086 321.512C456.698 321.71 457.247 322.003 457.734 322.391C458.221 322.774 458.624 323.244 458.942 323.8C459.261 324.351 459.477 324.982 459.589 325.693ZM461.796 334.624V321.389H463.793V327.141H470.39V321.389H472.394V334.624H470.39V328.853H463.793V334.624H461.796ZM484.638 320.769L480.374 336.614H478.648L482.913 320.769H484.638ZM499.397 321.389H501.4V330.094C501.4 331.02 501.183 331.841 500.748 332.556C500.313 333.267 499.701 333.827 498.912 334.236C498.124 334.641 497.2 334.843 496.14 334.843C495.085 334.843 494.163 334.641 493.375 334.236C492.586 333.827 491.975 333.267 491.539 332.556C491.104 331.841 490.887 331.02 490.887 330.094V321.389H492.883V329.932C492.883 330.531 493.015 331.063 493.278 331.528C493.545 331.994 493.922 332.36 494.409 332.627C494.895 332.89 495.473 333.021 496.14 333.021C496.812 333.021 497.392 332.89 497.879 332.627C498.37 332.36 498.744 331.994 499.003 331.528C499.266 331.063 499.397 330.531 499.397 329.932V321.389ZM511.339 324.866C511.27 324.254 510.986 323.78 510.486 323.444C509.987 323.104 509.358 322.934 508.6 322.934C508.057 322.934 507.587 323.02 507.191 323.192C506.795 323.36 506.486 323.593 506.267 323.89C506.051 324.183 505.944 324.517 505.944 324.892C505.944 325.206 506.017 325.478 506.163 325.706C506.314 325.934 506.51 326.126 506.751 326.281C506.997 326.432 507.26 326.559 507.54 326.662C507.82 326.761 508.089 326.843 508.348 326.908L509.64 327.244C510.062 327.347 510.495 327.487 510.939 327.664C511.383 327.841 511.794 328.073 512.173 328.362C512.552 328.651 512.858 329.008 513.091 329.435C513.328 329.861 513.446 330.372 513.446 330.966C513.446 331.716 513.252 332.381 512.864 332.963C512.481 333.544 511.923 334.003 511.191 334.339C510.463 334.675 509.582 334.843 508.548 334.843C507.557 334.843 506.7 334.686 505.976 334.372C505.252 334.057 504.686 333.611 504.277 333.034C503.867 332.452 503.641 331.763 503.598 330.966H505.601C505.64 331.444 505.795 331.843 506.066 332.162C506.342 332.476 506.693 332.711 507.12 332.866C507.551 333.017 508.022 333.092 508.535 333.092C509.099 333.092 509.601 333.004 510.041 332.827C510.484 332.646 510.833 332.396 511.087 332.078C511.342 331.754 511.469 331.377 511.469 330.947C511.469 330.555 511.357 330.234 511.133 329.984C510.913 329.734 510.614 329.527 510.234 329.364C509.86 329.2 509.435 329.055 508.961 328.931L507.398 328.504C506.338 328.215 505.498 327.791 504.877 327.231C504.261 326.671 503.953 325.93 503.953 325.008C503.953 324.246 504.16 323.58 504.574 323.011C504.987 322.443 505.547 322.001 506.254 321.687C506.96 321.368 507.757 321.209 508.645 321.209C509.541 321.209 510.331 321.366 511.016 321.68C511.706 321.995 512.248 322.428 512.645 322.979C513.041 323.526 513.248 324.155 513.265 324.866H511.339ZM524.568 334.624H520.284V321.389H524.704C526.001 321.389 527.114 321.654 528.045 322.184C528.975 322.71 529.688 323.466 530.184 324.452C530.683 325.435 530.933 326.613 530.933 327.987C530.933 329.366 530.681 330.55 530.177 331.541C529.677 332.532 528.954 333.295 528.006 333.829C527.058 334.359 525.912 334.624 524.568 334.624ZM522.281 332.879H524.458C525.466 332.879 526.304 332.689 526.972 332.31C527.64 331.927 528.14 331.373 528.471 330.649C528.803 329.921 528.969 329.034 528.969 327.987C528.969 326.949 528.803 326.068 528.471 325.344C528.144 324.62 527.655 324.071 527.004 323.696C526.354 323.322 525.546 323.134 524.581 323.134H522.281V332.879ZM544.73 328.006C544.73 329.42 544.472 330.634 543.955 331.651C543.438 332.663 542.729 333.443 541.829 333.99C540.933 334.533 539.914 334.804 538.772 334.804C537.626 334.804 536.603 334.533 535.703 333.99C534.807 333.443 534.1 332.661 533.583 331.645C533.066 330.628 532.808 329.415 532.808 328.006C532.808 326.593 533.066 325.381 533.583 324.368C534.1 323.352 534.807 322.572 535.703 322.029C536.603 321.482 537.626 321.209 538.772 321.209C539.914 321.209 540.933 321.482 541.829 322.029C542.729 322.572 543.438 323.352 543.955 324.368C544.472 325.381 544.73 326.593 544.73 328.006ZM542.753 328.006C542.753 326.929 542.578 326.023 542.229 325.286C541.885 324.545 541.411 323.985 540.808 323.606C540.209 323.222 539.53 323.031 538.772 323.031C538.01 323.031 537.329 323.222 536.73 323.606C536.131 323.985 535.658 324.545 535.309 325.286C534.964 326.023 534.792 326.929 534.792 328.006C534.792 329.083 534.964 329.992 535.309 330.733C535.658 331.47 536.131 332.03 536.73 332.414C537.329 332.793 538.01 332.982 538.772 332.982C539.53 332.982 540.209 332.793 540.808 332.414C541.411 332.03 541.885 331.47 542.229 330.733C542.578 329.992 542.753 329.083 542.753 328.006ZM547.038 334.624V321.389H549.034V332.905H555.031V334.624H547.038ZM557.127 334.624V321.389H559.124V332.905H565.12V334.624H557.127ZM569.009 334.624H566.89L571.652 321.389H573.959L578.722 334.624H576.602L572.861 323.793H572.757L569.009 334.624ZM569.365 329.441H576.24V331.121H569.365V329.441ZM580.451 334.624V321.389H585.168C586.193 321.389 587.044 321.566 587.721 321.919C588.401 322.273 588.91 322.762 589.246 323.386C589.582 324.007 589.75 324.724 589.75 325.538C589.75 326.348 589.58 327.061 589.239 327.677C588.903 328.289 588.395 328.765 587.714 329.105C587.038 329.445 586.187 329.616 585.162 329.616H581.588V327.897H584.981C585.627 327.897 586.153 327.804 586.557 327.619C586.967 327.434 587.266 327.164 587.456 326.811C587.645 326.458 587.74 326.033 587.74 325.538C587.74 325.038 587.643 324.605 587.449 324.239C587.26 323.873 586.96 323.593 586.551 323.399C586.146 323.201 585.614 323.102 584.955 323.102H582.448V334.624H580.451ZM586.984 328.653L590.254 334.624H587.979L584.774 328.653H586.984Z" fill="#44403C"/>
<rect x="341.736" y="378.829" width="245.928" height="33.7059" rx="7.4902" fill="#F3EDED"/>
</g>
</g>
<path d="M581.293 569.708L473.423 461.837C503.655 428.58 519.682 384.817 518.077 339.9C516.473 294.983 497.365 252.475 464.836 221.459C432.308 190.444 388.938 173.38 343.996 173.915C299.054 174.45 256.103 192.541 224.322 224.322C192.541 256.103 174.45 299.054 173.915 343.996C173.38 388.938 190.444 432.308 221.459 464.836C252.475 497.365 294.983 516.473 339.9 518.077C384.817 519.682 428.58 503.655 461.837 473.423L569.708 581.293C571.244 582.829 573.328 583.692 575.5 583.692C577.673 583.692 579.757 582.829 581.293 581.293C582.829 579.757 583.692 577.673 583.692 575.5C583.692 573.328 582.829 571.244 581.293 569.708ZM190.688 346.25C190.688 315.483 199.811 285.406 216.905 259.824C233.998 234.242 258.294 214.303 286.719 202.529C315.144 190.755 346.423 187.674 376.599 193.677C406.775 199.679 434.494 214.495 456.25 236.251C478.005 258.007 492.821 285.725 498.824 315.901C504.826 346.078 501.745 377.356 489.971 405.781C478.197 434.207 458.258 458.502 432.676 475.596C407.094 492.689 377.018 501.813 346.25 501.813C305.006 501.769 265.463 485.366 236.299 456.202C207.135 427.037 190.731 387.495 190.688 346.25Z" fill="#E7DDDD"/>
<defs>
<filter id="filter0_dddd_10070_1509" x="29.0992" y="284.017" width="323.702" height="162.645" filterUnits="userSpaceOnUse" color-interpolation-filters="sRGB">
<feFlood flood-opacity="0" result="BackgroundImageFix"/>
<feColorMatrix in="SourceAlpha" type="matrix" values="0 0 0 0 0 0 0 0 0 0 0 0 0 0 0 0 0 0 127 0" result="hardAlpha"/>
<feOffset dy="1.98347"/>
<feGaussianBlur stdDeviation="1.98347"/>
<feColorMatrix type="matrix" values="0 0 0 0 0.337255 0 0 0 0 0.282353 0 0 0 0 0.282353 0 0 0 0.14 0"/>
<feBlend mode="normal" in2="BackgroundImageFix" result="effect1_dropShadow_10070_1509"/>
<feColorMatrix in="SourceAlpha" type="matrix" values="0 0 0 0 0 0 0 0 0 0 0 0 0 0 0 0 0 0 127 0" result="hardAlpha"/>
<feOffset dy="6.94215"/>
<feGaussianBlur stdDeviation="3.47107"/>
<feColorMatrix type="matrix" values="0 0 0 0 0.337255 0 0 0 0 0.282353 0 0 0 0 0.282353 0 0 0 0.12 0"/>
<feBlend mode="normal" in2="effect1_dropShadow_10070_1509" result="effect2_dropShadow_10070_1509"/>
<feColorMatrix in="SourceAlpha" type="matrix" values="0 0 0 0 0 0 0 0 0 0 0 0 0 0 0 0 0 0 127 0" result="hardAlpha"/>
<feOffset dy="15.8678"/>
<feGaussianBlur stdDeviation="4.95868"/>
<feColorMatrix type="matrix" values="0 0 0 0 0.337255 0 0 0 0 0.282353 0 0 0 0 0.282353 0 0 0 0.06 0"/>
<feBlend mode="normal" in2="effect2_dropShadow_10070_1509" result="effect3_dropShadow_10070_1509"/>
<feColorMatrix in="SourceAlpha" type="matrix" values="0 0 0 0 0 0 0 0 0 0 0 0 0 0 0 0 0 0 127 0" result="hardAlpha"/>
<feOffset dy="28.7603"/>
<feGaussianBlur stdDeviation="5.95041"/>
<feColorMatrix type="matrix" values="0 0 0 0 0.337255 0 0 0 0 0.282353 0 0 0 0 0.282353 0 0 0 0.02 0"/>
<feBlend mode="normal" in2="effect3_dropShadow_10070_1509" result="effect4_dropShadow_10070_1509"/>
<feBlend mode="normal" in="SourceGraphic" in2="effect4_dropShadow_10070_1509" result="shape"/>
</filter>
<filter id="filter1_dddd_10070_1509" x="340.107" y="284.017" width="323.702" height="162.645" filterUnits="userSpaceOnUse" color-interpolation-filters="sRGB">
<feFlood flood-opacity="0" result="BackgroundImageFix"/>
<feColorMatrix in="SourceAlpha" type="matrix" values="0 0 0 0 0 0 0 0 0 0 0 0 0 0 0 0 0 0 127 0" result="hardAlpha"/>
<feOffset dy="1.98347"/>
<feGaussianBlur stdDeviation="1.98347"/>
<feColorMatrix type="matrix" values="0 0 0 0 0.337255 0 0 0 0 0.282353 0 0 0 0 0.282353 0 0 0 0.14 0"/>
<feBlend mode="normal" in2="BackgroundImageFix" result="effect1_dropShadow_10070_1509"/>
<feColorMatrix in="SourceAlpha" type="matrix" values="0 0 0 0 0 0 0 0 0 0 0 0 0 0 0 0 0 0 127 0" result="hardAlpha"/>
<feOffset dy="6.94215"/>
<feGaussianBlur stdDeviation="3.47107"/>
<feColorMatrix type="matrix" values="0 0 0 0 0.337255 0 0 0 0 0.282353 0 0 0 0 0.282353 0 0 0 0.12 0"/>
<feBlend mode="normal" in2="effect1_dropShadow_10070_1509" result="effect2_dropShadow_10070_1509"/>
<feColorMatrix in="SourceAlpha" type="matrix" values="0 0 0 0 0 0 0 0 0 0 0 0 0 0 0 0 0 0 127 0" result="hardAlpha"/>
<feOffset dy="15.8678"/>
<feGaussianBlur stdDeviation="4.95868"/>
<feColorMatrix type="matrix" values="0 0 0 0 0.337255 0 0 0 0 0.282353 0 0 0 0 0.282353 0 0 0 0.06 0"/>
<feBlend mode="normal" in2="effect2_dropShadow_10070_1509" result="effect3_dropShadow_10070_1509"/>
<feColorMatrix in="SourceAlpha" type="matrix" values="0 0 0 0 0 0 0 0 0 0 0 0 0 0 0 0 0 0 127 0" result="hardAlpha"/>
<feOffset dy="28.7603"/>
<feGaussianBlur stdDeviation="5.95041"/>
<feColorMatrix type="matrix" values="0 0 0 0 0.337255 0 0 0 0 0.282353 0 0 0 0 0.282353 0 0 0 0.02 0"/>
<feBlend mode="normal" in2="effect3_dropShadow_10070_1509" result="effect4_dropShadow_10070_1509"/>
<feBlend mode="normal" in="SourceGraphic" in2="effect4_dropShadow_10070_1509" result="shape"/>
</filter>
<filter id="filter2_dddd_10070_1509" x="-88.7451" y="269.624" width="384.996" height="166.033" filterUnits="userSpaceOnUse" color-interpolation-filters="sRGB">
<feFlood flood-opacity="0" result="BackgroundImageFix"/>
<feColorMatrix in="SourceAlpha" type="matrix" values="0 0 0 0 0 0 0 0 0 0 0 0 0 0 0 0 0 0 127 0" result="hardAlpha"/>
<feOffset/>
<feGaussianBlur stdDeviation="0.624183"/>
<feColorMatrix type="matrix" values="0 0 0 0 0.337255 0 0 0 0 0.282353 0 0 0 0 0.282353 0 0 0 0.14 0"/>
<feBlend mode="normal" in2="BackgroundImageFix" result="effect1_dropShadow_10070_1509"/>
<feColorMatrix in="SourceAlpha" type="matrix" values="0 0 0 0 0 0 0 0 0 0 0 0 0 0 0 0 0 0 127 0" result="hardAlpha"/>
<feOffset dy="2.49673"/>
<feGaussianBlur stdDeviation="1.24837"/>
<feColorMatrix type="matrix" values="0 0 0 0 0.337255 0 0 0 0 0.282353 0 0 0 0 0.282353 0 0 0 0.12 0"/>
<feBlend mode="normal" in2="effect1_dropShadow_10070_1509" result="effect2_dropShadow_10070_1509"/>
<feColorMatrix in="SourceAlpha" type="matrix" values="0 0 0 0 0 0 0 0 0 0 0 0 0 0 0 0 0 0 127 0" result="hardAlpha"/>
<feOffset dy="4.99347"/>
<feGaussianBlur stdDeviation="1.87255"/>
<feColorMatrix type="matrix" values="0 0 0 0 0.337255 0 0 0 0 0.282353 0 0 0 0 0.282353 0 0 0 0.06 0"/>
<feBlend mode="normal" in2="effect2_dropShadow_10070_1509" result="effect3_dropShadow_10070_1509"/>
<feColorMatrix in="SourceAlpha" type="matrix" values="0 0 0 0 0 0 0 0 0 0 0 0 0 0 0 0 0 0 127 0" result="hardAlpha"/>
<feOffset dy="9.98693"/>
<feGaussianBlur stdDeviation="1.87255"/>
<feColorMatrix type="matrix" values="0 0 0 0 0.337255 0 0 0 0 0.282353 0 0 0 0 0.282353 0 0 0 0.02 0"/>
<feBlend mode="normal" in2="effect3_dropShadow_10070_1509" result="effect4_dropShadow_10070_1509"/>
<feBlend mode="normal" in="SourceGraphic" in2="effect4_dropShadow_10070_1509" result="shape"/>
</filter>
<filter id="filter3_dddd_10070_1509" x="291.694" y="251.451" width="510.119" height="276.331" filterUnits="userSpaceOnUse" color-interpolation-filters="sRGB">
<feFlood flood-opacity="0" result="BackgroundImageFix"/>
<feColorMatrix in="SourceAlpha" type="matrix" values="0 0 0 0 0 0 0 0 0 0 0 0 0 0 0 0 0 0 127 0" result="hardAlpha"/>
<feOffset dy="4.54922"/>
<feGaussianBlur stdDeviation="4.54922"/>
<feColorMatrix type="matrix" values="0 0 0 0 0.337255 0 0 0 0 0.282353 0 0 0 0 0.282353 0 0 0 0.14 0"/>
<feBlend mode="normal" in2="BackgroundImageFix" result="effect1_dropShadow_10070_1509"/>
<feColorMatrix in="SourceAlpha" type="matrix" values="0 0 0 0 0 0 0 0 0 0 0 0 0 0 0 0 0 0 127 0" result="hardAlpha"/>
<feOffset dy="16.6805"/>
<feGaussianBlur stdDeviation="8.34023"/>
<feColorMatrix type="matrix" values="0 0 0 0 0.337255 0 0 0 0 0.282353 0 0 0 0 0.282353 0 0 0 0.12 0"/>
<feBlend mode="normal" in2="effect1_dropShadow_10070_1509" result="effect2_dropShadow_10070_1509"/>
<feColorMatrix in="SourceAlpha" type="matrix" values="0 0 0 0 0 0 0 0 0 0 0 0 0 0 0 0 0 0 127 0" result="hardAlpha"/>
<feOffset dy="36.3937"/>
<feGaussianBlur stdDeviation="11.373"/>
<feColorMatrix type="matrix" values="0 0 0 0 0.337255 0 0 0 0 0.282353 0 0 0 0 0.282353 0 0 0 0.06 0"/>
<feBlend mode="normal" in2="effect2_dropShadow_10070_1509" result="effect3_dropShadow_10070_1509"/>
<feColorMatrix in="SourceAlpha" type="matrix" values="0 0 0 0 0 0 0 0 0 0 0 0 0 0 0 0 0 0 127 0" result="hardAlpha"/>
<feOffset dy="65.2055"/>
<feGaussianBlur stdDeviation="12.8895"/>
<feColorMatrix type="matrix" values="0 0 0 0 0.337255 0 0 0 0 0.282353 0 0 0 0 0.282353 0 0 0 0.02 0"/>
<feBlend mode="normal" in2="effect3_dropShadow_10070_1509" result="effect4_dropShadow_10070_1509"/>
<feBlend mode="normal" in="SourceGraphic" in2="effect4_dropShadow_10070_1509" result="shape"/>
</filter>
<radialGradient id="paint0_radial_10070_1509" cx="0" cy="0" r="1" gradientUnits="userSpaceOnUse" gradientTransform="translate(346 346) rotate(-3.64449) scale(223.772)">
<stop stop-color="#100E23"/>
<stop offset="0.338143" stop-color="#8B11EE"/>
<stop offset="0.515" stop-color="#E870D5"/>
<stop offset="0.756665" stop-color="#FFF15C"/>
<stop offset="1" stop-color="#FF9D4D"/>
</radialGradient>
<radialGradient id="paint1_radial_10070_1509" cx="0" cy="0" r="1" gradientUnits="userSpaceOnUse" gradientTransform="translate(346 346) rotate(-3.64449) scale(268.526)">
<stop stop-color="#100E23"/>
<stop offset="0.338143" stop-color="#8B11EE"/>
<stop offset="0.515" stop-color="#E870D5"/>
<stop offset="0.756665" stop-color="#FFF15C"/>
<stop offset="1" stop-color="#FF9D4D"/>
</radialGradient>
<clipPath id="clip0_10070_1509">
<rect width="39.6694" height="39.6694" fill="white" transform="translate(56.8677 301.868)"/>
</clipPath>
<clipPath id="clip1_10070_1509">
<rect width="39.6694" height="39.6694" fill="white" transform="translate(367.876 301.868)"/>
</clipPath>
</defs>
</svg>
