<svg fill="currentColor" viewBox="0 0 264.58401 264.583">
  <path d="M 132.292,0 C 59.23,0 0,59.23 0,132.292 c 0,73.062 59.23,132.291 132.292,132.291 73.063,0 132.292,-59.229 132.292,-132.291 C 264.584,59.229 205.354,0 132.292,0 Z m 2.93,53.42 c 37.568,0 68.016,30.479 68.016,68.068 0,37.59 -30.448,68.068 -68.017,68.068 v -17.017 c 28.171,0 51.012,-22.859 51.012,-51.05 0,-28.193 -22.841,-51.051 -51.012,-51.051 -5.96,0 -11.69,1.023 -17.004,2.916 a 50.914,50.914 0 0 0 -17.004,10.083 c -10.436,9.351 -17.004,22.935 -17.004,38.051 v 68.068 L 67.205,172.539 v -51.05 c 0,-17.256 6.421,-33.019 17.004,-45.018 a 68.016,68.016 0 0 1 17.004,-13.938 c 10.006,-5.795 21.618,-9.112 34.008,-9.112 z m -0.001,34.032 c 18.78,0 34.008,15.239 34.008,34.033 0,18.795 -15.228,34.034 -34.008,34.034 v -17.017 c 9.39,0 17.004,-7.62 17.004,-17.017 0,-9.397 -7.614,-17.016 -17.004,-17.016 -9.39,0 -17.005,7.62 -17.005,17.016 V 223.587 L 101.212,206.57 v -85.085 c 0,-12.599 6.837,-23.597 17.004,-29.477 a 33.778,33.778 0 0 1 17.005,-4.556 z" />
</svg>
