<?xml version="1.0" standalone="no"?>
<!DOCTYPE svg PUBLIC "-//W3C//DTD SVG 20010904//EN"
 "http://www.w3.org/TR/2001/REC-SVG-20010904/DTD/svg10.dtd">
<svg version="1.0" xmlns="http://www.w3.org/2000/svg"
 width="646.000000pt" height="646.000000pt" viewBox="0 0 646.000000 646.000000"
 preserveAspectRatio="xMidYMid meet">
<metadata>
Created by potrace 1.14, written by Peter Selinger 2001-2017
</metadata>
<g transform="translate(0.000000,646.000000) scale(0.100000,-0.100000)"
fill="#000000" stroke="none">
<path d="M3039 6455 c-2 -1 -38 -6 -79 -10 -41 -3 -82 -8 -90 -10 -8 -2 -37
-7 -64 -10 -27 -3 -51 -7 -55 -9 -4 -3 -25 -7 -47 -10 -22 -4 -71 -15 -108
-26 -36 -10 -69 -19 -72 -18 -2 0 -17 -4 -32 -10 -15 -5 -58 -20 -97 -32 -109
-36 -253 -96 -315 -131 -8 -5 -26 -14 -39 -19 -43 -19 -229 -131 -241 -145 -7
-8 -19 -15 -26 -15 -8 0 -14 -4 -14 -10 0 -5 -5 -10 -11 -10 -21 0 -245 -188
-340 -286 -136 -139 -147 -151 -242 -276 -83 -108 -240 -366 -273 -448 -3 -8
-14 -33 -24 -55 -35 -81 -89 -224 -106 -285 -20 -72 -65 -251 -69 -275 -3 -16
-8 -41 -10 -55 -3 -14 -8 -45 -11 -70 -3 -25 -8 -65 -11 -90 -3 -25 -8 -531
-10 -1125 l-4 -1079 318 -318 c175 -175 320 -318 323 -318 3 0 5 600 6 1332 0
1149 5 1494 19 1518 1 3 6 27 9 54 4 27 9 53 11 57 3 4 7 22 9 40 5 36 51 192
61 209 3 6 8 19 10 30 11 55 123 277 193 383 102 152 127 186 139 187 6 0 14
8 17 18 6 16 151 163 226 227 53 46 207 155 218 155 6 0 12 4 14 9 5 15 211
118 314 156 96 36 213 72 264 81 14 3 32 7 40 9 8 3 32 7 54 11 21 3 47 7 57
9 11 2 56 7 102 11 445 40 883 -71 1252 -318 123 -83 173 -125 291 -242 191
-192 311 -369 415 -613 23 -52 42 -100 44 -107 1 -6 5 -19 9 -28 4 -9 9 -25
11 -35 2 -10 4 -19 5 -20 2 -2 3 -6 4 -10 2 -5 8 -28 15 -52 63 -221 80 -495
47 -776 -7 -57 -36 -189 -60 -270 -2 -5 -6 -23 -11 -40 -4 -16 -10 -34 -14
-40 -3 -5 -6 -12 -6 -15 -6 -51 -135 -315 -192 -397 -13 -17 -23 -36 -23 -42
0 -6 -4 -11 -8 -11 -4 0 -16 -15 -27 -32 -10 -18 -24 -38 -29 -44 -6 -7 -22
-26 -36 -44 -79 -101 -194 -216 -295 -296 -27 -21 -52 -41 -55 -44 -13 -13
-129 -90 -136 -90 -4 0 -15 -6 -23 -14 -45 -41 -319 -165 -421 -191 -3 -1 -12
-5 -20 -8 -83 -34 -338 -76 -490 -81 l-65 -2 -3 -323 -2 -323 134 6 c73 4 142
8 152 10 11 2 44 7 74 11 30 4 64 9 75 11 11 3 36 7 55 10 181 28 462 125 671
230 134 67 355 204 372 231 4 7 13 13 18 13 6 0 16 6 23 12 7 7 35 31 61 53
157 129 282 258 399 409 66 86 156 213 156 221 0 2 15 28 34 57 42 66 170 330
174 361 1 4 9 21 17 37 8 16 16 33 16 37 1 5 3 13 5 18 33 101 44 135 48 156
3 13 10 40 16 59 15 51 58 287 66 367 15 145 8 538 -10 633 -3 14 -8 45 -11
70 -3 25 -8 53 -11 62 -5 17 -12 47 -20 88 -3 14 -10 43 -16 65 -5 22 -11 47
-13 55 -15 71 -123 351 -165 425 -11 19 -18 35 -15 35 8 0 -108 195 -176 295
-111 163 -255 328 -410 468 -75 68 -237 193 -294 227 -22 13 -42 27 -45 30
-22 26 -271 155 -399 206 -75 31 -272 98 -278 96 -2 -1 -21 5 -43 13 -22 8
-40 12 -40 10 0 -3 -12 0 -27 6 -15 6 -46 12 -68 15 -22 3 -47 7 -55 10 -8 3
-33 8 -55 10 -22 3 -51 8 -65 10 -14 3 -45 7 -70 10 -55 6 -466 14 -471 9z"/>
<path d="M3060 5159 c-25 -4 -61 -9 -80 -13 -82 -13 -216 -59 -317 -108 -343
-168 -603 -493 -687 -858 -8 -36 -18 -78 -23 -95 -4 -16 -9 -795 -10 -1730
l-4 -1699 318 -318 c175 -175 320 -318 323 -318 3 0 5 888 6 1973 l0 1972 22
78 c65 229 219 387 447 458 69 21 180 28 272 16 60 -8 191 -53 214 -73 8 -8
20 -14 25 -14 5 0 21 -10 35 -23 15 -12 41 -33 58 -46 76 -59 174 -223 201
-338 48 -208 -21 -444 -176 -598 -63 -62 -170 -135 -199 -135 -8 0 -16 -4 -19
-9 -9 -14 -131 -42 -196 -45 l-35 -1 -3 -324 -2 -324 77 7 c150 12 242 29 323
60 19 8 40 15 45 16 6 1 26 9 45 17 19 8 46 19 58 24 27 10 164 89 172 98 3 3
25 20 50 36 110 74 286 275 354 405 16 30 34 58 40 62 6 4 7 8 2 8 -4 0 -2 10
6 23 13 20 49 108 54 132 2 6 12 45 23 89 30 113 35 156 35 301 1 166 -6 229
-43 365 -32 122 -103 271 -183 387 -51 75 -192 225 -253 271 -16 12 -47 35
-69 52 -21 16 -45 30 -52 30 -8 0 -14 4 -14 8 0 10 -144 83 -220 111 -65 24
-155 50 -196 56 -16 2 -56 9 -89 14 -69 10 -268 11 -335 0z"/>
</g>
</svg>
