<svg width="783" height="1000" viewBox="0 0 783 1000" fill="none" xmlns="http://www.w3.org/2000/svg">
<path fill-rule="evenodd" clip-rule="evenodd" d="M626.027 417.029C666.817 468.244 691.209 533.014 691.209 603.469C691.209 673.925 666.076 740.673 624.214 792.176L620.588 796.626L619.641 790.981C618.817 786.201 617.869 781.34 616.757 776.478C595.785 684.349 527.471 605.365 415.03 541.378C339.095 498.28 295.626 446.448 284.213 387.487C276.838 349.375 282.318 311.098 292.907 278.301C303.496 245.545 319.235 218.063 332.626 201.541L376.383 148.06C384.046 138.666 398.426 138.666 406.09 148.06L626.068 417.029H626.027ZM695.206 363.59L402.01 5.12968C396.407 -1.70989 385.942 -1.70989 380.338 5.12968L87.184 363.59L86.2363 364.784C32.3026 431.738 0 516.821 0 609.444C0 825.138 175.151 1000 391.174 1000C607.198 1000 782.349 825.138 782.349 609.444C782.349 516.821 750.046 431.738 696.112 364.826L695.165 363.631L695.206 363.59ZM157.351 415.876L183.556 383.779L184.339 389.712C184.957 394.409 185.74 399.106 186.646 403.844C203.622 492.883 264.23 567.088 365.546 624.565C453.637 674.708 504.934 732.35 519.684 795.554C525.864 821.924 526.936 847.881 524.258 870.584L524.093 871.985L522.816 872.603C483.055 892.009 438.351 902.927 391.133 902.927C225.459 902.927 91.1394 768.855 91.1394 603.428C91.1394 532.396 115.902 467.172 157.269 415.793L157.351 415.876Z" fill="#298DFF"/>
</svg>
