<svg width="24" height="30" viewBox="0 0 24 30" fill="none" xmlns="http://www.w3.org/2000/svg">
<path d="M14.664 12.2985C14.664 13.8758 13.386 15.1548 11.8098 15.1548V18.0111C14.9622 18.0111 17.5181 15.4532 17.5181 12.2985C17.5181 9.1438 14.9622 6.58594 11.8098 6.58594C10.7707 6.58594 9.79477 6.86368 8.9557 7.35071C7.24916 8.33769 6.10156 10.1837 6.10156 12.2985V26.5799L8.66783 29.1481L8.9557 29.4362V12.2985C8.9557 10.7211 10.2337 9.44222 11.8098 9.44222C13.386 9.44222 14.664 10.7211 14.664 12.2985Z" fill="#E6DAFE"/>
<path d="M11.8111 0.867188C9.73147 0.867188 7.78224 1.42397 6.10281 2.39674C5.0275 3.01812 4.06451 3.81002 3.24867 4.73628C1.47242 6.75027 0.394531 9.39598 0.394531 12.2923V20.8611L3.24867 23.7174V12.2923C3.24867 9.75512 4.35108 7.475 6.10281 5.9054C6.92639 5.16905 7.89326 4.58772 8.95694 4.21308C9.84894 3.89528 10.8106 3.72347 11.8111 3.72347C16.5396 3.72347 20.3735 7.56026 20.3735 12.2923C20.3735 17.0244 16.5396 20.8611 11.8111 20.8611V23.7174C18.117 23.7174 23.2276 18.6017 23.2276 12.2923C23.2276 5.98291 18.117 0.867188 11.8111 0.867188Z" fill="#E6DAFE"/>
</svg>
