<svg viewBox="0 0 354 469.333" fill="currentColor" xmlns="http://www.w3.org/2000/svg">
  <path d="m139.028 467.771-6.471-1.403-6.397-2.56-6.397-2.561-5.632-3.837-5.631-3.836-5.56-5.87-5.56-5.87-4.314-6.378-4.314-6.377-4.288-9.123-4.289-9.123-3.54-10.5-3.54-10.5-3.003-12-3.004-12-2.011-12-2.012-12-1.559-14.5-1.559-14.5-.562-4-.562-4-1.272-1.325-1.272-1.325-4.307-.967-4.307-.968-3.082.65-3.083.651-2.345 2.142-2.345 2.142-1.405 2.7L34 311.235V315.951l3.565 5.941 3.564 5.941 2.943 3.056 2.943 3.055-.258 64.905-.257 64.905-3.398 2.29-3.398 2.29H33.87l-2.185-1.136-2.184-1.136-1.75-1.822-1.75-1.823V342.339l-4.636-6.253-4.635-6.253-1.843-4-1.842-4v-21l1.921-4.232 1.921-4.232 4.655-4.976 4.654-4.976 4.373-2.117 4.373-2.116 7.78-.477 7.779-.476 3.25-.494 3.25-.494v-5.486l2.25-4.447 2.25-4.447 3.733-1.394 3.733-1.394 4.457 2.899 4.457 2.9 18.62 16.973 18.62 16.974 1.354.758 1.354.757 4.218-4.751 4.218-4.752 1.377-3.24 1.378-3.24-5.443-8.084-5.442-8.083-1.064-4.96-1.063-4.96 1.053-4.716 1.053-4.717 2.343-4 2.342-4 3.914-4.5 3.913-4.5 1.687-2.472 1.688-2.473v-6.11l-1.44-2.056-1.44-2.056-6.06-.219-6.06-.219-5.638-.917-5.638-.918-1.862-1.685-1.862-1.685v-7.57l2.46-6.81 2.46-6.81 3.483-8 3.484-8-2.194-1.142-2.193-1.143-15.71-4.083-15.71-4.084-4.622-2.172-4.62-2.172-.96-2.526-.96-2.525.582-2.651.582-2.65 5.209-5.06 5.209-5.06 6-4.002 6-4.002 6.329-3.168 6.328-3.168 10.172-3.374 10.171-3.374 5-.644 5-.644 2.6-.988 2.602-.987 7.036-8.69 7.035-8.69 8.972-8.648 8.972-8.647 9.436-7 9.436-7 7.601-4.614 7.601-4.615 10.355-4.915L227.5 46.48l10.143-3.503 10.143-3.502 13.857-3.467L275.5 32.54l12-1.69 12-1.69 23.147.336 23.147.336 2.111 1.913 2.112 1.913 1.136 3.792 1.136 3.792-1.635 2.495-1.635 2.496-6.76 3.944-6.759 3.944-9 4.733-9 4.734-7.5 5.007-7.5 5.008-6 4.756-6 4.757-5.527 5.858-5.527 5.858-3.599 4.5-3.599 4.5-3.6 6.606-3.598 6.606-1.525 5.854-1.525 5.855v10.56l8.909 4.473 8.908 4.475 8.842 5.18 8.841 5.182 5 3.571 5 3.571 8 6.686 8 6.686 7.131 7.348 7.132 7.347 6.97 9.537 6.969 9.537 1.149 2.148 1.149 2.147v5.02l-2.302 2.676-2.302 2.677-3.97-.055-3.97-.055-16.647-3.58-16.648-3.58-30.83-7.39-30.831-7.389-3-.579-3-.579-47.486-11.45-47.486-11.45-3.142-.59-3.142-.59-2.567 6.273-2.567 6.272-.623 2.25-.622 2.25h4.215l3.71 1.902 3.71 1.902 3.887 3.848 3.887 3.848 2.4 5.17 2.399 5.17.05 6.49.05 6.492-2.061 4.658-2.06 4.658-6.132 7.622-6.132 7.623.509 3.792.508 3.792 4.58 6.091 4.578 6.091 1.126 4.176 1.125 4.175-.643 5.5-.643 5.5-2.32 3.5-2.319 3.5-5.678 6.918-5.678 6.918 3.23 3.332 3.23 3.332h2.68l6.713-5.16 6.714-5.159 5.336-2.453 5.335-2.453 7.303-1.025 7.304-1.024 7.314 1.085 7.314 1.086 7.235 3.575 7.234 3.576 5.61 6.198 5.608 6.198 3.032 6.159 3.032 6.159 2.95 14.37 2.949 14.368.984 5 .984 5 2.128 6.5 2.128 6.5 2.978 6 2.978 6 4.31 6.079 4.31 6.078 7.993 7.52 7.992 7.518 7.87 4.094 7.87 4.095 7.512 2.452 7.512 2.452 7.988 1.63 7.988 1.629 12.886.913 12.885.913 2.574 1.907 2.574 1.908 1.121 3.376 1.122 3.376-.936 2.683-.935 2.683-1.81 1.639-1.811 1.638-75.876-.291-75.875-.292-3.5-1.64-3.5-1.64-2.235-2.86-2.234-2.86-11.636-15.5-11.636-15.5-1.801-4-1.801-4 .523-2.67.523-2.672 2.148-1.998 2.149-1.998 3.668-.677 3.668-.677 4.645 4.281 4.644 4.282 11.586 14.814 11.585 14.815h57.093l-11.035-11.25-11.035-11.25-4.286-6.38-4.286-6.382-3.854-8.226-3.855-8.225-2.523-9.393-2.522-9.394-2.034-10.5-2.035-10.5-1.91-6.189-1.911-6.19-2.042-4.002-2.043-4.003-3.259-2.44-3.259-2.44-3.256-1.647-3.257-1.647-5.484-.558-5.485-.559-6.259 3.052-6.259 3.052-3.462 2.895-3.463 2.894 1.463 1.458 1.462 1.458 2.917 1.907 2.917 1.908 8.717-.276 8.716-.277 2.844 2.446 2.844 2.446v7.87l-1.742 2.658-1.742 2.659-4.183 2.134-4.183 2.133-6.249-.501-6.248-.502-6.304-2.958-6.304-2.957-9.147-6.912-9.147-6.912-11.853-10.145-11.853-10.145-16-14.537-16-14.536-.315 4.681-.315 4.682 1.1 9.5 1.1 9.5.535 4.5.533 4.5 1.49 10 1.49 10 .475 3.5.475 3.5 2.546 11.384L93.16 383.6l3.492 10.032 3.492 10.033 4.044 8.084 4.044 8.084 4.259 6 4.259 6 4.983 4.658 4.983 4.657 3.892 1.927 3.892 1.928 5.5 1.59 5.5 1.591 3.9.648 3.9.648 2.85 2.85 2.85 2.85V463.428l-2.514 2.33-2.514 2.33-3.111.622-3.111.622-1.125-.08-1.125-.079zm170.465-275.22-7.007-6.718-8.993-6.13-8.993-6.132-5.5-3.14-5.5-3.14-10.194-4.933-10.194-4.933-12.306-4.462-12.306-4.46-5.5-2.16-5.5-2.16-2.25-2.099-2.25-2.1v-8.508l1.64-1.64 1.64-1.64 2.175-1.425 2.174-1.425 5.436 1.466 5.435 1.465 4.725 1.473 4.725 1.473.482-.78.483-.78 1.623-7.915 1.624-7.915 2.582-6.5 2.583-6.5 4.087-7 4.086-7 12.518-12.5 12.519-12.5 6.231-4.475L296 52.882v-1.549l-2.25.014-2.25.014-11.5 2.464-11.5 2.464-2.5.573-2.5.574-5.742 1.474-5.742 1.474-8.758 3.059-8.758 3.059-11.275 5.885-11.275 5.886-9.725 6.443-9.725 6.443-10 8.99-10 8.99-6 7.72-6 7.721-4.049 5.127-4.05 5.126-3.95 1.2-3.951 1.198-7.5 1.032-7.5 1.032-3.458.629-3.458.629-7.515 2.453-7.515 2.453-1.299 1.078-1.299 1.077 1.772 1.24 1.772 1.241 64.5 15.559 64.5 15.558 27.5 6.56 27.5 6.56 10 2.436 10 2.435 2 .033 2 .034zm12.007 221.64-7-.889-7.291-1.993-7.292-1.992-7.192-3.622-7.192-3.622-6.618-6.62-6.618-6.62-4.154-8.583-4.153-8.584-2.866-12.416-2.866-12.417-3.138-11.267-3.139-11.267-3.17-6.733-3.169-6.733-9.071-9.067-9.071-9.068-6-2.928-6-2.928-9.5-.005-9.5-.005-3.5.795-3.5.794-6.053.577-6.054.577-2.641-2.372-2.642-2.37-.17-2-.17-2 .115-2.85.115-2.85 3.303-3.303 3.302-3.303 5.448-1.645 5.447-1.644 7.883-.924 7.883-.924 7.617 1.017 7.617 1.017 8.018 3.797 8.017 3.796 5.983 4.794 5.982 4.794 3.35 3.613 3.351 3.614 3.238 4 3.238 4 3.728 6.24 3.727 6.24 3.017 8.26 3.017 8.26 2.976 12.5 2.975 12.5 2.566 8.5 2.565 8.5 2.327 4.62 2.327 4.62 3.299 2.797 3.299 2.797 8.147 3.833 8.148 3.834H317.272l-.878-4.75-.877-4.75.031-9.5.032-9.5 2.652-5.744 2.652-5.743 2.704-2.507 2.704-2.506h7.862l2.923 2.923L340 352.18v5.124l-2.565 8.765-2.564 8.765.593 3.855.593 3.855 1.456 2.815 1.455 2.814 5.038 6.573 5.038 6.573.986 2.594.987 2.595-1.952 4.413-1.953 4.413-9.306-.126-9.306-.127zm-4.404-88.365-4.405-1.373-5.173-3.563-5.174-3.564-5.02-6.246-5.02-6.247-6.307-9.5-6.307-9.5-6.319-8.146-6.318-8.146-6.763-6.105-6.763-6.104-6.514-3.401-6.513-3.401-4-1.194-4-1.194-15.145-.654-15.145-.655-2.048-1.853-2.049-1.854-.635-2.893-.635-2.893 1.107-3.356 1.108-3.356 2.72-1.334 2.722-1.335 12.07-.41 12.07-.411 8.32 1.569 8.321 1.57 6.503 3.042 6.503 3.044 6.106 4.381 6.107 4.382 8.596 8.854 8.597 8.853 7.72 10.5 7.72 10.5 1.433 1.762 1.434 1.761v1.34l5.53 7.218 5.529 7.22 3.665 1.739 3.665 1.739 9.845-.6 9.845-.6 2.412 1.1 2.413 1.098 1.617 3.409 1.617 3.408-.642 2.926-.643 2.926-2.958 2.489-2.957 2.488-3.72 1.033-3.718 1.033-8-.061-8-.061zM37.247 266.112l-2.253-1.087-1.07-3.971-1.069-3.971-.789-44.246-.788-44.246-.54-.879-.54-.879-.568-3.587-.567-3.586-3.119-6.914-3.118-6.913-2.413-6.369L18 133.095V120.696l1.522-5.125 1.522-5.124 5.09-5.57 5.09-5.57 8.638-6.224 8.638-6.225 5.124-5.49 5.125-5.49h8.258l3.196 3.196 3.195 3.196-.1 3.525-.1 3.524-2.517 4.257-2.517 4.257-3.832 3.686-3.832 3.685-8.915 6.315-8.914 6.314-1.898 2.572-1.897 2.572.312 4.762.312 4.762 7-5.247 7-5.247 5.058-4.712 5.058-4.712 3.242-1.676 3.242-1.677 1.774.563 1.774.563 2.908 3.036 2.908 3.035-.099 3.744-.098 3.745-1.554 3.006-1.555 3.007-4.33 4.126-4.328 4.127-4.5 3.333-4.5 3.333-2.401 4.837-2.402 4.836-.76 53.156-.762 53.156-.665 1.673-.665 1.673-3.324 1.577-3.323 1.577-2.35-.067-2.348-.068zM7.923 97.41 5 94.487v-8.175l2.089-4.444 2.088-4.443 4.225-3.894 4.224-3.894 4.937-2.831 4.937-2.831L33 60.42l5.5-3.554 1.62-1.517 1.62-1.517 1.985-4.5 1.985-4.5 2.229-1.98 2.229-1.981 4.111.107 4.112.108 2.804 3.14L64 47.364v9.068l-1.637 3.2-1.637 3.2-2.92 3.716-2.92 3.716-7.339 4.784-7.339 4.784-6.046 3.775-6.047 3.775-2.29 4.585-2.29 4.586-2.402 1.89-2.403 1.89h-7.884Zm-.505-32.046-2.081-.842-2.669-3.17L0 58.18v-1.484l1.51-5.084 1.51-5.084 4.405-4.9 4.406-4.9 6.116-4.198 6.116-4.197H25.294l4.304-3.526 4.304-3.527 2-2.808 1.999-2.808.481-2.416.481-2.415.68-3.18.679-3.18 2.38-2.236L44.985 0h9.333l2.46 2.86 2.461 2.862-.457 7.123-.457 7.123-2.912 5.42-2.912 5.419-6.074 6.106-6.075 6.106-8.358 4.907-8.358 4.907-3.772 5.44-3.772 5.441-2.296 1.274-2.295 1.274-1-.027-1-.028z"/>
</svg>
