<svg fill="currentColor" viewBox="0 0 19 18" xmlns="http://www.w3.org/2000/svg">
  <path d="M18.6209 1.31113C18.6065 1.23908 18.5746 1.17248 18.5286 1.11813C18.4826 1.06378 18.4241 1.02364 18.3591 1.00179C18.1226 0.950958 17.878 0.969791 17.6505 1.05632C17.6505 1.05632 1.87128 7.20348 0.970498 7.87867C0.776427 8.02541 0.711438 8.11068 0.679397 8.20983C0.523774 8.69466 1.00895 8.90386 1.00895 8.90386L5.07529 10.3395C5.14393 10.3528 5.21448 10.3483 5.28126 10.3266C6.20675 9.69308 14.5893 3.96036 15.0763 3.76801C15.1523 3.74322 15.2091 3.76801 15.1944 3.82849C15.0004 4.56417 7.71996 11.5739 7.71996 11.5739C7.70197 11.5989 7.68691 11.6262 7.67511 11.6552L7.66595 11.6493L7.28605 16.0187C7.28605 16.0187 7.12767 17.3572 8.36259 16.0187C9.23408 15.0738 10.0781 14.2846 10.5001 13.8999C11.8989 14.9459 13.4039 16.103 14.0529 16.7078C14.1618 16.8221 14.2909 16.9116 14.4325 16.9707C14.574 17.0298 14.7252 17.0574 14.8768 17.0518C15.4929 17.027 15.665 16.2933 15.665 16.2933C15.665 16.2933 18.5403 3.76107 18.6319 2.0825C18.641 1.91792 18.6539 1.81282 18.6557 1.69979C18.6604 1.56907 18.6484 1.43827 18.62 1.31113"/>
</svg>
