<svg fill="currentColor" xmlns="http://www.w3.org/2000/svg" viewBox="0 0 48 48">
  <path d="M24 0C10.749 0 0 10.749 0 24s10.749 24 24 24 24-10.749 24-24S37.269 0 24 0Zm-.069 8.469a2.389 2.389 0 0 1 2.383 2.382c0 1.32-1.097 2.383-2.383 2.383-1.285 0-2.365-1.097-2.365-2.383 0-1.285 1.045-2.382 2.365-2.382Zm-9.154 4.045c1.32 0 2.383 1.097 2.383 2.383s-1.063 2.383-2.383 2.383-2.383-1.097-2.383-2.383 1.097-2.383 2.383-2.383ZM8.52 24c0-1.32 1.097-2.383 2.383-2.383S13.286 22.68 13.286 24a2.378 2.378 0 0 1-2.383 2.383c-1.32 0-2.383-1.097-2.383-2.383Zm6.291 11.486c-1.302 0-2.382-1.097-2.382-2.383s1.097-2.383 2.382-2.383c1.286 0 2.383 1.063 2.383 2.383a2.378 2.378 0 0 1-2.383 2.383Zm5.486-7.835c-1.92-1.988-1.508-4.731.772-6.291l12.205-8.417c1.372-.926 2.76.446 1.817 1.834l-8.52 12.086c-1.577 2.28-4.285 2.708-6.274.788Zm12.789 7.835c-1.32 0-2.383-1.097-2.383-2.383s1.063-2.383 2.383-2.383a2.378 2.378 0 0 1 2.383 2.383c0 1.32-1.098 2.383-2.383 2.383Zm3.891-9.103c-1.32 0-2.383-1.097-2.383-2.383s1.063-2.383 2.383-2.383A2.378 2.378 0 0 1 39.36 24c0 1.32-1.097 2.383-2.383 2.383Z"/>
</svg>
