<svg fill="currentColor" xmlns="http://www.w3.org/2000/svg" viewBox="0 0 48 48">
  <path d="M24 0C10.749 0 0 10.749 0 24s10.749 24 24 24 24-10.749 24-24S37.251 0 24 0Zm16.457 16.577a113.16 113.16 0 0 0-1.337 2.966c-.857 1.954-1.749 3.96-2.794 5.897l-.086.171a8.833 8.833 0 0 1-4.183 4.595c-2.828 1.131-6.068.36-8.057-1.955a24.073 24.073 0 0 1-1.937-2.811c-1.132-1.817-2.537-4.08-3.943-4.371-.206-.035-.823-.172-1.954.634a6.334 6.334 0 0 0-1.989 2.691c-.703 1.526-1.337 3.12-1.954 4.663a102.949 102.949 0 0 1-1.56 3.772 1.708 1.708 0 0 1-1.56 1.028c-.24 0-.463-.034-.686-.137a1.717 1.717 0 0 1-.891-2.263 96.94 96.94 0 0 0 1.508-3.668c.635-1.595 1.286-3.223 2.023-4.835a9.926 9.926 0 0 1 3.12-4.045 5.805 5.805 0 0 1 4.612-1.2c2.862.582 4.628 3.411 6.171 5.914.48.84 1.029 1.628 1.629 2.383a3.684 3.684 0 0 0 4.165 1.028c1.097-.463 1.732-1.645 2.469-3.034l.086-.154c.977-1.852 1.834-3.806 2.674-5.692.446-1.011.891-2.023 1.354-3.017a1.725 1.725 0 0 1 2.28-.84 1.725 1.725 0 0 1 .84 2.28Z"/>
</svg>
