<svg xmlns="http://www.w3.org/2000/svg" viewBox="0 0 32.3 41" fill="currentColor">
  <path d="M19.9998 16.5133C19.9998 18.7239 18.2087 20.5163 15.9998 20.5163V24.5193C20.4177 24.5193 23.9998 20.9346 23.9998 16.5133C23.9998 12.0921 20.4177 8.50732 15.9998 8.50732C14.5434 8.50732 13.1757 8.89658 11.9998 9.57914C9.60808 10.9624 7.99976 13.5496 7.99976 16.5133V36.5283L11.5963 40.1276L11.9998 40.5313V16.5133C11.9998 14.3027 13.7908 12.5103 15.9998 12.5103C18.2087 12.5103 19.9998 14.3027 19.9998 16.5133Z"/>
  <path d="M16 0.501953C13.0855 0.501953 10.3537 1.28228 8 2.64558C6.49299 3.51643 5.14337 4.62626 4 5.92438C1.51063 8.74694 0 12.4548 0 16.514V28.523L4 32.526V16.514C4 12.9582 5.545 9.76263 8 7.56288C9.15423 6.5309 10.5093 5.71618 12 5.19113C13.2501 4.74575 14.5979 4.50496 16 4.50496C22.6269 4.50496 28 9.88212 28 16.514C28 23.1458 22.6269 28.523 16 28.523V32.526C24.8376 32.526 32 25.3564 32 16.514C32 7.67151 24.8376 0.501953 16 0.501953Z"/>
</svg>
