<svg xmlns="http://www.w3.org/2000/svg" fill="currentColor" viewBox="0 0 212 121">
  <path d="M48 1.1c-3 .5-9.3 2.7-13.8 5-31.8 15.6-39.9 58.1-16 83.6C29.6 101.8 41.6 107 58 107c11.9 0 20-2.2 28.6-7.9 12-7.9 13.6-10.2 37.4-56C136.1 19.8 146 .6 146 .4c0-.3-5.5-.3-12.1-.2l-12.2.3-18.8 36C82.8 74.7 80 78.8 71.1 83.2c-7 3.3-18.7 3.2-26.3-.4-6.6-3.1-12.7-9-15.9-15.6-1.9-3.8-2.4-6.3-2.4-13.2 0-10.3 2.1-15.7 9-22.5 6.8-6.8 12.2-9 22.5-9 7.3 0 9.3.4 14.2 2.8 6.2 3 11.7 8.6 15.2 15.6l2.2 4.3 1.6-2.4c4.1-6.3 9.8-19.1 9.3-20.8-1.1-3.4-12.4-12.8-19.7-16.4C70.4.5 60.3-.9 48 1.1zM150 10l-5 10h6.7c12.6 0 24.5 8.5 29.5 20.8 2.1 5.4 2.3 7.2 2.6 35.9l.3 30.3H205V77.2c0-33.5-.6-37.9-6.7-49.4-6.7-12.9-20.9-23.9-34.1-26.7-9-1.9-8.7-2.1-14.2 8.9z"/>
</svg>
