<svg xmlns="http://www.w3.org/2000/svg" viewBox="0 0 170 170" fill="currentColor">
  <path d="M118.803 83.394v3.423h-10.755v4.502h11.13V95h-14.864c.024-3.845.024-7.69.024-11.606zm-80.028-8.347c.21 0 .328.047.422.258 2.889 6.471 5.8 12.942 8.689 19.39.023.07.047.14.094.258H46.5c-.751 0-1.48-.023-2.23 0-.282 0-.423-.07-.54-.352-1.715-3.915-3.43-7.854-5.143-11.77-.517-1.172-1.034-2.368-1.574-3.61-.07.164-.117.257-.187.375a4140.436 4140.436 0 0 0-6.576 14.982c-.117.258-.234.352-.54.352-.995-.02-1.976-.008-2.966-.027l-.744-.02.211-.352L34.806 75.4c.117-.258.235-.352.54-.352 1.15.023 2.301.023 3.429 0zm17.424.07c.234 0 .352.07.47.258 1.925 2.65 3.85 5.276 5.776 7.925.07.094.14.211.258.328.094-.117.165-.21.235-.304 1.926-2.65 3.851-5.276 5.777-7.925.164-.211.305-.282.563-.282 1.174.024 2.372 0 3.546 0h.376v19.836h-3.71V80.698c-.024-.024-.047-.024-.07-.047l-.212.281-5.988 7.948c-.352.47-.869.47-1.198-.023-1.925-2.65-3.874-5.276-5.8-7.925-.07-.094-.14-.211-.235-.305-.023.024-.047.024-.07.047v14.28h-3.734V75.14c.094 0 .211-.024.305-.024zM135.945 75c1.151 0 2.255.234 3.288.727 2.372 1.102 3.804 3.493 3.663 6.143-.047.844-.164 1.665-.469 2.438-.752 1.876-2.184 2.955-4.086 3.47-.141.024-.259.07-.446.118.187.21.328.398.493.562 1.784 1.993 3.546 3.986 5.33 6.003.094.117.165.281.282.469h-4.274a.722.722 0 0 1-.469-.211c-1.785-2.04-3.57-4.057-5.331-6.12a.89.89 0 0 0-.728-.328c-1.033.023-2.09 0-3.147 0v6.635c-1.291-.023-2.512-.023-3.78-.023V84.848h.422c2.936 0 5.871.023 8.83.023.516 0 1.057-.047 1.55-.188 1.432-.422 2.23-1.781 2.066-3.446-.141-1.407-1.244-2.532-2.7-2.697-.306-.046-.634-.046-.94-.046h-9.205v-3.47c.071 0 .165-.024.235-.024zM90.06 75c1.198 0 2.372.211 3.476.703 1.902.868 2.888 2.369 3.076 4.432.188 2.04-.587 3.54-2.489 4.455.047.047.094.07.117.093 2.067.727 3.124 3.072 3.006 4.737-.14 2.298-1.15 3.962-3.334 4.806a9.786 9.786 0 0 1-1.973.516c-.728.117-1.48.164-2.207.164h-9.37V83.113h.423c3.17-.047 6.34-.07 9.487-.141a4.403 4.403 0 0 0 1.338-.281c1.198-.446 1.644-1.618 1.08-2.767-.422-.868-1.197-1.29-2.113-1.454a6.332 6.332 0 0 0-.94-.07c-2.958-.024-5.893-.024-8.852-.047h-.423v-3.33c.094 0 .165-.023.259-.023zm-.258 11.301h-5.424c-.118 0-.212.024-.329.024v5.064c2.137 0 4.203.024 6.293 0 .705 0 1.362-.187 1.996-.516.54-.281.94-.68 1.104-1.266.258-.89-.07-1.758-.892-2.391a4.454 4.454 0 0 0-2.748-.915zm29.4-11.184v3.588h-14.864v-3.588z"/>
</svg>
