<svg viewBox="0 0 286.793 283.602" fill="currentColor" xmlns="http://www.w3.org/2000/svg">
  <path d="m.452 6.202 30.7 61.5c1.7 3.3 5.1 5.4 8.8 5.4h18.8c3.7 0 7.1 2.1 8.8 5.4l25.5 51c1.7 3.3 5.1 5.5 8.8 5.5h30.6c3.2 0 5.3-3.4 3.9-6.3l-30.7-61.5c-1.7-3.3-5.1-5.4-8.8-5.4h-18.8c-3.7 0-7.1-2.1-8.8-5.4l-25.5-51c-1.7-3.3-5.1-5.4-8.8-5.4h-30.5c-3.4-.1-5.4 3.3-4 6.2zm135.8 148.4-30.7 61.5c-1.7 3.3-5.1 5.5-8.8 5.5h-18.8c-3.7 0-7.1 2.1-8.8 5.5l-25.5 51c-1.7 3.3-5.1 5.5-8.8 5.5h-30.5c-3.2 0-5.3-3.4-3.9-6.3l30.7-61.5c1.7-3.3 5.1-5.5 8.8-5.5h18.8c3.7 0 7.1-2.1 8.8-5.5l25.5-51c1.7-3.3 5.1-5.5 8.8-5.5h30.6c3.2 0 5.3 3.4 3.8 6.3zm150.1-148.4-30.7 61.5c-1.7 3.3-5.1 5.4-8.8 5.4h-18.8c-3.7 0-7.2 2.1-8.8 5.4l-25.5 51c-1.7 3.3-5.1 5.5-8.8 5.5h-30.5c-3.2 0-5.3-3.4-3.9-6.3l30.7-61.5c1.7-3.3 5.1-5.4 8.8-5.4h18.8c3.7 0 7.2-2.1 8.8-5.4l25.5-51c1.7-3.3 5.1-5.4 8.8-5.4h30.5c3.2-.1 5.3 3.3 3.9 6.2zm-135.9 148.4 30.7 61.5c1.7 3.3 5.1 5.5 8.8 5.5h18.8c3.7 0 7.2 2.1 8.8 5.5l25.5 51c1.7 3.3 5.1 5.5 8.8 5.5h30.6c3.2 0 5.3-3.4 3.9-6.3l-30.7-61.5c-1.7-3.3-5.1-5.5-8.8-5.5h-18.8c-3.7 0-7.2-2.1-8.8-5.5l-25.5-51c-1.7-3.3-5.1-5.5-8.8-5.5h-30.5c-3.3 0-5.4 3.4-4 6.3z"/>
</svg>
