<svg xmlns="http://www.w3.org/2000/svg" preserveAspectRatio="xMidYMid" version="1.0" viewBox="0 0 716 799.85492" fill="currentColor">
  <path d="m 306,27.130738 c -34.3,19.8 -48,28.2 -49.2,30.3 -2.3,3.7 -2.3,7.4 0.2,10.6 1.1,1.4 77.6,46.000002 174.6,101.800002 l 172.6,99.4 -0.3,200.2 -0.4,200.3 2.7,2.7 c 2.1,2 3.7,2.7 7,2.7 3.9,0.1 9.3,-2.8 52.2,-27.4 42,-24.1 48,-27.9 49.2,-30.7 1.2,-2.7 1.4,-36.9 1.4,-204 0,-129.8 -0.4,-202.1 -1,-204.4 -0.6,-1.9 -2,-4.5 -3.2,-5.6 -1.3,-1.2 -80.4,-47.3 -175.8,-102.4 C 384.8,13.130738 361.9,0.23073822 358,0.03073822 c -4.3,-0.3 -7,1.09999998 -52,27.09999978 z"/>
  <path d="m 277.5,253.43074 c -1.1,0.3 -23.6,12.9 -50,28.1 -34.1,19.7 -48.3,28.4 -49.2,30.2 -1.9,3.7 -1.9,197.3 0,201 0.9,1.8 25.4,16.5 87.7,52.8 84,48.8 86.6,50.2 91,49.8 3.7,-0.3 12.6,-5 49.5,-26 24.8,-14.1 46.1,-26.8 47.5,-28.2 1.9,-1.9 2.5,-3.5 2.5,-7 0,-3.8 -0.5,-5 -3.1,-7.2 -1.7,-1.5 -39.4,-23.4 -83.8,-48.7 l -80.7,-46 0.4,-95.5 c 0.2,-52.6 0,-96.5 -0.4,-97.7 -1.3,-3.7 -7.1,-6.5 -11.4,-5.6 z"/>
  <path d="m 2.6,260.33074 -2.6,2.7 v 176.7 c 0,166.9 0.1,176.9 1.8,178.8 0.9,1 71.7,42.2 157.2,91.3 172.1,98.9 161.2,93.3 168.1,87.1 l 3.4,-3 0.3,-55.4 0.2,-55.4 -2.2,-3.4 c -1.8,-2.6 -24.6,-16.2 -109.3,-65.4 l -107,-62.2 -0.5,-118.2 c -0.5,-116.5 -0.5,-118.2 -2.5,-120.1 -1.1,-1 -23.2,-14.1 -49.2,-29 -51.9,-29.8 -52.2,-29.9 -57.7,-24.5 z"/>
  <path d="m 499.5,613.33074 c -11.1,5.7 -92.1,53.4 -94.1,55.3 l -2.4,2.4 v 57.2 57.2 l 2.3,2.1 c 2.9,2.8 7.8,3.7 10.8,2.2 1.3,-0.7 23.4,-13.4 49,-28.2 33.9,-19.6 47,-27.8 48.2,-29.8 1.5,-2.5 1.7,-8.4 1.7,-57 0,-60.1 0.1,-58.8 -6.5,-61.6 -4.3,-1.8 -5.3,-1.8 -9,0.2 z"/>
</svg>
