<svg viewBox="0 0 354.966 297.258" fill="currentColor" xmlns="http://www.w3.org/2000/svg">
  <path d="M192.091 0c-17.107 0-32.73 3.893-45.763 7.703-3.741 1.093-7.541 2.275-11.223 3.424-9.409 2.93-18.299 5.7-25.799 6.934-5.11.842-9.114 2.77-11.9 5.728-2.631 2.794-4.2 6.533-4.658 11.106-.855 8.553 2.179 20.011 8.775 33.14 13.194 26.261 38.466 55.173 64.385 73.658a69.483 69.483 0 0 1 7.554 6.248 1.68 1.68 0 0 1-.107.024c-20.155 2.878-30.656 24.538-34.908 36.242-1.11 3.052 1.907 5.788 4.988 4.748 12.213-4.117 36.827-10.706 51.238-2.855 2.692 12.876 1.557 25.5-3.302 35.365-2.98 6.05-7.226 10.887-12.62 14.377-5.817 3.764-12.842 5.868-20.886 6.256-8.717.42-18.598-1.185-29.367-4.77-11.718-3.902-24.587-10.183-38.247-18.674l-.253-.156-.262-.139a13.92 13.92 0 0 1-.483-.275c19.553-23.564 7.633-59.15 2.862-70.88-.637-1.566-2.797-1.555-3.657-.099-11.171 18.916-34.085 17.513-33.68 40.041l-.027-.05c-17.518-14.245-30.522 4.705-52.32 1.859-1.677-.218-3.014 1.477-2.172 2.941 6.287 10.95 26.878 42.088 57.324 41.391a842.394 842.394 0 0 1 3.69 4.041l3.674 4.055c14.92 16.466 31.262 29.533 48.572 38.838 16.123 8.667 33.094 14.09 50.441 16.125 5.196.61 10.406.912 15.612.912 30.204 0 60.226-10.158 85.945-29.315 14.428-10.746 26.76-23.714 36.65-38.543 10.123-15.177 17.211-31.604 21.063-48.82 2.567-11.469 3.63-23.037 3.195-34.576 9.551-2.841 20.098 5.58 25.26 10.523 1.26 1.206 3.337.457 3.28-1.287-.268-7.905-2.534-24.995-15.626-43.332-11.104-15.549-22.888-23.7-30.265-27.66a162.254 162.254 0 0 0-8.612-14.053c-9.08-13.275-18.543-24.785-28.119-34.213-8.956-8.816-18.3-16.092-27.771-21.623C228.088 4.731 210.992.036 192.306 0Zm14.53 38.732c15.393 0 38.91 17.428 43.693 23.875-1.491 3.93-11.422 4.807-16.385 4.426-4.966-.38-13.405-1.196-19.86-4.426-6.456-3.229-12.91-7.49-15.394-10.966-2.48-3.475-7.446-12.909 7.946-12.909zm-75.508 17.336c2.369-.04 4.801.056 7.287.282a82.82 82.82 0 0 1 7.607 1.06c43.91 8.149 100.54 51.998 123.666 100.307 1.36 2.841 2.604 5.7 3.723 8.566a110.999 110.999 0 0 1 2.973 8.62 97.763 97.763 0 0 1 2.164 8.634 86.561 86.561 0 0 1 1.299 8.613c2.259 22.907-5.311 45.175-27.526 63.545a137.468 137.468 0 0 1-4.92 3.33 134.377 134.377 0 0 1-10.127 5.934 129.637 129.637 0 0 1-15.799 7.05c-12.528 4.61-25.552 7.16-38.63 7.524a116.739 116.739 0 0 1-16.811-.744c-15.129-1.774-29.975-6.53-44.129-14.14-6.756-3.632-13.366-7.92-19.795-12.84a168.362 168.362 0 0 1-9.502-7.85 184.62 184.62 0 0 1-9.205-8.775c20.22 12.279 38.825 20.006 55.576 23.103a95.53 95.53 0 0 0 8.221 1.162 82.57 82.57 0 0 0 7.904.387 74.89 74.89 0 0 0 3.625-.086c4.2-.203 8.227-.76 12.067-1.664 5.119-1.207 9.904-3.032 14.324-5.467a53.59 53.59 0 0 0 3.246-1.941c8.112-5.247 14.46-12.45 18.873-21.403a60.206 60.206 0 0 0 2.62-6.164 63.27 63.27 0 0 0 1.954-6.496c.001-.006.004-.011.006-.017v-.002l.004-.014c.54-2.218.968-4.492 1.287-6.814l.002-.012v-.002c.32-2.332.528-4.715.623-7.145.267-6.806-.352-13.724-1.85-20.646a92.208 92.208 0 0 0-4.258-14.053c-4.587-11.685-11.497-22.285-20.188-31.039a87.298 87.298 0 0 0-11.25-9.568 171.423 171.423 0 0 1-8.9-6.81c-8.867-7.245-17.573-15.736-25.573-24.97-8.628-9.958-15.966-20.21-21.47-29.97l.001-.012-.113-.188-.168-.3c-.228-.427-.55-1.1-.785-1.887v-.002c-.02-.069-.028-.148-.047-.219-.2-.736-.328-1.547-.223-2.351.058-.44.183-.877.395-1.291V59.3c.213-.415.515-.806.928-1.16.824-.71 2.092-1.268 3.984-1.538 2.234-.319 4.54-.495 6.91-.535z"/>
</svg>
