<svg xmlns="http://www.w3.org/2000/svg" viewBox="0 0 818 817.81" fill="currentColor">
  <path d="M111.734.004a30.664 30.664 0 0 0-9.05 1.21C95.782 3.222 87.438 9.722 84.15 15.657c-2.943 5.314-3.826 14.156-2.127 21.285.704 2.953 3.959 11.894 7.233 19.87 15.19 37.002 17.75 44.027 19.098 52.44.753 4.708.997 8.56.544 8.56-1.264 0-18.974-17.302-22.7-22.178-1.817-2.377-7.76-10.367-13.208-17.754C52.8 50.503 46.583 45.56 32.154 45.397c-9.478-.106-15.247 2.415-22.838 9.983-4.027 4.015-5.56 6.465-6.873 10.978-3.199 11.006-.292 23.671 7.139 31.102 6.313 6.313 13.623 8.637 35.594 11.312 21.317 2.596 35.756 5.34 48.324 9.186 15.332 4.691 15.344 4.71 4.414 7.514-17.974 4.61-31.49 7.245-45.414 8.857-20.516 2.375-29.249 4.2-36.209 7.565C5.234 147.239.418 155.517.625 168.824c.164 10.568 6.773 20.96 16.682 26.236 3.532 1.881 5.775 2.236 14.213 2.243 9.724.008 10.177-.094 15.404-3.446 5.444-3.49 13.906-13.392 26.576-31.097 3.3-4.612 12.668-15.15 20.818-23.418l14.819-15.032-.633 7.284c-.764 8.8-2.466 14.844-7.524 26.716-16.954 39.801-18.996 45.403-19.722 54.114-.695 8.334 1.638 15.067 7.205 20.795 9.95 10.237 23.556 12.887 36.037 7.02 2.75-1.294 6.752-4.056 8.893-6.14 10.328-10.055 10.64-23.174 1.078-45.289-7.578-17.523-16.657-39.716-18.313-44.76-2.32-7.066-3.775-18.24-2.375-18.24 1.92 0 29.82 29.799 35.65 38.077 11.075 15.721 20.444 26.636 25.823 30.086 5.014 3.215 5.573 3.337 15.224 3.337 9.224 0 10.443-.234 15.344-2.949 5.692-3.153 9.493-7.326 13.252-14.55 1.894-3.64 2.337-6.037 2.324-12.536-.018-9.489-2.408-15.51-8.171-20.57-7.695-6.756-16.311-9.176-44.112-12.395-13.907-1.61-28.935-4.583-44.996-8.902-9.945-2.674-11.242-3.256-9.014-4.04 13.016-4.586 37.827-9.558 62.893-12.602 19.234-2.337 27.445-4.836 33.559-10.217 9.931-8.742 12.968-24.01 7.142-35.918-2.92-5.968-8.115-10.902-15.701-14.912-3.659-1.935-5.93-2.365-12.154-2.307-10.022.094-16.269 3.065-24.432 11.625-5.806 6.088-9.063 10.266-24.38 31.273-7.024 9.632-26.035 29.5-28.227 29.5-1.551 0-.102-11.124 2.404-18.457 1.136-3.323 6.113-15.718 11.06-27.543 14.854-35.5 16.122-40.403 13.174-50.91C136.981 8.555 124.763.21 111.735.004ZM221.5.31v15.571l52.25-.053 52.25-.05V801.81l-43.75-.016c-60.084-.02-82.347-1.664-109.316-8.072-14.515-3.449-22.006-6.01-33.235-11.365-28.437-13.56-50.799-34.274-70.222-65.047-13.547-21.462-31.48-63.198-41.194-95.87l-3.756-12.63H0v103.834c0 57.109.3 104.134.666 104.5.367.367 184.417.666 409 .666H818V608.94l-10.38-.314c-5.71-.173-11.094-.173-11.962 0-1.03.206-2.473 3.331-4.158 9-6.545 22.024-17.797 51.572-26.918 70.685-15.207 31.867-32.378 55.798-51.582 71.89-25.427 21.304-52.791 32.707-91.5 38.128-18.329 2.567-45.601 3.591-87.5 3.285l-41.5-.303-.252-183.947c-.139-101.17.113-184.313.56-184.761.449-.449 11.364-1.488 24.254-2.311 32.554-2.078 58.444-5.508 83.438-11.053 6.6-1.464 13.8-3.028 16-3.476 5.643-1.15 25.592-7.21 41.5-12.606 100.38-34.05 157.237-98.455 159.76-180.967.576-18.834-.654-31.16-4.727-47.373-8.478-33.75-24.098-60.48-49.685-85.017C717.95 46.264 644.109 16.566 553.5 5.399 513.172.428 508.715.31 360.5.31Zm271.66 19.065c2.899-.181 19.214 2.938 30.84 5.953 41.146 10.67 70.61 33.792 86.541 67.914C625.589 125.474 631 158.024 631 216.31c0 57.663-5.368 90.45-19.988 122.096-13.88 30.041-38.44 51.944-71.512 63.772-14.341 5.128-37.43 10.632-44.602 10.632h-2.878l-.014-196.437c-.008-108.04.332-196.653.758-196.916.068-.042.203-.07.396-.082z"/>
</svg>
