<svg xmlns="http://www.w3.org/2000/svg" fill="currentColor" viewBox="0 0 98 100">
  <path fill-rule="evenodd" d="M95.345 52.856c-.865-.605-1.816-1.21-2.767-1.816-1.557-.951-3.114-1.989-4.757-2.94a177.536 177.536 0 0 0-11.416-6.227l-3.2-1.557h-.087c-3.027-1.47-6.14-2.768-9.34-4.065-18.508-7.524-37.19-11.503-54.054-12.108 5.275-9.254 12.28-17.99 17.73-20.324 12.021-5.017 42.724 1.124 48.691 9.427 1.557 2.162 4.152 6.486 7.006 11.675l1.47 2.681.519.952.26.519.086.086c.605 1.211 1.21 2.335 1.816 3.546 3.373 6.919 6.573 14.27 8.13 19.979z"/>
  <path fill-rule="evenodd" d="M96.296 58.823c0 .173 0 .346-.086.519-1.47 12.194-26.206 33.297-33.816 37.189-7.006 3.546-28.8.26-41.6-4.238h-.087c12.8-7.092 25.6-16.778 37.449-28.713 5.621-5.622 10.638-11.503 15.221-17.47l1.298-1.212a160.458 160.458 0 0 1 20.41 12.022c.173.087.26.173.433.346.519.346.778.865.778 1.557zm-58.032 17.73C31.69 81.569 25.03 85.98 18.372 89.526c-.087.086-.087.086-.173.086-.26.173-.606.173-.952.173-.605 0-1.124-.26-1.556-.605-.174-.173-.346-.433-.52-.606C6.35 78.63 1.68 50.002 1.68 45.159c0-1.989.605-4.67 1.643-7.61.951-2.682 2.249-5.622 3.805-8.65.087-.086.087-.172.173-.259.346-.605.952-.951 1.644-1.037h.432c5.19.172 10.551.691 16.087 1.556z"/>
</svg>
