<svg width="9" height="11" viewBox="0 0 9 11" fill="none" xmlns="http://www.w3.org/2000/svg">
<g clip-path="url(#clip0_4697_1878)">
<path d="M6.62869 4.06214C6.15584 4.80071 5.48596 5.23286 4.59542 5.28786C3.45269 5.37429 2.48334 4.65929 2.06565 3.72429C1.64796 2.84429 1.81346 1.67357 2.45181 0.935C2.84586 0.479286 3.31871 0.172857 3.9019 0.055C3.98859 0.0314286 4.09892 0.0314286 4.17773 0H4.68211C4.82397 0.0314286 4.95794 0.055 5.0998 0.0864286C6.04551 0.314286 6.88088 1.24929 6.99122 2.24714C7.07791 2.89929 6.99122 3.52786 6.62869 4.06214Z" fill="#242235"/>
<path d="M8.99278 9.20566C8.99278 10.1721 8.33078 10.8871 7.38508 10.9657C7.26686 10.9657 7.13289 10.9971 7.02255 10.9971H1.92361C1.48227 10.9971 1.08823 10.9107 0.725707 10.6592C0.308019 10.3449 0.0558296 9.94423 0.0321869 9.43352C-0.0545032 8.52209 0.0558296 7.61066 0.394709 6.76209C0.591731 6.25137 0.891206 5.82709 1.39558 5.53637C1.70294 5.37137 2.03394 5.28494 2.37282 5.30852C2.48315 5.30852 2.59348 5.37137 2.70382 5.42637C2.86931 5.5128 3.01117 5.6228 3.17667 5.70923C4.06721 6.27494 4.98928 6.27494 5.87982 5.70923C5.99015 5.6228 6.13201 5.5678 6.24234 5.48137C6.46301 5.30852 6.7152 5.28494 6.96739 5.33994C7.66091 5.4578 8.13376 5.82709 8.46476 6.4478C8.77212 7.02137 8.91397 7.61066 8.96914 8.23923C8.99278 8.55351 9.02431 8.89137 8.99278 9.20566Z" fill="#242235"/>
</g>
<defs>
<clipPath id="clip0_4697_1878">
<rect width="9" height="11" fill="white"/>
</clipPath>
</defs>
</svg>
