<svg width="23" height="18" viewBox="0 0 23 18" fill="none" xmlns="http://www.w3.org/2000/svg">
<path d="M19.0591 1.93931C17.584 1.26468 16.0268 0.786043 14.4272 0.515625C14.2081 0.906422 14.0099 1.30851 13.8333 1.72021C12.1291 1.46365 10.396 1.46365 8.69182 1.72021C8.51547 1.30857 8.31757 0.906489 8.09894 0.515625C6.49818 0.788391 4.93981 1.26826 3.46314 1.94314C0.847553 5.64152 -0.335465 10.1625 0.133797 14.6663C1.85078 15.9335 3.77252 16.8972 5.81552 17.5156C6.27475 16.8974 6.68102 16.2416 7.03002 15.5552C6.36589 15.3073 5.72487 15.0016 5.1144 14.6415C5.27532 14.5247 5.4324 14.4051 5.58373 14.2884C7.36062 15.1231 9.29999 15.5559 11.2635 15.5559C13.2271 15.5559 15.1665 15.1231 16.9433 14.2884C17.0966 14.4138 17.2546 14.5334 17.4127 14.6415C16.8022 15.002 16.1612 15.3084 15.4971 15.5571C15.8463 16.2432 16.2532 16.8984 16.7135 17.5156C18.7583 16.8998 20.6817 15.9366 22.399 14.6683C22.8676 10.1611 21.6807 5.6374 19.0591 1.93931ZM7.53575 12.1051C6.97163 12.0727 6.44304 11.8195 6.06455 11.4004C5.68606 10.9813 5.48818 10.4301 5.51381 9.8662C5.49817 9.58617 5.53801 9.30581 5.63103 9.04118C5.72406 8.77655 5.86845 8.53287 6.05592 8.32408C6.2434 8.1153 6.47028 7.94552 6.72356 7.82449C6.97683 7.70345 7.25153 7.63353 7.53191 7.61873C7.81317 7.63167 8.08905 7.70029 8.34353 7.82063C8.59801 7.94097 8.82602 8.11061 9.01432 8.31971C9.20261 8.52881 9.34744 8.7732 9.44039 9.03868C9.53334 9.30416 9.57256 9.58545 9.55576 9.8662C9.58217 10.4299 9.38481 10.9813 9.00658 11.4005C8.62834 11.8197 8.09979 12.0729 7.53575 12.1051ZM14.9961 12.1051C14.4321 12.0729 13.9035 11.8197 13.5253 11.4005C13.1471 10.9813 12.9497 10.4299 12.9761 9.8662C12.9605 9.58601 13.0004 9.3055 13.0935 9.04076C13.1867 8.77601 13.3312 8.53224 13.5189 8.32343C13.7066 8.11463 13.9337 7.94489 14.1872 7.82396C14.4407 7.70303 14.7156 7.63329 14.9961 7.61873C15.2772 7.63165 15.5529 7.7003 15.8071 7.8207C16.0613 7.94109 16.289 8.11082 16.4769 8.31999C16.6649 8.52916 16.8092 8.7736 16.9016 9.03906C16.994 9.30452 17.0326 9.58569 17.0152 9.8662C17.0418 10.43 16.8446 10.9815 16.4663 11.4008C16.088 11.82 15.5593 12.0732 14.9952 12.1051H14.9961Z" fill="#E6DAFE"/>
</svg>
