<svg width="18" height="11" viewBox="0 0 18 11" fill="none" xmlns="http://www.w3.org/2000/svg">
<path d="M1.67619 10.1701L1.38209 9.97359C1.30667 9.91628 1.27651 9.80986 1.3293 9.71981L5.31857 2.83523C5.45431 2.59784 5.68809 2.45867 5.94449 2.45867C6.20089 2.45867 6.43467 2.59784 6.57041 2.83523L9.52654 7.94341C9.54917 7.98434 9.6095 7.98434 9.63212 7.94341L13.5535 1.17344C13.6893 0.93604 13.923 0.796875 14.1794 0.796875C14.4358 0.796875 14.6696 0.93604 14.8054 1.17344L16.668 4.39061C16.7208 4.47247 16.6906 4.58708 16.6152 4.64438L16.3287 4.84085C16.2533 4.89815 16.1477 4.86541 16.0949 4.78355L14.2322 1.56638C14.2247 1.54182 14.2021 1.53363 14.1794 1.53363C14.1568 1.53363 14.1417 1.54182 14.1267 1.56638L10.2052 8.33635C10.0695 8.57375 9.83573 8.71291 9.57933 8.71291C9.32293 8.71291 9.08915 8.57375 8.95341 8.33635L5.99728 3.22817C5.97465 3.18724 5.91433 3.18724 5.8917 3.22817L1.90997 10.1128C1.85718 10.2028 1.7516 10.2274 1.67619 10.1701Z" fill="#242235"/>
<path fill-rule="evenodd" clip-rule="evenodd" d="M14.1801 2.47295L10.6401 8.58454C10.6398 8.58498 10.6395 8.58542 10.6393 8.58586C10.42 8.96829 10.0265 9.21291 9.58008 9.21291C9.13363 9.21291 8.74006 8.96826 8.52082 8.58577C8.52058 8.58536 8.52035 8.58495 8.52011 8.58454L5.94536 4.1354L2.34207 10.3656C2.1618 10.6731 1.73409 10.8268 1.39013 10.5798L1.09244 10.3809L1.08033 10.3717C0.826139 10.1785 0.704574 9.79982 0.897854 9.4684C0.898137 9.46792 0.89842 9.46743 0.898704 9.46695L4.88527 2.58705C4.88554 2.58658 4.88581 2.5861 4.88608 2.58563C5.10534 2.20325 5.49886 1.95867 5.94524 1.95867C6.39169 1.95867 6.78525 2.20332 7.0045 2.5858C7.00474 2.58622 7.00498 2.58663 7.00521 2.58705L9.58026 7.03669L13.1202 0.925254C13.1205 0.924809 13.1207 0.924364 13.121 0.92392C13.3402 0.541492 13.7338 0.296875 14.1802 0.296875C14.6267 0.296875 15.0203 0.541564 15.2395 0.92409C15.2397 0.924478 15.2399 0.924866 15.2402 0.925254L17.0972 4.13267C17.3024 4.46646 17.1636 4.85626 16.9185 5.04249L16.9088 5.04987L16.6196 5.24813C16.2514 5.51635 15.8372 5.3054 15.6754 5.05452L15.6689 5.04444L14.1801 2.47295Z" fill="#242235"/>
</svg>
