<svg width="20" height="18" viewBox="0 0 20 18"  xmlns="http://www.w3.org/2000/svg">
<path d="M6.06824 17.0522C7.55016 17.0626 9.01932 16.771 10.3904 16.1943C11.7614 15.6176 13.0071 14.7674 14.0549 13.6929C15.1028 12.6185 15.932 11.3413 16.4944 9.9356C17.0568 8.52986 17.3411 7.02356 17.3309 5.50419C17.3309 5.3285 17.3271 5.15363 17.3196 4.97958C18.0943 4.40467 18.7629 3.69299 19.2944 2.87783C18.5721 3.20614 17.8059 3.42152 17.0213 3.51681C17.848 3.00968 18.4668 2.21178 18.7625 1.27168C17.9851 1.74461 17.1346 2.07787 16.2477 2.25708C15.6514 1.60503 14.8618 1.17293 14.0016 1.02778C13.1413 0.882631 12.2583 1.03255 11.4896 1.45428C10.7209 1.87602 10.1094 2.54601 9.7499 3.36035C9.3904 4.1747 9.30301 5.0879 9.50128 5.95836C7.92741 5.87771 6.38768 5.45854 4.9821 4.72808C3.57653 3.99761 2.33653 2.97218 1.34266 1.71838C0.836097 2.61186 0.680845 3.66974 0.908534 4.6765C1.13622 5.68325 1.72972 6.56313 2.56811 7.13687C1.93944 7.11702 1.32459 6.9428 0.775202 6.62883C0.775202 6.64541 0.775202 6.66281 0.775202 6.68105C0.77573 7.61798 1.09224 8.52591 1.67107 9.25093C2.24991 9.97596 3.05546 10.4735 3.95119 10.6591C3.36844 10.8219 2.75706 10.8458 2.16394 10.7287C2.41672 11.5352 2.90914 12.2404 3.57227 12.7457C4.23541 13.251 5.03605 13.531 5.86211 13.5466C4.46029 14.676 2.72862 15.289 0.945763 15.287C0.62967 15.2867 0.313867 15.2674 0 15.229C1.81009 16.4214 3.91672 17.0543 6.06824 17.0522Z" fill="currentColor"/>
</svg>
