<svg viewBox="0 0 700 700" fill="none" xmlns="http://www.w3.org/2000/svg">
  <path fill="#80857D" d="M0 0h700v700H0z"/>
  <path d="M125.694 241.057h38.594v187.24H266.93v31.544H125.694V241.057ZM273.657 350.5c0-69.784 43.354-113.5 106.781-113.5 63.427 0 106.78 44.122 106.78 113.5S444.175 464 380.438 464s-106.781-44.426-106.781-113.5Zm106.781 80.941c41.801 0 66.634-32.153 66.634-80.941 0-48.788-24.833-80.941-66.634-80.941-41.802 0-66.635 31.545-66.635 80.941s25.143 80.941 66.635 80.941ZM532.433 321.592h41.491v41.282h-41.491v-41.282Zm0 96.765h41.491v41.586h-41.491v-41.586Z" fill="#EDEBE7"/>
</svg>