<svg xmlns="http://www.w3.org/2000/svg" viewBox="0 0 1280 1280">
  <path fill="#061e44" d="M-222-214h1726v1688H-222z"/>
  <path fill="#fff" d="M341.734 231.193a30.665 30.665 0 0 0-9.05 1.211c-6.902 2.007-15.246 8.507-18.534 14.442-2.943 5.313-3.826 14.156-2.127 21.285.704 2.952 3.959 11.894 7.233 19.869 15.19 37.003 17.75 44.027 19.098 52.441.753 4.707.997 8.559.544 8.559-1.264 0-18.974-17.301-22.7-22.178-1.817-2.377-7.76-10.367-13.208-17.754-20.19-27.377-26.407-32.32-40.836-32.482-9.478-.107-15.247 2.415-22.838 9.982-4.027 4.015-5.56 6.466-6.873 10.979-3.199 11.005-.292 23.67 7.139 31.101 6.313 6.313 13.623 8.637 35.594 11.313 21.317 2.596 35.756 5.34 48.324 9.185 15.332 4.692 15.344 4.711 4.414 7.514-17.974 4.61-31.49 7.246-45.414 8.858-20.516 2.375-29.249 4.199-36.209 7.564-11.057 5.346-15.873 13.625-15.666 26.932.164 10.567 6.773 20.96 16.682 26.236 3.532 1.88 5.775 2.235 14.213 2.242 9.724.008 10.177-.093 15.404-3.445 5.444-3.491 13.906-13.392 26.576-31.098 3.3-4.611 12.668-15.15 20.818-23.418l14.819-15.031-.633 7.283c-.764 8.8-2.466 14.845-7.524 26.717-16.954 39.8-18.996 45.402-19.722 54.113-.695 8.334 1.638 15.067 7.205 20.795 9.95 10.238 23.556 12.888 36.037 7.02 2.75-1.293 6.752-4.055 8.893-6.139 10.328-10.056 10.64-23.174 1.078-45.289-7.578-17.524-16.657-39.717-18.313-44.76-2.32-7.067-3.775-18.24-2.375-18.24 1.92 0 29.82 29.799 35.65 38.076 11.075 15.722 20.444 26.637 25.823 30.086 5.014 3.216 5.573 3.338 15.224 3.338 9.224 0 10.443-.234 15.344-2.95 5.692-3.152 9.493-7.325 13.252-14.55 1.894-3.64 2.337-6.037 2.324-12.535-.018-9.49-2.408-15.51-8.171-20.57-7.695-6.756-16.311-9.176-44.112-12.395-13.907-1.61-28.935-4.584-44.996-8.902-9.945-2.675-11.242-3.256-9.014-4.041 13.016-4.585 37.827-9.557 62.893-12.602 19.234-2.336 27.445-4.836 33.559-10.217 9.931-8.742 12.968-24.01 7.142-35.918-2.92-5.968-8.115-10.901-15.701-14.912-3.659-1.934-5.93-2.365-12.154-2.306-10.022.093-16.269 3.064-24.432 11.625-5.806 6.088-9.063 10.266-24.38 31.273-7.024 9.632-26.035 29.5-28.227 29.5-1.551 0-.102-11.124 2.404-18.457 1.136-3.324 6.113-15.718 11.06-27.543 14.854-35.501 16.122-40.404 13.174-50.91-3.464-12.345-15.682-20.692-28.71-20.897zm109.766.307v15.57l52.25-.052 52.25-.051V1033l-43.75-.016c-60.084-.02-82.347-1.664-109.316-8.072-14.515-3.449-22.006-6.01-33.235-11.365-28.437-13.56-50.799-34.275-70.222-65.047-13.547-21.462-31.48-63.199-41.194-95.871L254.527 840H230v103.834c0 57.108.3 104.133.666 104.5.367.367 184.417.666 409 .666H1048V840.129l-10.38-.315c-5.71-.172-11.094-.173-11.962 0-1.03.206-2.473 3.331-4.158 9-6.545 22.024-17.797 51.573-26.918 70.686-15.207 31.867-32.378 55.798-51.582 71.889-25.427 21.305-52.791 32.707-91.5 38.129-18.329 2.567-45.601 3.59-87.5 3.285l-41.5-.303-.252-183.947c-.139-101.171.113-184.314.56-184.762.449-.448 11.364-1.488 24.255-2.31 32.553-2.079 58.443-5.509 83.437-11.053 6.6-1.464 13.8-3.029 16-3.477 5.643-1.15 25.592-7.21 41.5-12.605 100.38-34.051 157.236-98.455 159.76-180.967.576-18.835-.654-31.16-4.727-47.373-8.478-33.751-24.098-60.48-49.685-85.018-45.398-43.535-119.239-73.233-209.848-84.4-40.328-4.97-44.785-5.088-193-5.088h-139zm271.66 19.064c2.899-.18 19.214 2.939 30.84 5.954 41.146 10.67 70.61 33.792 86.541 67.914C855.589 356.663 861 389.213 861 447.5c0 57.663-5.368 90.45-19.988 122.096-13.88 30.04-38.44 51.944-71.512 63.771C755.159 638.496 732.07 644 724.898 644h-2.878l-.014-196.438c-.008-108.04.332-196.653.758-196.916.068-.042.203-.07.396-.082z"/>
</svg>
