<svg viewBox="0 0 98 100" fill="none" xmlns="http://www.w3.org/2000/svg">
<g clip-path="url(#clip0_23414_5573)">
<path fill-rule="evenodd" clip-rule="evenodd" d="M95.3453 52.8565C94.4804 52.2511 93.529 51.6457 92.5777 51.0402C91.0209 50.0889 89.4642 49.0511 87.8209 48.0997C84.1885 45.9375 80.3831 43.8619 76.4047 41.8727L73.2047 40.3159H73.1182C70.0912 38.8457 66.9777 37.5484 63.7777 36.2511C45.2696 28.7267 26.5885 24.7484 9.72363 24.1429C14.9993 14.8889 22.0047 6.15376 27.4534 3.81862C39.475 -1.19759 70.1777 4.94295 76.1452 13.2457C77.702 15.4078 80.2966 19.7321 83.1507 24.9213L84.6209 27.6024L85.1398 28.5538C85.2263 28.7267 85.3128 28.8997 85.3993 29.0727L85.4858 29.1592C86.0912 30.37 86.6966 31.4943 87.302 32.7051C90.675 39.624 93.875 46.9754 95.4317 52.6835L95.3453 52.8565Z" fill="#36F7F7"/>
<path fill-rule="evenodd" clip-rule="evenodd" d="M96.2962 58.8228C96.2962 58.9957 96.2962 59.1687 96.2097 59.3417C94.7395 71.5363 70.0043 92.639 62.3935 96.5309C55.3881 100.077 33.5935 96.7903 20.7935 92.293H20.707C33.507 85.2011 46.307 75.5147 58.1557 63.5795C63.7773 57.9579 68.7935 52.0768 73.3773 46.1092L74.6746 44.8984C82.026 48.5309 88.8584 52.5957 95.0854 56.9201C95.2584 57.0065 95.3449 57.093 95.5178 57.266C96.0368 57.612 96.2962 58.1309 96.2962 58.8228Z" fill="#BD24B5"/>
<path fill-rule="evenodd" clip-rule="evenodd" d="M38.2635 76.5529C31.6905 81.5691 25.031 85.9799 18.3716 89.5259C18.2851 89.6124 18.2851 89.6124 18.1986 89.6124C17.9391 89.7854 17.5932 89.7853 17.2473 89.7853C16.6418 89.7853 16.1229 89.5259 15.6905 89.1799C15.5175 89.007 15.3446 88.7475 15.1716 88.5745C6.34996 78.6286 1.67969 50.0016 1.67969 45.1583C1.67969 43.1691 2.28509 40.488 3.32293 37.5475C4.27428 34.8664 5.57158 31.9259 7.12834 28.8989C7.21482 28.8124 7.21482 28.7259 7.30131 28.6394C7.64725 28.034 8.25266 27.688 8.94455 27.6016C9.11752 27.6016 9.20401 27.6016 9.37698 27.6016C14.5662 27.7745 19.9283 28.2935 25.4635 29.1583L38.2635 76.5529Z" fill="#0756D5"/>
</g>
<defs>
<clipPath id="clip0_23414_5573">
<rect width="94.6162" height="96" fill="white" transform="translate(1.67969 2)"/>
</clipPath>
</defs>
</svg>
