<svg width="1em" height="1em" viewBox="0 0 36 36" fill="currentColor" xmlns="http://www.w3.org/2000/svg">
  <path d="M9.75 9a.75.75 0 0 0-.75.75v8.371a4.704 4.877 0 0 1 1.5-.814V9.75A.75.75 0 0 0 9.75 9zm12 2.25a.75.75 0 0 0 0 1.5h1.94l-4.94 4.94-2.469-2.471a.75.75 0 0 0-1.004-.051l-.058.05-2.047 2.05a4.704 4.877 0 0 1 1.422.699l1.156-1.156 2.469 2.47a.752.752 0 0 0 1.062 0l5.469-5.47v1.939a.75.75 0 0 0 1.5 0V12a.754.754 0 0 0-.014-.133.74.74 0 0 0-.043-.154c-.012-.03-.029-.055-.045-.082a.751.751 0 0 0-.117-.162.74.74 0 0 0-.162-.117c-.027-.016-.055-.033-.084-.045-.032-.014-.064-.021-.098-.03-.013-.003-.025-.01-.039-.013l-.017-.002a.742.742 0 0 0-.131-.012h-3.75zM16.172 24a4.704 4.877 0 0 1-1.035 1.5H27.75a.75.75 0 0 0 0-1.5H16.172z"/>
  <path d="M12 17a5 5 0 1 0 0 9.999A5 5 0 0 0 12 17Zm.577 7.308h-.192v.384a.385.385 0 0 1-.77 0v-.384h-.769a.384.384 0 1 1 0-.77h1.73a.577.577 0 0 0 0-1.153h-1.153a1.346 1.346 0 1 1 0-2.693h.192v-.384a.385.385 0 0 1 .77 0v.384h.769a.384.384 0 1 1 0 .77h-1.73a.577.577 0 0 0 0 1.153h1.153a1.346 1.346 0 1 1 0 2.693Z"/>
</svg>
