<svg width="1em" height="1em" viewBox="0 0 36 36" fill="currentColor" xmlns="http://www.w3.org/2000/svg">
  <path fill-rule="evenodd" d="M17.47 8.47a.75.75 0 0 1 .53-.22 9.75 9.75 0 1 1-8.445 4.875.75.75 0 0 1 1.025-.274l4.546 2.624a.75.75 0 0 1 .275 1.025A3 3 0 1 0 18 15a.75.75 0 0 1-.75-.75V9a.75.75 0 0 1 .22-.53Zm-7.213 12.38a8.251 8.251 0 0 0 6.993 5.366v-3.779a4.5 4.5 0 0 1-3.342-2.564l-3.65.978Zm3.262-2.426-3.65.978a8.256 8.256 0 0 1 .64-4.86l3.272 1.889a4.502 4.502 0 0 0-.262 1.993Zm5.231 4.013v3.779a8.25 8.25 0 0 0 0-16.432v3.78a4.501 4.501 0 0 1 0 8.873Z"/>
</svg>
