<svg width="1em" height="1em" viewBox="0 0 36 36" fill="currentColor" xmlns="http://www.w3.org/2000/svg">
  <path d="M13.247 10.335a2.25 2.25 0 0 1 2.2-1.779h5.106a2.25 2.25 0 0 1 2.2 1.779l.927 4.32a2.25 2.25 0 0 1-2.2 2.722h-6.96a2.25 2.25 0 0 1-2.2-2.721l.927-4.321Zm2.2-.279a.75.75 0 0 0-.734.593l-.926 4.321a.75.75 0 0 0 .733.907h6.96a.75.75 0 0 0 .733-.907l-.926-4.321a.75.75 0 0 0-.734-.593h-5.106ZM19.47 20.401a2.25 2.25 0 0 1 2.2-1.778h5.107a2.25 2.25 0 0 1 2.2 1.778l.927 4.321a2.25 2.25 0 0 1-2.2 2.722h-6.96a2.25 2.25 0 0 1-2.2-2.722l.927-4.321Zm2.2-.278a.75.75 0 0 0-.732.592l-.927 4.322a.75.75 0 0 0 .734.907h6.959a.75.75 0 0 0 .733-.907l-.926-4.322a.75.75 0 0 0-.733-.592H21.67ZM9.223 18.623a2.25 2.25 0 0 0-2.2 1.778l-.927 4.321a2.25 2.25 0 0 0 2.2 2.722h6.96a2.25 2.25 0 0 0 2.2-2.722l-.927-4.321a2.25 2.25 0 0 0-2.2-1.778H9.223Zm-.734 2.092a.75.75 0 0 1 .734-.592h5.106a.75.75 0 0 1 .733.592l.927 4.322a.75.75 0 0 1-.734.907H8.296a.75.75 0 0 1-.733-.907l.926-4.322Z"/>
</svg>
