<svg width="1em" height="1em" viewBox="0 0 36 36" fill="currentColor" xmlns="http://www.w3.org/2000/svg">
  <path fill-rule="evenodd" d="M15 7.912c.677.879 1.397 1.496 2.053 2.282 2.537-.777 6.56-.906 8.578 1.213.357.376.619.859.619 1.425 0 .347-.098.663-.257.942v3.246c.159.28.257.595.257.942 0 .348-.098.664-.257.943v4.178c.53.889.238 1.63-.362 2.26-.355.372-.832.673-1.364.91-1.067.473-2.488.747-4.017.747-1.53 0-2.95-.274-4.017-.748-.532-.236-1.01-.537-1.364-.91-.335-.351-.585-.796-.616-1.316-.02-.346.15-.736.18-.802C11.398 22.944 9 20.437 9 17.357c0-3.566 3.878-7.062 6-9.445Zm1.007 15.255v.333c-.188.33-.351.494-.051.808.177.186.468.388.886.573.834.37 2.038.619 3.408.619s2.574-.248 3.408-.619c.418-.185.71-.387.886-.573.3-.315.137-.478-.051-.808v-3.31c-1.473.73-3.179.914-4.802.842-1.287 1.582-3.695 2.137-3.684 2.135Zm4.569-3.627c1.257-.037 2.945-.21 3.917-1.136V15.06c-1.16.574-2.488.797-3.77.845.17.497.277.989.277 1.452 0 1.352-.436 2.212-.424 2.183Zm-.532-5.128.206.002c1.337 0 3.29-.137 4.294-1.191.255-.268.255-.514 0-.782-1.463-1.536-4.521-1.395-6.463-.967l.142.187c.648.856 1.31 1.814 1.82 2.751ZM15 10.112c1.599 1.789 4.5 4.61 4.5 7.245 0 2.412-2 4.393-4.5 4.393s-4.5-1.981-4.5-4.393c0-2.635 2.901-5.456 4.5-7.246Z"/>
</svg>
