<svg width="1em" height="1em" viewBox="0 0 36 36" fill="currentColor" xmlns="http://www.w3.org/2000/svg">
  <path d="M16.5 6.78a.75.75 0 0 1 .75.75v2.254a8.353 8.353 0 0 1 1.5 0V7.53a.75.75 0 0 1 1.5 0v2.53a8.266 8.266 0 0 1 4.617 3.365l.393-1.47a.75.75 0 0 1 1.45.389l-.874 3.26a.75.75 0 0 1-.919.53l-3.361-.9a.75.75 0 1 1 .388-1.45l1.655.444A6.752 6.752 0 0 0 11.811 15.3a.75.75 0 1 1-1.374-.6 8.27 8.27 0 0 1 5.313-4.64V7.53a.75.75 0 0 1 .75-.75ZM15.75 25.94v2.59a.75.75 0 0 0 1.5 0v-2.313a8.338 8.338 0 0 0 1.5 0v2.314a.75.75 0 0 0 1.5 0V25.94a8.27 8.27 0 0 0 5.313-4.64.75.75 0 1 0-1.374-.6A6.752 6.752 0 0 1 12.4 21.771l1.656.444a.75.75 0 1 0 .388-1.45l-3.362-.9a.75.75 0 0 0-.918.53l-.874 3.26a.75.75 0 1 0 1.45.389l.393-1.47a8.266 8.266 0 0 0 4.617 3.366Z"/>
</svg>
