<svg width="1em" height="1em" viewBox="0 0 36 36" fill="currentColor" xmlns="http://www.w3.org/2000/svg">
  <path d="M17.25 7.53a.75.75 0 0 0-1.5 0v2.53a8.27 8.27 0 0 0-5.313 4.64A8.225 8.225 0 0 0 9.75 18c0 1.172.245 2.289.687 3.3a8.27 8.27 0 0 0 5.313 4.64v2.59a.75.75 0 0 0 1.5 0v-2.314a8.377 8.377 0 0 0 1.5 0v2.314a.75.75 0 0 0 1.5 0v-2.59a8.27 8.27 0 0 0 5.313-4.64.75.75 0 0 0-1.374-.6 6.752 6.752 0 0 1-12.378-5.4 6.752 6.752 0 0 1 12.378 0 .75.75 0 0 0 1.374-.6 8.27 8.27 0 0 0-5.313-4.64V7.53a.75.75 0 0 0-1.5 0v2.254a8.355 8.355 0 0 0-1.5 0V7.53Z"/>
</svg>
