<svg width="1em" height="1em" viewBox="0 0 36 36" fill="currentColor" xmlns="http://www.w3.org/2000/svg">
  <path d="M16.5 6.78a.75.75 0 0 1 .75.75v2.254a8.355 8.355 0 0 1 1.5 0V7.53a.75.75 0 0 1 1.5 0v2.53a8.271 8.271 0 0 1 5.313 4.639.75.75 0 1 1-1.374.6 6.752 6.752 0 0 0-12.378 5.4 6.752 6.752 0 0 0 12.378 0 .75.75 0 1 1 1.374.6 8.271 8.271 0 0 1-5.313 4.64v2.59a.75.75 0 0 1-1.5 0v-2.313a8.34 8.34 0 0 1-1.5 0v2.314a.75.75 0 0 1-1.5 0v-2.59a8.271 8.271 0 0 1-5.313-4.64A8.225 8.225 0 0 1 9.75 18c0-1.172.245-2.288.687-3.3a8.271 8.271 0 0 1 5.313-4.64V7.53a.75.75 0 0 1 .75-.75Z"/>
  <path d="M15.25 16.8a3 3 0 1 1 0 2.4.75.75 0 1 0-1.375.6 4.5 4.5 0 1 0 0-3.6.75.75 0 1 0 1.374.6Z"/>
</svg>
