<svg width="1em" height="1em" viewBox="0 0 36 36" fill="currentColor" xmlns="http://www.w3.org/2000/svg">
  <path d="M11.51 9.275a4.875 4.875 0 0 1 5.24.816.75.75 0 1 0 1-1.118A6.375 6.375 0 0 0 7.166 13H6.08a.75.75 0 0 0 0 1.5h1.046v1H6.079a.75.75 0 0 0 0 1.5h1.093a6.375 6.375 0 0 0 10.578 3.977.75.75 0 0 0-1-1.118A4.874 4.874 0 0 1 8.687 17h3.642a.75.75 0 0 0 0-1.5H8.625v-1h4.954a.75.75 0 0 0 0-1.5h-4.9a4.875 4.875 0 0 1 2.83-3.725Z"/>
  <path fill-rule="evenodd" d="M24.75 12.875a.75.75 0 0 0-1.5 0V14h-.5a3.875 3.875 0 0 0 0 7.75h.5v4.75h-1.125a2.375 2.375 0 0 1-2.375-2.375.75.75 0 0 0-1.5 0A3.875 3.875 0 0 0 22.125 28h1.125v1.125a.75.75 0 0 0 1.5 0V28h1.125a3.875 3.875 0 0 0 0-7.75H24.75V15.5h.5a2.374 2.374 0 0 1 2.375 2.375.75.75 0 0 0 1.5 0A3.874 3.874 0 0 0 25.25 14h-.5v-1.125Zm-1.5 2.625h-.5a2.375 2.375 0 1 0 0 4.75h.5V15.5Zm1.5 6.25v4.75h1.125a2.375 2.375 0 1 0 0-4.75H24.75Z"/>
</svg>
