<svg version="1.1" xmlns="http://www.w3.org/2000/svg" viewBox="0 0 1455.7684854360286 623.648030876177" width="2911.5369708720573" height="1247.296061752354">
  <!-- svg-source:excalidraw -->

  <defs>
    <style class="style-fonts">
      @font-face {
        font-family: "Virgil";
        src: url("https://excalidraw.com/Virgil.woff2");
      }
      @font-face {
        font-family: "Cascadia";
        src: url("https://excalidraw.com/Cascadia.woff2");
      }
    </style>

  </defs>
  <rect x="0" y="0" width="1455.7684854360286" height="623.648030876177" fill="#ffffff"></rect><g stroke-linecap="round"><g transform="translate(682.1549760603798 67.87090540608543) rotate(0 1.9210638807993519 260.1076429921575)"><path d="M0.84 0.92 C1.33 87.17, 3.43 431.98, 4.02 518.23 M-0.18 0.36 C0.06 86.76, 2.42 433.87, 3.09 519.86" stroke="#1e1e1e" stroke-width="1" fill="none"></path></g></g><mask></mask><g transform="translate(436.800198746598 10) rotate(0 79.27993774414062 12.5)"><text x="0" y="0" font-family="Virgil, Segoe UI Emoji" font-size="20px" fill="#1e1e1e" text-anchor="start" style="white-space: pre;" direction="ltr" dominant-baseline="text-before-edge">Solana networks</text></g><g transform="translate(809.808011246598 14.21484375) rotate(0 68.9099349975586 12.5)"><text x="0" y="0" font-family="Virgil, Segoe UI Emoji" font-size="20px" fill="#1e1e1e" text-anchor="start" style="white-space: pre;" direction="ltr" dominant-baseline="text-before-edge">Pyth networks</text></g><g stroke-linecap="round" transform="translate(719.401761246598 63.16796875) rotate(0 164.287109375 130.22265625)"><path d="M32 0 M32 0 C109.93 0.42, 188.01 -1.99, 296.57 0 M32 0 C132.4 -1.62, 232.18 -2.36, 296.57 0 M296.57 0 C319.39 0.98, 328.59 11.06, 328.57 32 M296.57 0 C317.56 -1.01, 326.65 11.75, 328.57 32 M328.57 32 C330.42 73.52, 329.73 114.23, 328.57 228.45 M328.57 32 C330.59 75.01, 329.12 120.26, 328.57 228.45 M328.57 228.45 C327.46 248.45, 317.12 261.66, 296.57 260.45 M328.57 228.45 C329.12 250.56, 315.86 260.82, 296.57 260.45 M296.57 260.45 C197.74 262.65, 101.9 260.99, 32 260.45 M296.57 260.45 C244.23 261.34, 191.27 261.79, 32 260.45 M32 260.45 C9.63 260.32, 0.62 251.2, 0 228.45 M32 260.45 C8.78 258.79, -1.04 249.07, 0 228.45 M0 228.45 C0.8 187.91, -2.45 146.11, 0 32 M0 228.45 C-2.34 181.57, -1.64 134.23, 0 32 M0 32 C1.98 9.99, 10.57 1.84, 32 0 M0 32 C1.04 10.86, 9.53 -1.72, 32 0" stroke="#1e1e1e" stroke-width="1" fill="none"></path></g><g transform="translate(739.2526809433227 70.41870406373309) rotate(0 29.58399200439453 10)"><text x="0" y="0" font-family="Virgil, Segoe UI Emoji" font-size="16px" fill="#1e1e1e" text-anchor="start" style="white-space: pre;" direction="ltr" dominant-baseline="text-before-edge">Mainnet</text></g><g stroke-linecap="round" transform="translate(325.380276871598 58.890625) rotate(0 164.287109375 87.93359375)"><path d="M32 0 M32 0 C105.62 -0.31, 182.57 -2.29, 296.57 0 M32 0 C98.24 2.24, 165.63 0.88, 296.57 0 M296.57 0 C315.93 -1.88, 327.15 8.86, 328.57 32 M296.57 0 C317.35 1.05, 326.48 11.18, 328.57 32 M328.57 32 C328.12 70.3, 328.45 107.42, 328.57 143.87 M328.57 32 C328.74 60.71, 328.32 88.37, 328.57 143.87 M328.57 143.87 C330.43 165.91, 319.24 174.07, 296.57 175.87 M328.57 143.87 C329.99 164.36, 318.16 175.91, 296.57 175.87 M296.57 175.87 C223.79 173.83, 148.85 173.64, 32 175.87 M296.57 175.87 C232.33 177.43, 168.31 176.46, 32 175.87 M32 175.87 C11.04 176.54, -0.79 166.39, 0 143.87 M32 175.87 C12.43 176.17, -1.57 167.13, 0 143.87 M0 143.87 C1.05 107.15, 2.84 71.22, 0 32 M0 143.87 C0.88 111.65, 1.27 79.02, 0 32 M0 32 C-0.9 10.62, 9.82 -1.3, 32 0 M0 32 C-0.9 12.53, 11.25 -0.16, 32 0" stroke="#1e1e1e" stroke-width="1" fill="none"></path></g><g transform="translate(343.9581576137187 68.06745171907545) rotate(0 29.58399200439453 10)"><text x="0" y="0" font-family="Virgil, Segoe UI Emoji" font-size="16px" fill="#1e1e1e" text-anchor="start" style="white-space: pre;" direction="ltr" dominant-baseline="text-before-edge">Mainnet</text></g><g stroke-linecap="round" transform="translate(717.442776871598 335.1015625) rotate(0 164.287109375 130.22265625)"><path d="M32 0 M32 0 C121.22 -2.65, 210.25 -0.14, 296.57 0 M32 0 C105.05 0.12, 179.89 0.29, 296.57 0 M296.57 0 C316.32 1.1, 329.48 10.57, 328.57 32 M296.57 0 C320.02 -0.71, 330.87 8.74, 328.57 32 M328.57 32 C328.02 93.79, 330.39 153.15, 328.57 228.45 M328.57 32 C330.63 98.07, 329.77 164.76, 328.57 228.45 M328.57 228.45 C328.52 248.07, 316.57 260.49, 296.57 260.45 M328.57 228.45 C328.67 248.83, 316.49 259.31, 296.57 260.45 M296.57 260.45 C228.14 260.65, 158.14 263.34, 32 260.45 M296.57 260.45 C201.79 260.81, 105.75 260.39, 32 260.45 M32 260.45 C10.25 261.53, -0.38 249.83, 0 228.45 M32 260.45 C11.21 262.04, -0.28 250.47, 0 228.45 M0 228.45 C2.62 179.07, 2.31 130.21, 0 32 M0 228.45 C0.71 171.99, 0.81 114.2, 0 32 M0 32 C-1.18 11.91, 10.29 -0.62, 32 0 M0 32 C1.87 10.3, 11.61 -0.5, 32 0" stroke="#1e1e1e" stroke-width="1" fill="none"></path></g><g transform="translate(732.6685972494854 342.4556288977107) rotate(0 27.431991577148438 10)"><text x="0" y="0" font-family="Virgil, Segoe UI Emoji" font-size="16px" fill="#1e1e1e" text-anchor="start" style="white-space: pre;" direction="ltr" dominant-baseline="text-before-edge">Devnet</text></g><g stroke-linecap="round" transform="translate(326.583401871598 245.01171875) rotate(0 164.287109375 87.93359375)"><path d="M32 0 M32 0 C112.66 -2.95, 191.94 -0.71, 296.57 0 M32 0 C100.38 0.7, 168.14 -0.62, 296.57 0 M296.57 0 C319.86 -0.27, 327.83 9.6, 328.57 32 M296.57 0 C316.66 0.54, 327.6 10.98, 328.57 32 M328.57 32 C327.38 63.15, 327.47 95.07, 328.57 143.87 M328.57 32 C327.84 62.64, 329.57 94.41, 328.57 143.87 M328.57 143.87 C327.92 165.47, 317.94 175.03, 296.57 175.87 M328.57 143.87 C330.59 164.69, 318.2 174.84, 296.57 175.87 M296.57 175.87 C233.37 176.67, 172.3 176.78, 32 175.87 M296.57 175.87 C218.86 174.79, 139.83 174.88, 32 175.87 M32 175.87 C12.42 177.81, 0.8 166.4, 0 143.87 M32 175.87 C12.17 176.39, -0.1 166.09, 0 143.87 M0 143.87 C-1.25 108.47, -0.27 70.65, 0 32 M0 143.87 C-1.34 104.76, -0.14 65.34, 0 32 M0 32 C1.84 12.07, 12.57 1.06, 32 0 M0 32 C0.07 9.64, 9.68 -0.36, 32 0" stroke="#1e1e1e" stroke-width="1" fill="none"></path></g><g transform="translate(344.099039070429 252.18392243991013) rotate(0 32.303985595703125 10)"><text x="0" y="0" font-family="Virgil, Segoe UI Emoji" font-size="16px" fill="#1e1e1e" text-anchor="start" style="white-space: pre;" direction="ltr" dominant-baseline="text-before-edge">Testnet</text></g><g stroke-linecap="round" transform="translate(327.7016342056498 437.780843376177) rotate(0 164.287109375 87.93359375)"><path d="M32 0 M32 0 C119.54 -1.15, 205.3 0.11, 296.57 0 M32 0 C133.06 -1.53, 232.85 -1.18, 296.57 0 M296.57 0 C317.6 0.86, 329.45 9.87, 328.57 32 M296.57 0 C317.53 0.62, 327.71 9.25, 328.57 32 M328.57 32 C328.28 74.75, 327.31 112.7, 328.57 143.87 M328.57 32 C328.23 67.12, 329.12 101.58, 328.57 143.87 M328.57 143.87 C329.28 163.87, 317.55 176.74, 296.57 175.87 M328.57 143.87 C327.83 164.14, 318.96 174.17, 296.57 175.87 M296.57 175.87 C190.47 176.55, 86.72 176.05, 32 175.87 M296.57 175.87 C238.87 175.54, 181.55 175.92, 32 175.87 M32 175.87 C12.16 175.97, -0.83 165.5, 0 143.87 M32 175.87 C9.1 174.36, -1.99 166.98, 0 143.87 M0 143.87 C-0.35 106.69, 1.49 68.19, 0 32 M0 143.87 C-1.22 105.18, -1.03 64.06, 0 32 M0 32 C-0.41 11.46, 8.67 1.08, 32 0 M0 32 C-0.46 10.13, 12.15 -1.01, 32 0" stroke="#1e1e1e" stroke-width="1" fill="none"></path></g><g transform="translate(340.52190694853886 448.4043052709387) rotate(0 27.431991577148438 10)"><text x="0" y="0" font-family="Virgil, Segoe UI Emoji" font-size="16px" fill="#1e1e1e" text-anchor="start" style="white-space: pre;" direction="ltr" dominant-baseline="text-before-edge">Devnet</text></g><g stroke-linecap="round" transform="translate(544.3339559383064 108.79276571066191) rotate(0 43.5 20.5)"><path d="M9.6 0.62 L80.72 0.5 L86.57 4.41 L85.35 36.85 L82.74 37.67 L78.17 42.01 L4.05 39 L1.88 34.49 L-1.09 10.78 L2.55 2.52 L9.29 1.96" stroke="none" stroke-width="0" fill="#d0bfff"></path><path d="M10.25 0 M10.25 0 C30.66 0.11, 51.49 1.78, 76.75 0 M10.25 0 C26.1 0.94, 41.48 0.22, 76.75 0 M76.75 0 C82.39 1.57, 87.7 2.56, 87 10.25 M76.75 0 C81.8 2.16, 85.78 4.76, 87 10.25 M87 10.25 C85.47 18.04, 86.94 22.92, 87 30.75 M87 10.25 C86.16 18.72, 87.01 25.33, 87 30.75 M87 30.75 C85.71 38.58, 82.32 39.5, 76.75 41 M87 30.75 C85.94 39.01, 81.58 42.48, 76.75 41 M76.75 41 C60.39 40.85, 46.95 39, 10.25 41 M76.75 41 C62.48 41.46, 49.26 41.22, 10.25 41 M10.25 41 C5.03 39.86, -1.91 36.1, 0 30.75 M10.25 41 C5.51 42.3, 0.28 36.56, 0 30.75 M0 30.75 C-1.18 27.97, -1.4 22.55, 0 10.25 M0 30.75 C-0.71 25.32, -0.34 22.16, 0 10.25 M0 10.25 C0.9 1.47, 4.81 0.9, 10.25 0 M0 10.25 C-1.19 4.13, 4.91 -0.4, 10.25 0" stroke="#1e1e1e" stroke-width="1" fill="none"></path></g><g transform="translate(565.9439794368416 116.79276571066191) rotate(0 21.889976501464844 12.5)"><text x="21.889976501464844" y="0" font-family="Virgil, Segoe UI Emoji" font-size="20px" fill="#1e1e1e" text-anchor="middle" style="white-space: pre;" direction="ltr" dominant-baseline="text-before-edge">Pyth</text></g><g stroke-linecap="round" transform="translate(540.132833796665 286.8124442484164) rotate(0 43.5 20.5)"><path d="M9.41 1.54 L83.23 2.59 L85.15 7 L86.7 35.69 L86.22 37.41 L76.55 41.29 L5.53 40.2 L1.6 34.06 L-0.24 10.25 L1.37 4.09 L8.46 0.74" stroke="none" stroke-width="0" fill="#d0bfff"></path><path d="M10.25 0 M10.25 0 C31.06 0.88, 56.88 -0.38, 76.75 0 M10.25 0 C25.09 0.47, 40.63 -0.84, 76.75 0 M76.75 0 C82.17 1.14, 86.28 3.31, 87 10.25 M76.75 0 C84.88 -2.17, 85.51 3.28, 87 10.25 M87 10.25 C87.82 15, 85.31 17.71, 87 30.75 M87 10.25 C86.94 18.7, 87.58 24.78, 87 30.75 M87 30.75 C87.39 39.4, 83.48 42.51, 76.75 41 M87 30.75 C88.2 38.3, 81.9 40.22, 76.75 41 M76.75 41 C48.78 39.75, 22.76 41.29, 10.25 41 M76.75 41 C56.84 40.03, 36.91 41.26, 10.25 41 M10.25 41 C2.84 41.41, 0.79 37.37, 0 30.75 M10.25 41 C3.86 40.78, 0.91 37.6, 0 30.75 M0 30.75 C-0.87 23.45, 0.32 16.8, 0 10.25 M0 30.75 C0.71 23.78, -0.25 18.39, 0 10.25 M0 10.25 C0.9 2.95, 4.85 -0.5, 10.25 0 M0 10.25 C-0.56 4.63, 2.54 0.48, 10.25 0" stroke="#1e1e1e" stroke-width="1" fill="none"></path></g><g transform="translate(561.7428572952001 294.8124442484164) rotate(0 21.889976501464844 12.5)"><text x="21.889976501464844" y="0" font-family="Virgil, Segoe UI Emoji" font-size="20px" fill="#1e1e1e" text-anchor="middle" style="white-space: pre;" direction="ltr" dominant-baseline="text-before-edge">Pyth</text></g><g stroke-linecap="round" transform="translate(755.2350846911438 134.71735512011549) rotate(0 43.5 20.5)"><path d="M11.88 -0.11 L79.5 2.1 L85.02 4.31 L86.64 36.73 L86.09 37.88 L76.93 40.49 L5.75 40.23 L2.32 36.4 L-1.83 9.73 L3.1 4.21 L12.03 -1.63" stroke="none" stroke-width="0" fill="#d0bfff"></path><path d="M10.25 0 M10.25 0 C24.75 -1.82, 39.78 1.26, 76.75 0 M10.25 0 C30.91 0.34, 52.52 0.26, 76.75 0 M76.75 0 C84.05 -1.58, 85.6 5.4, 87 10.25 M76.75 0 C85.04 1.24, 85.27 3.07, 87 10.25 M87 10.25 C88.48 18.18, 85.14 20.85, 87 30.75 M87 10.25 C87.87 17.23, 86.8 25.92, 87 30.75 M87 30.75 C88.04 35.6, 82.61 40.09, 76.75 41 M87 30.75 C89.09 37.46, 85.57 42.6, 76.75 41 M76.75 41 C54.01 41.17, 33.13 38.6, 10.25 41 M76.75 41 C53.47 42.02, 28.91 40.5, 10.25 41 M10.25 41 C3 40.38, -0.74 38.24, 0 30.75 M10.25 41 C1.14 42.07, 2.1 37.39, 0 30.75 M0 30.75 C-1.37 25.78, -0.18 23.46, 0 10.25 M0 30.75 C0.71 25.68, -0.45 20.6, 0 10.25 M0 10.25 C-1.94 2.93, 3.11 0.28, 10.25 0 M0 10.25 C-0.97 2.21, 4.96 1.73, 10.25 0" stroke="#1e1e1e" stroke-width="1" fill="none"></path></g><g transform="translate(776.845108189679 142.71735512011549) rotate(0 21.889976501464844 12.5)"><text x="21.889976501464844" y="0" font-family="Virgil, Segoe UI Emoji" font-size="20px" fill="#1e1e1e" text-anchor="middle" style="white-space: pre;" direction="ltr" dominant-baseline="text-before-edge">Pyth</text></g><g stroke-linecap="round" transform="translate(735.2232998958007 386.2169470348623) rotate(0 66 25)"><path d="M11.23 0.13 L124.69 2.59 L129.79 4.16 L130.3 8.54 L132.66 44.35 L126.18 47.14 L118.48 49.59 L6 50.26 L1.26 45.02 L-1.68 41.37 L-1.53 7.95 L3.98 3.34 L10.69 0.73" stroke="none" stroke-width="0" fill="#d0bfff"></path><path d="M12.5 0 M12.5 0 C53.49 1.44, 98.99 2.53, 119.5 0 M12.5 0 C50.36 0.52, 86.94 0.5, 119.5 0 M119.5 0 C126.27 0.07, 132.18 3.21, 132 12.5 M119.5 0 C125.72 -0.38, 129.77 2.02, 132 12.5 M132 12.5 C130.77 22.62, 134.02 33.42, 132 37.5 M132 12.5 C131.91 19.53, 131.1 25.4, 132 37.5 M132 37.5 C132.03 44.91, 128.26 48.49, 119.5 50 M132 37.5 C129.79 45.9, 129.76 49, 119.5 50 M119.5 50 C91.24 50.39, 62.03 52.74, 12.5 50 M119.5 50 C82.64 48.04, 46.9 48.86, 12.5 50 M12.5 50 C5.02 49.2, -1.05 45.32, 0 37.5 M12.5 50 C3.09 47.75, 0.71 46.68, 0 37.5 M0 37.5 C0.57 30.9, -0.15 24.68, 0 12.5 M0 37.5 C-0.06 29.22, 0 20.72, 0 12.5 M0 12.5 C1.6 4.29, 2.77 1.99, 12.5 0 M0 12.5 C0.83 4.56, 3.9 0.97, 12.5 0" stroke="#1e1e1e" stroke-width="1" fill="none"></path></g><g transform="translate(754.751322661914 391.2169470348623) rotate(0 46.47197723388672 20)"><text x="46.47197723388672" y="0" font-family="Virgil, Segoe UI Emoji" font-size="16px" fill="#1e1e1e" text-anchor="middle" style="white-space: pre;" direction="ltr" dominant-baseline="text-before-edge">Pythtest-</text><text x="46.47197723388672" y="20" font-family="Virgil, Segoe UI Emoji" font-size="16px" fill="#1e1e1e" text-anchor="middle" style="white-space: pre;" direction="ltr" dominant-baseline="text-before-edge">conformance</text></g><g stroke-linecap="round" transform="translate(743.8772666412112 454.7299562947213) rotate(0 64.5 25)"><path d="M10.98 -1.52 L122.58 2.16 L127.23 6.02 L128.99 10.44 L128.71 43.57 L125.21 47.36 L114.76 51.78 L8.6 47.56 L4.14 45.59 L0.46 39.28 L0.02 10.08 L1.34 4.2 L11.7 1.38" stroke="none" stroke-width="0" fill="#d0bfff"></path><path d="M12.5 0 M12.5 0 C46.99 0.65, 84.99 1.18, 116.5 0 M12.5 0 C37.13 -1.32, 60.87 -1.5, 116.5 0 M116.5 0 C126.43 -1.91, 127.09 2.99, 129 12.5 M116.5 0 C125.45 2.01, 129.46 5.56, 129 12.5 M129 12.5 C127.9 20.81, 129.94 28.2, 129 37.5 M129 12.5 C129.23 20.23, 128.77 29.29, 129 37.5 M129 37.5 C129.4 44.89, 124.65 49.3, 116.5 50 M129 37.5 C130.88 45.96, 123.33 48.42, 116.5 50 M116.5 50 C94.49 51.98, 70.54 48.99, 12.5 50 M116.5 50 C83.9 51.3, 49.42 50.31, 12.5 50 M12.5 50 C5.92 50.69, -0.54 46.82, 0 37.5 M12.5 50 C6.32 49.7, -1.21 46.08, 0 37.5 M0 37.5 C0.51 30.36, -0.43 23.42, 0 12.5 M0 37.5 C0.46 30.43, 1.19 21.67, 0 12.5 M0 12.5 C-1.37 5.36, 3.68 1.01, 12.5 0 M0 12.5 C-0.15 3.16, 4.67 -2, 12.5 0" stroke="#1e1e1e" stroke-width="1" fill="none"></path></g><g transform="translate(769.0092933135745 459.7299562947213) rotate(0 39.36797332763672 20)"><text x="39.36797332763672" y="0" font-family="Virgil, Segoe UI Emoji" font-size="16px" fill="#1e1e1e" text-anchor="middle" style="white-space: pre;" direction="ltr" dominant-baseline="text-before-edge">Pythtest-</text><text x="39.36797332763672" y="20" font-family="Virgil, Segoe UI Emoji" font-size="16px" fill="#1e1e1e" text-anchor="middle" style="white-space: pre;" direction="ltr" dominant-baseline="text-before-edge">crosschain</text></g><g stroke-linecap="round" transform="translate(367.9171159962471 542.1848851906433) rotate(0 47.5 30)"><path d="M16.93 1.22 L81.52 -1.85 L90.58 3.97 L93.01 4.48 L94.93 9.68 L94.48 46.66 L93.43 53.39 L90.63 56.01 L81.39 60.17 L14.41 61.9 L5.82 58.07 L2.05 54.19 L2.11 49.1 L1.4 10.15 L2.96 2.56 L7.05 1.91 L15.39 -1.64" stroke="none" stroke-width="0" fill="#eaddd7"></path><path d="M15 0 M15 0 C30.61 -0.95, 47.49 -1.91, 80 0 M15 0 C40.64 0.55, 67.37 0.59, 80 0 M80 0 C89.03 1.21, 96.88 5.64, 95 15 M80 0 C90.63 1.44, 95.96 6.95, 95 15 M95 15 C94.47 26.01, 93.44 38.32, 95 45 M95 15 C95.54 21.35, 94.61 26.68, 95 45 M95 45 C95.11 53.73, 88.96 59.09, 80 60 M95 45 C93.96 55.22, 88.6 61.64, 80 60 M80 60 C52.51 60.45, 29.13 61.03, 15 60 M80 60 C63.64 61, 48.19 59.58, 15 60 M15 60 C6.47 61.63, 1.43 56.11, 0 45 M15 60 C6.98 59.68, -1.44 53.77, 0 45 M0 45 C1.07 32.65, 0.76 20.56, 0 15 M0 45 C-0.17 36.16, 0.17 26.58, 0 15 M0 15 C0.26 3.43, 3.55 0.58, 15 0 M0 15 C-1.91 4.45, 7.17 -2.18, 15 0" stroke="#1e1e1e" stroke-width="1" fill="none"></path></g><g transform="translate(380.0491426686104 552.1848851906433) rotate(0 35.36797332763672 20)"><text x="35.36797332763672" y="0" font-family="Virgil, Segoe UI Emoji" font-size="16px" fill="#1e1e1e" text-anchor="middle" style="white-space: pre;" direction="ltr" dominant-baseline="text-before-edge">Upgrade </text><text x="35.36797332763672" y="20" font-family="Virgil, Segoe UI Emoji" font-size="16px" fill="#1e1e1e" text-anchor="middle" style="white-space: pre;" direction="ltr" dominant-baseline="text-before-edge">Multisig</text></g><g stroke-linecap="round" transform="translate(530.7735010834961 551.522223081078) rotate(0 50.5 18.5)"><path d="M11.16 -0.25 L96.77 2.23 L99.5 6.97 L100.5 30.55 L100.54 36.66 L93.11 38.29 L7.16 35.29 L-0.93 30.83 L0.53 9.29 L3.86 2.2 L7.34 0.15" stroke="none" stroke-width="0" fill="#e9ecef"></path><path d="M9.25 0 M9.25 0 C28.91 -0.46, 51.46 1.12, 91.75 0 M9.25 0 C31.19 0.18, 54.38 0.07, 91.75 0 M91.75 0 C98.09 -0.03, 99.94 4.1, 101 9.25 M91.75 0 C97.82 -0.82, 100.98 2.19, 101 9.25 M101 9.25 C99.31 16.96, 99.23 21.95, 101 27.75 M101 9.25 C101.77 14.64, 100.35 18.95, 101 27.75 M101 27.75 C99.05 35.65, 97.01 37.8, 91.75 37 M101 27.75 C103.01 35.82, 99 38.08, 91.75 37 M91.75 37 C68.44 35.97, 43.73 38.44, 9.25 37 M91.75 37 C69.61 36.98, 47.81 37.09, 9.25 37 M9.25 37 C1.33 36.94, 0.06 35.38, 0 27.75 M9.25 37 C2.71 36.99, 1.97 33.55, 0 27.75 M0 27.75 C0.84 21.9, -0.05 17.29, 0 9.25 M0 27.75 C-0.35 21.98, 0.42 15.95, 0 9.25 M0 9.25 C-1.39 2.68, 3.96 1.32, 9.25 0 M0 9.25 C0.51 3.49, 4.63 1.92, 9.25 0" stroke="#1e1e1e" stroke-width="1" fill="none"></path></g><g transform="translate(539.0635401459961 557.522223081078) rotate(0 42.2099609375 12.5)"><text x="42.2099609375" y="0" font-family="Virgil, Segoe UI Emoji" font-size="20px" fill="#1e1e1e" text-anchor="middle" style="white-space: pre;" direction="ltr" dominant-baseline="text-before-edge">Wormhole</text></g><g stroke-linecap="round" transform="translate(536.0674365816287 363.8225447294319) rotate(0 50.5 18.5)"><path d="M9.03 -1.77 L97.03 0.1 L100.27 4.31 L101.35 29.9 L98.3 34.36 L90.41 37.18 L5.49 34.8 L0.52 30.44 L-1.84 9.33 L0.67 2.12 L7.88 -1.94" stroke="none" stroke-width="0" fill="#e9ecef"></path><path d="M9.25 0 M9.25 0 C40.59 2.22, 70.56 -0.81, 91.75 0 M9.25 0 C41.9 -1.57, 73.85 -1.21, 91.75 0 M91.75 0 C98.7 0.19, 99.13 4.8, 101 9.25 M91.75 0 C99.65 0.84, 99 1.34, 101 9.25 M101 9.25 C102.57 16.7, 100.34 22.31, 101 27.75 M101 9.25 C101.03 15.26, 101.96 21.16, 101 27.75 M101 27.75 C101.4 32.95, 97.81 38.76, 91.75 37 M101 27.75 C103.07 32.66, 97.93 37.56, 91.75 37 M91.75 37 C70.12 37.72, 53.46 37.23, 9.25 37 M91.75 37 C67.03 35.84, 41.62 36.23, 9.25 37 M9.25 37 C1.98 37.55, 1.42 35.66, 0 27.75 M9.25 37 C2.51 35.43, 1.06 33.51, 0 27.75 M0 27.75 C-1.37 21.35, -0.54 18.15, 0 9.25 M0 27.75 C0.5 23.08, -0.28 17.81, 0 9.25 M0 9.25 C-1.07 2.02, 1.13 -1.78, 9.25 0 M0 9.25 C1.21 2.37, 1.89 1.04, 9.25 0" stroke="#1e1e1e" stroke-width="1" fill="none"></path></g><g transform="translate(544.3574756441287 369.8225447294319) rotate(0 42.2099609375 12.5)"><text x="42.2099609375" y="0" font-family="Virgil, Segoe UI Emoji" font-size="20px" fill="#1e1e1e" text-anchor="middle" style="white-space: pre;" direction="ltr" dominant-baseline="text-before-edge">Wormhole</text></g><g stroke-linecap="round" transform="translate(535.410250887531 166.96029677867784) rotate(0 50.5 18.5)"><path d="M8.09 -1.09 L94.98 1.89 L101.03 3.84 L101.91 30.84 L96.87 36.07 L89.91 38.02 L4.47 38.05 L-0.56 32.82 L1.01 8.2 L3.99 1.25 L9.18 0.04" stroke="none" stroke-width="0" fill="#e9ecef"></path><path d="M9.25 0 M9.25 0 C30.94 -0.81, 49.78 -0.33, 91.75 0 M9.25 0 C31.82 0.38, 57.13 0.16, 91.75 0 M91.75 0 C99.22 -0.13, 101.7 2.67, 101 9.25 M91.75 0 C99.46 0.25, 99.43 2.77, 101 9.25 M101 9.25 C100.73 17.41, 100.82 22.7, 101 27.75 M101 9.25 C101.36 15.04, 100.89 19.18, 101 27.75 M101 27.75 C99.13 32.04, 96.72 36.09, 91.75 37 M101 27.75 C100.59 31.67, 95.7 38.31, 91.75 37 M91.75 37 C67.73 36.74, 41.29 35.63, 9.25 37 M91.75 37 C58.73 37.26, 27.07 36.23, 9.25 37 M9.25 37 C2.02 36.91, 1.9 33.98, 0 27.75 M9.25 37 C3.9 39.22, -1.72 32.95, 0 27.75 M0 27.75 C0 22.58, 0.18 17.37, 0 9.25 M0 27.75 C1 23.66, 0.65 19.31, 0 9.25 M0 9.25 C1.07 1.8, 3.6 1.3, 9.25 0 M0 9.25 C-1.39 1.25, 1.31 0.57, 9.25 0" stroke="#1e1e1e" stroke-width="1" fill="none"></path></g><g transform="translate(543.700289950031 172.96029677867784) rotate(0 42.2099609375 12.5)"><text x="42.2099609375" y="0" font-family="Virgil, Segoe UI Emoji" font-size="20px" fill="#1e1e1e" text-anchor="middle" style="white-space: pre;" direction="ltr" dominant-baseline="text-before-edge">Wormhole</text></g><g stroke-linecap="round" transform="translate(367.3601077143804 471.6658134801944) rotate(0 47.5 30)"><path d="M13.8 -0.75 L80.78 0.39 L87.94 2.35 L94.57 5.96 L92.85 11.55 L96.7 45.86 L91.31 53.8 L88.68 57.8 L80.96 59.09 L15.32 58.6 L6.12 57.4 L3.66 54.53 L-1.46 49.66 L-0.61 12.29 L2.21 5.09 L9.9 2.41 L14.51 0.51" stroke="none" stroke-width="0" fill="#eaddd7"></path><path d="M15 0 M15 0 C32.14 -0.99, 49.48 -0.07, 80 0 M15 0 C38.26 0.72, 59.82 0.73, 80 0 M80 0 C89.56 -0.08, 94.55 5.39, 95 15 M80 0 C87.76 0.84, 94.72 2.84, 95 15 M95 15 C93.17 27.54, 95 36.92, 95 45 M95 15 C94.44 21.71, 95.01 29.4, 95 45 M95 45 C93.27 53.38, 89.01 58.7, 80 60 M95 45 C95.31 53.14, 92.03 62.06, 80 60 M80 60 C63.31 61.08, 48.69 60.45, 15 60 M80 60 C64.8 60.28, 47.96 59.03, 15 60 M15 60 C3.25 60.44, 1.78 53.03, 0 45 M15 60 C4.54 57.83, -2.14 54.48, 0 45 M0 45 C0.51 34.01, 0.19 25.34, 0 15 M0 45 C0 38.45, 0.04 30.89, 0 15 M0 15 C1.19 5.76, 4.71 1.33, 15 0 M0 15 C0.72 6.85, 3.58 0.31, 15 0" stroke="#1e1e1e" stroke-width="1" fill="none"></path></g><g transform="translate(374.79613524123585 481.6658134801944) rotate(0 40.06397247314453 20)"><text x="40.06397247314453" y="0" font-family="Virgil, Segoe UI Emoji" font-size="16px" fill="#1e1e1e" text-anchor="middle" style="white-space: pre;" direction="ltr" dominant-baseline="text-before-edge">Pricefeed </text><text x="40.06397247314453" y="20" font-family="Virgil, Segoe UI Emoji" font-size="16px" fill="#1e1e1e" text-anchor="middle" style="white-space: pre;" direction="ltr" dominant-baseline="text-before-edge">Multisig</text></g><g stroke-linecap="round" transform="translate(367.4402161740769 350.67635063121867) rotate(0 47.49999999999997 29.99999999999997)"><path d="M13.79 0.01 L79.98 1.96 L90.53 3.28 L93.85 4.31 L93.15 11.15 L93.93 45.95 L92.13 54.07 L88.29 58.73 L79.52 61.8 L13.01 59.92 L4.76 56.43 L3.05 54.54 L-0.63 47.32 L0.76 10.36 L1.81 4.41 L6.83 1.31 L14.64 1.57" stroke="none" stroke-width="0" fill="#eaddd7"></path><path d="M15 0 M15 0 C32.57 1.07, 47.85 1, 80 0 M15 0 C33.33 -1.19, 50.54 -0.84, 80 0 M80 0 C90.55 0.41, 95.21 6.24, 95 15 M80 0 C89.76 2.16, 94.57 6.12, 95 15 M95 15 C93.04 25.66, 95.18 35.1, 95 45 M95 15 C95.55 26.29, 95.94 35.83, 95 45 M95 45 C94.14 54.8, 91.55 61.75, 80 60 M95 45 C96.91 54.83, 91.52 61.75, 80 60 M80 60 C61.64 58.14, 44.93 61.36, 15 60 M80 60 C60.15 60.49, 40.97 59.83, 15 60 M15 60 C6.35 61.01, -1.56 54.91, 0 45 M15 60 C2.83 58.03, 1.15 55.06, 0 45 M0 45 C-0.83 37.01, -0.56 31.74, 0 15 M0 45 C0.75 34.11, 0.25 22.79, 0 15 M0 15 C0.62 4.99, 5.44 1.56, 15 0 M0 15 C-0.9 4.47, 4.7 -0.05, 15 0" stroke="#1e1e1e" stroke-width="1" fill="none"></path></g><g transform="translate(379.5722428464402 360.67635063121884) rotate(0 35.36797332763669 20)"><text x="35.36797332763672" y="0" font-family="Virgil, Segoe UI Emoji" font-size="16px" fill="#1e1e1e" text-anchor="middle" style="white-space: pre;" direction="ltr" dominant-baseline="text-before-edge">Upgrade </text><text x="35.36797332763672" y="20" font-family="Virgil, Segoe UI Emoji" font-size="16px" fill="#1e1e1e" text-anchor="middle" style="white-space: pre;" direction="ltr" dominant-baseline="text-before-edge">Multisig</text></g><g stroke-linecap="round" transform="translate(366.8832078922102 280.1572789207697) rotate(0 47.49999999999997 30)"><path d="M16.39 1.17 L80.96 -1.54 L87.52 1.78 L91.82 6.81 L94 11.41 L94.15 45.84 L92.41 55.94 L87.15 57.81 L78.9 58.54 L15.94 60.4 L4.99 56.7 L2.63 53.01 L-1.7 49.17 L-1.38 11.86 L3.39 5.32 L7.72 1.26 L14.9 0.41" stroke="none" stroke-width="0" fill="#eaddd7"></path><path d="M15 0 M15 0 C37.33 0.26, 61.98 0.77, 80 0 M15 0 C29.7 0.48, 43.96 0.89, 80 0 M80 0 C89.79 1.88, 94.63 5.97, 95 15 M80 0 C91.5 -1.43, 94.41 2.97, 95 15 M95 15 C96.32 23.21, 94.47 33.3, 95 45 M95 15 C94.87 25.05, 96.07 36.18, 95 45 M95 45 C96.66 54.85, 91.32 61.52, 80 60 M95 45 C94.48 53.65, 88.14 59.63, 80 60 M80 60 C64.81 62.58, 48.78 59.71, 15 60 M80 60 C56.11 60.58, 30.1 60.03, 15 60 M15 60 C3.11 58.29, 1 55.05, 0 45 M15 60 C3.74 58.6, -1.7 53.84, 0 45 M0 45 C1.57 36.17, 2.03 30.2, 0 15 M0 45 C0.27 35.07, 0.18 25.94, 0 15 M0 15 C-0.78 4.54, 4.74 -0.04, 15 0 M0 15 C-0.17 6.88, 3.02 -0.75, 15 0" stroke="#1e1e1e" stroke-width="1" fill="none"></path></g><g transform="translate(374.31923541906565 290.1572789207697) rotate(0 40.0639724731445 20)"><text x="40.06397247314453" y="0" font-family="Virgil, Segoe UI Emoji" font-size="16px" fill="#1e1e1e" text-anchor="middle" style="white-space: pre;" direction="ltr" dominant-baseline="text-before-edge">Pricefeed </text><text x="40.06397247314453" y="20" font-family="Virgil, Segoe UI Emoji" font-size="16px" fill="#1e1e1e" text-anchor="middle" style="white-space: pre;" direction="ltr" dominant-baseline="text-before-edge">Multisig</text></g><g stroke-linecap="round" transform="translate(363.24084092122735 164.5729351442119) rotate(0 47.50000000000003 30)"><path d="M13.57 -0.58 L80.4 -0.84 L89.7 1.51 L94.73 7.05 L94.17 11.4 L96.91 44.05 L91.62 52.19 L90.31 56 L81.58 61.99 L13.62 59.84 L6.25 58.89 L3.75 53.95 L-0.77 47.96 L0.28 13.18 L2.4 2.55 L8.47 0.18 L15.02 -0.4" stroke="none" stroke-width="0" fill="#eaddd7"></path><path d="M15 0 M15 0 C28.19 -0.78, 41.21 -0.82, 80 0 M15 0 C31.04 0.05, 48.06 -1.04, 80 0 M80 0 C88.99 0.66, 96.28 6.96, 95 15 M80 0 C92.3 1.49, 94.77 4.56, 95 15 M95 15 C94.81 21.39, 92.95 27.06, 95 45 M95 15 C95.9 24.89, 95.92 36.98, 95 45 M95 45 C93.35 54.61, 90 61.18, 80 60 M95 45 C94.33 52.92, 89.76 61.46, 80 60 M80 60 C58.57 57.85, 38.07 59.82, 15 60 M80 60 C58.1 60.15, 38.05 59.68, 15 60 M15 60 C5.28 60.87, 0.45 53.75, 0 45 M15 60 C7.27 60.73, 0.32 52.86, 0 45 M0 45 C-0.95 37.9, 1.21 25.89, 0 15 M0 45 C0.03 38.63, 0.89 31.65, 0 15 M0 15 C-1.82 5.62, 4.68 1.68, 15 0 M0 15 C1.11 6, 4.25 0.15, 15 0" stroke="#1e1e1e" stroke-width="1" fill="none"></path></g><g transform="translate(375.3728675935907 174.5729351442119) rotate(0 35.36797332763672 20)"><text x="35.36797332763672" y="0" font-family="Virgil, Segoe UI Emoji" font-size="16px" fill="#1e1e1e" text-anchor="middle" style="white-space: pre;" direction="ltr" dominant-baseline="text-before-edge">Upgrade </text><text x="35.36797332763672" y="20" font-family="Virgil, Segoe UI Emoji" font-size="16px" fill="#1e1e1e" text-anchor="middle" style="white-space: pre;" direction="ltr" dominant-baseline="text-before-edge">Multisig</text></g><g stroke-linecap="round" transform="translate(362.6838326393606 94.34444151614764) rotate(0 47.50000000000003 30)"><path d="M15.56 -0.6 L81.84 1.19 L88.54 2.02 L94.8 4.91 L93.5 9.53 L96.17 43.1 L94.47 56.13 L87.76 57.73 L80.39 61 L16.65 59.81 L4.85 57.34 L2.16 55.84 L-1.11 47.31 L0.27 10.73 L3.77 3.35 L6.65 -0.76 L16.17 -0.51" stroke="none" stroke-width="0" fill="#eaddd7"></path><path d="M15 0 M15 0 C32.43 -0.24, 52.24 -1.78, 80 0 M15 0 C36.09 0.83, 58.83 1.48, 80 0 M80 0 C92 1.3, 94.8 4.62, 95 15 M80 0 C87.93 -0.37, 93.52 4.84, 95 15 M95 15 C95.89 23.71, 96.28 35.19, 95 45 M95 15 C94.47 21.12, 95.3 28.22, 95 45 M95 45 C94.42 53.19, 89.79 61.27, 80 60 M95 45 C95.25 55.94, 88.7 58.59, 80 60 M80 60 C66.72 59.39, 52.78 58.13, 15 60 M80 60 C60.14 60.18, 40.23 59.12, 15 60 M15 60 C6.98 60.63, 0.28 53.14, 0 45 M15 60 C4.68 58.39, -1.34 53.66, 0 45 M0 45 C-1.77 34.42, -0.97 22.8, 0 15 M0 45 C-1.21 35.71, -0.45 26.64, 0 15 M0 15 C0.97 5.87, 4.35 0.13, 15 0 M0 15 C0.19 3.91, 4.98 -1.57, 15 0" stroke="#1e1e1e" stroke-width="1" fill="none"></path></g><g transform="translate(370.11986016621614 104.34444151614764) rotate(0 40.06397247314453 20)"><text x="40.06397247314453" y="0" font-family="Virgil, Segoe UI Emoji" font-size="16px" fill="#1e1e1e" text-anchor="middle" style="white-space: pre;" direction="ltr" dominant-baseline="text-before-edge">Pricefeed </text><text x="40.06397247314453" y="20" font-family="Virgil, Segoe UI Emoji" font-size="16px" fill="#1e1e1e" text-anchor="middle" style="white-space: pre;" direction="ltr" dominant-baseline="text-before-edge">Multisig</text></g><g stroke-linecap="round"><g transform="translate(474.3209466784472 522.9970606302859) rotate(0 32.867054464707564 11.931331727275051)"><path d="M-0.59 1.1 C10.21 5.01, 53.17 19.66, 64.05 23.23 M1.3 0.64 C12.55 4.24, 55.9 18.36, 66.33 21.65" stroke="#1971c2" stroke-width="1" fill="none"></path></g><g transform="translate(474.3209466784472 522.9970606302859) rotate(0 32.867054464707564 11.931331727275051)"><path d="M67.49 22.79 L51.46 24.06 L56.29 12.84 L64.59 21.44" stroke="none" stroke-width="0" fill="#1971c2" fill-rule="evenodd"></path><path d="M67.71 20.61 C64.12 21.83, 59.73 21.94, 51.88 23.54 M65.61 21.23 C60.81 22.68, 56.08 22.26, 50.81 23.81 M51.57 23.9 C52.33 20.88, 52.75 15.78, 56.55 12.55 M51.83 23.91 C52.58 18.96, 54 15.4, 55 11.31 M55.88 11.26 C60.35 14.43, 63.44 20.6, 65.2 22.98 M55.43 11.71 C58.9 14.05, 62.84 18.66, 66.66 22.33 M66.33 21.65 C66.33 21.65, 66.33 21.65, 66.33 21.65 M66.33 21.65 C66.33 21.65, 66.33 21.65, 66.33 21.65" stroke="#1971c2" stroke-width="1" fill="none"></path></g></g><mask></mask><g stroke-linecap="round"><g transform="translate(632.7735010834961 561.5316375839944) rotate(0 50.29678614482151 -77.91113420120604)"><path d="M-0.06 -1.16 C17.14 -27.11, 85.23 -129.22, 102.15 -154.9 M-1.55 0.84 C15.64 -25.51, 84.52 -130.89, 101.56 -156.67" stroke="#1971c2" stroke-width="1" fill="none"></path></g><g transform="translate(632.7735010834961 561.5316375839944) rotate(0 50.29678614482151 -77.91113420120604)"><path d="M103.04 -156.5 L97.85 -142.56 L89.55 -150.57 L102.41 -157.24" stroke="none" stroke-width="0" fill="#1971c2" fill-rule="evenodd"></path><path d="M100.11 -155.8 C102.06 -153.51, 101.14 -149.65, 100.43 -143.13 M101.72 -156.19 C100.63 -151.78, 101.01 -148.27, 99.8 -141.43 M99.38 -141.01 C96.96 -144.05, 93.23 -147.06, 87.66 -147.88 M99.23 -142.46 C96.27 -144.47, 92.88 -146.27, 88.21 -148.98 M89.76 -149.04 C92.53 -152.11, 94.47 -152.29, 102.65 -156.05 M88.75 -149.06 C93.19 -151.05, 97.54 -154.17, 101.48 -157.09 M101.56 -156.67 C101.56 -156.67, 101.56 -156.67, 101.56 -156.67 M101.56 -156.67 C101.56 -156.67, 101.56 -156.67, 101.56 -156.67" stroke="#1971c2" stroke-width="1" fill="none"></path></g></g><mask></mask><g stroke-linecap="round"><g transform="translate(632.7735010834961 560.0110985581022) rotate(0 55.54866366355202 -31.047828606754365)"><path d="M0.95 -0.81 C19.49 -11.47, 92.88 -53.15, 111.11 -63.47 M-0.01 1.37 C18.47 -9.11, 92.4 -50.87, 110.69 -61.86" stroke="#1971c2" stroke-width="1" fill="none"></path></g><g transform="translate(632.7735010834961 560.0110985581022) rotate(0 55.54866366355202 -31.047828606754365)"><path d="M109.26 -62.69 L102.06 -49.78 L95.83 -59.85 L108.97 -60.14" stroke="none" stroke-width="0" fill="#1971c2" fill-rule="evenodd"></path><path d="M109.67 -60.61 C108.42 -57.94, 106.89 -53.92, 101.47 -48.89 M110.39 -62.1 C108.58 -58.9, 106.44 -56.1, 101.82 -50.04 M102.04 -50.74 C101.12 -53.64, 96.4 -57.43, 96.34 -59.65 M101.57 -49.98 C99.54 -54.24, 97.9 -57.97, 96.38 -60.58 M96.31 -59.32 C99.96 -60.77, 100.78 -60.3, 110.27 -63.11 M96.31 -60.35 C98.93 -60.29, 102.73 -60.73, 110.78 -61.35 M110.69 -61.86 C110.69 -61.86, 110.69 -61.86, 110.69 -61.86 M110.69 -61.86 C110.69 -61.86, 110.69 -61.86, 110.69 -61.86" stroke="#1971c2" stroke-width="1" fill="none"></path></g></g><mask></mask><g stroke-linecap="round"><g transform="translate(468.8955931507134 118.75482231797378) rotate(0 28.481800004801812 24.809166449485076)"><path d="M-0.43 1.12 C9.2 9.15, 47.98 41.03, 57.4 48.95 M1.54 0.67 C11.1 8.31, 47.21 39.71, 56.7 47.37" stroke="#1971c2" stroke-width="1" fill="none"></path></g><g transform="translate(468.8955931507134 118.75482231797378) rotate(0 28.481800004801812 24.809166449485076)"><path d="M58.49 46.04 L43.18 44.23 L50.74 33.15 L58.61 45.85" stroke="none" stroke-width="0" fill="#1971c2" fill-rule="evenodd"></path><path d="M58.11 47.98 C54.15 45.2, 49.93 44.73, 41.59 42.78 M56.52 47.02 C53.73 46.53, 50.07 44.83, 42.39 43.24 M41.02 42.68 C44.99 40.59, 47.05 36.57, 51.47 33.47 M41.85 44.08 C44.1 41.11, 46.53 38.34, 50.09 33.82 M50.37 33.02 C52.13 37.76, 56.6 43.81, 56.56 46.04 M49.69 33.3 C52.94 38.38, 54.74 41.67, 57.01 47.09 M56.7 47.37 C56.7 47.37, 56.7 47.37, 56.7 47.37 M56.7 47.37 C56.7 47.37, 56.7 47.37, 56.7 47.37" stroke="#1971c2" stroke-width="1" fill="none"></path></g></g><mask></mask><g stroke-linecap="round"><g transform="translate(470.0415120988259 118.98128822913617) rotate(0 32.03995639704374 -1.2590125704091406)"><path d="M-0.59 -0.42 C10.08 -0.79, 53.8 -1.81, 64.67 -2.09 M1.3 -1.69 C11.77 -1.89, 53.32 -0.83, 63.75 -0.71" stroke="#1971c2" stroke-width="1" fill="none"></path></g><g transform="translate(470.0415120988259 118.98128822913617) rotate(0 32.03995639704374 -1.2590125704091406)"><path d="M64.37 -2.68 L51.34 4.36 L50.09 -5.34 L62.34 -2.63" stroke="none" stroke-width="0" fill="#1971c2" fill-rule="evenodd"></path><path d="M63.22 -0.65 C58.59 1.39, 53.75 3.89, 49.94 4.47 M64.04 -0.26 C61.21 0.55, 57.42 2.73, 49.92 5.92 M50.29 4.47 C51.3 2.29, 50.68 -0.6, 49.31 -7.01 M50.57 5.24 C50.43 0.87, 50.48 -3.71, 50.06 -7.45 M51.26 -8.53 C54.64 -6.48, 55.84 -3.64, 65.22 -1.72 M50.43 -7.71 C53.52 -6.11, 56.96 -4.23, 63.59 -0.95 M63.75 -0.71 C63.75 -0.71, 63.75 -0.71, 63.75 -0.71 M63.75 -0.71 C63.75 -0.71, 63.75 -0.71, 63.75 -0.71" stroke="#1971c2" stroke-width="1" fill="none"></path></g></g><mask></mask><g stroke-linecap="round"><g transform="translate(647.0765916559592 186.7315219404373) rotate(0 47.76599452524442 -14.297681968802152)"><path d="M0.78 1.19 C16.55 -3.73, 80.2 -24.73, 95.8 -29.78 M-0.27 0.77 C15.29 -3.92, 78.98 -22.91, 95.17 -28.23" stroke="#1971c2" stroke-width="1" fill="none"></path></g><g transform="translate(647.0765916559592 186.7315219404373) rotate(0 47.76599452524442 -14.297681968802152)"><path d="M96.41 -26.58 L86.02 -18.71 L79.27 -28.82 L97.04 -26.36" stroke="none" stroke-width="0" fill="#1971c2" fill-rule="evenodd"></path><path d="M96.65 -27.49 C90.75 -25.13, 87.09 -20.46, 84.42 -18.41 M95.63 -28.02 C91.67 -24.99, 86.88 -20.96, 83.96 -17.95 M83.07 -18.87 C82.06 -22.96, 81.78 -27.55, 79.49 -30.44 M84.38 -18.12 C82.95 -23.47, 81.62 -27.51, 80.68 -29.86 M80.55 -30.22 C82.13 -30.76, 87.13 -30.33, 93.79 -27.44 M80.21 -30.09 C86.64 -28.72, 92.07 -28.69, 94.73 -27.56 M95.17 -28.23 C95.17 -28.23, 95.17 -28.23, 95.17 -28.23 M95.17 -28.23 C95.17 -28.23, 95.17 -28.23, 95.17 -28.23" stroke="#1971c2" stroke-width="1" fill="none"></path></g></g><mask></mask><g stroke-linecap="round"><g transform="translate(466.7473171416203 198.5505821125726) rotate(0 29.15875296706821 -4.408448137130421)"><path d="M0.96 0.72 C10.55 -0.94, 48.94 -7.94, 58.32 -9.54 M0 0.06 C9.39 -1.52, 47.58 -7.18, 57.52 -8.47" stroke="#e03131" stroke-width="1" fill="none"></path></g><g transform="translate(466.7473171416203 198.5505821125726) rotate(0 29.15875296706821 -4.408448137130421)"><path d="M57.71 -6.67 L46.89 -0.9 L44.67 -14.75 L57.23 -8.98" stroke="none" stroke-width="0" fill="#e03131" fill-rule="evenodd"></path><path d="M58.43 -8.1 C51.85 -6.39, 48.08 -1.19, 45.91 0.36 M58.15 -8.29 C53.54 -5.47, 50.53 -3.71, 45.19 -0.65 M45.47 -1.39 C43.77 -3.97, 45.12 -7.67, 44.22 -13.11 M44.65 -0.38 C45.02 -3.63, 44.04 -5.94, 42.99 -12.75 M44.03 -12.93 C49.41 -10.49, 55.11 -10.19, 56.74 -9.36 M42.55 -12.84 C48.65 -10.68, 54.48 -9.51, 57.94 -8.53 M57.52 -8.47 C57.52 -8.47, 57.52 -8.47, 57.52 -8.47 M57.52 -8.47 C57.52 -8.47, 57.52 -8.47, 57.52 -8.47" stroke="#e03131" stroke-width="1" fill="none"></path></g></g><mask></mask><g stroke-linecap="round"><g transform="translate(472.16467257640437 580.7346768220524) rotate(0 25.22435290861864 -3.769774451580929)"><path d="M-1.06 -0.42 C7.23 -1.59, 40.85 -6.21, 49.22 -7.12 M0.59 -1.69 C9.3 -2.65, 43 -4.65, 51.51 -5.62" stroke="#e03131" stroke-width="1" fill="none"></path></g><g transform="translate(472.16467257640437 580.7346768220524) rotate(0 25.22435290861864 -3.769774451580929)"><path d="M49.85 -6.65 L36.8 1.91 L37.24 -10.76 L52.43 -6.99" stroke="none" stroke-width="0" fill="#e03131" fill-rule="evenodd"></path><path d="M50.98 -6.64 C48.04 -4.88, 46.28 -0.4, 37.97 0.63 M51.86 -4.93 C47.91 -2.91, 44.31 -1.24, 37.89 2.3 M37.61 1.87 C38.73 -1.49, 38.83 -7.92, 37.9 -10.64 M38.86 1.72 C37.52 -2.75, 37.69 -7.83, 37.33 -11.13 M36.94 -10.39 C41.3 -8.41, 43.84 -10.06, 50.12 -6.88 M38.05 -10.75 C41.76 -9.71, 44.97 -7.41, 50.96 -4.96 M51.51 -5.62 C51.51 -5.62, 51.51 -5.62, 51.51 -5.62 M51.51 -5.62 C51.51 -5.62, 51.51 -5.62, 51.51 -5.62" stroke="#e03131" stroke-width="1" fill="none"></path></g></g><mask></mask><g stroke-linecap="round" transform="translate(914.5071985411707 140.63566982454597) rotate(0 50.5 18.5)"><path d="M10.39 1.79 L96.37 0.81 L99.75 7 L99.44 32.96 L98.42 33.88 L92.93 37.76 L7.14 35 L1.17 30.75 L-1.05 10.92 L1.53 4.06 L8.43 1.28" stroke="none" stroke-width="0" fill="#e9ecef"></path><path d="M9.25 0 M9.25 0 C39.11 -0.24, 70 -0.24, 91.75 0 M9.25 0 C37.04 0.14, 64.06 0.49, 91.75 0 M91.75 0 C97.54 1.14, 102.34 4.52, 101 9.25 M91.75 0 C99.36 -0.43, 99.87 2.15, 101 9.25 M101 9.25 C99.39 15.22, 102.85 20.87, 101 27.75 M101 9.25 C101.57 15.58, 101.75 22.04, 101 27.75 M101 27.75 C99.5 34.83, 97.38 35.13, 91.75 37 M101 27.75 C100.57 33.34, 95.79 36.05, 91.75 37 M91.75 37 C70.38 34.61, 49.5 36.04, 9.25 37 M91.75 37 C72.08 35.37, 53.29 35.46, 9.25 37 M9.25 37 C3.86 38.65, -0.64 34.05, 0 27.75 M9.25 37 C2.39 36.03, -0.84 32.63, 0 27.75 M0 27.75 C0.52 23.07, 1.27 18.23, 0 9.25 M0 27.75 C0.64 24.06, 0.58 19.9, 0 9.25 M0 9.25 C-1.72 2.75, 2.6 -0.45, 9.25 0 M0 9.25 C0.33 4.17, 2.94 -0.76, 9.25 0" stroke="#1e1e1e" stroke-width="1" fill="none"></path></g><g transform="translate(922.7972376036707 146.63566982454597) rotate(0 42.2099609375 12.5)"><text x="42.2099609375" y="0" font-family="Virgil, Segoe UI Emoji" font-size="20px" fill="#1e1e1e" text-anchor="middle" style="white-space: pre;" direction="ltr" dominant-baseline="text-before-edge">Wormhole</text></g><g stroke-linecap="round" transform="translate(922.682753905478 453.1378004763054) rotate(0 50.5 18.5)"><path d="M10.63 -0.88 L97.35 -0.72 L99.74 6.65 L102.17 32.22 L100.05 35.77 L93.69 37.46 L3.53 36.8 L-1.18 30.41 L-1.89 7.35 L3.16 0.42 L8.94 -0.57" stroke="none" stroke-width="0" fill="#e9ecef"></path><path d="M9.25 0 M9.25 0 C36.06 0.52, 58.03 0.05, 91.75 0 M9.25 0 C41.54 -1.36, 71.94 -0.23, 91.75 0 M91.75 0 C98.08 0.5, 100.64 1.97, 101 9.25 M91.75 0 C97.81 1.93, 100.25 4.02, 101 9.25 M101 9.25 C99.16 13.49, 102.46 19.68, 101 27.75 M101 9.25 C101.1 16.32, 100.18 22.22, 101 27.75 M101 27.75 C101.85 32.78, 98.67 38.65, 91.75 37 M101 27.75 C99.07 36.05, 96.05 35.01, 91.75 37 M91.75 37 C68.36 37.08, 42.81 36.46, 9.25 37 M91.75 37 C75.55 36.58, 57.2 36.59, 9.25 37 M9.25 37 C3.6 38.05, 0.39 32.94, 0 27.75 M9.25 37 C1.02 36.01, 0.62 34.72, 0 27.75 M0 27.75 C0.24 20.67, -0.89 15.26, 0 9.25 M0 27.75 C0.97 20.77, -0.32 14.89, 0 9.25 M0 9.25 C-0.46 2.66, 3.56 -0.97, 9.25 0 M0 9.25 C1.69 4.91, 3.26 -1.4, 9.25 0" stroke="#1e1e1e" stroke-width="1" fill="none"></path></g><g transform="translate(930.972792967978 459.1378004763054) rotate(0 42.2099609375 12.5)"><text x="42.2099609375" y="0" font-family="Virgil, Segoe UI Emoji" font-size="20px" fill="#1e1e1e" text-anchor="middle" style="white-space: pre;" direction="ltr" dominant-baseline="text-before-edge">Wormhole</text></g><g stroke-linecap="round"><g transform="translate(470.7772294167465 299.9485720182103) rotate(0 28.790373288731246 3.369712349914181)"><path d="M0.37 -0.44 C9.68 1.09, 46.95 7.1, 56.27 8.45 M-0.9 -1.71 C8.74 -0.5, 48.55 4.78, 58.48 6.53" stroke="#1971c2" stroke-width="1" fill="none"></path></g><g transform="translate(470.7772294167465 299.9485720182103) rotate(0 28.790373288731246 3.369712349914181)"><path d="M58.33 6.89 L43.55 9.58 L44.65 -3.28 L60.15 5.58" stroke="none" stroke-width="0" fill="#1971c2" fill-rule="evenodd"></path><path d="M57.93 5.33 C54.09 6.8, 48.27 8.43, 44.7 9.93 M57.85 6.69 C53.1 8.6, 48.55 9.77, 44.2 11.16 M44.84 10.5 C43.81 5.88, 45.91 3.35, 45.96 -1.8 M44.38 10.36 C44.13 7.54, 44.78 4.63, 46.61 -1.26 M45.61 -1.07 C49.17 -0.27, 51.72 2.37, 59.01 7.78 M45.41 -1.8 C48.49 0.85, 51.83 1.94, 58.23 5.83 M58.48 6.53 C58.48 6.53, 58.48 6.53, 58.48 6.53 M58.48 6.53 C58.48 6.53, 58.48 6.53, 58.48 6.53" stroke="#1971c2" stroke-width="1" fill="none"></path></g></g><mask></mask><g stroke-linecap="round"><g transform="translate(850.3701946830149 156.68082353469117) rotate(0 29.769643280985633 -0.05320168761630839)"><path d="M-0.61 0.65 C9.29 0.66, 50.38 0.92, 60.15 0.94 M1.27 -0.05 C11.02 -0.48, 49.86 -1.33, 59.7 -0.95" stroke="#2f9e44" stroke-width="1" fill="none"></path></g><g transform="translate(850.3701946830149 156.68082353469117) rotate(0 29.769643280985633 -0.05320168761630839)"><path d="M60.18 -1.01 L44.48 4.06 L44.24 -5.69 L58.17 1.03" stroke="none" stroke-width="0" fill="#2f9e44" fill-rule="evenodd"></path><path d="M60.51 0.23 C55.33 -0.21, 50.13 2.48, 47.42 4.15 M59.53 -1.52 C54.46 2.02, 49.93 2.9, 45.36 5.91 M46.54 5.31 C45.5 1.49, 47.04 0, 47.03 -7.86 M45.79 5.76 C45.59 1.61, 45.82 -2.46, 46.1 -7.15 M47 -8.05 C49.23 -5.59, 53.83 -3.84, 59.14 -2.3 M45.64 -7.18 C49.43 -6.04, 51.53 -3.89, 59.73 -1.65 M59.7 -0.95 C59.7 -0.95, 59.7 -0.95, 59.7 -0.95 M59.7 -0.95 C59.7 -0.95, 59.7 -0.95, 59.7 -0.95" stroke="#2f9e44" stroke-width="1" fill="none"></path></g></g><mask></mask><g stroke-linecap="round"><g transform="translate(1085.2730748421973 64.38256065669424) rotate(0 2.28218630019569 259.6836467492209)"><path d="M0.27 1.04 C0.98 87.44, 2.47 431.5, 3.28 517.55 M-1.05 0.54 C0.14 87.17, 4.61 432.53, 5.61 518.83" stroke="#1e1e1e" stroke-width="1" fill="none"></path></g></g><mask></mask><g transform="translate(1157.1818468081206 22.377974719809004) rotate(0 108.76991271972656 12.5)"><text x="0" y="0" font-family="Virgil, Segoe UI Emoji" font-size="20px" fill="#1e1e1e" text-anchor="start" style="white-space: pre;" direction="ltr" dominant-baseline="text-before-edge">Pyth on target chains</text></g><g stroke-linecap="round" transform="translate(1113.0114244066158 70.87783339952654) rotate(0 164.287109375 130.22265625)"><path d="M32 0 M32 0 C113.17 -0.45, 191.58 2.05, 296.57 0 M32 0 C128.83 2.09, 223.81 1.71, 296.57 0 M296.57 0 C318.83 -0.71, 328.71 9.51, 328.57 32 M296.57 0 C319.24 -2.21, 326.81 9.09, 328.57 32 M328.57 32 C326.17 110.39, 327.94 186.85, 328.57 228.45 M328.57 32 C328.28 102.94, 327.97 174.06, 328.57 228.45 M328.57 228.45 C329.36 251.32, 318.12 259.25, 296.57 260.45 M328.57 228.45 C330.27 250.51, 319.93 259.48, 296.57 260.45 M296.57 260.45 C235.77 260.39, 172.4 259.73, 32 260.45 M296.57 260.45 C200.26 261.7, 103.27 261.38, 32 260.45 M32 260.45 C9.74 259.64, -0.32 248.91, 0 228.45 M32 260.45 C11.21 258.85, -1.13 251.57, 0 228.45 M0 228.45 C1.97 164.25, 1.26 100.74, 0 32 M0 228.45 C2.01 177.46, 0.46 126.31, 0 32 M0 32 C0.54 8.69, 10.32 -1.28, 32 0 M0 32 C0.2 11.16, 10.41 -2.04, 32 0" stroke="#1e1e1e" stroke-width="1" fill="none"></path></g><g transform="translate(1126.0938559355925 78.8953321799363) rotate(0 29.58399200439453 10)"><text x="0" y="0" font-family="Virgil, Segoe UI Emoji" font-size="16px" fill="#1e1e1e" text-anchor="start" style="white-space: pre;" direction="ltr" dominant-baseline="text-before-edge">Mainnet</text></g><g stroke-linecap="round" transform="translate(1149.571300609799 170.02351989358) rotate(0 73.5 49.5)"><path d="M26.02 0.94 L120.37 0.69 L137.17 4.19 L144.93 8.23 L146.84 20.05 L146.27 74.47 L143.81 88.05 L136.33 93.58 L120.53 99.24 L24.09 98.57 L8.56 95.99 L3.88 90.67 L-0.41 80.34 L2.11 17.98 L2.16 10.33 L9.91 4.92 L25.98 0.66" stroke="none" stroke-width="0" fill="#a5d8ff"></path><path d="M24.75 0 M24.75 0 C54.96 -0.89, 87.2 0.59, 122.25 0 M24.75 0 C44.8 -0.26, 65.67 0.4, 122.25 0 M122.25 0 C136.96 -0.41, 145.14 7.89, 147 24.75 M122.25 0 C139.58 1.19, 145.07 7.95, 147 24.75 M147 24.75 C147.7 36.43, 146.81 45.76, 147 74.25 M147 24.75 C148.28 39.62, 147.17 53.17, 147 74.25 M147 74.25 C146.44 90.94, 137.13 99.32, 122.25 99 M147 74.25 C148.5 90.9, 140.79 98.52, 122.25 99 M122.25 99 C85.14 99.06, 49.66 98.46, 24.75 99 M122.25 99 C85.75 98.93, 47.19 98.37, 24.75 99 M24.75 99 C10.01 100.6, 0.45 92.01, 0 74.25 M24.75 99 C6.25 100.73, -0.38 90.32, 0 74.25 M0 74.25 C-0.27 59.66, -1.41 45.21, 0 24.75 M0 74.25 C0.55 62.27, 0.3 50.75, 0 24.75 M0 24.75 C-0.16 8.66, 10.12 1.64, 24.75 0 M0 24.75 C0.63 7.57, 7.02 -0.45, 24.75 0" stroke="#1e1e1e" stroke-width="1" fill="none"></path></g><g transform="translate(1179.1313363153654 194.52351989358) rotate(0 43.939964294433594 25)"><text x="43.939964294433594" y="0" font-family="Virgil, Segoe UI Emoji" font-size="20px" fill="#1e1e1e" text-anchor="middle" style="white-space: pre;" direction="ltr" dominant-baseline="text-before-edge">Pyth </text><text x="43.939964294433594" y="25" font-family="Virgil, Segoe UI Emoji" font-size="20px" fill="#1e1e1e" text-anchor="middle" style="white-space: pre;" direction="ltr" dominant-baseline="text-before-edge">Contract</text></g><g stroke-linecap="round"><g transform="translate(1027.1215797417822 161.91769587793198) rotate(0 54.99027742577755 10.607202076515136)"><path d="M-1.01 0.75 C17.41 4.4, 92.36 17.93, 110.99 21.11 M0.66 0.1 C18.95 3.44, 92.22 15.76, 110.5 19.18" stroke="#2f9e44" stroke-width="1" fill="none"></path></g><g transform="translate(1027.1215797417822 161.91769587793198) rotate(0 54.99027742577755 10.607202076515136)"><path d="M111.93 17.43 L97.33 23.8 L96.64 9.63 L110.03 20.9" stroke="none" stroke-width="0" fill="#2f9e44" fill-rule="evenodd"></path><path d="M111.44 20.27 C105.97 21.18, 99.38 22.14, 95.56 22.52 M110.39 18.77 C106.86 19.72, 103.48 21.69, 96.72 22.92 M95.26 23.63 C97.48 19.3, 96.91 13.92, 99.3 11.04 M96.14 22.82 C96.59 19.53, 97.31 15.45, 97.97 10.18 M97.74 10.21 C101.4 12.24, 103.02 14.18, 109.61 19.73 M97.97 10.99 C102.37 12.8, 105.27 15.28, 110.62 19.41 M110.5 19.18 C110.5 19.18, 110.5 19.18, 110.5 19.18 M110.5 19.18 C110.5 19.18, 110.5 19.18, 110.5 19.18" stroke="#2f9e44" stroke-width="1" fill="none"></path></g></g><mask></mask><g stroke-linecap="round"><g transform="translate(646.2279501583419 190.59206250365145) rotate(0 244.30109856337896 22.832585264589568)"><path d="M0.1 0.95 C81.74 8.18, 408.23 36.9, 489.91 44.09 M-1.31 0.4 C80.23 7.71, 407.51 37.82, 489.39 45.26" stroke="#e03131" stroke-width="1" fill="none"></path></g><g transform="translate(646.2279501583419 190.59206250365145) rotate(0 244.30109856337896 22.832585264589568)"><path d="M488.19 46.39 L473.68 49.55 L477.55 39.15 L491.09 45.09" stroke="none" stroke-width="0" fill="#e03131" fill-rule="evenodd"></path><path d="M490.58 46.29 C484.2 48.19, 479.87 48.93, 474.52 50.13 M490.06 45.63 C483.39 47.59, 478.43 49.56, 475.12 49.96 M474.74 51.29 C476.71 46.24, 475.79 41.05, 476.12 36.87 M475.61 50.85 C475.56 47.34, 475.71 45.31, 476.99 37.84 M475.28 36.86 C478.95 40.27, 482.14 40.83, 488.74 45.26 M476.66 37.74 C481.91 41.03, 486.23 43.87, 488.83 45.71 M489.39 45.26 C489.39 45.26, 489.39 45.26, 489.39 45.26 M489.39 45.26 C489.39 45.26, 489.39 45.26, 489.39 45.26" stroke="#e03131" stroke-width="1" fill="none"></path></g></g><mask></mask><g stroke-linecap="round"><g transform="translate(882.4125964961997 475.804109782282) rotate(0 16.233193979243424 0.14683147315588485)"><path d="M0.95 1.06 C6.27 0.88, 27.55 -0.6, 32.48 -0.77 M-0.01 0.57 C5.21 0.58, 26.65 1.22, 32.16 0.83" stroke="#2f9e44" stroke-width="1" fill="none"></path></g><g transform="translate(882.4125964961997 475.804109782282) rotate(0 16.233193979243424 0.14683147315588485)"><path d="M31.96 0.91 L17.71 7.4 L19 -6.39 L32.35 -0.86" stroke="none" stroke-width="0" fill="#2f9e44" fill-rule="evenodd"></path><path d="M33.49 2.32 C27.64 2.24, 23.99 6.78, 18.03 6.04 M31.76 1.36 C29.4 3.08, 25.67 4.21, 18.82 6.79 M18.8 8.27 C19.77 3.47, 17.43 0.79, 17.92 -5.64 M19.08 7.02 C18.18 3.47, 18.78 -1.04, 18.57 -5.25 M19.95 -4.2 C22.92 -4.47, 29.22 -2.22, 31.13 0.27 M18.94 -5.79 C23.62 -2.59, 29.04 -0.48, 31.84 1.24 M32.16 0.83 C32.16 0.83, 32.16 0.83, 32.16 0.83 M32.16 0.83 C32.16 0.83, 32.16 0.83, 32.16 0.83" stroke="#2f9e44" stroke-width="1" fill="none"></path></g></g><mask></mask><g stroke-linecap="round" transform="translate(1117.1942666860286 350.5082796163337) rotate(0 164.287109375 115.02058717521632)"><path d="M32 0 M32 0 C126.57 0.65, 219.32 0.83, 296.57 0 M32 0 C112.93 2.11, 193.65 2.09, 296.57 0 M296.57 0 C318.44 -1.08, 328.77 8.98, 328.57 32 M296.57 0 C316.91 -0.57, 327.86 11.45, 328.57 32 M328.57 32 C330.03 94.74, 329.11 161.07, 328.57 198.04 M328.57 32 C331.17 72.98, 330.31 114.3, 328.57 198.04 M328.57 198.04 C328.16 221.19, 317.96 229.76, 296.57 230.04 M328.57 198.04 C327.22 219.69, 317.81 232.27, 296.57 230.04 M296.57 230.04 C243.82 229.68, 187.76 229.56, 32 230.04 M296.57 230.04 C214.13 230.41, 130.02 230.73, 32 230.04 M32 230.04 C9.94 229.71, 1.56 217.46, 0 198.04 M32 230.04 C12.66 231.77, -0.96 219.78, 0 198.04 M0 198.04 C-0.72 131.83, -2.89 68.56, 0 32 M0 198.04 C0.74 137.64, -0.56 79.34, 0 32 M0 32 C-0.63 12.51, 11.75 0.17, 32 0 M0 32 C1.53 12.88, 8.45 -0.92, 32 0" stroke="#1e1e1e" stroke-width="1" fill="none"></path></g><g transform="translate(1130.2766982150051 358.27365055183816) rotate(0 27.431991577148438 10)"><text x="0" y="0" font-family="Virgil, Segoe UI Emoji" font-size="16px" fill="#1e1e1e" text-anchor="start" style="white-space: pre;" direction="ltr" dominant-baseline="text-before-edge">Devnet</text></g><g stroke-linecap="round" transform="translate(1155.1709256617598 424.5309483812264) rotate(0 73.5 49.5)"><path d="M26.57 -1.08 L120.93 -0.32 L137.58 3.25 L143.94 10.04 L145.11 19.86 L145.37 73.15 L145.2 89.03 L136.41 95.92 L121.57 98.58 L25.27 100.13 L9 95.61 L1.57 87.75 L-1.57 78.91 L-1.07 19.64 L1.68 11.28 L7.76 4.95 L23.69 0.16" stroke="none" stroke-width="0" fill="#a5d8ff"></path><path d="M24.75 0 M24.75 0 C53.95 -2.66, 84.39 -0.12, 122.25 0 M24.75 0 C46.39 -1.11, 67.93 -1.04, 122.25 0 M122.25 0 C139.52 -1.93, 146.14 9.05, 147 24.75 M122.25 0 C140.79 -2.07, 146.9 10.35, 147 24.75 M147 24.75 C145.9 38.12, 148.25 48.45, 147 74.25 M147 24.75 C146.28 43.28, 147.89 61.38, 147 74.25 M147 74.25 C145.27 90.75, 138.82 99.04, 122.25 99 M147 74.25 C147.48 90.31, 139.65 100.48, 122.25 99 M122.25 99 C84.68 97.03, 47 97.28, 24.75 99 M122.25 99 C95.2 98.98, 67.86 98.42, 24.75 99 M24.75 99 C7.88 97.52, -0.76 90.92, 0 74.25 M24.75 99 C8.84 101.06, 0.93 88.76, 0 74.25 M0 74.25 C1.27 61.72, 1 46.53, 0 24.75 M0 74.25 C0.06 60.7, 0 46.19, 0 24.75 M0 24.75 C-1.26 6.76, 6.66 -0.35, 24.75 0 M0 24.75 C0.25 9.68, 9.58 2.06, 24.75 0" stroke="#1e1e1e" stroke-width="1" fill="none"></path></g><g transform="translate(1184.7309613673262 449.0309483812264) rotate(0 43.939964294433594 25)"><text x="43.939964294433594" y="0" font-family="Virgil, Segoe UI Emoji" font-size="20px" fill="#1e1e1e" text-anchor="middle" style="white-space: pre;" direction="ltr" dominant-baseline="text-before-edge">Pyth </text><text x="43.939964294433594" y="25" font-family="Virgil, Segoe UI Emoji" font-size="20px" fill="#1e1e1e" text-anchor="middle" style="white-space: pre;" direction="ltr" dominant-baseline="text-before-edge">Contract</text></g><g stroke-linecap="round"><g transform="translate(1035.20207050883 476.3721835270669) rotate(0 52.2720912856056 -1.9911226265165851)"><path d="M0.4 0.04 C17.6 -0.77, 85.76 -3.33, 103.29 -4.02 M-0.85 -0.99 C16.7 -1.7, 87.69 -2.37, 105.39 -2.72" stroke="#2f9e44" stroke-width="1" fill="none"></path></g><g transform="translate(1035.20207050883 476.3721835270669) rotate(0 52.2720912856056 -1.9911226265165851)"><path d="M104.06 -2.11 L93.33 2.57 L90.28 -7.42 L106.92 -0.99" stroke="none" stroke-width="0" fill="#2f9e44" fill-rule="evenodd"></path><path d="M105.44 -4.16 C100.73 0.71, 96.49 1.04, 92.88 4.12 M104.91 -2.72 C101.29 -1.06, 95.45 2.44, 91.55 3.3 M93.04 3.21 C92.98 0.42, 92.31 -3.81, 92.18 -8.54 M91.83 3.33 C92.38 0.58, 92.26 -1.7, 91.38 -8.98 M91.18 -8.16 C95.47 -8.21, 99.72 -6.76, 104.05 -2.24 M92.19 -9.32 C95.01 -8.03, 97.25 -7.21, 105 -3.04 M105.39 -2.72 C105.39 -2.72, 105.39 -2.72, 105.39 -2.72 M105.39 -2.72 C105.39 -2.72, 105.39 -2.72, 105.39 -2.72" stroke="#2f9e44" stroke-width="1" fill="none"></path></g></g><mask></mask><g stroke-linecap="round"><g transform="translate(643.6375911359758 575.2000634500565) rotate(0 249.79101633120342 -31.076509707625917)"><path d="M0.35 0.57 C83.59 -9.56, 417.18 -50.6, 500.51 -60.9 M-0.93 -0.18 C82.05 -10.65, 416.17 -52.79, 499.56 -62.72" stroke="#e03131" stroke-width="1" fill="none"></path></g><g transform="translate(643.6375911359758 575.2000634500565) rotate(0 249.79101633120342 -31.076509707625917)"><path d="M499.87 -60.79 L487.96 -53.62 L486.02 -68.7 L498.08 -64.47" stroke="none" stroke-width="0" fill="#e03131" fill-rule="evenodd"></path><path d="M500.26 -62.73 C495.29 -59.85, 489.95 -55.26, 485.56 -55.03 M498.87 -62.85 C494.44 -59.4, 490.53 -56.34, 486.94 -54.48 M487.93 -55.82 C486.95 -59.94, 486.28 -63.2, 485.1 -67.45 M487.19 -54.46 C486.36 -58.55, 486.57 -62.13, 485.71 -66.88 M484.22 -67.87 C490.39 -67.07, 494.51 -64.25, 501.02 -64.02 M485.56 -67.34 C489.18 -66.35, 493.75 -64.69, 499.75 -63.31 M499.56 -62.72 C499.56 -62.72, 499.56 -62.72, 499.56 -62.72 M499.56 -62.72 C499.56 -62.72, 499.56 -62.72, 499.56 -62.72" stroke="#e03131" stroke-width="1" fill="none"></path></g></g><mask></mask><g stroke-linecap="round" transform="translate(1356.3730791395726 186.00974061406555) rotate(0 35.5 30)"><path d="M15.56 -0.27 L59.99 -0.98 L68.09 3.65 L70.99 10.21 L70.27 13.71 L72.23 50.29 L69.22 58.25 L62.53 58.62 L57.12 58.97 L12.92 58.04 L4.76 56.5 L0.17 50.05 L0.26 11.36 L4.42 3.05 L9.08 2.23 L16.9 1.97" stroke="none" stroke-width="0" fill="#b2f2bb"></path><path d="M15 0 M15 0 C24.46 0.82, 35.47 0.19, 56 0 M15 0 C31.51 -0.63, 46.26 -0.96, 56 0 M56 0 C65.48 -0.2, 71.85 6.92, 71 15 M56 0 C65.47 1.27, 71.31 6.17, 71 15 M71 15 C72.07 25.94, 71.06 34.09, 71 45 M71 15 C70.28 26.29, 71.62 38.06, 71 45 M71 45 C69.17 54.62, 65.27 59.31, 56 60 M71 45 C71.6 54.8, 64.51 60.03, 56 60 M56 60 C38.7 58.59, 23.49 59.12, 15 60 M56 60 C44.95 60.77, 35.13 59.37, 15 60 M15 60 C4.54 60.63, -1.27 54.44, 0 45 M15 60 C2.9 58.43, -2.26 52.71, 0 45 M0 45 C0.98 34.88, -0.22 22.61, 0 15 M0 45 C-0.9 33.68, -0.76 21.18, 0 15 M0 15 C-1.93 5.46, 4.9 0.77, 15 0 M0 15 C2.05 6.66, 5.66 -1.33, 15 0" stroke="#1e1e1e" stroke-width="1" fill="none"></path></g><g transform="translate(1364.3331087416234 203.50974061406555) rotate(0 27.53997039794922 12.5)"><text x="27.53997039794922" y="0" font-family="Virgil, Segoe UI Emoji" font-size="20px" fill="#1e1e1e" text-anchor="middle" style="white-space: pre;" direction="ltr" dominant-baseline="text-before-edge">dApps</text></g><g stroke-linecap="round"><g transform="translate(1311.6127201488955 218.96775400328647) rotate(0 18.67580004243098 -1.3219045739904232)"><path d="M0.25 -0.38 C6.35 -0.85, 29.85 -2.19, 36.03 -2.26 M-1.08 -1.63 C5.48 -1.97, 32.09 -0.72, 38.43 -0.88" stroke="#2f9e44" stroke-width="1" fill="none"></path></g><g transform="translate(1311.6127201488955 218.96775400328647) rotate(0 18.67580004243098 -1.3219045739904232)"><path d="M1.08 0.48 L12.06 -5.78 L13.35 6.79 L1.25 -0.31" stroke="none" stroke-width="0" fill="#2f9e44" fill-rule="evenodd"></path><path d="M-0.23 -1.12 C3.18 -1.31, 8.28 -3.04, 14.14 -8.02 M-0.04 -0.65 C3.6 -2.43, 8.05 -4.61, 13.77 -6.8 M13.72 -8.72 C14.29 -3.14, 15.05 -0.1, 14.73 5.69 M13.82 -7.69 C13.55 -4.1, 13.91 0.31, 14.56 5.14 M14.36 5.8 C9.09 2.64, 4.74 1.74, -1.13 1.08 M13.45 4.55 C10.39 3.64, 5.82 1.77, 0.57 -0.77 M0.25 -0.38 C0.25 -0.38, 0.25 -0.38, 0.25 -0.38 M0.25 -0.38 C0.25 -0.38, 0.25 -0.38, 0.25 -0.38" stroke="#2f9e44" stroke-width="1" fill="none"></path></g><g transform="translate(1311.6127201488955 218.96775400328647) rotate(0 18.67580004243098 -1.3219045739904232)"><path d="M39.26 -0.01 L23.34 6.97 L24.09 -5.8 L39.43 -0.8" stroke="none" stroke-width="0" fill="#2f9e44" fill-rule="evenodd"></path><path d="M37.95 -1.62 C34.65 1.58, 33 3.18, 25.42 4.73 M38.14 -1.14 C33.69 1.24, 29.99 3.07, 25.05 5.95 M25 4.03 C25.22 3.39, 25.85 0.23, 25.48 -6.9 M25.1 5.05 C24.51 1.1, 24.71 -2.02, 25.31 -7.45 M25.11 -6.79 C29 -5.9, 33.84 -2.75, 37.05 0.59 M24.2 -8.04 C29.74 -4.94, 33.73 -3.04, 38.75 -1.26 M38.43 -0.88 C38.43 -0.88, 38.43 -0.88, 38.43 -0.88 M38.43 -0.88 C38.43 -0.88, 38.43 -0.88, 38.43 -0.88" stroke="#2f9e44" stroke-width="1" fill="none"></path></g></g><mask></mask><g stroke-linecap="round" transform="translate(1363.3820971287007 446.34969790568357) rotate(0 35.5 30)"><path d="M16.96 0.25 L60.03 -1.4 L65.28 2.11 L71.6 9.31 L71.94 15.5 L71.61 47.48 L65.62 56.62 L61.5 59.38 L54.11 61.12 L12.87 60.76 L1.79 57.51 L1.12 48.01 L0.37 12.23 L2.95 2.46 L8.91 -0.15 L16.19 -0.07" stroke="none" stroke-width="0" fill="#b2f2bb"></path><path d="M15 0 M15 0 C26.55 -1.57, 38.09 -1.01, 56 0 M15 0 C29.79 -0.65, 45.68 0.26, 56 0 M56 0 C65.58 -0.91, 71.68 6.55, 71 15 M56 0 C67.44 -2.24, 72.31 5.95, 71 15 M71 15 C72.78 25.78, 70.32 34.18, 71 45 M71 15 C71.74 21.25, 71.3 28.54, 71 45 M71 45 C70.04 54.68, 64.1 60.77, 56 60 M71 45 C72.54 55.4, 66.62 59.97, 56 60 M56 60 C48.24 58, 40.44 58.31, 15 60 M56 60 C41.87 60.86, 27.96 59.61, 15 60 M15 60 C5.43 61.39, 1.6 54.05, 0 45 M15 60 C4.49 58.66, 1.54 56.53, 0 45 M0 45 C1.2 36.95, -0.72 26.88, 0 15 M0 45 C-0.26 38.93, -0.55 33.38, 0 15 M0 15 C-1.67 4.81, 5.82 1.96, 15 0 M0 15 C-1.11 6.87, 5.67 -2.16, 15 0" stroke="#1e1e1e" stroke-width="1" fill="none"></path></g><g transform="translate(1371.3421267307515 463.84969790568357) rotate(0 27.53997039794922 12.5)"><text x="27.53997039794922" y="0" font-family="Virgil, Segoe UI Emoji" font-size="20px" fill="#1e1e1e" text-anchor="middle" style="white-space: pre;" direction="ltr" dominant-baseline="text-before-edge">dApps</text></g><g stroke-linecap="round"><g transform="translate(1318.6217381380236 479.3077112949045) rotate(0 19.119303333481525 1.1862753270798407)"><path d="M0.92 0.53 C7.5 1.13, 32.07 2.42, 38.29 2.62 M-0.06 -0.24 C6.52 0.06, 31.34 0.16, 37.64 0.65" stroke="#2f9e44" stroke-width="1" fill="none"></path></g><g transform="translate(1318.6217381380236 479.3077112949045) rotate(0 19.119303333481525 1.1862753270798407)"><path d="M2.52 -0.42 L14.43 -6.15 L15.45 9 L1.35 -0.95" stroke="none" stroke-width="0" fill="#2f9e44" fill-rule="evenodd"></path><path d="M1.58 1.23 C4.15 -0.06, 5.82 -3.03, 15.15 -5.79 M1.44 0.9 C4.64 -0.82, 10.12 -3.22, 14.92 -4.71 M14.18 -4.23 C14.55 -2.2, 14.72 2.12, 14.66 6.78 M15.19 -4.97 C13.99 -0.5, 13.87 4.96, 13.98 7.38 M12.65 8.52 C10.27 5.93, 6.25 2.18, 2.1 1.01 M13.55 7.63 C11.5 5.47, 7.8 4.16, 0.56 0.4 M0.92 0.53 C0.92 0.53, 0.92 0.53, 0.92 0.53 M0.92 0.53 C0.92 0.53, 0.92 0.53, 0.92 0.53" stroke="#2f9e44" stroke-width="1" fill="none"></path></g><g transform="translate(1318.6217381380236 479.3077112949045) rotate(0 19.119303333481525 1.1862753270798407)"><path d="M39.24 -0.3 L23.38 5.33 L25.63 -4.84 L38.07 -0.82" stroke="none" stroke-width="0" fill="#2f9e44" fill-rule="evenodd"></path><path d="M38.3 1.35 C35.18 2.57, 31.25 1.89, 24.11 5.69 M38.16 1.02 C32.49 3.05, 29.19 4.23, 23.88 6.77 M23.14 7.25 C23.98 2.7, 24.48 0.43, 24.83 -7.06 M24.14 6.52 C23.53 1.2, 23.87 -3.11, 24.15 -6.46 M22.83 -5.33 C29.42 -3.41, 34.28 -2.5, 38.82 1.13 M23.72 -6.21 C28.38 -4.59, 31.47 -2.33, 37.28 0.53 M37.64 0.65 C37.64 0.65, 37.64 0.65, 37.64 0.65 M37.64 0.65 C37.64 0.65, 37.64 0.65, 37.64 0.65" stroke="#2f9e44" stroke-width="1" fill="none"></path></g></g><mask></mask><g stroke-linecap="round"><g transform="translate(472.06547473578536 380.717123779066) rotate(0 25.21138459853057 -1.213637070578784)"><path d="M0.05 -0.49 C8.7 -0.97, 43.07 -1.71, 51.81 -2.03 M-1.39 -1.8 C7.14 -2.13, 42.06 -0.5, 51 -0.4" stroke="#e03131" stroke-width="1" fill="none"></path></g><g transform="translate(472.06547473578536 380.717123779066) rotate(0 25.21138459853057 -1.213637070578784)"><path d="M50.66 0.14 L36.59 6.97 L35.96 -5.2 L52.53 -0.78" stroke="none" stroke-width="0" fill="#e03131" fill-rule="evenodd"></path><path d="M50.38 -0.08 C47.23 2.5, 42.76 3.79, 35.83 4.16 M50.77 -0.88 C46.61 1.01, 43.12 2.65, 36.55 5.99 M36 6.29 C36.9 3.02, 37.39 -0.43, 37.77 -6.27 M36.67 4.98 C37.15 1.53, 36.88 -2.72, 37.58 -6.75 M37.7 -7.66 C41.77 -4.41, 48.08 -2.1, 52.39 -1.47 M37.79 -6.65 C41.43 -5.24, 43.88 -4.02, 50.3 -1.14 M51 -0.4 C51 -0.4, 51 -0.4, 51 -0.4 M51 -0.4 C51 -0.4, 51 -0.4, 51 -0.4" stroke="#e03131" stroke-width="1" fill="none"></path></g></g><mask></mask><g stroke-linecap="round"><g transform="translate(47.46660779642309 152.8582705821624) rotate(0 89.50396850135003 0.885084090518319)"><path d="M-0.25 1.06 C29.44 1.2, 149.36 0.22, 179.26 0.39 M1.82 0.57 C31.24 0.86, 148.86 1.48, 178.27 1.39" stroke="#2f9e44" stroke-width="1" fill="none"></path></g><g transform="translate(47.46660779642309 152.8582705821624) rotate(0 89.50396850135003 0.885084090518319)"><path d="M180.22 2.74 L164.81 9.47 L163.63 -4.19 L176.39 0.23" stroke="none" stroke-width="0" fill="#2f9e44" fill-rule="evenodd"></path><path d="M179.6 1.3 C171.61 3.62, 168.33 5.54, 163.32 7.92 M178.02 1.44 C174.64 2.49, 172.6 4.91, 164.81 8.34 M165.08 8.45 C165.33 4.33, 163.64 3.49, 165.47 -5.75 M164.33 7.15 C164.85 4.05, 164.68 -1.01, 164.56 -4.97 M163.76 -5.67 C168.64 -3.47, 172.48 -2.47, 177.57 2.75 M164.68 -4.33 C167.74 -2.85, 171.55 -1.71, 178.69 1.62 M178.27 1.39 C178.27 1.39, 178.27 1.39, 178.27 1.39 M178.27 1.39 C178.27 1.39, 178.27 1.39, 178.27 1.39" stroke="#2f9e44" stroke-width="1" fill="none"></path></g></g><mask></mask><g transform="translate(53.947682933045485 112.16410278867431) rotate(0 85.46393585205078 10)"><text x="0" y="0" font-family="Virgil, Segoe UI Emoji" font-size="16px" fill="#1e1e1e" text-anchor="start" style="white-space: pre;" direction="ltr" dominant-baseline="text-before-edge">Flow of price updates</text></g><g transform="translate(31.188724341762622 194.58954213927257) rotate(0 115.887939453125 10)"><text x="0" y="0" font-family="Virgil, Segoe UI Emoji" font-size="16px" fill="#1e1e1e" text-anchor="start" style="white-space: pre;" direction="ltr" dominant-baseline="text-before-edge">Flow of contract management</text></g><g stroke-linecap="round"><g transform="translate(48.74457011852735 236.65027338903542) rotate(0 90.20282467679878 -0.8409050262598043)"><path d="M-0.38 0.88 C29.42 0.82, 148.74 -0.58, 178.51 -0.98 M1.62 0.29 C31.83 -0.03, 150.97 -1.9, 180.79 -2.56" stroke="#e03131" stroke-width="1" fill="none"></path></g><g transform="translate(48.74457011852735 236.65027338903542) rotate(0 90.20282467679878 -0.8409050262598043)"><path d="M178.88 -1.27 L167.72 5.48 L165.56 -8.5 L182.75 -2.02" stroke="none" stroke-width="0" fill="#e03131" fill-rule="evenodd"></path><path d="M181.88 -3.58 C178.39 -2.18, 174.02 1.05, 166.67 4.71 M180.2 -1.84 C177.33 -0.96, 175.52 0.81, 167.38 4.61 M168.21 2.98 C166.45 -1.61, 166.01 -4.08, 168.16 -7.56 M167.06 4.54 C167.64 -0.08, 167.66 -4.12, 167.25 -8.51 M166.82 -9.27 C171.57 -8.33, 173.51 -4.91, 179.49 -2.24 M166.91 -8.49 C170.61 -7.98, 172.47 -6.59, 180.15 -3.17 M180.79 -2.56 C180.79 -2.56, 180.79 -2.56, 180.79 -2.56 M180.79 -2.56 C180.79 -2.56, 180.79 -2.56, 180.79 -2.56" stroke="#e03131" stroke-width="1" fill="none"></path></g></g><mask></mask><g stroke-linecap="round"><g transform="translate(49.72436341822129 333.6825283426447) rotate(0 90.05453069137232 -1.0198817448328725)"><path d="M0.97 -0.95 C30.85 -1.46, 150.43 -3.21, 180.09 -3.2 M0.02 1.16 C29.73 0.77, 149.88 -1.64, 179.54 -2.28" stroke="#1971c2" stroke-width="1" fill="none"></path></g><g transform="translate(49.72436341822129 333.6825283426447) rotate(0 90.05453069137232 -1.0198817448328725)"><path d="M179.31 -0.44 L165.08 4.11 L167.61 -6.91 L179.94 -2.61" stroke="none" stroke-width="0" fill="#1971c2" fill-rule="evenodd"></path><path d="M178.35 -1.33 C173.09 -0.2, 170.96 3.1, 164.64 4.39 M179.17 -2.12 C174.82 0.32, 169.53 2.57, 166.29 4.37 M167.33 3.11 C166.15 0.92, 166.82 -1.19, 166.53 -9.24 M166.36 3.76 C166.68 -0.61, 166.15 -5.87, 165.2 -7.71 M165.52 -7.57 C171.06 -6.05, 174.47 -3.26, 178.62 -1.7 M165.12 -9.04 C170.31 -6.44, 175.72 -3.59, 178.85 -3.03 M179.54 -2.28 C179.54 -2.28, 179.54 -2.28, 179.54 -2.28 M179.54 -2.28 C179.54 -2.28, 179.54 -2.28, 179.54 -2.28" stroke="#1971c2" stroke-width="1" fill="none"></path></g></g><mask></mask><g transform="translate(23.83630450149093 291.08124035402545) rotate(0 120.59192657470703 10)"><text x="0" y="0" font-family="Virgil, Segoe UI Emoji" font-size="16px" fill="#1e1e1e" text-anchor="start" style="white-space: pre;" direction="ltr" dominant-baseline="text-before-edge">Flow of price feed management</text></g><g stroke-linecap="round" transform="translate(538.3354413040863 477.03269689560034) rotate(0 43.5 20.5)"><path d="M12.1 -1.76 L80.52 1.25 L85.35 6.29 L86.14 34.58 L82.8 39.81 L77.85 40.07 L7.67 40.6 L2.62 36.45 L-0.34 8.27 L0.81 2.16 L10.02 -1.02" stroke="none" stroke-width="0" fill="#d0bfff"></path><path d="M10.25 0 M10.25 0 C33.79 2.28, 54.15 -1.48, 76.75 0 M10.25 0 C32.68 0.91, 54.35 -0.34, 76.75 0 M76.75 0 C83.12 -0.45, 88.24 3.06, 87 10.25 M76.75 0 C81.99 -0.12, 86.59 4.18, 87 10.25 M87 10.25 C85.17 18.09, 89.02 23.79, 87 30.75 M87 10.25 C87.68 17.97, 86.12 25.56, 87 30.75 M87 30.75 C88.13 39.39, 83.29 42.45, 76.75 41 M87 30.75 C85.4 39.67, 82.53 41.34, 76.75 41 M76.75 41 C60.2 43.33, 45.41 42.46, 10.25 41 M76.75 41 C52.35 41.71, 27.68 41.57, 10.25 41 M10.25 41 C2.32 40.02, 0.23 36.01, 0 30.75 M10.25 41 C2.14 42.03, -1.5 38.2, 0 30.75 M0 30.75 C1.09 22.2, 1.5 13.32, 0 10.25 M0 30.75 C-0.83 27.07, 0.38 22.51, 0 10.25 M0 10.25 C0.6 2.35, 3.85 -1.49, 10.25 0 M0 10.25 C-0.71 3.2, 2.39 -0.77, 10.25 0" stroke="#1e1e1e" stroke-width="1" fill="none"></path></g><g transform="translate(559.9454648026215 485.03269689560034) rotate(0 21.889976501464844 12.5)"><text x="21.889976501464844" y="0" font-family="Virgil, Segoe UI Emoji" font-size="20px" fill="#1e1e1e" text-anchor="middle" style="white-space: pre;" direction="ltr" dominant-baseline="text-before-edge">Pyth</text></g><g stroke-linecap="round"><g transform="translate(473.584048314775 496.10862248156127) rotate(0 27.96900158420891 0.3322165061196074)"><path d="M0.07 -0.55 C9.28 -0.49, 45.77 0.4, 54.94 0.69 M-1.36 1.77 C8.28 1.46, 48.06 -0.73, 57.29 -1.11" stroke="#1971c2" stroke-width="1" fill="none"></path></g><g transform="translate(473.584048314775 496.10862248156127) rotate(0 27.96900158420891 0.3322165061196074)"><path d="M56.31 -1.13 L42.95 4.24 L45.27 -8.38 L59.04 -1.02" stroke="none" stroke-width="0" fill="#1971c2" fill-rule="evenodd"></path><path d="M56.6 -1.96 C54.48 0.13, 51.56 3.27, 42.88 5.55 M56.81 -0.99 C53.72 1.39, 48.61 3.64, 43.87 5.17 M44.95 4.97 C44.5 2.77, 42.63 -1.22, 42.27 -7.53 M44 6.24 C43.95 2.47, 44.18 -2.59, 43.57 -7.3 M42.76 -6.16 C47.72 -3.15, 54.07 -2.53, 56.91 -2.3 M43.59 -7.25 C47.3 -5.37, 50.98 -3.67, 57.98 -1.42 M57.29 -1.11 C57.29 -1.11, 57.29 -1.11, 57.29 -1.11 M57.29 -1.11 C57.29 -1.11, 57.29 -1.11, 57.29 -1.11" stroke="#1971c2" stroke-width="1" fill="none"></path></g></g><mask></mask><g stroke-linecap="round" transform="translate(10 52.69488527916502) rotate(0 138.36356553588968 149.01825467281634)"><path d="M32 0 M32 0 C107.23 0.41, 184.32 0.92, 244.73 0 M32 0 C108.45 1.99, 187.13 1, 244.73 0 M244.73 0 C264.47 0.39, 274.81 11.45, 276.73 32 M244.73 0 C267.8 -0.84, 276.34 12.87, 276.73 32 M276.73 32 C275.56 114.14, 274.65 200.83, 276.73 266.04 M276.73 32 C274.87 120.14, 274.09 207.7, 276.73 266.04 M276.73 266.04 C276.52 285.71, 266.37 297.89, 244.73 298.04 M276.73 266.04 C278.07 287.76, 267.92 299.01, 244.73 298.04 M244.73 298.04 C176.1 298.74, 105.29 299.82, 32 298.04 M244.73 298.04 C171.3 297.06, 97.01 297.45, 32 298.04 M32 298.04 C11.89 299.55, 1.86 287.76, 0 266.04 M32 298.04 C10.01 298.28, 0.94 285.82, 0 266.04 M0 266.04 C-2.75 189.45, -1.82 113.64, 0 32 M0 266.04 C-0.91 208.36, -0.48 151.41, 0 32 M0 32 C-1.52 8.76, 9.61 1.2, 32 0 M0 32 C-0.7 11.62, 10.26 -1.12, 32 0" stroke="#1e1e1e" stroke-width="1" fill="none"></path></g><g transform="translate(26.830140580328987 66.18936839763083) rotate(0 25.839988708496094 10)"><text x="0" y="0" font-family="Virgil, Segoe UI Emoji" font-size="16px" fill="#1e1e1e" text-anchor="start" style="white-space: pre;" direction="ltr" dominant-baseline="text-before-edge">Legend</text></g></svg>
