<svg width="142" height="219" viewBox="0 0 142 219" fill="none" xmlns="http://www.w3.org/2000/svg">
<path d="M80.4977 84.5341C85.0782 84.5361 89.5563 83.1775 93.3646 80.6305C97.1729 78.0835 100.14 74.4626 101.89 70.2267C103.64 65.9907 104.095 61.3302 103.196 56.8357C102.297 52.3411 100.085 48.2147 96.8402 44.9791C93.5956 41.7436 89.4644 39.5445 84.9699 38.6605C80.4753 37.7765 75.8197 38.2474 71.5928 40.0134C67.3658 41.7794 63.7578 44.7612 61.2258 48.5809C58.6938 52.4007 57.3517 56.8865 57.3696 61.4702C57.3987 67.5921 59.8473 73.4536 64.1806 77.775C68.514 82.0963 74.38 84.5262 80.4977 84.5341ZM80.4977 46.2581C83.4854 46.2562 86.4068 47.1399 88.893 48.7979C91.3793 50.4559 93.319 52.8138 94.4674 55.5739C95.6157 58.3341 95.9212 61.3728 95.3454 64.3066C94.7695 67.2403 93.3381 69.9376 91.2317 72.058C89.1254 74.1784 86.4385 75.6268 83.5102 76.2205C80.582 76.8143 77.5436 76.5266 74.7786 75.3939C72.0136 74.2612 69.6459 72.3342 67.9743 69.8561C66.3026 67.378 65.4021 64.46 65.3862 61.4702C65.3823 59.4809 65.7701 57.5103 66.5275 55.671C67.2849 53.8317 68.397 52.1599 69.8004 50.7509C71.2038 49.3419 72.8708 48.2234 74.7063 47.4594C76.5418 46.6954 78.5097 46.3008 80.4977 46.2982V46.2581Z" fill="#8246FA"/>
<path d="M80.4976 103.707C88.8576 103.707 97.0297 101.226 103.98 96.5772C110.93 91.9284 116.347 85.3211 119.544 77.5912C122.74 69.8613 123.574 61.3562 121.94 53.152C120.305 44.9477 116.276 37.413 110.361 31.501C104.446 25.589 96.9115 21.5655 88.711 19.9395C80.5105 18.3135 72.0122 19.1581 64.2915 22.3664C56.5708 25.5747 49.9745 31.0026 45.3371 37.9632C40.6998 44.9239 38.2299 53.1046 38.2398 61.4704V176.288C38.2398 177.352 38.6621 178.372 39.4138 179.125C40.1655 179.877 41.185 180.3 42.2481 180.3C43.3112 180.3 44.3307 179.877 45.0824 179.125C45.8341 178.372 46.2564 177.352 46.2564 176.288V86.1587C50.1678 91.5878 55.3117 96.0097 61.2646 99.0606C67.2175 102.111 73.8094 103.704 80.4976 103.707V103.707ZM80.4976 27.1653C87.2682 27.1653 93.8868 29.1739 99.5169 32.9372C105.147 36.7005 109.536 42.0497 112.129 48.3084C114.721 54.5672 115.402 61.4546 114.084 68.1002C112.766 74.7459 109.509 80.8514 104.724 85.6451C99.9392 90.4387 93.8418 93.7052 87.2023 95.0319C80.5628 96.3585 73.6793 95.6857 67.4218 93.0984C61.1644 90.5111 55.8139 86.1255 52.0466 80.496C48.2793 74.8664 46.2644 68.2456 46.2564 61.4704C46.2538 52.3782 49.8592 43.6572 56.2801 37.2243C62.701 30.7914 71.4118 27.1733 80.4976 27.1653V27.1653Z" fill="#8246FA"/>
<path d="M80.4975 0C64.2162 0.018598 48.6077 6.50246 37.0998 18.0278C25.5918 29.5531 19.1252 45.1776 19.1199 61.4703V214.514C19.1199 215.578 19.5422 216.598 20.2939 217.35C21.0456 218.103 22.0651 218.525 23.1282 218.525C24.1913 218.525 25.2108 218.103 25.9625 217.35C26.7142 216.598 27.1365 215.578 27.1365 214.514V61.4703C27.1365 50.9091 30.2661 40.5852 36.1295 31.804C41.9929 23.0227 50.3267 16.1786 60.0771 12.137C69.8276 8.09545 80.5567 7.03801 90.9077 9.09838C101.259 11.1588 110.767 16.2444 118.229 23.7122C125.692 31.1801 130.774 40.6947 132.833 51.0528C134.892 61.411 133.835 72.1475 129.797 81.9047C125.758 91.6619 118.918 100.002 110.143 105.869C101.368 111.736 91.0513 114.868 80.4975 114.868C79.4344 114.868 78.4149 115.291 77.6632 116.043C76.9115 116.795 76.4891 117.815 76.4891 118.879C76.4891 119.943 76.9115 120.963 77.6632 121.716C78.4149 122.468 79.4344 122.89 80.4975 122.89C96.7758 122.89 112.387 116.419 123.898 104.901C135.409 93.3823 141.875 77.7599 141.875 61.4703C141.875 45.1806 135.409 29.5582 123.898 18.0397C112.387 6.52115 96.7758 0.0501266 80.4975 0.0501266V0Z" fill="#8246FA"/>
<path d="M4.00833 76.512C2.94526 76.512 1.92575 76.9346 1.17404 77.6868C0.422333 78.439 0 79.4593 0 80.5231V157.065C0 158.129 0.422333 159.149 1.17404 159.901C1.92575 160.654 2.94526 161.076 4.00833 161.076C5.07141 161.076 6.09095 160.654 6.84266 159.901C7.59437 159.149 8.01667 158.129 8.01667 157.065V80.5231C8.01667 79.4593 7.59437 78.439 6.84266 77.6868C6.09095 76.9346 5.07141 76.512 4.00833 76.512Z" fill="#8246FA"/>
<path d="M61.3777 153.094C60.3146 153.094 59.2951 153.517 58.5434 154.269C57.7917 155.021 57.3694 156.041 57.3694 157.105V195.381C57.3694 196.445 57.7917 197.465 58.5434 198.217C59.2951 198.97 60.3146 199.392 61.3777 199.392C62.4408 199.392 63.4603 198.97 64.212 198.217C64.9638 197.465 65.3861 196.445 65.3861 195.381V157.105C65.3861 156.041 64.9638 155.021 64.212 154.269C63.4603 153.517 62.4408 153.094 61.3777 153.094Z" fill="#8246FA"/>
</svg>
